<svg width="97" height="85" viewBox="0 0 97 85" fill="none" xmlns="http://www.w3.org/2000/svg">
<path d="M90.1431 63.608C99.4336 50.5731 98.0134 32.7145 85.3238 21.0814C79.5258 15.7664 72.1343 12.4576 64.1498 11.5335C64.1 11.4723 64.0491 11.4116 63.9934 11.3536C57.0473 4.13825 47.068 0 36.6144 0C16.7214 0 0 14.8219 0 33.8C0 40.4539 2.06687 46.8325 5.99312 52.3414L0.508314 69.5617C0.163554 70.6441 0.502681 71.8272 1.36815 72.5628C2.23512 73.2996 3.45812 73.4412 4.46855 72.9273L21.1483 64.4459C24.5737 65.9209 28.2061 66.8887 31.9677 67.329C39.2238 74.9596 49.2569 78.8667 59.5218 78.8667C64.8577 78.8667 70.1742 77.7792 74.9872 75.7124L91.6677 84.1941C92.0716 84.3995 92.5089 84.5 92.9436 84.5C94.8445 84.5 96.2072 82.6476 95.6279 80.8284L90.1431 63.608ZM22.2851 58.7784C21.4962 58.4038 20.5786 58.4162 19.8002 58.812L7.92009 64.8528L11.7996 52.6724C12.082 51.7855 11.9083 50.8166 11.3352 50.0833C7.60481 45.3081 5.63296 39.6776 5.63296 33.8C5.63296 18.2689 19.5311 5.63333 36.6144 5.63333C43.4938 5.63333 50.1166 7.71748 55.4887 11.4706C37.3967 13.2898 22.9074 27.4208 22.9074 45.0667C22.9074 50.555 24.3142 55.8387 26.9666 60.5726C25.3607 60.0943 23.7967 59.4963 22.2851 58.7784ZM76.336 70.0785C75.5689 69.6885 74.6505 69.665 73.8511 70.0451C69.4599 72.1309 64.5051 73.2333 59.5218 73.2333C42.4385 73.2333 28.5403 60.5978 28.5403 45.0667C28.5403 29.5356 42.4385 16.9 59.5218 16.9C76.6051 16.9 90.5033 29.5356 90.5033 45.0667C90.5033 50.9443 88.5314 56.5748 84.8008 61.3498C84.2279 62.0831 84.0542 63.052 84.3364 63.9389L88.2159 76.1193L76.336 70.0785Z" fill="white"/>
<path d="M48.0681 47.8833C49.6237 47.8833 50.8848 46.6223 50.8848 45.0667C50.8848 43.5111 49.6237 42.25 48.0681 42.25C46.5125 42.25 45.2514 43.5111 45.2514 45.0667C45.2514 46.6223 46.5125 47.8833 48.0681 47.8833Z" fill="white"/>
<path d="M59.3342 47.8833C60.8898 47.8833 62.1509 46.6223 62.1509 45.0667C62.1509 43.5111 60.8898 42.25 59.3342 42.25C57.7786 42.25 56.5175 43.5111 56.5175 45.0667C56.5175 46.6223 57.7786 47.8833 59.3342 47.8833Z" fill="white"/>
<path d="M70.6001 47.8833C72.1557 47.8833 73.4168 46.6223 73.4168 45.0667C73.4168 43.5111 72.1557 42.25 70.6001 42.25C69.0445 42.25 67.7835 43.5111 67.7835 45.0667C67.7835 46.6223 69.0445 47.8833 70.6001 47.8833Z" fill="white"/>
</svg>
