<svg width="87" height="82" viewBox="0 0 87 82" fill="none" xmlns="http://www.w3.org/2000/svg">
<path d="M80.1588 41.6296C79.6762 41.1416 78.8696 41.119 78.3573 41.5783C77.8449 42.0378 77.8208 42.8058 78.3036 43.2936C82.2678 47.3007 84.4512 52.5408 84.4512 58.0485C84.4512 69.9173 74.3099 79.5732 61.8448 79.5732C49.3805 79.5732 39.2401 69.9173 39.2401 58.0485C39.2401 46.1806 49.3805 36.5254 61.8448 36.5254C66.4468 36.5254 70.8739 37.8338 74.6475 40.309C75.2271 40.6891 76.0208 40.5501 76.42 39.9982C76.8195 39.4464 76.6732 38.6908 76.0936 38.3106C71.8928 35.5551 66.9655 34.0985 61.8449 34.0985C59.7704 34.0985 57.7544 34.3405 55.8246 34.7936C54.8907 33.8631 53.5964 33.3271 52.2138 33.3271H51.7132C52.1229 32.6367 52.358 31.8404 52.358 30.9924V26.527C52.358 23.9014 50.1147 21.7655 47.3572 21.7655H41.9359L31.8203 5.08412C30.631 3.12402 28.5024 1.9541 26.1253 1.9541C26.125 1.9541 26.1243 1.9541 26.124 1.9541C23.7485 1.95459 21.6212 3.12418 20.434 5.08266L10.3168 21.7655H7.05006C4.29257 21.7655 2.04926 23.9014 2.04926 26.527V30.9924C2.04926 33.618 4.29257 35.754 7.05006 35.754H7.55048C7.1408 36.4443 6.90562 37.2407 6.90562 38.0886V42.5541C6.90562 43.402 7.1408 44.1983 7.55048 44.8887H5.0008C2.24331 44.8887 0 47.024 0 49.6486V54.114C0 56.444 1.76702 58.387 4.09189 58.7953C3.65196 59.504 3.39844 60.3293 3.39844 61.2104V65.6758C3.39844 66.6341 3.69835 67.5266 4.21202 68.2744C2.25707 68.9218 0.849609 70.6928 0.849609 72.772V77.2374C0.849609 79.863 3.09292 81.999 5.85041 81.999H46.1576C48.0505 81.999 49.7326 80.9781 50.5788 79.459C53.9699 81.0835 57.7969 82.0001 61.8448 82.0001C75.7155 82.0001 87 71.2555 87 58.0485C87 51.9197 84.5705 46.0887 80.1588 41.6296ZM5.94727 65.6758V61.2104C5.94727 59.923 7.04717 58.8757 8.39924 58.8757H36.7079C36.8243 62.125 37.6231 65.212 38.9728 68.0105H8.39924C7.04717 68.0105 5.94727 66.9632 5.94727 65.6758ZM52.5822 35.7815C47.7581 37.6071 43.664 40.8153 40.8395 44.8889H34.8119V35.7541H47.3572H52.2136C52.3383 35.7541 52.4612 35.764 52.5822 35.7815ZM49.8092 26.5271V30.9926C49.8092 32.28 48.7093 33.3272 47.3572 33.3272H34.8119V32.2347H36.8968C39.2739 32.2347 41.4023 31.0643 42.5907 29.1037C43.5163 27.577 43.7173 25.8204 43.2009 24.1923H47.3572C48.7093 24.1925 49.8092 25.2398 49.8092 26.5271ZM4.59809 30.9926V26.5271C4.59809 25.2398 5.69799 24.1925 7.05006 24.1925H9.05072C8.73042 25.209 8.68607 26.2871 8.93347 27.3322C9.0881 27.986 9.77034 28.3967 10.4568 28.2493C11.1435 28.1019 11.5747 27.4524 11.4199 26.7988C11.2648 26.1431 11.2169 25.1353 11.8699 24.0579L22.6414 6.29626C23.3682 5.09739 24.6703 4.38146 26.1246 4.38113H26.1253C27.581 4.38113 28.885 5.09771 29.6131 6.29804L40.383 24.0581C41.1107 25.2576 41.1109 26.6904 40.3833 27.8906C39.6555 29.0911 38.3522 29.8078 36.8968 29.8078H33.5375C32.8337 29.8078 32.2631 30.3511 32.2631 31.0212V49.7389C32.2631 50.8209 31.3385 51.7014 30.2019 51.7014H22.0525C20.916 51.7014 19.9913 50.8211 19.9913 49.7389V31.0212C19.9913 30.3511 19.4207 29.8078 18.7169 29.8078H15.3558C14.8717 29.8078 14.4048 29.7311 13.9681 29.58C13.3062 29.3507 12.5754 29.6758 12.335 30.3056C12.0944 30.9355 12.4356 31.6317 13.0971 31.8606C13.8138 32.1088 14.5737 32.2347 15.3558 32.2347H17.4425V33.3272H11.9064H7.05006C5.69799 33.3272 4.59809 32.28 4.59809 30.9926ZM9.45445 42.5542V38.0888C9.45445 36.8014 10.5544 35.7541 11.9064 35.7541H17.4425V44.8889H11.9064C10.5544 44.8889 9.45445 43.8416 9.45445 42.5542ZM2.54883 54.1142V49.6488C2.54883 48.3624 3.64873 47.3157 5.0008 47.3157H11.9064H17.4425V49.7389C17.4425 52.1591 19.5104 54.1283 22.0525 54.1283H30.2019C32.7438 54.1283 34.8119 52.1593 34.8119 49.7389V47.3157H39.3629C37.8931 50.0958 36.976 53.1837 36.7487 56.4489H8.39924H5.0008C3.64873 56.4489 2.54883 55.4016 2.54883 54.1142ZM46.1576 79.5721H5.85041C4.49834 79.5721 3.39844 78.5248 3.39844 77.2374V72.772C3.39844 71.4846 4.49834 70.4373 5.85041 70.4373H8.39924H40.3245C42.3365 73.5945 45.093 76.2756 48.3599 78.259C47.9589 79.0404 47.1141 79.5721 46.1576 79.5721Z" fill="#14426D"/>
<path d="M64.361 56.7892C63.91 56.6642 63.448 56.5328 62.9877 56.3956V51.0188C64.3559 51.2113 65.1732 51.76 65.2349 51.8027C65.795 52.2012 66.5889 52.0955 67.0125 51.5645C67.4381 51.0308 67.3289 50.2695 66.7685 49.8642C66.6864 49.8049 65.2781 48.8113 62.9877 48.5769V47.5286C62.9877 46.8585 62.4173 46.3152 61.7133 46.3152C61.0093 46.3152 60.4389 46.8585 60.4389 47.5286V48.6547C60.193 48.6942 59.9419 48.7435 59.6851 48.8042C57.5366 49.3117 55.9325 50.8725 55.5985 52.7805C55.3167 54.39 56.0063 55.9216 57.3981 56.7776C58.1636 57.2484 59.121 57.6802 60.4389 58.1383V64.9489C59.1159 64.8958 58.2413 64.6837 56.802 63.9453C56.1822 63.6274 55.4092 63.848 55.0756 64.4381C54.7417 65.028 54.9733 65.764 55.593 66.0819C57.4957 67.0578 58.7274 67.3198 60.439 67.3772V68.5688C60.439 69.2389 61.0095 69.7822 61.7135 69.7822C62.4174 69.7822 62.9879 69.2389 62.9879 68.5688V67.2984C66.3452 66.821 68.391 64.5513 68.7197 62.3134C69.0894 59.794 67.3785 57.6257 64.361 56.7892ZM58.7811 54.7389C58.0139 54.2671 58.0581 53.4911 58.1126 53.1794C58.2454 52.4212 58.8894 51.4924 60.2987 51.1595C60.3459 51.1484 60.3921 51.1392 60.4387 51.129V55.5345C59.8068 55.2843 59.2372 55.0194 58.7811 54.7389ZM66.1951 61.9774C66.016 63.1965 64.8801 64.4305 62.9875 64.8293V58.9333C63.2016 58.9945 63.4205 59.0564 63.6484 59.1195C65.4599 59.6216 66.388 60.6632 66.1951 61.9774Z" fill="#14426D"/>
<path d="M61.8456 41.4817C52.2515 41.4817 44.4463 48.9136 44.4463 58.0486C44.4463 67.1837 52.2515 74.6154 61.8456 74.6154C71.4397 74.6154 79.2449 67.1836 79.2449 58.0485C79.2449 48.9134 71.4397 41.4817 61.8456 41.4817ZM61.8456 72.1886C53.6571 72.1886 46.9951 65.8454 46.9951 58.0485C46.9951 50.2516 53.6571 43.9084 61.8456 43.9084C70.0341 43.9084 76.6961 50.2516 76.6961 58.0485C76.6961 65.8454 70.0341 72.1886 61.8456 72.1886Z" fill="#14426D"/>
<path d="M62.1075 26.2253L62.2048 26.5717C62.205 26.5717 62.205 26.5719 62.205 26.5719C62.656 28.1743 64.1936 29.2539 65.8801 29.2539C66.12 29.2539 66.3632 29.2321 66.6063 29.1866L70.6158 28.4393C71.6457 28.2474 72.5549 27.651 73.1104 26.8034C73.6659 25.9558 73.8287 24.9161 73.557 23.9512L73.3148 23.0903C73.0431 22.1252 72.3561 21.3024 71.4301 20.8328C70.5036 20.3632 69.4034 20.2798 68.4107 20.6037L64.5462 21.8652C62.6636 22.48 61.5924 24.3952 62.1075 26.2253ZM65.373 24.1612L69.2376 22.8997C69.5691 22.7913 69.9225 22.8182 70.2321 22.9751C70.5417 23.1321 70.7623 23.3963 70.853 23.7187L71.0951 24.5796C71.1859 24.902 71.1337 25.2357 70.948 25.5191C70.7623 25.8026 70.4705 25.9938 70.1264 26.058L66.1169 26.8054C65.4714 26.9253 64.8368 26.547 64.6672 25.9441L64.5696 25.5976C64.3999 24.9944 64.7526 24.3636 65.373 24.1612Z" fill="#14426D"/>
<path d="M56.3609 16.7491C57.0976 17.4507 58.0726 17.8051 59.05 17.8051C59.9396 17.8051 60.8308 17.5113 61.5457 16.9182L64.6255 14.3622C65.4165 13.7058 65.8908 12.7566 65.9268 11.758C65.9628 10.7594 65.5577 9.78158 64.8158 9.0752L64.154 8.44502C63.4121 7.73864 62.3856 7.35196 61.3362 7.38723C60.2876 7.42137 59.2906 7.87309 58.6013 8.62623L55.9167 11.5587C54.6093 12.9872 54.6873 15.1556 56.0944 16.4956L56.3609 16.7491ZM57.8383 13.1533L60.5229 10.2208C60.7532 9.9691 61.0731 9.82413 61.4238 9.81281C61.4386 9.81232 61.4536 9.812 61.4684 9.812C61.8023 9.812 62.1146 9.93512 62.352 10.1611L63.0138 10.7913C63.2617 11.0274 63.3917 11.3413 63.3796 11.675C63.3678 12.0088 63.2153 12.3135 62.9511 12.5328L59.8711 15.0888C59.3773 15.4988 58.6269 15.4744 58.1632 15.033L57.8971 14.7796C57.4334 14.3381 57.4077 13.6238 57.8383 13.1533Z" fill="#14426D"/>
<path d="M45.7779 10.9314L46.1416 11.0241C46.4671 11.1071 46.7953 11.1469 47.1188 11.1469C48.7059 11.1469 50.1845 10.191 50.7206 8.70205L52.0455 5.02243C52.3859 4.07724 52.298 3.02948 51.8049 2.14756C51.3116 1.26579 50.4474 0.611669 49.434 0.353127L48.5302 0.122574C47.5164 -0.136131 46.4247 0.0188655 45.5343 0.547924C44.644 1.07682 44.0179 1.94257 43.8164 2.92302L43.0315 6.74065C42.6493 8.59996 43.8558 10.4408 45.7779 10.9314ZM45.5329 7.20661L46.3178 3.38914C46.3851 3.06152 46.5861 2.78356 46.8836 2.60688C47.0857 2.48683 47.3122 2.42535 47.5431 2.42535C47.652 2.42535 47.7618 2.4391 47.8705 2.46677L48.7743 2.69732C49.1132 2.78372 49.3905 2.99372 49.5553 3.28835C49.7203 3.58313 49.7485 3.9195 49.6346 4.23547L48.3098 7.9151C48.0972 8.50547 47.4348 8.84119 46.8014 8.68005C46.8014 8.68005 46.8014 8.68005 46.8012 8.68005L46.4376 8.58734C45.8043 8.42555 45.407 7.81916 45.5329 7.20661Z" fill="#14426D"/>
</svg>
