<svg width="59" height="62" viewBox="0 0 59 62" fill="none" xmlns="http://www.w3.org/2000/svg">
<path d="M27.8568 11.0103V15.1403C27.8568 16.7363 26.9986 18.1917 25.6527 18.8795L20.466 21.5322C18.6083 22.4831 16.4332 21.1632 16.2437 18.971L16.0433 16.6383C15.9503 15.5571 16.1604 14.5119 16.6034 13.6062C17.2746 12.2373 17.1913 10.5883 16.3934 9.2994C15.272 7.48532 14.7928 5.22612 15.1935 2.94497C15.4896 1.2629 16.8639 0.0444336 18.4652 0.0444336H18.4657C20.3476 0.0444336 22.1525 0.843703 23.4831 2.26643L25.1638 4.06358C26.8874 5.90598 27.8568 8.4052 27.8568 11.0103Z" fill="url(#paint0_linear_1_270)"/>
<path d="M27.4275 8.04541H15.75C15.9319 8.48225 16.1474 8.90109 16.3933 9.29952C17.1916 10.5884 17.2747 12.2374 16.6033 13.6055C16.1609 14.5116 15.9498 15.5569 16.043 16.6382L16.244 18.9712C16.4337 21.1626 18.6085 22.4827 20.4655 21.5322L25.6525 18.8788C26.9986 18.1911 27.8564 16.7366 27.8564 15.1404V11.0097C27.8564 9.99438 27.7093 8.99589 27.4275 8.04541Z" fill="url(#paint1_linear_1_270)"/>
<path d="M27.2461 13.3489C27.2461 9.65874 24.1927 6.66724 20.4262 6.66724C18.6846 6.66724 17.0964 7.30773 15.8911 8.36022C16.0408 8.68377 16.2074 8.99808 16.3934 9.29918C17.1912 10.5881 17.2745 12.237 16.6035 13.606C16.1605 14.5117 15.9505 15.5569 16.0434 16.6381L16.2119 18.6002C17.3721 19.4953 18.8349 20.0308 20.4262 20.0308C24.1928 20.0306 27.2461 17.0391 27.2461 13.3489Z" fill="url(#paint2_linear_1_270)"/>
<path d="M23.2474 16.8192C26.1721 16.8192 28.5431 15.3436 28.5431 13.5233C28.5431 11.703 26.1721 10.2273 23.2474 10.2273C20.3226 10.2273 17.9517 11.703 17.9517 13.5233C17.9517 15.3436 20.3226 16.8192 23.2474 16.8192Z" fill="url(#paint3_linear_1_270)"/>
<path d="M42.643 13.6062C43.0871 14.5119 43.2972 15.5571 43.203 16.6383L43.0026 18.971C42.8143 21.1632 40.6391 22.483 38.7803 21.5322L33.5948 18.8795C32.2477 18.1918 31.3906 16.7363 31.3906 15.1403V11.0098C31.3906 8.40448 32.3589 5.90574 34.0824 4.06346L35.7647 2.26559C37.0951 0.843343 38.8996 0.0444336 40.7811 0.0444336C42.3824 0.0444336 43.7567 1.2629 44.0528 2.94485C44.4547 5.226 43.9743 7.4852 42.8529 9.29928C42.0563 10.5883 41.9732 12.2373 42.643 13.6062Z" fill="url(#paint4_linear_1_270)"/>
<path d="M42.8537 9.29952C43.0996 8.90109 43.3152 8.48225 43.497 8.04541H31.8195C31.5377 8.99589 31.3906 9.99438 31.3906 11.0097V15.1404C31.3906 16.7366 32.2484 18.1911 33.5945 18.8788L38.7804 21.5322C40.6397 22.4827 42.8144 21.1626 43.003 18.9712L43.2029 16.6382C43.2972 15.5569 43.0872 14.5116 42.6426 13.6055C41.9735 12.2374 42.0566 10.5884 42.8537 9.29952Z" fill="url(#paint5_linear_1_270)"/>
<path d="M32.0015 13.3489C32.0015 9.65874 35.0548 6.66724 38.8214 6.66724C40.563 6.66724 42.1512 7.30773 43.3564 8.36022C43.2068 8.68377 43.0403 8.99808 42.8541 9.29918C42.0563 10.5881 41.973 12.237 42.6441 13.606C43.0871 14.5117 43.297 15.5569 43.2042 16.6381L43.0357 18.6002C41.8754 19.4953 40.4126 20.0308 38.8214 20.0308C35.0547 20.0306 32.0015 17.0391 32.0015 13.3489Z" fill="url(#paint6_linear_1_270)"/>
<path d="M35.9998 16.8195C38.9245 16.8195 41.2955 15.3438 41.2955 13.5235C41.2955 11.7032 38.9245 10.2275 35.9998 10.2275C33.0751 10.2275 30.7041 11.7032 30.7041 13.5235C30.7041 15.3438 33.0751 16.8195 35.9998 16.8195Z" fill="url(#paint7_linear_1_270)"/>
<path d="M33.8679 13.4588C33.9013 15.9639 32.0282 18.0236 29.6841 18.0594C27.3401 18.0951 25.4128 16.0932 25.3793 13.5881C25.3459 11.083 27.2191 9.02329 29.5631 8.98753C31.9071 8.95189 33.8345 10.9537 33.8679 13.4588Z" fill="url(#paint8_linear_1_270)"/>
<path d="M52.8875 60.6101H6.35924C4.85804 60.6101 3.64111 59.3093 3.64111 57.7046V27.414C3.64111 25.8093 4.85804 24.5085 6.35924 24.5085H52.8875C54.3887 24.5085 55.6056 25.8093 55.6056 27.414V57.7045C55.6056 59.3093 54.3887 60.6101 52.8875 60.6101Z" fill="url(#paint9_linear_1_270)"/>
<path d="M52.8875 24.5085H6.35924C4.85804 24.5085 3.64111 25.8093 3.64111 27.414V30.4633C3.64111 30.4633 18.935 47.6722 30.917 60.61H52.8875C54.3887 60.61 55.6056 59.3092 55.6056 57.7045V27.4139C55.6056 25.8093 54.3887 24.5085 52.8875 24.5085Z" fill="url(#paint10_linear_1_270)"/>
<path d="M29.623 24.5085H46.8757V60.61H29.623V24.5085Z" fill="url(#paint11_linear_1_270)"/>
<path d="M3.64111 46.0088V57.7046C3.64111 59.3093 4.85804 60.6101 6.35924 60.6101H52.8875C54.3887 60.6101 55.6056 59.3093 55.6056 57.7046V46.0088H3.64111Z" fill="url(#paint12_linear_1_270)"/>
<path d="M33.6755 61.25H25.5707C24.7587 61.25 24.1006 60.5465 24.1006 59.6786V26.08C24.1006 25.212 24.7587 24.5085 25.5707 24.5085H33.6755C34.4874 24.5085 35.1456 25.212 35.1456 26.08V59.6786C35.1456 60.5465 34.4874 61.25 33.6755 61.25Z" fill="url(#paint13_linear_1_270)"/>
<path d="M24.1006 26.08V53.1884C26.4076 55.7176 28.7179 58.2357 30.9168 60.61H34.8577C35.0379 60.3492 35.1457 60.0277 35.1457 59.6786V26.08C35.1457 25.212 34.4875 24.5085 33.6756 24.5085H25.5708C24.7587 24.5085 24.1006 25.212 24.1006 26.08Z" fill="url(#paint14_linear_1_270)"/>
<path d="M54.4749 30.6475H4.77164C2.68516 30.6475 0.993652 28.8395 0.993652 26.6092V20.8081C0.993652 18.5779 2.68516 16.7698 4.77164 16.7698H54.4749C56.5614 16.7698 58.2529 18.5779 58.2529 20.8081V26.6092C58.2529 28.8395 56.5614 30.6475 54.4749 30.6475Z" fill="url(#paint15_linear_1_270)"/>
<path d="M54.4749 16.7698H21.0779L16.9058 21.2295L25.7167 30.6475H54.4749C56.5614 30.6475 58.2529 28.8395 58.2529 26.6092V20.8081C58.2529 18.5777 56.5614 16.7698 54.4749 16.7698Z" fill="url(#paint16_linear_1_270)"/>
<path d="M29.623 16.7698H46.8757V30.6475H29.623V16.7698Z" fill="url(#paint17_linear_1_270)"/>
<path d="M52.0968 30.6476H29.623V20.2139H42.3357L52.0968 30.6476Z" fill="url(#paint18_linear_1_270)"/>
<path d="M34.4037 31.371H24.8427C24.4329 31.371 24.1006 31.0159 24.1006 30.5777V16.8389C24.1006 16.4009 24.4328 16.0457 24.8427 16.0457H34.4037C34.8135 16.0457 35.1458 16.4008 35.1458 16.8389V30.5777C35.1457 31.0158 34.8135 31.371 34.4037 31.371Z" fill="url(#paint19_linear_1_270)"/>
<path d="M35.146 16.8389V30.5777C35.146 31.0158 34.8137 31.371 34.4039 31.371H26.3932L24.1006 28.9204V16.8389C24.1006 16.8149 24.1017 16.7921 24.104 16.7693C24.1365 16.3637 24.4554 16.0457 24.8427 16.0457H34.4039C34.7912 16.0457 35.1101 16.3637 35.1426 16.7693C35.1449 16.7921 35.146 16.8149 35.146 16.8389Z" fill="url(#paint20_linear_1_270)"/>
<path d="M29.6232 16.0455L29.5344 15.9824C26.5057 13.8319 22.4786 14.2618 19.9076 17.01L16.9109 20.2132C16.4858 20.6676 16.7869 21.4444 17.3879 21.4444H17.7353C18.883 21.4444 19.8133 22.4388 19.8133 23.6656C19.8133 24.3081 20.54 24.6299 20.9651 24.1755L27.6967 16.9799C28.2118 16.4293 28.8964 16.0972 29.6232 16.0455Z" fill="url(#paint21_linear_1_270)"/>
<path d="M29.623 16.0455L29.7119 15.9824C32.7405 13.8319 36.7677 14.2618 39.3387 17.01L42.3354 20.2132C42.7605 20.6676 42.4595 21.4444 41.8583 21.4444H41.511C40.3633 21.4444 39.433 22.4388 39.433 23.6656C39.433 24.3081 38.7063 24.6299 38.2812 24.1755L31.5495 16.9799C31.0344 16.4293 30.3499 16.0972 29.623 16.0455Z" fill="url(#paint22_linear_1_270)"/>
<defs>
<linearGradient id="paint0_linear_1_270" x1="17.1959" y1="8.28459" x2="27.7668" y2="18.174" gradientUnits="userSpaceOnUse">
<stop stop-color="#FEE45A"/>
<stop offset="1" stop-color="#FEA613"/>
</linearGradient>
<linearGradient id="paint1_linear_1_270" x1="21.4737" y1="11.7762" x2="22.6627" y2="16.7025" gradientUnits="userSpaceOnUse">
<stop stop-color="#FEA613" stop-opacity="0"/>
<stop offset="1" stop-color="#E94444"/>
</linearGradient>
<linearGradient id="paint2_linear_1_270" x1="22.7629" y1="11.2861" x2="31.7901" y2="4.30792" gradientUnits="userSpaceOnUse">
<stop stop-color="#FEA613" stop-opacity="0"/>
<stop offset="1" stop-color="#E94444"/>
</linearGradient>
<linearGradient id="paint3_linear_1_270" x1="23.1681" y1="13.9593" x2="24.7231" y2="6.47164" gradientUnits="userSpaceOnUse">
<stop stop-color="#FEA613" stop-opacity="0"/>
<stop offset="1" stop-color="#E94444"/>
</linearGradient>
<linearGradient id="paint4_linear_1_270" x1="36.8928" y1="8.57658" x2="46.4007" y2="17.4715" gradientUnits="userSpaceOnUse">
<stop stop-color="#FEE45A"/>
<stop offset="1" stop-color="#FEA613"/>
</linearGradient>
<linearGradient id="paint5_linear_1_270" x1="38.1184" y1="11.2101" x2="36.4293" y2="16.2664" gradientUnits="userSpaceOnUse">
<stop stop-color="#FEA613" stop-opacity="0"/>
<stop offset="1" stop-color="#E94444"/>
</linearGradient>
<linearGradient id="paint6_linear_1_270" x1="36.4846" y1="11.2861" x2="27.4574" y2="4.30792" gradientUnits="userSpaceOnUse">
<stop stop-color="#FEA613" stop-opacity="0"/>
<stop offset="1" stop-color="#E94444"/>
</linearGradient>
<linearGradient id="paint7_linear_1_270" x1="36.0791" y1="13.9595" x2="34.5241" y2="6.47188" gradientUnits="userSpaceOnUse">
<stop stop-color="#FEA613" stop-opacity="0"/>
<stop offset="1" stop-color="#E94444"/>
</linearGradient>
<linearGradient id="paint8_linear_1_270" x1="28.2513" y1="11.4405" x2="32.5837" y2="17.1247" gradientUnits="userSpaceOnUse">
<stop stop-color="#FEE45A"/>
<stop offset="1" stop-color="#FEA613"/>
</linearGradient>
<linearGradient id="paint9_linear_1_270" x1="23.6458" y1="29.2623" x2="42.1369" y2="65.2626" gradientUnits="userSpaceOnUse">
<stop stop-color="#D9B1EE"/>
<stop offset="1" stop-color="#814AA0"/>
</linearGradient>
<linearGradient id="paint10_linear_1_270" x1="29.6234" y1="48.8889" x2="29.6234" y2="28.0772" gradientUnits="userSpaceOnUse">
<stop stop-color="#5B3374" stop-opacity="0"/>
<stop offset="1" stop-color="#5B3374"/>
</linearGradient>
<linearGradient id="paint11_linear_1_270" x1="42.3099" y1="42.5592" x2="34.2788" y2="42.5592" gradientUnits="userSpaceOnUse">
<stop stop-color="#5B3374" stop-opacity="0"/>
<stop offset="1" stop-color="#5B3374"/>
</linearGradient>
<linearGradient id="paint12_linear_1_270" x1="29.6234" y1="54.3696" x2="29.6234" y2="59.97" gradientUnits="userSpaceOnUse">
<stop stop-color="#5B3374" stop-opacity="0"/>
<stop offset="1" stop-color="#5B3374"/>
</linearGradient>
<linearGradient id="paint13_linear_1_270" x1="24.1006" y1="42.8793" x2="35.1456" y2="42.8793" gradientUnits="userSpaceOnUse">
<stop stop-color="#FEE45A"/>
<stop offset="1" stop-color="#FEA613"/>
</linearGradient>
<linearGradient id="paint14_linear_1_270" x1="29.6231" y1="40.9282" x2="29.6231" y2="28.9686" gradientUnits="userSpaceOnUse">
<stop stop-color="#FEA613" stop-opacity="0"/>
<stop offset="1" stop-color="#E94444"/>
</linearGradient>
<linearGradient id="paint15_linear_1_270" x1="29.6233" y1="17.3264" x2="29.6233" y2="31.6172" gradientUnits="userSpaceOnUse">
<stop stop-color="#D9B1EE"/>
<stop offset="1" stop-color="#814AA0"/>
</linearGradient>
<linearGradient id="paint16_linear_1_270" x1="38.328" y1="21.6232" x2="29.4752" y2="9.08516" gradientUnits="userSpaceOnUse">
<stop stop-color="#5B3374" stop-opacity="0"/>
<stop offset="1" stop-color="#5B3374"/>
</linearGradient>
<linearGradient id="paint17_linear_1_270" x1="42.3099" y1="23.7087" x2="34.2788" y2="23.7087" gradientUnits="userSpaceOnUse">
<stop stop-color="#5B3374" stop-opacity="0"/>
<stop offset="1" stop-color="#5B3374"/>
</linearGradient>
<linearGradient id="paint18_linear_1_270" x1="41.3912" y1="32.4061" x2="37.4673" y2="21.0381" gradientUnits="userSpaceOnUse">
<stop stop-color="#5B3374" stop-opacity="0"/>
<stop offset="1" stop-color="#5B3374"/>
</linearGradient>
<linearGradient id="paint19_linear_1_270" x1="26.7904" y1="21.4878" x2="33.8342" y2="26.3202" gradientUnits="userSpaceOnUse">
<stop stop-color="#FEE45A"/>
<stop offset="1" stop-color="#FEA613"/>
</linearGradient>
<linearGradient id="paint20_linear_1_270" x1="32.0165" y1="28.2117" x2="26.7651" y2="17.8011" gradientUnits="userSpaceOnUse">
<stop stop-color="#FEA613" stop-opacity="0"/>
<stop offset="1" stop-color="#E94444"/>
</linearGradient>
<linearGradient id="paint21_linear_1_270" x1="21.5616" y1="16.8173" x2="24.5576" y2="19.6201" gradientUnits="userSpaceOnUse">
<stop stop-color="#FEE45A"/>
<stop offset="1" stop-color="#FEA613"/>
</linearGradient>
<linearGradient id="paint22_linear_1_270" x1="37.6847" y1="16.8173" x2="34.6887" y2="19.6201" gradientUnits="userSpaceOnUse">
<stop stop-color="#FEE45A"/>
<stop offset="1" stop-color="#FEA613"/>
</linearGradient>
</defs>
</svg>
