<svg width="320" height="708" viewBox="0 0 320 708" fill="none" xmlns="http://www.w3.org/2000/svg">
<path d="M-21.183 1C-2.32928 6.21353 52.9256 30.0557 37.9953 60.5709C19.3323 98.7148 24.0993 116.498 58.2089 132.376C106.25 154.74 166.306 100.027 211.229 149.007C251.782 193.223 291.785 183.828 316.857 181.552" stroke="white"/>
<path d="M330.793 517C311.939 522.214 256.684 546.056 271.614 576.571C290.277 614.715 285.51 632.498 251.401 648.376C203.36 670.74 143.303 616.027 98.3812 665.007C57.828 709.223 17.8252 699.828 -7.24708 697.552" stroke="white"/>
<path d="M50.6439 118.114L53.7908 126.333L61.9452 129.644L53.7262 132.791L50.4155 140.945L47.2686 132.726L39.1142 129.415L47.3332 126.269L50.6439 118.114Z" fill="white"/>
<path d="M310.644 171.114L313.791 179.333L321.945 182.644L313.726 185.791L310.416 193.945L307.269 185.726L299.114 182.415L307.333 179.269L310.644 171.114Z" fill="white"/>
<path d="M310.644 512.114L313.791 520.333L321.945 523.644L313.726 526.791L310.416 534.945L307.269 526.726L299.114 523.415L307.333 520.269L310.644 512.114Z" fill="white"/>
<path d="M283.644 593.114L286.791 601.333L294.945 604.644L286.726 607.791L283.416 615.945L280.269 607.726L272.114 604.415L280.333 601.269L283.644 593.114Z" fill="white"/>
<path d="M133.644 632.114L136.791 640.333L144.945 643.644L136.726 646.791L133.416 654.945L130.269 646.726L122.114 643.415L130.333 640.269L133.644 632.114Z" fill="white"/>
</svg>
