<svg width="13" height="11" viewBox="0 0 13 11" fill="none" xmlns="http://www.w3.org/2000/svg">
<path d="M11.9687 1.07649C11.2957 0.382319 10.3723 0 9.36842 0C8.618 0 7.93077 0.225637 7.32576 0.670591C7.02048 0.895191 6.74386 1.16997 6.49997 1.4907C6.25618 1.17007 5.97946 0.895191 5.67408 0.670591C5.06917 0.225637 4.38194 0 3.63152 0C2.6276 0 1.70412 0.382319 1.03117 1.07649C0.366249 1.76255 -3.05176e-05 2.69982 -3.05176e-05 3.71575C-3.05176e-05 4.7614 0.409691 5.71856 1.28934 6.72808C2.07625 7.6311 3.20722 8.5478 4.51692 9.60929C4.96413 9.9718 5.47105 10.3827 5.99741 10.8204C6.13647 10.9362 6.3149 11 6.49997 11C6.68494 11 6.86347 10.9362 7.00233 10.8206C7.52869 10.3828 8.0359 9.97171 8.48331 9.60901C9.79282 8.54771 10.9238 7.6311 11.7107 6.72799C12.5903 5.71856 13 4.7614 13 3.71566C13 2.69982 12.6337 1.76255 11.9687 1.07649Z" fill="#F27A4A"/>
</svg>
