<svg width="314" height="304" viewBox="0 0 314 304" fill="none" xmlns="http://www.w3.org/2000/svg">
<path d="M-61.2964 0.560059C-39.4672 6.23272 24.2502 40.6359 5.9201 108.072C-16.9925 192.367 -11.9692 227.986 27.3295 251.633C82.6791 284.937 170.089 154.582 221 244C266.959 324.722 298.164 294.634 327.471 283.056" stroke="#F27A4A"/>
<path d="M113.24 227.317L113.446 232.71L117.528 236.24L112.135 236.446L108.605 240.528L108.399 235.135L104.317 231.605L109.71 231.399L113.24 227.317Z" fill="#F27A4A"/>
<path d="M254.573 227.623L254.895 236.054L261.276 241.573L252.846 241.896L247.326 248.277L247.004 239.846L240.623 234.327L249.054 234.004L254.573 227.623Z" fill="#F27A4A"/>
</svg>
