<svg width="320" height="487" viewBox="0 0 320 487" fill="none" xmlns="http://www.w3.org/2000/svg">
<path d="M-14.0211 172C3.57298 177.745 53.9923 209.937 35.4316 267.508C12.2307 339.471 14.4796 370.447 45.4492 392.4C89.0678 423.319 126.085 358.185 193.705 410.19C247.802 451.793 310.581 444.446 335.209 435.572" stroke="#FFEEE8" stroke-opacity="0.35"/>
<path d="M254 0L255.414 3.58579L259 5L255.414 6.41421L254 10L252.586 6.41421L249 5L252.586 3.58579L254 0Z" fill="#FBDFD4"/>
<path d="M50 179L51.4142 182.586L55 184L51.4142 185.414L50 189L48.5858 185.414L45 184L48.5858 182.586L50 179Z" fill="#FBDFD4"/>
<path d="M265 477L266.414 480.586L270 482L266.414 483.414L265 487L263.586 483.414L260 482L263.586 480.586L265 477Z" fill="#FBDFD4"/>
</svg>
