<svg width="42" height="36" viewBox="0 0 42 36" fill="none" xmlns="http://www.w3.org/2000/svg">
<g clip-path="url(#clip0_2026_18673)">
<path d="M12.2192 13.8001C8.88976 13.8001 3.16249 12.0164 3.05558 10.1746C2.97922 8.72434 7.8054 5.09876 12.9829 5.09876H28.2556L32.8374 1.47318C33.1325 1.19007 33.4937 0.976912 33.8917 0.85094C34.2897 0.724969 34.7133 0.689728 35.1283 0.748067H38.1829L31.3101 12.3499C31.069 12.7407 30.7375 13.0744 30.3406 13.3256C29.9437 13.5769 29.4919 13.7391 29.0192 13.8001H22.9101" stroke="white" stroke-width="2" stroke-linecap="round" stroke-linejoin="round"/>
<path d="M19.8551 15.2491H12.9824C12.7799 15.2491 12.5856 15.1727 12.4424 15.0367C12.2992 14.9008 12.2188 14.7163 12.2188 14.524V11.6236C12.2188 11.4312 12.2992 11.2468 12.4424 11.1108C12.5856 10.9748 12.7799 10.8984 12.9824 10.8984H19.8551C21.6115 10.8984 22.146 11.6236 23.6733 13.0738C21.4435 15.2636 20.9242 15.2491 19.8551 15.2491Z" stroke="white" stroke-width="2" stroke-linecap="round" stroke-linejoin="round"/>
<path d="M30.5449 8.52539H35.1267" stroke="white" stroke-linecap="round" stroke-linejoin="round"/>
<path d="M16.8008 8.00195H19.0917" stroke="white" stroke-linecap="round" stroke-linejoin="round"/>
<path d="M22.9102 8.00195H25.2011" stroke="white" stroke-linecap="round" stroke-linejoin="round"/>
<path d="M21.3808 22.502H36.6535C36.6535 22.502 38.1808 22.502 38.1808 23.9522V32.6536C38.1808 32.6536 38.1808 34.1038 36.6535 34.1038H21.3808C21.3808 34.1038 19.8535 34.1038 19.8535 32.6536V23.9522C19.8535 23.9522 19.8535 22.502 21.3808 22.502Z" stroke="white" stroke-width="2" stroke-linecap="round" stroke-linejoin="round"/>
<path d="M25.2012 22.501L25.9648 21.0508C26.1317 20.6073 26.4447 20.2267 26.8573 19.9654C27.27 19.7042 27.7604 19.5763 28.2557 19.6006H29.783C30.2783 19.5763 30.7687 19.7042 31.1814 19.9654C31.5941 20.2267 31.907 20.6073 32.0739 21.0508L32.8375 22.501" stroke="white" stroke-width="2" stroke-linecap="round" stroke-linejoin="round"/>
<path d="M19.8555 26.8516H38.1827" stroke="white" stroke-width="2" stroke-linecap="round" stroke-linejoin="round"/>
<path d="M29.0195 26.8516V29.0269" stroke="white" stroke-linecap="round" stroke-linejoin="round"/>
<path d="M4.68945 8.00195H10.6916" stroke="white" stroke-linecap="round" stroke-linejoin="round"/>
</g>
<defs>
<clipPath id="clip0_2026_18673">
<path d="M0 4C0 1.79086 1.79086 0 4 0H38C40.2091 0 42 1.79086 42 4V32C42 34.2091 40.2091 36 38 36H4C1.79086 36 0 34.2091 0 32V4Z" fill="white"/>
</clipPath>
</defs>
</svg>
