<svg width="13" height="9" viewBox="0 0 13 9" fill="none" xmlns="http://www.w3.org/2000/svg">
<path d="M5.54535 7.89952L0.749351 2.41752C0.183351 1.77252 0.643351 0.759522 1.50235 0.759522H11.0944C11.2866 0.759357 11.4748 0.814609 11.6365 0.918662C11.7981 1.02272 11.9263 1.17116 12.0058 1.34621C12.0853 1.52127 12.1126 1.71552 12.0845 1.9057C12.0564 2.09588 11.974 2.27393 11.8474 2.41852L7.05135 7.89852C6.95749 8.00593 6.84174 8.09202 6.71186 8.151C6.58198 8.20999 6.44099 8.2405 6.29835 8.2405C6.15571 8.2405 6.01472 8.20999 5.88484 8.151C5.75497 8.09202 5.63921 8.00593 5.54535 7.89852V7.89952Z" fill="black"/>
</svg>
