<svg width="57" height="86" viewBox="0 0 57 86" fill="none" xmlns="http://www.w3.org/2000/svg">
<path d="M28.5 0.5C35.7041 0.5 42.6166 3.0902 47.8135 7.70996L48.3115 8.16406C53.559 13.0665 56.5 19.7078 56.5 26.625C56.5 31.295 54.7586 36.3775 52.1045 41.4014C49.4537 46.4189 45.9135 51.3394 42.3633 55.6748C38.8143 60.0087 35.2633 63.7479 32.5996 66.4043C31.2683 67.732 30.1595 68.7887 29.3838 69.5127C29.0058 69.8655 28.7067 70.1394 28.5 70.3271C28.2933 70.1394 27.9942 69.8655 27.6162 69.5127C26.8405 68.7887 25.7317 67.732 24.4004 66.4043C21.7367 63.7479 18.1857 60.0087 14.6367 55.6748C11.0865 51.3394 7.54633 46.4189 4.89551 41.4014C2.24141 36.3775 0.5 31.295 0.5 26.625L0.508789 25.9775C0.680491 19.51 3.41916 13.3246 8.20312 8.62793L8.68848 8.16406C13.9373 3.26056 21.0634 0.5 28.5 0.5ZM28.5 12.8125C24.5986 12.8125 20.8504 14.2604 18.082 16.8467C15.3128 19.434 13.75 22.9505 13.75 26.625C13.75 30.2995 15.3128 33.816 18.082 36.4033C20.8504 38.9896 24.5986 40.4375 28.5 40.4375C32.2795 40.4375 35.9149 39.0788 38.6553 36.6426L38.918 36.4033C41.6872 33.816 43.25 30.2995 43.25 26.625C43.25 23.0652 41.7833 19.6538 39.1738 17.0918L38.918 16.8467C36.1496 14.2604 32.4014 12.8125 28.5 12.8125Z" fill="white" fill-opacity="0.65" stroke="#067E4E"/>
<g clip-path="url(#clip0_1_37421)">
<path d="M8.5 8H48.5V48H8.5V8Z" fill="#EE1C25"/>
<path d="M24.5 18.5437L14.3 25.1437L18.5 14.3438L22.1 25.1437L12.5 18.5437H24.5Z" fill="#FFFF00"/>
<path d="M26.9823 12.9258L30.6167 14.7059L26.8124 15.3596L29.2785 12.4788L29.041 16.3522L26.9823 12.9258Z" fill="#FFFF00"/>
<path d="M31.6154 16.454L34.2725 19.5101L30.5112 18.6313L33.9062 16.936L32.179 20.4141L31.6154 16.454Z" fill="#FFFF00"/>
<path d="M32.4516 22.2602L33.6298 26.137L30.5535 23.7976L34.3469 23.6363L31.3484 26.1073L32.4516 22.2602Z" fill="#FFFF00"/>
<path d="M29.2815 26.4088L28.8725 30.4358L26.9395 27.0938L30.4975 28.4078L26.7815 29.5288L29.2815 26.4088Z" fill="#FFFF00"/>
</g>
<path d="M15.7504 83.096C15.1104 83.096 14.5184 82.992 13.9744 82.784C13.4384 82.568 12.9704 82.268 12.5704 81.884C12.1784 81.492 11.8704 81.036 11.6464 80.516C11.4224 79.996 11.3104 79.424 11.3104 78.8C11.3104 78.176 11.4224 77.604 11.6464 77.084C11.8704 76.564 12.1824 76.112 12.5824 75.728C12.9824 75.336 13.4504 75.036 13.9864 74.828C14.5304 74.612 15.1224 74.504 15.7624 74.504C16.4104 74.504 17.0064 74.616 17.5504 74.84C18.1024 75.056 18.5704 75.38 18.9544 75.812L18.1744 76.568C17.8544 76.232 17.4944 75.984 17.0944 75.824C16.6944 75.656 16.2664 75.572 15.8104 75.572C15.3384 75.572 14.8984 75.652 14.4904 75.812C14.0904 75.972 13.7424 76.196 13.4464 76.484C13.1504 76.772 12.9184 77.116 12.7504 77.516C12.5904 77.908 12.5104 78.336 12.5104 78.8C12.5104 79.264 12.5904 79.696 12.7504 80.096C12.9184 80.488 13.1504 80.828 13.4464 81.116C13.7424 81.404 14.0904 81.628 14.4904 81.788C14.8984 81.948 15.3384 82.028 15.8104 82.028C16.2664 82.028 16.6944 81.948 17.0944 81.788C17.4944 81.62 17.8544 81.364 18.1744 81.02L18.9544 81.776C18.5704 82.208 18.1024 82.536 17.5504 82.76C17.0064 82.984 16.4064 83.096 15.7504 83.096ZM23.8943 76.58C24.4143 76.58 24.8703 76.68 25.2623 76.88C25.6623 77.08 25.9743 77.384 26.1983 77.792C26.4223 78.2 26.5343 78.716 26.5343 79.34V83H25.3823V79.472C25.3823 78.856 25.2303 78.392 24.9263 78.08C24.6303 77.768 24.2103 77.612 23.6663 77.612C23.2583 77.612 22.9023 77.692 22.5983 77.852C22.2943 78.012 22.0583 78.248 21.8903 78.56C21.7303 78.872 21.6503 79.26 21.6503 79.724V83H20.4983V74.096H21.6503V78.356L21.4223 77.9C21.6303 77.484 21.9503 77.16 22.3823 76.928C22.8143 76.696 23.3183 76.58 23.8943 76.58ZM28.6662 83V76.64H29.8182V83H28.6662ZM29.2422 75.416C29.0182 75.416 28.8302 75.344 28.6782 75.2C28.5342 75.056 28.4622 74.88 28.4622 74.672C28.4622 74.456 28.5342 74.276 28.6782 74.132C28.8302 73.988 29.0182 73.916 29.2422 73.916C29.4662 73.916 29.6502 73.988 29.7942 74.132C29.9462 74.268 30.0222 74.44 30.0222 74.648C30.0222 74.864 29.9502 75.048 29.8062 75.2C29.6622 75.344 29.4742 75.416 29.2422 75.416ZM35.4138 76.58C35.9338 76.58 36.3898 76.68 36.7818 76.88C37.1818 77.08 37.4938 77.384 37.7178 77.792C37.9418 78.2 38.0538 78.716 38.0538 79.34V83H36.9018V79.472C36.9018 78.856 36.7498 78.392 36.4458 78.08C36.1498 77.768 35.7298 77.612 35.1858 77.612C34.7778 77.612 34.4218 77.692 34.1178 77.852C33.8138 78.012 33.5778 78.248 33.4098 78.56C33.2498 78.872 33.1698 79.26 33.1698 79.724V83H32.0178V76.64H33.1218V78.356L32.9418 77.9C33.1498 77.484 33.4698 77.16 33.9018 76.928C34.3338 76.696 34.8378 76.58 35.4138 76.58ZM44.1338 83V81.656L44.0738 81.404V79.112C44.0738 78.624 43.9298 78.248 43.6418 77.984C43.3618 77.712 42.9378 77.576 42.3698 77.576C41.9938 77.576 41.6258 77.64 41.2658 77.768C40.9058 77.888 40.6018 78.052 40.3538 78.26L39.8738 77.396C40.2018 77.132 40.5938 76.932 41.0498 76.796C41.5138 76.652 41.9978 76.58 42.5018 76.58C43.3738 76.58 44.0458 76.792 44.5178 77.216C44.9898 77.64 45.2258 78.288 45.2258 79.16V83H44.1338ZM42.0458 83.072C41.5738 83.072 41.1578 82.992 40.7978 82.832C40.4458 82.672 40.1738 82.452 39.9818 82.172C39.7898 81.884 39.6938 81.56 39.6938 81.2C39.6938 80.856 39.7738 80.544 39.9338 80.264C40.1018 79.984 40.3698 79.76 40.7378 79.592C41.1138 79.424 41.6178 79.34 42.2498 79.34H44.2658V80.168H42.2978C41.7218 80.168 41.3338 80.264 41.1338 80.456C40.9338 80.648 40.8338 80.88 40.8338 81.152C40.8338 81.464 40.9578 81.716 41.2058 81.908C41.4538 82.092 41.7978 82.184 42.2378 82.184C42.6698 82.184 43.0458 82.088 43.3658 81.896C43.6938 81.704 43.9298 81.424 44.0738 81.056L44.3018 81.848C44.1498 82.224 43.8818 82.524 43.4978 82.748C43.1138 82.964 42.6298 83.072 42.0458 83.072Z" fill="black"/>
<defs>
<clipPath id="clip0_1_37421">
<rect x="8.5" y="8" width="40" height="40" rx="20" fill="white"/>
</clipPath>
</defs>
</svg>
