<svg width="57" height="101" viewBox="0 0 57 101" fill="none" xmlns="http://www.w3.org/2000/svg">
<path d="M28.5 0.5C35.7041 0.5 42.6166 3.0902 47.8135 7.70996L48.3115 8.16406C53.559 13.0665 56.5 19.7078 56.5 26.625C56.5 31.295 54.7586 36.3775 52.1045 41.4014C49.4537 46.4189 45.9135 51.3394 42.3633 55.6748C38.8143 60.0087 35.2633 63.7479 32.5996 66.4043C31.2683 67.732 30.1595 68.7887 29.3838 69.5127C29.0058 69.8655 28.7067 70.1394 28.5 70.3271C28.2933 70.1394 27.9942 69.8655 27.6162 69.5127C26.8405 68.7887 25.7317 67.732 24.4004 66.4043C21.7367 63.7479 18.1857 60.0087 14.6367 55.6748C11.0865 51.3394 7.54633 46.4189 4.89551 41.4014C2.24141 36.3775 0.5 31.295 0.5 26.625L0.508789 25.9775C0.680491 19.51 3.41916 13.3246 8.20312 8.62793L8.68848 8.16406C13.9373 3.26056 21.0634 0.5 28.5 0.5ZM28.5 12.8125C24.5986 12.8125 20.8504 14.2604 18.082 16.8467C15.3128 19.434 13.75 22.9505 13.75 26.625C13.75 30.2995 15.3128 33.816 18.082 36.4033C20.8504 38.9896 24.5986 40.4375 28.5 40.4375C32.2795 40.4375 35.9149 39.0788 38.6553 36.6426L38.918 36.4033C41.6872 33.816 43.25 30.2995 43.25 26.625C43.25 23.0652 41.7833 19.6538 39.1738 17.0918L38.918 16.8467C36.1496 14.2604 32.4014 12.8125 28.5 12.8125Z" fill="white" fill-opacity="0.65" stroke="#067E4E"/>
<g clip-path="url(#clip0_2101_25777)">
<path d="M7.5 8H49.5V29H7.5V8Z" fill="white"/>
<path d="M7.5 29H49.5V50H7.5V29Z" fill="#D7141A"/>
<path d="M32.1094 29L7.5 8V50L32.1094 29Z" fill="#11457E"/>
</g>
<path d="M15.0531 83.096C14.4131 83.096 13.8211 82.992 13.2771 82.784C12.7411 82.568 12.2731 82.268 11.8731 81.884C11.4811 81.492 11.1731 81.036 10.9491 80.516C10.7251 79.996 10.6131 79.424 10.6131 78.8C10.6131 78.176 10.7251 77.604 10.9491 77.084C11.1731 76.564 11.4851 76.112 11.8851 75.728C12.2851 75.336 12.7531 75.036 13.2891 74.828C13.8331 74.612 14.4251 74.504 15.0651 74.504C15.7131 74.504 16.3091 74.616 16.8531 74.84C17.4051 75.056 17.8731 75.38 18.2571 75.812L17.4771 76.568C17.1571 76.232 16.7971 75.984 16.3971 75.824C15.9971 75.656 15.5691 75.572 15.1131 75.572C14.6411 75.572 14.2011 75.652 13.7931 75.812C13.3931 75.972 13.0451 76.196 12.7491 76.484C12.4531 76.772 12.2211 77.116 12.0531 77.516C11.8931 77.908 11.8131 78.336 11.8131 78.8C11.8131 79.264 11.8931 79.696 12.0531 80.096C12.2211 80.488 12.4531 80.828 12.7491 81.116C13.0451 81.404 13.3931 81.628 13.7931 81.788C14.2011 81.948 14.6411 82.028 15.1131 82.028C15.5691 82.028 15.9971 81.948 16.3971 81.788C16.7971 81.62 17.1571 81.364 17.4771 81.02L18.2571 81.776C17.8731 82.208 17.4051 82.536 16.8531 82.76C16.3091 82.984 15.7091 83.096 15.0531 83.096ZM18.9898 83V82.256L23.0698 77.192L23.2978 77.588H19.0618V76.64H24.2218V77.396L20.1418 82.448L19.8778 82.052H24.3178V83H18.9898ZM28.5978 83.072C27.9178 83.072 27.3178 82.932 26.7978 82.652C26.2858 82.372 25.8858 81.988 25.5978 81.5C25.3178 81.012 25.1778 80.452 25.1778 79.82C25.1778 79.188 25.3138 78.628 25.5858 78.14C25.8658 77.652 26.2458 77.272 26.7258 77C27.2138 76.72 27.7618 76.58 28.3698 76.58C28.9858 76.58 29.5298 76.716 30.0018 76.988C30.4738 77.26 30.8418 77.644 31.1058 78.14C31.3778 78.628 31.5138 79.2 31.5138 79.856C31.5138 79.904 31.5098 79.96 31.5018 80.024C31.5018 80.088 31.4978 80.148 31.4898 80.204H26.0778V79.376H30.8898L30.4218 79.664C30.4298 79.256 30.3458 78.892 30.1698 78.572C29.9938 78.252 29.7498 78.004 29.4378 77.828C29.1338 77.644 28.7778 77.552 28.3698 77.552C27.9698 77.552 27.6138 77.644 27.3018 77.828C26.9898 78.004 26.7458 78.256 26.5698 78.584C26.3938 78.904 26.3058 79.272 26.3058 79.688V79.88C26.3058 80.304 26.4018 80.684 26.5938 81.02C26.7938 81.348 27.0698 81.604 27.4218 81.788C27.7738 81.972 28.1778 82.064 28.6338 82.064C29.0098 82.064 29.3498 82 29.6538 81.872C29.9658 81.744 30.2378 81.552 30.4698 81.296L31.1058 82.04C30.8178 82.376 30.4578 82.632 30.0258 82.808C29.6018 82.984 29.1258 83.072 28.5978 83.072ZM35.8855 83.072C35.2375 83.072 34.6575 82.932 34.1455 82.652C33.6415 82.372 33.2455 81.988 32.9575 81.5C32.6695 81.012 32.5255 80.452 32.5255 79.82C32.5255 79.188 32.6695 78.628 32.9575 78.14C33.2455 77.652 33.6415 77.272 34.1455 77C34.6575 76.72 35.2375 76.58 35.8855 76.58C36.4615 76.58 36.9735 76.696 37.4215 76.928C37.8775 77.152 38.2295 77.488 38.4775 77.936L37.6015 78.5C37.3935 78.188 37.1375 77.96 36.8335 77.816C36.5375 77.664 36.2175 77.588 35.8735 77.588C35.4575 77.588 35.0855 77.68 34.7575 77.864C34.4295 78.048 34.1695 78.308 33.9775 78.644C33.7855 78.972 33.6895 79.364 33.6895 79.82C33.6895 80.276 33.7855 80.672 33.9775 81.008C34.1695 81.344 34.4295 81.604 34.7575 81.788C35.0855 81.972 35.4575 82.064 35.8735 82.064C36.2175 82.064 36.5375 81.992 36.8335 81.848C37.1375 81.696 37.3935 81.464 37.6015 81.152L38.4775 81.704C38.2295 82.144 37.8775 82.484 37.4215 82.724C36.9735 82.956 36.4615 83.072 35.8855 83.072ZM43.2829 76.58C43.8029 76.58 44.2589 76.68 44.6509 76.88C45.0509 77.08 45.3629 77.384 45.5869 77.792C45.8109 78.2 45.9229 78.716 45.9229 79.34V83H44.7709V79.472C44.7709 78.856 44.6189 78.392 44.3149 78.08C44.0189 77.768 43.5989 77.612 43.0549 77.612C42.6469 77.612 42.2909 77.692 41.9869 77.852C41.6829 78.012 41.4469 78.248 41.2789 78.56C41.1189 78.872 41.0389 79.26 41.0389 79.724V83H39.8869V74.096H41.0389V78.356L40.8109 77.9C41.0189 77.484 41.3389 77.16 41.7709 76.928C42.2029 76.696 42.7069 76.58 43.2829 76.58ZM2.70727 98V89.6H5.98327C6.71927 89.6 7.34727 89.716 7.86727 89.948C8.38727 90.18 8.78727 90.516 9.06727 90.956C9.34727 91.396 9.48727 91.92 9.48727 92.528C9.48727 93.136 9.34727 93.66 9.06727 94.1C8.78727 94.532 8.38727 94.864 7.86727 95.096C7.34727 95.328 6.71927 95.444 5.98327 95.444H3.36727L3.90727 94.892V98H2.70727ZM8.32327 98L6.18727 94.952H7.47127L9.63127 98H8.32327ZM3.90727 95.012L3.36727 94.424H5.94727C6.71527 94.424 7.29527 94.26 7.68727 93.932C8.08727 93.596 8.28727 93.128 8.28727 92.528C8.28727 91.928 8.08727 91.464 7.68727 91.136C7.29527 90.808 6.71527 90.644 5.94727 90.644H3.36727L3.90727 90.044V95.012ZM14.09 98.072C13.41 98.072 12.81 97.932 12.29 97.652C11.778 97.372 11.378 96.988 11.09 96.5C10.81 96.012 10.67 95.452 10.67 94.82C10.67 94.188 10.806 93.628 11.078 93.14C11.358 92.652 11.738 92.272 12.218 92C12.706 91.72 13.254 91.58 13.862 91.58C14.478 91.58 15.022 91.716 15.494 91.988C15.966 92.26 16.334 92.644 16.598 93.14C16.87 93.628 17.006 94.2 17.006 94.856C17.006 94.904 17.002 94.96 16.994 95.024C16.994 95.088 16.99 95.148 16.982 95.204H11.57V94.376H16.382L15.914 94.664C15.922 94.256 15.838 93.892 15.662 93.572C15.486 93.252 15.242 93.004 14.93 92.828C14.626 92.644 14.27 92.552 13.862 92.552C13.462 92.552 13.106 92.644 12.794 92.828C12.482 93.004 12.238 93.256 12.062 93.584C11.886 93.904 11.798 94.272 11.798 94.688V94.88C11.798 95.304 11.894 95.684 12.086 96.02C12.286 96.348 12.562 96.604 12.914 96.788C13.266 96.972 13.67 97.064 14.126 97.064C14.502 97.064 14.842 97 15.146 96.872C15.458 96.744 15.73 96.552 15.962 96.296L16.598 97.04C16.31 97.376 15.95 97.632 15.518 97.808C15.094 97.984 14.618 98.072 14.09 98.072ZM21.9777 98.072C21.4497 98.072 20.9657 97.952 20.5257 97.712C20.0937 97.464 19.7457 97.1 19.4817 96.62C19.2257 96.14 19.0977 95.54 19.0977 94.82C19.0977 94.1 19.2217 93.5 19.4697 93.02C19.7257 92.54 20.0697 92.18 20.5017 91.94C20.9417 91.7 21.4337 91.58 21.9777 91.58C22.6017 91.58 23.1537 91.716 23.6337 91.988C24.1137 92.26 24.4937 92.64 24.7737 93.128C25.0537 93.608 25.1937 94.172 25.1937 94.82C25.1937 95.468 25.0537 96.036 24.7737 96.524C24.4937 97.012 24.1137 97.392 23.6337 97.664C23.1537 97.936 22.6017 98.072 21.9777 98.072ZM18.6057 100.328V91.64H19.7097V93.356L19.6377 94.832L19.7577 96.308V100.328H18.6057ZM21.8817 97.064C22.2897 97.064 22.6537 96.972 22.9737 96.788C23.3017 96.604 23.5577 96.344 23.7417 96.008C23.9337 95.664 24.0297 95.268 24.0297 94.82C24.0297 94.364 23.9337 93.972 23.7417 93.644C23.5577 93.308 23.3017 93.048 22.9737 92.864C22.6537 92.68 22.2897 92.588 21.8817 92.588C21.4817 92.588 21.1177 92.68 20.7897 92.864C20.4697 93.048 20.2137 93.308 20.0217 93.644C19.8377 93.972 19.7457 94.364 19.7457 94.82C19.7457 95.268 19.8377 95.664 20.0217 96.008C20.2137 96.344 20.4697 96.604 20.7897 96.788C21.1177 96.972 21.4817 97.064 21.8817 97.064ZM29.4614 98.072C28.9174 98.072 28.4374 97.972 28.0214 97.772C27.6134 97.572 27.2934 97.268 27.0614 96.86C26.8374 96.444 26.7254 95.924 26.7254 95.3V91.64H27.8774V95.168C27.8774 95.792 28.0254 96.26 28.3214 96.572C28.6254 96.884 29.0494 97.04 29.5934 97.04C29.9934 97.04 30.3414 96.96 30.6374 96.8C30.9334 96.632 31.1614 96.392 31.3214 96.08C31.4814 95.76 31.5614 95.376 31.5614 94.928V91.64H32.7134V98H31.6214V96.284L31.8014 96.74C31.5934 97.164 31.2814 97.492 30.8654 97.724C30.4494 97.956 29.9814 98.072 29.4614 98.072ZM38.2785 98.072C37.7345 98.072 37.2425 97.952 36.8025 97.712C36.3705 97.464 36.0265 97.1 35.7705 96.62C35.5225 96.14 35.3985 95.54 35.3985 94.82C35.3985 94.1 35.5265 93.5 35.7825 93.02C36.0465 92.54 36.3945 92.18 36.8265 91.94C37.2665 91.7 37.7505 91.58 38.2785 91.58C38.9025 91.58 39.4545 91.716 39.9345 91.988C40.4145 92.26 40.7945 92.64 41.0745 93.128C41.3545 93.608 41.4945 94.172 41.4945 94.82C41.4945 95.468 41.3545 96.036 41.0745 96.524C40.7945 97.012 40.4145 97.392 39.9345 97.664C39.4545 97.936 38.9025 98.072 38.2785 98.072ZM34.9065 98V89.096H36.0585V93.332L35.9385 94.808L36.0105 96.284V98H34.9065ZM38.1825 97.064C38.5905 97.064 38.9545 96.972 39.2745 96.788C39.6025 96.604 39.8585 96.344 40.0425 96.008C40.2345 95.664 40.3305 95.268 40.3305 94.82C40.3305 94.364 40.2345 93.972 40.0425 93.644C39.8585 93.308 39.6025 93.048 39.2745 92.864C38.9545 92.68 38.5905 92.588 38.1825 92.588C37.7825 92.588 37.4185 92.68 37.0905 92.864C36.7705 93.048 36.5145 93.308 36.3225 93.644C36.1385 93.972 36.0465 94.364 36.0465 94.82C36.0465 95.268 36.1385 95.664 36.3225 96.008C36.5145 96.344 36.7705 96.604 37.0905 96.788C37.4185 96.972 37.7825 97.064 38.1825 97.064ZM43.0861 98V89.096H44.2381V98H43.0861ZM46.4377 98V91.64H47.5897V98H46.4377ZM47.0137 90.416C46.7897 90.416 46.6017 90.344 46.4497 90.2C46.3057 90.056 46.2337 89.88 46.2337 89.672C46.2337 89.456 46.3057 89.276 46.4497 89.132C46.6017 88.988 46.7897 88.916 47.0137 88.916C47.2377 88.916 47.4217 88.988 47.5657 89.132C47.7177 89.268 47.7937 89.44 47.7937 89.648C47.7937 89.864 47.7217 90.048 47.5777 90.2C47.4337 90.344 47.2457 90.416 47.0137 90.416ZM52.5613 98.072C51.9133 98.072 51.3333 97.932 50.8213 97.652C50.3173 97.372 49.9213 96.988 49.6333 96.5C49.3453 96.012 49.2013 95.452 49.2013 94.82C49.2013 94.188 49.3453 93.628 49.6333 93.14C49.9213 92.652 50.3173 92.272 50.8213 92C51.3333 91.72 51.9133 91.58 52.5613 91.58C53.1373 91.58 53.6493 91.696 54.0973 91.928C54.5533 92.152 54.9053 92.488 55.1533 92.936L54.2773 93.5C54.0693 93.188 53.8133 92.96 53.5093 92.816C53.2133 92.664 52.8933 92.588 52.5493 92.588C52.1333 92.588 51.7613 92.68 51.4333 92.864C51.1053 93.048 50.8453 93.308 50.6533 93.644C50.4613 93.972 50.3653 94.364 50.3653 94.82C50.3653 95.276 50.4613 95.672 50.6533 96.008C50.8453 96.344 51.1053 96.604 51.4333 96.788C51.7613 96.972 52.1333 97.064 52.5493 97.064C52.8933 97.064 53.2133 96.992 53.5093 96.848C53.8133 96.696 54.0693 96.464 54.2773 96.152L55.1533 96.704C54.9053 97.144 54.5533 97.484 54.0973 97.724C53.6493 97.956 53.1373 98.072 52.5613 98.072Z" fill="black"/>
<defs>
<clipPath id="clip0_2101_25777">
<rect x="7.5" y="8" width="42" height="42" rx="21" fill="white"/>
</clipPath>
</defs>
</svg>
