<svg width="282" height="282" viewBox="0 0 282 282" fill="none" xmlns="http://www.w3.org/2000/svg">
<g filter="url(#filter0_i_4031_87)">
<rect x="0.283203" y="0.282715" width="280.776" height="280.776" rx="140.388" fill="#0F4753"/>
<path d="M141.548 270.058H139V247.969H141.548V270.058ZM141.548 34.1451H139V12.0563H141.548V34.1451Z" fill="white"/>
<path d="M269.672 140.455V143.003H252.586V140.455H269.672ZM28.7578 140.455V143.003H11.6719V140.455H28.7578Z" fill="white"/>
<path d="M85 153.001V129.001H92.99V146.727H103.689V153.001H85Z" fill="url(#paint0_linear_4031_87)"/>
<path d="M180.859 150.131C180.859 151.672 179.626 153.001 178.104 153.001C176.582 153.001 175.348 151.672 175.348 150.131C177.001 150.131 177.001 150.131 178.104 150.131C179.206 150.131 178.497 150.131 180.859 150.131Z" fill="url(#paint1_linear_4031_87)"/>
<path d="M169.364 151.987C169.869 152.606 170.634 153.001 171.49 153.001C173.012 153.001 174.246 151.672 174.246 150.131C174.246 150.131 172.933 150.131 171.411 150.131C170.493 150.131 170.151 150.131 169.364 150.131V151.987Z" fill="url(#paint2_linear_4031_87)"/>
<path d="M181.804 146.224H169.364V150.131H181.962C181.962 150.131 184.376 152.417 184.875 152.683C187.342 152.709 192.433 152.746 193.063 152.683C193.693 152.619 195.347 150.769 195.189 150.769H185.19L181.804 146.224Z" fill="url(#paint3_linear_4031_87)"/>
<path fill-rule="evenodd" clip-rule="evenodd" d="M110.737 138.211L104.352 153.001H110.021L111.129 150.083H117.417L118.525 153.001H124.288L118.171 138.83L110.737 138.211ZM114.273 141.799L115.874 146.017H112.672L114.273 141.799Z" fill="url(#paint4_linear_4031_87)"/>
<path d="M125.178 139.414V153.001H130.61V145.388L136.894 153.001H141.476V140.772L136.043 140.319V143.871L132.895 140.057L125.178 139.414Z" fill="url(#paint5_linear_4031_87)"/>
<path d="M132.311 139.349L136.043 139.666V136.257H129.76L132.311 139.349Z" fill="#067E4E"/>
<path d="M146.254 141.17L148.601 144.546L142.626 153.001H148.98L151.765 148.525L154.626 153.001H161.003L154.903 144.349L156.552 142.028L146.254 141.17Z" fill="url(#paint6_linear_4031_87)"/>
<path d="M161.67 142.454V153.001H167.244V142.918L161.67 142.454Z" fill="url(#paint7_linear_4031_87)"/>
<path d="M182.19 143.621L182.242 143.626L186.267 148.855H196.29C196.478 148.412 196.842 147.35 196.921 146.874C195.369 146.874 192.012 146.843 191.002 146.399C189.992 145.955 189.108 144.92 188.793 144.497L182.242 136.257L167.244 136.257V142.321L182.198 143.593L182.19 143.621Z" fill="#067E4E"/>
<path d="M161.67 141.846V136.257H160.649L156.965 141.446L161.67 141.846Z" fill="#067E4E"/>
<path d="M145.785 140.495L142.839 136.257H141.476V140.129L145.785 140.495Z" fill="#067E4E"/>
<path d="M111.027 137.538L95.9828 136.257L111.58 136.257L111.027 137.538Z" fill="#067E4E"/>
<path d="M117.864 138.12L125.178 138.742V136.257H117.06L117.864 138.12Z" fill="#067E4E"/>
<path d="M151.911 140.465L149.099 136.257H154.649L151.911 140.465Z" fill="#067E4E"/>
<path d="M179.6 129.081H96.0615V132.829C122.622 132.802 176.639 132.765 180.229 132.829C183.82 132.892 186.397 135.46 187.237 136.736C187.237 136.736 190.937 142.158 191.725 142.875C192.512 143.593 192.67 143.433 197 143.433C196.134 139.526 192.584 134.829 189.756 132.031C186.292 128.603 182.067 129.108 179.6 129.081Z" fill="url(#paint8_linear_4031_87)"/>
</g>
<defs>
<filter id="filter0_i_4031_87" x="0.283203" y="0.282715" width="280.775" height="295.776" filterUnits="userSpaceOnUse" color-interpolation-filters="sRGB">
<feFlood flood-opacity="0" result="BackgroundImageFix"/>
<feBlend mode="normal" in="SourceGraphic" in2="BackgroundImageFix" result="shape"/>
<feColorMatrix in="SourceAlpha" type="matrix" values="0 0 0 0 0 0 0 0 0 0 0 0 0 0 0 0 0 0 127 0" result="hardAlpha"/>
<feMorphology radius="30" operator="erode" in="SourceAlpha" result="effect1_innerShadow_4031_87"/>
<feOffset dy="15"/>
<feGaussianBlur stdDeviation="25"/>
<feComposite in2="hardAlpha" operator="arithmetic" k2="-1" k3="1"/>
<feColorMatrix type="matrix" values="0 0 0 0 0 0 0 0 0 0 0 0 0 0 0 0 0 0 0.2 0"/>
<feBlend mode="normal" in2="shape" result="effect1_innerShadow_4031_87"/>
</filter>
<linearGradient id="paint0_linear_4031_87" x1="141" y1="129.001" x2="141" y2="153.001" gradientUnits="userSpaceOnUse">
<stop stop-color="white"/>
<stop offset="1" stop-color="white"/>
</linearGradient>
<linearGradient id="paint1_linear_4031_87" x1="141" y1="129.001" x2="141" y2="153.001" gradientUnits="userSpaceOnUse">
<stop stop-color="white"/>
<stop offset="1" stop-color="white"/>
</linearGradient>
<linearGradient id="paint2_linear_4031_87" x1="141" y1="129.001" x2="141" y2="153.001" gradientUnits="userSpaceOnUse">
<stop stop-color="white"/>
<stop offset="1" stop-color="white"/>
</linearGradient>
<linearGradient id="paint3_linear_4031_87" x1="141" y1="129.001" x2="141" y2="153.001" gradientUnits="userSpaceOnUse">
<stop stop-color="white"/>
<stop offset="1" stop-color="white"/>
</linearGradient>
<linearGradient id="paint4_linear_4031_87" x1="141" y1="129.001" x2="141" y2="153.001" gradientUnits="userSpaceOnUse">
<stop stop-color="white"/>
<stop offset="1" stop-color="white"/>
</linearGradient>
<linearGradient id="paint5_linear_4031_87" x1="141" y1="129.001" x2="141" y2="153.001" gradientUnits="userSpaceOnUse">
<stop stop-color="white"/>
<stop offset="1" stop-color="white"/>
</linearGradient>
<linearGradient id="paint6_linear_4031_87" x1="141" y1="129.001" x2="141" y2="153.001" gradientUnits="userSpaceOnUse">
<stop stop-color="white"/>
<stop offset="1" stop-color="white"/>
</linearGradient>
<linearGradient id="paint7_linear_4031_87" x1="141" y1="129.001" x2="141" y2="153.001" gradientUnits="userSpaceOnUse">
<stop stop-color="white"/>
<stop offset="1" stop-color="white"/>
</linearGradient>
<linearGradient id="paint8_linear_4031_87" x1="141" y1="129.001" x2="141" y2="153.001" gradientUnits="userSpaceOnUse">
<stop stop-color="white"/>
<stop offset="1" stop-color="white"/>
</linearGradient>
</defs>
</svg>
