<svg width="24" height="24" viewBox="0 0 24 24" fill="none" xmlns="http://www.w3.org/2000/svg">
<path d="M16.9998 1.99982C18.3248 2.00378 19.5943 2.53187 20.5312 3.46876C21.4681 4.40566 21.9962 5.67522 22.0002 7.00018V16.9998C21.9962 18.3248 21.4681 19.5943 20.5312 20.5312C19.5943 21.4681 18.3248 21.9962 16.9998 22.0002H7.00018C5.67522 21.9962 4.40566 21.4681 3.46876 20.5312C2.53187 19.5943 2.00378 18.3248 1.99982 16.9998V7.00018C2.00378 5.67522 2.53187 4.40566 3.46876 3.46876C4.40566 2.53187 5.67522 2.00378 7.00018 1.99982H16.9998ZM16.9998 0H7.00018C3.15 0 0 3.15 0 7.00018V16.9998C0 20.85 3.15 24 7.00018 24H16.9998C20.85 24 24 20.85 24 16.9998V7.00018C24 3.15 20.85 0 16.9998 0Z" fill="#023D4A"/>
<path d="M18.4998 7.00098C18.2032 7.00098 17.9131 6.913 17.6665 6.74818C17.4198 6.58336 17.2275 6.34909 17.114 6.075C17.0005 5.80091 16.9708 5.49931 17.0286 5.20834C17.0865 4.91737 17.2294 4.6501 17.4392 4.44032C17.6489 4.23054 17.9162 4.08768 18.2072 4.0298C18.4982 3.97192 18.7998 4.00163 19.0738 4.11516C19.3479 4.22869 19.5822 4.42095 19.747 4.66762C19.9118 4.9143 19.9998 5.20431 19.9998 5.50098C20.0002 5.69808 19.9617 5.89332 19.8865 6.0755C19.8113 6.25768 19.7008 6.42321 19.5614 6.56258C19.4221 6.70196 19.2565 6.81243 19.0743 6.88766C18.8922 6.96289 18.6969 7.0014 18.4998 7.00098ZM12 8.00062C12.7912 8.00062 13.5646 8.23523 14.2224 8.67477C14.8802 9.11432 15.3929 9.73906 15.6957 10.47C15.9984 11.2009 16.0777 12.0052 15.9233 12.7812C15.769 13.5572 15.388 14.2699 14.8286 14.8294C14.2691 15.3888 13.5564 15.7698 12.7804 15.9241C12.0044 16.0785 11.2001 15.9992 10.4692 15.6965C9.73826 15.3937 9.11352 14.881 8.67398 14.2232C8.23443 13.5654 7.99982 12.792 7.99982 12.0008C8.00096 10.9402 8.42277 9.92343 9.1727 9.1735C9.92264 8.42357 10.9394 8.00176 12 8.00062ZM12 6.0008C10.8133 6.0008 9.65328 6.35269 8.66658 7.01198C7.67989 7.67127 6.91085 8.60834 6.45673 9.7047C6.0026 10.8011 5.88378 12.0075 6.11529 13.1713C6.3468 14.3352 6.91825 15.4043 7.75736 16.2434C8.59648 17.0826 9.66557 17.654 10.8295 17.8855C11.9933 18.117 13.1997 17.9982 14.2961 17.5441C15.3925 17.09 16.3295 16.3209 16.9888 15.3342C17.6481 14.3475 18 13.1875 18 12.0008C18 10.4095 17.3679 8.88338 16.2426 7.75816C15.1174 6.63294 13.5913 6.0008 12 6.0008Z" fill="#023D4A"/>
</svg>
