<svg width="128" height="28" viewBox="0 0 128 28" fill="none" xmlns="http://www.w3.org/2000/svg">
<path d="M118.776 27.684C117.168 27.684 115.776 27.396 114.6 26.82C113.424 26.22 112.512 25.332 111.864 24.156C111.24 22.956 110.928 21.48 110.928 19.728V8.74805H112.728V19.584C112.728 21.696 113.268 23.304 114.348 24.408C115.428 25.512 116.952 26.064 118.92 26.064C120.336 26.064 121.56 25.764 122.592 25.164C123.624 24.564 124.416 23.724 124.968 22.644C125.52 21.54 125.796 20.244 125.796 18.756V8.74805H127.596V27.54H125.868V22.32L126.12 22.932C125.568 24.396 124.644 25.56 123.348 26.424C122.076 27.264 120.552 27.684 118.776 27.684Z" fill="white"/>
<path d="M97.2992 27.6835C95.4032 27.6835 93.7232 27.2755 92.2592 26.4595C90.8192 25.6435 89.6792 24.5155 88.8392 23.0755C88.0232 21.6355 87.6152 19.9915 87.6152 18.1435C87.6152 16.2715 87.9992 14.6275 88.7672 13.2115C89.5592 11.7715 90.6392 10.6435 92.0072 9.82752C93.3752 9.01152 94.9112 8.60352 96.6152 8.60352C98.3192 8.60352 99.8432 8.99952 101.187 9.79152C102.555 10.5835 103.623 11.6995 104.391 13.1395C105.183 14.5555 105.579 16.1995 105.579 18.0715C105.579 18.1435 105.567 18.2275 105.543 18.3235C105.543 18.3955 105.543 18.4795 105.543 18.5755H88.9472V17.1715H104.571L103.851 17.8555C103.875 16.3915 103.563 15.0835 102.915 13.9315C102.291 12.7555 101.439 11.8435 100.359 11.1955C99.2792 10.5235 98.0312 10.1875 96.6152 10.1875C95.2232 10.1875 93.9752 10.5235 92.8712 11.1955C91.7912 11.8435 90.9392 12.7555 90.3152 13.9315C89.6912 15.0835 89.3792 16.4035 89.3792 17.8915V18.2155C89.3792 19.7515 89.7152 21.1195 90.3872 22.3195C91.0832 23.4955 92.0312 24.4195 93.2312 25.0915C94.4312 25.7395 95.7992 26.0635 97.3352 26.0635C98.5352 26.0635 99.6512 25.8475 100.683 25.4155C101.739 24.9835 102.627 24.3235 103.347 23.4355L104.391 24.6235C103.575 25.6315 102.543 26.3995 101.295 26.9275C100.071 27.4315 98.7392 27.6835 97.2992 27.6835Z" fill="white"/>
<path d="M82.8382 27.683C82.4302 27.683 82.0702 27.539 81.7582 27.251C81.4702 26.939 81.3262 26.567 81.3262 26.135C81.3262 25.703 81.4702 25.343 81.7582 25.055C82.0702 24.767 82.4302 24.623 82.8382 24.623C83.2462 24.623 83.5942 24.767 83.8822 25.055C84.1942 25.343 84.3502 25.703 84.3502 26.135C84.3502 26.567 84.1942 26.939 83.8822 27.251C83.5942 27.539 83.2462 27.683 82.8382 27.683Z" fill="white"/>
<path d="M73.6678 27.5398V8.74777H75.4678V27.5398H73.6678ZM74.5678 4.17576C74.1598 4.17576 73.8118 4.03176 73.5238 3.74377C73.2358 3.45577 73.0918 3.11976 73.0918 2.73577C73.0918 2.32776 73.2358 1.97977 73.5238 1.69176C73.8118 1.40377 74.1598 1.25977 74.5678 1.25977C74.9998 1.25977 75.3478 1.40377 75.6118 1.69176C75.8998 1.95577 76.0438 2.29177 76.0438 2.69976C76.0438 3.10776 75.8998 3.45577 75.6118 3.74377C75.3478 4.03176 74.9998 4.17576 74.5678 4.17576Z" fill="white"/>
<path d="M52.0137 27.54L59.8257 17.388L59.7897 18.252L52.4097 8.74805H54.4617L60.9057 17.064H60.1497L66.5577 8.74805H68.5737L61.1217 18.36L61.1577 17.388L69.0777 27.54H66.9537L60.1497 18.684L60.8337 18.756L54.0657 27.54H52.0137Z" fill="white"/>
<path d="M39.9593 8.60352C41.4953 8.60352 42.8273 8.90352 43.9553 9.50352C45.1073 10.0795 45.9953 10.9675 46.6193 12.1675C47.2673 13.3435 47.5913 14.8075 47.5913 16.5595V27.5395H45.7913V16.7035C45.7913 14.5915 45.2513 12.9835 44.1713 11.8795C43.1153 10.7755 41.6273 10.2235 39.7073 10.2235C38.2433 10.2235 36.9713 10.5235 35.8913 11.1235C34.8113 11.7235 33.9833 12.5635 33.4073 13.6435C32.8553 14.7235 32.5793 16.0195 32.5793 17.5315V27.5395H30.7793V8.74752H32.5073V13.9675L32.2553 13.3915C32.8313 11.9035 33.7793 10.7395 35.0993 9.89952C36.4193 9.03552 38.0393 8.60352 39.9593 8.60352Z" fill="white"/>
<path d="M21.6356 27.5395V23.2555L21.5636 22.6075V15.5515C21.5636 13.7995 21.0836 12.4675 20.1236 11.5555C19.1876 10.6435 17.8076 10.1875 15.9836 10.1875C14.6876 10.1875 13.4756 10.4155 12.3476 10.8715C11.2436 11.3035 10.2956 11.8675 9.50361 12.5635L8.60361 11.2675C9.53961 10.4275 10.6676 9.77952 11.9876 9.32351C13.3076 8.84352 14.6876 8.60352 16.1276 8.60352C18.4556 8.60352 20.2436 9.19152 21.4916 10.3675C22.7396 11.5435 23.3636 13.2955 23.3636 15.6235V27.5395H21.6356ZM14.8676 27.6835C13.4756 27.6835 12.2636 27.4675 11.2316 27.0355C10.2236 26.5795 9.44361 25.9435 8.89161 25.1275C8.36361 24.3115 8.09961 23.3755 8.09961 22.3195C8.09961 21.3595 8.31561 20.4955 8.74761 19.7275C9.20361 18.9355 9.94761 18.2995 10.9796 17.8195C12.0116 17.3155 13.3916 17.0635 15.1196 17.0635H22.0316V18.4675H15.1556C13.2116 18.4675 11.8436 18.8275 11.0516 19.5475C10.2836 20.2675 9.89961 21.1675 9.89961 22.2475C9.89961 23.4475 10.3556 24.4075 11.2676 25.1275C12.1796 25.8475 13.4636 26.2075 15.1196 26.2075C16.7036 26.2075 18.0356 25.8475 19.1156 25.1275C20.2196 24.4075 21.0356 23.3635 21.5636 21.9955L22.0676 23.2195C21.5636 24.5875 20.6996 25.6795 19.4756 26.4955C18.2756 27.2875 16.7396 27.6835 14.8676 27.6835Z" fill="white"/>
<path d="M0.404297 27.5382V0.826172H2.2043V27.5382H0.404297Z" fill="white"/>
</svg>
