<svg width="57" height="86" viewBox="0 0 57 86" fill="none" xmlns="http://www.w3.org/2000/svg">
<path d="M28.5 0.5C35.7041 0.5 42.6166 3.0902 47.8135 7.70996L48.3115 8.16406C53.559 13.0665 56.5 19.7078 56.5 26.625C56.5 31.295 54.7586 36.3775 52.1045 41.4014C49.4537 46.4189 45.9135 51.3394 42.3633 55.6748C38.8143 60.0087 35.2633 63.7479 32.5996 66.4043C31.2683 67.732 30.1595 68.7887 29.3838 69.5127C29.0058 69.8655 28.7067 70.1394 28.5 70.3271C28.2933 70.1394 27.9942 69.8655 27.6162 69.5127C26.8405 68.7887 25.7317 67.732 24.4004 66.4043C21.7367 63.7479 18.1857 60.0087 14.6367 55.6748C11.0865 51.3394 7.54633 46.4189 4.89551 41.4014C2.24141 36.3775 0.5 31.295 0.5 26.625L0.508789 25.9775C0.680491 19.51 3.41916 13.3246 8.20312 8.62793L8.68848 8.16406C13.9373 3.26056 21.0634 0.5 28.5 0.5ZM28.5 12.8125C24.5986 12.8125 20.8504 14.2604 18.082 16.8467C15.3128 19.434 13.75 22.9505 13.75 26.625C13.75 30.2995 15.3128 33.816 18.082 36.4033C20.8504 38.9896 24.5986 40.4375 28.5 40.4375C32.2795 40.4375 35.9149 39.0788 38.6553 36.6426L38.918 36.4033C41.6872 33.816 43.25 30.2995 43.25 26.625C43.25 23.0652 41.7833 19.6538 39.1738 17.0918L38.918 16.8467C36.1496 14.2604 32.4014 12.8125 28.5 12.8125Z" fill="white" fill-opacity="0.65" stroke="#067E4E"/>
<g clip-path="url(#clip0_2101_24753)">
<path fill-rule="evenodd" clip-rule="evenodd" d="M48.5 48H8.5V8H48.5V48Z" fill="white"/>
<path fill-rule="evenodd" clip-rule="evenodd" d="M48.5 48H8.5V28H48.5V48Z" fill="#DC143C"/>
</g>
<path d="M8.25609 83V74.6H11.5321C12.2681 74.6 12.8961 74.716 13.4161 74.948C13.9361 75.18 14.3361 75.516 14.6161 75.956C14.8961 76.396 15.0361 76.92 15.0361 77.528C15.0361 78.136 14.8961 78.66 14.6161 79.1C14.3361 79.532 13.9361 79.868 13.4161 80.108C12.8961 80.34 12.2681 80.456 11.5321 80.456H8.91609L9.45609 79.892V83H8.25609ZM9.45609 80.012L8.91609 79.412H11.4961C12.2641 79.412 12.8441 79.248 13.2361 78.92C13.6361 78.592 13.8361 78.128 13.8361 77.528C13.8361 76.928 13.6361 76.464 13.2361 76.136C12.8441 75.808 12.2641 75.644 11.4961 75.644H8.91609L9.45609 75.044V80.012ZM19.3316 83.072C18.6916 83.072 18.1236 82.932 17.6276 82.652C17.1316 82.372 16.7396 81.988 16.4516 81.5C16.1636 81.004 16.0196 80.444 16.0196 79.82C16.0196 79.188 16.1636 78.628 16.4516 78.14C16.7396 77.652 17.1316 77.272 17.6276 77C18.1236 76.72 18.6916 76.58 19.3316 76.58C19.9636 76.58 20.5276 76.72 21.0236 77C21.5276 77.272 21.9196 77.652 22.1996 78.14C22.4876 78.62 22.6316 79.18 22.6316 79.82C22.6316 80.452 22.4876 81.012 22.1996 81.5C21.9196 81.988 21.5276 82.372 21.0236 82.652C20.5276 82.932 19.9636 83.072 19.3316 83.072ZM19.3316 82.064C19.7396 82.064 20.1036 81.972 20.4236 81.788C20.7516 81.604 21.0076 81.344 21.1916 81.008C21.3756 80.664 21.4676 80.268 21.4676 79.82C21.4676 79.364 21.3756 78.972 21.1916 78.644C21.0076 78.308 20.7516 78.048 20.4236 77.864C20.1036 77.68 19.7396 77.588 19.3316 77.588C18.9236 77.588 18.5596 77.68 18.2396 77.864C17.9196 78.048 17.6636 78.308 17.4716 78.644C17.2796 78.972 17.1836 79.364 17.1836 79.82C17.1836 80.268 17.2796 80.664 17.4716 81.008C17.6636 81.344 17.9196 81.604 18.2396 81.788C18.5596 81.972 18.9236 82.064 19.3316 82.064ZM24.2248 83V74.096H25.3768V83H24.2248ZM31.5244 83V81.656L31.4644 81.404V79.112C31.4644 78.624 31.3204 78.248 31.0324 77.984C30.7524 77.712 30.3284 77.576 29.7604 77.576C29.3844 77.576 29.0164 77.64 28.6564 77.768C28.2964 77.888 27.9924 78.052 27.7444 78.26L27.2644 77.396C27.5924 77.132 27.9844 76.932 28.4404 76.796C28.9044 76.652 29.3884 76.58 29.8924 76.58C30.7644 76.58 31.4364 76.792 31.9084 77.216C32.3804 77.64 32.6164 78.288 32.6164 79.16V83H31.5244ZM29.4364 83.072C28.9644 83.072 28.5484 82.992 28.1884 82.832C27.8364 82.672 27.5644 82.452 27.3724 82.172C27.1804 81.884 27.0844 81.56 27.0844 81.2C27.0844 80.856 27.1644 80.544 27.3244 80.264C27.4924 79.984 27.7604 79.76 28.1284 79.592C28.5044 79.424 29.0084 79.34 29.6404 79.34H31.6564V80.168H29.6884C29.1124 80.168 28.7244 80.264 28.5244 80.456C28.3244 80.648 28.2244 80.88 28.2244 81.152C28.2244 81.464 28.3484 81.716 28.5964 81.908C28.8444 82.092 29.1884 82.184 29.6284 82.184C30.0604 82.184 30.4364 82.088 30.7564 81.896C31.0844 81.704 31.3204 81.424 31.4644 81.056L31.6924 81.848C31.5404 82.224 31.2724 82.524 30.8884 82.748C30.5044 82.964 30.0204 83.072 29.4364 83.072ZM38.1443 76.58C38.6643 76.58 39.1203 76.68 39.5123 76.88C39.9123 77.08 40.2243 77.384 40.4483 77.792C40.6723 78.2 40.7843 78.716 40.7843 79.34V83H39.6323V79.472C39.6323 78.856 39.4803 78.392 39.1763 78.08C38.8803 77.768 38.4603 77.612 37.9163 77.612C37.5083 77.612 37.1523 77.692 36.8483 77.852C36.5443 78.012 36.3083 78.248 36.1403 78.56C35.9803 78.872 35.9003 79.26 35.9003 79.724V83H34.7483V76.64H35.8523V78.356L35.6723 77.9C35.8803 77.484 36.2003 77.16 36.6323 76.928C37.0643 76.696 37.5683 76.58 38.1443 76.58ZM45.5442 83.072C44.9282 83.072 44.3762 82.936 43.8882 82.664C43.4082 82.392 43.0282 82.012 42.7482 81.524C42.4682 81.036 42.3282 80.468 42.3282 79.82C42.3282 79.172 42.4682 78.608 42.7482 78.128C43.0282 77.64 43.4082 77.26 43.8882 76.988C44.3762 76.716 44.9282 76.58 45.5442 76.58C46.0802 76.58 46.5642 76.7 46.9962 76.94C47.4282 77.18 47.7722 77.54 48.0282 78.02C48.2922 78.5 48.4242 79.1 48.4242 79.82C48.4242 80.54 48.2962 81.14 48.0402 81.62C47.7922 82.1 47.4522 82.464 47.0202 82.712C46.5882 82.952 46.0962 83.072 45.5442 83.072ZM45.6402 82.064C46.0402 82.064 46.4002 81.972 46.7202 81.788C47.0482 81.604 47.3042 81.344 47.4882 81.008C47.6802 80.664 47.7762 80.268 47.7762 79.82C47.7762 79.364 47.6802 78.972 47.4882 78.644C47.3042 78.308 47.0482 78.048 46.7202 77.864C46.4002 77.68 46.0402 77.588 45.6402 77.588C45.2322 77.588 44.8682 77.68 44.5482 77.864C44.2282 78.048 43.9722 78.308 43.7802 78.644C43.5882 78.972 43.4922 79.364 43.4922 79.82C43.4922 80.268 43.5882 80.664 43.7802 81.008C43.9722 81.344 44.2282 81.604 44.5482 81.788C44.8682 81.972 45.2322 82.064 45.6402 82.064ZM47.8122 83V81.284L47.8842 79.808L47.7642 78.332V74.096H48.9162V83H47.8122Z" fill="black"/>
<defs>
<clipPath id="clip0_2101_24753">
<rect x="8.5" y="8" width="40" height="40" rx="20" fill="white"/>
</clipPath>
</defs>
</svg>
