<svg width="22" height="22" viewBox="0 0 22 22" fill="none" xmlns="http://www.w3.org/2000/svg">
<path d="M11 11.5156C13.9425 11.5156 16.3281 9.13 16.3281 6.1875C16.3281 3.245 13.9425 0.859375 11 0.859375C8.05748 0.859375 5.67186 3.245 5.67186 6.1875C5.6753 9.12862 8.05886 11.5122 11 11.5156ZM11 1.89062C13.3732 1.89062 15.2969 3.81425 15.2969 6.1875C15.2969 8.56075 13.3732 10.4844 11 10.4844C8.62673 10.4844 6.70311 8.56075 6.70311 6.1875C6.70586 3.81562 8.62811 1.89338 11 1.89062ZM20.9069 20.515C19.8735 15.9246 15.831 12.5469 11 12.5469C6.16892 12.5469 2.12642 15.9246 1.10617 20.4469L1.09311 20.515C1.08555 20.548 1.08142 20.5858 1.08142 20.625C1.08142 20.9096 1.31242 21.1406 1.59705 21.1406C1.84248 21.1406 2.04805 20.9688 2.09961 20.7384L2.1003 20.735C3.02911 16.6114 6.66048 13.5781 11 13.5781C15.3395 13.5781 18.9709 16.6121 19.8887 20.6745L19.9004 20.7357C19.9526 20.9694 20.1575 21.1413 20.4036 21.1413H20.4043C20.4435 21.1413 20.4813 21.1365 20.5177 21.1283L20.5143 21.1289C20.748 21.0767 20.9199 20.8711 20.9199 20.625C20.9199 20.5858 20.9158 20.548 20.9075 20.5116L20.9082 20.515H20.9069Z" fill="black"/>
</svg>
