<svg width="57" height="86" viewBox="0 0 57 86" fill="none" xmlns="http://www.w3.org/2000/svg">
<path d="M28.5 0.5C35.7041 0.5 42.6166 3.0902 47.8135 7.70996L48.3115 8.16406C53.559 13.0665 56.5 19.7078 56.5 26.625C56.5 31.295 54.7586 36.3775 52.1045 41.4014C49.4537 46.4189 45.9135 51.3394 42.3633 55.6748C38.8143 60.0087 35.2633 63.7479 32.5996 66.4043C31.2683 67.732 30.1595 68.7887 29.3838 69.5127C29.0058 69.8655 28.7067 70.1394 28.5 70.3271C28.2933 70.1394 27.9942 69.8655 27.6162 69.5127C26.8405 68.7887 25.7317 67.732 24.4004 66.4043C21.7367 63.7479 18.1857 60.0087 14.6367 55.6748C11.0865 51.3394 7.54633 46.4189 4.89551 41.4014C2.24141 36.3775 0.5 31.295 0.5 26.625L0.508789 25.9775C0.680491 19.51 3.41916 13.3246 8.20312 8.62793L8.68848 8.16406C13.9373 3.26056 21.0634 0.5 28.5 0.5ZM28.5 12.8125C24.5986 12.8125 20.8504 14.2604 18.082 16.8467C15.3128 19.434 13.75 22.9505 13.75 26.625C13.75 30.2995 15.3128 33.816 18.082 36.4033C20.8504 38.9896 24.5986 40.4375 28.5 40.4375C32.2795 40.4375 35.9149 39.0788 38.6553 36.6426L38.918 36.4033C41.6872 33.816 43.25 30.2995 43.25 26.625C43.25 23.0652 41.7833 19.6538 39.1738 17.0918L38.918 16.8467C36.1496 14.2604 32.4014 12.8125 28.5 12.8125Z" fill="white" fill-opacity="0.65" stroke="#067E4E"/>
<g clip-path="url(#clip0_2101_26150)">
<path fill-rule="evenodd" clip-rule="evenodd" d="M8.5 8H48.5V48H8.5V8Z" fill="#FFD700"/>
<path fill-rule="evenodd" clip-rule="evenodd" d="M8.5 8H48.5V28H8.5V8Z" fill="#0057B8"/>
</g>
<path d="M9.63258 83.096C8.52858 83.096 7.66058 82.78 7.02858 82.148C6.39658 81.516 6.08058 80.592 6.08058 79.376V74.6H7.28058V79.328C7.28058 80.264 7.48458 80.948 7.89258 81.38C8.30858 81.812 8.89258 82.028 9.64458 82.028C10.4046 82.028 10.9886 81.812 11.3966 81.38C11.8126 80.948 12.0206 80.264 12.0206 79.328V74.6H13.1846V79.376C13.1846 80.592 12.8686 81.516 12.2366 82.148C11.6126 82.78 10.7446 83.096 9.63258 83.096ZM16.4128 81.464L16.4368 79.988L20.0968 76.64H21.4888L18.6808 79.4L18.0568 79.928L16.4128 81.464ZM15.4768 83V74.096H16.6288V83H15.4768ZM20.3368 83L17.8408 79.904L18.5848 78.98L21.7528 83H20.3368ZM22.7893 83V76.64H23.8933V78.368L23.7853 77.936C23.9613 77.496 24.2573 77.16 24.6733 76.928C25.0893 76.696 25.6013 76.58 26.2093 76.58V77.696C26.1613 77.688 26.1133 77.684 26.0653 77.684C26.0253 77.684 25.9853 77.684 25.9453 77.684C25.3293 77.684 24.8413 77.868 24.4813 78.236C24.1213 78.604 23.9413 79.136 23.9413 79.832V83H22.7893ZM31.1084 83V81.656L31.0484 81.404V79.112C31.0484 78.624 30.9044 78.248 30.6164 77.984C30.3364 77.712 29.9124 77.576 29.3444 77.576C28.9684 77.576 28.6004 77.64 28.2404 77.768C27.8804 77.888 27.5764 78.052 27.3284 78.26L26.8484 77.396C27.1764 77.132 27.5684 76.932 28.0244 76.796C28.4884 76.652 28.9724 76.58 29.4764 76.58C30.3484 76.58 31.0204 76.792 31.4924 77.216C31.9644 77.64 32.2004 78.288 32.2004 79.16V83H31.1084ZM29.0204 83.072C28.5484 83.072 28.1324 82.992 27.7724 82.832C27.4204 82.672 27.1484 82.452 26.9564 82.172C26.7644 81.884 26.6684 81.56 26.6684 81.2C26.6684 80.856 26.7484 80.544 26.9084 80.264C27.0764 79.984 27.3444 79.76 27.7124 79.592C28.0884 79.424 28.5924 79.34 29.2244 79.34H31.2404V80.168H29.2724C28.6964 80.168 28.3084 80.264 28.1084 80.456C27.9084 80.648 27.8084 80.88 27.8084 81.152C27.8084 81.464 27.9324 81.716 28.1804 81.908C28.4284 82.092 28.7724 82.184 29.2124 82.184C29.6444 82.184 30.0204 82.088 30.3404 81.896C30.6684 81.704 30.9044 81.424 31.0484 81.056L31.2764 81.848C31.1244 82.224 30.8564 82.524 30.4724 82.748C30.0884 82.964 29.6044 83.072 29.0204 83.072ZM34.3322 83V76.64H35.4842V83H34.3322ZM34.9082 75.416C34.6842 75.416 34.4962 75.344 34.3442 75.2C34.2002 75.056 34.1282 74.88 34.1282 74.672C34.1282 74.456 34.2002 74.276 34.3442 74.132C34.4962 73.988 34.6842 73.916 34.9082 73.916C35.1322 73.916 35.3162 73.988 35.4602 74.132C35.6122 74.268 35.6882 74.44 35.6882 74.648C35.6882 74.864 35.6162 75.048 35.4722 75.2C35.3282 75.344 35.1402 75.416 34.9082 75.416ZM41.0798 76.58C41.5998 76.58 42.0558 76.68 42.4478 76.88C42.8478 77.08 43.1598 77.384 43.3838 77.792C43.6078 78.2 43.7198 78.716 43.7198 79.34V83H42.5678V79.472C42.5678 78.856 42.4158 78.392 42.1118 78.08C41.8158 77.768 41.3958 77.612 40.8518 77.612C40.4438 77.612 40.0878 77.692 39.7838 77.852C39.4798 78.012 39.2438 78.248 39.0758 78.56C38.9158 78.872 38.8358 79.26 38.8358 79.724V83H37.6838V76.64H38.7878V78.356L38.6078 77.9C38.8158 77.484 39.1358 77.16 39.5678 76.928C39.9998 76.696 40.5038 76.58 41.0798 76.58ZM48.6838 83.072C48.0038 83.072 47.4038 82.932 46.8838 82.652C46.3718 82.372 45.9718 81.988 45.6838 81.5C45.4038 81.012 45.2638 80.452 45.2638 79.82C45.2638 79.188 45.3998 78.628 45.6718 78.14C45.9518 77.652 46.3318 77.272 46.8118 77C47.2998 76.72 47.8478 76.58 48.4558 76.58C49.0718 76.58 49.6158 76.716 50.0878 76.988C50.5598 77.26 50.9278 77.644 51.1918 78.14C51.4638 78.628 51.5998 79.2 51.5998 79.856C51.5998 79.904 51.5958 79.96 51.5878 80.024C51.5878 80.088 51.5838 80.148 51.5758 80.204H46.1638V79.376H50.9758L50.5078 79.664C50.5158 79.256 50.4318 78.892 50.2558 78.572C50.0798 78.252 49.8358 78.004 49.5238 77.828C49.2198 77.644 48.8638 77.552 48.4558 77.552C48.0558 77.552 47.6998 77.644 47.3878 77.828C47.0758 78.004 46.8318 78.256 46.6558 78.584C46.4798 78.904 46.3918 79.272 46.3918 79.688V79.88C46.3918 80.304 46.4878 80.684 46.6798 81.02C46.8798 81.348 47.1558 81.604 47.5078 81.788C47.8598 81.972 48.2638 82.064 48.7198 82.064C49.0958 82.064 49.4358 82 49.7398 81.872C50.0518 81.744 50.3238 81.552 50.5558 81.296L51.1918 82.04C50.9038 82.376 50.5438 82.632 50.1118 82.808C49.6878 82.984 49.2118 83.072 48.6838 83.072Z" fill="black"/>
<defs>
<clipPath id="clip0_2101_26150">
<rect x="8.5" y="8" width="40" height="40" rx="20" fill="white"/>
</clipPath>
</defs>
</svg>
