<svg width="96" height="96" viewBox="0 0 96 96" fill="none" xmlns="http://www.w3.org/2000/svg">
<rect x="0.257812" y="0.266357" width="95.4672" height="95.4672" rx="23" fill="#1B505C"/>
<path d="M70.0029 46.873H54.4766V63.8208H70.0029V46.873Z" fill="white"/>
<path d="M64.9274 35.0112H54.0625V46.8714H64.9274V35.0112Z" fill="white"/>
<path fill-rule="evenodd" clip-rule="evenodd" d="M54.7655 25.7237C54.7655 25.2671 54.5838 24.8281 54.2606 24.5049C53.9374 24.1817 53.4984 24 53.0418 24C52.9903 24 52.9373 24 52.8858 24C52.4292 24 51.9902 24.1817 51.667 24.5049C51.3438 24.8281 51.1621 25.2671 51.1621 25.7237C51.1621 33.6364 51.1621 66.0928 51.1621 66.0928H54.7671V25.7237H54.7655Z" fill="white"/>
<path fill-rule="evenodd" clip-rule="evenodd" d="M69.3168 65.8517C70.2687 65.8517 71.0405 65.0799 71.0405 64.128C71.0405 64.0765 71.0405 64.0235 71.0405 63.972C71.0405 63.0201 70.2687 62.2483 69.3168 62.2483C64.4399 62.2483 50.8945 62.2483 50.8945 62.2483V65.8533H69.3168V65.8517Z" fill="white"/>
<path fill-rule="evenodd" clip-rule="evenodd" d="M28.043 66.0945V34.7186C28.043 31.9095 30.3198 29.6343 33.1273 29.6343C35.4266 29.6343 38.0765 29.6343 40.0961 29.6343C41.9855 29.6343 43.632 30.9206 44.0903 32.7537C46.298 41.5797 52.4291 66.0945 52.4291 66.0945H28.043Z" fill="white"/>
<path d="M38.6507 65.3807C38.9105 61.7249 36.1576 58.5506 32.5018 58.2908C28.846 58.0309 25.6717 60.7839 25.4119 64.4397C25.1521 68.0955 27.905 71.2697 31.5608 71.5296C35.2166 71.7894 38.3909 69.0365 38.6507 65.3807Z" fill="white"/>
<path d="M36.1379 67.0934C37.3457 64.8369 36.4954 62.0285 34.2389 60.8207C31.9823 59.6129 29.1739 60.4632 27.9661 62.7198C26.7584 64.9763 27.6086 67.7847 29.8652 68.9925C32.1218 70.2002 34.9302 69.35 36.1379 67.0934Z" fill="#1F8862"/>
<path d="M55.7715 66.9628C55.9647 64.2451 53.9182 61.8853 51.2004 61.6922C48.4827 61.499 46.123 63.5455 45.9298 66.2632C45.7367 68.981 47.7832 71.3407 50.5009 71.5338C53.2186 71.727 55.5784 69.6805 55.7715 66.9628Z" fill="white"/>
<path d="M54.2873 66.8574C54.4222 64.96 52.9933 63.3125 51.0959 63.1776C49.1984 63.0428 47.5509 64.4716 47.4161 66.3691C47.2812 68.2665 48.71 69.914 50.6075 70.0489C52.5049 70.1837 54.1524 68.7549 54.2873 66.8574Z" fill="#1F8862"/>
<path fill-rule="evenodd" clip-rule="evenodd" d="M48.1005 48.7688C48.1005 48.7688 45.0647 36.6321 43.8298 31.6908C43.5275 30.4817 42.4421 29.6343 41.196 29.6343C38.723 29.6343 34.9668 29.6343 34.9668 29.6343V42.7969C34.9668 45.9694 37.5057 48.5582 40.6766 48.6209C44.2189 48.6917 48.1005 48.7688 48.1005 48.7688Z" fill="white"/>
<path d="M59.6932 46.873H56.6719V52.7485H59.6932V46.873Z" fill="white"/>
<path d="M57.7121 35.0112H55.5977V39.1227H57.7121V35.0112Z" fill="white"/>
</svg>
