<svg width="316" height="63" viewBox="0 0 316 63" fill="none" xmlns="http://www.w3.org/2000/svg">
<path fill-rule="evenodd" clip-rule="evenodd" d="M223.35 7.66513C239.786 8.28288 252.807 10.525 265.822 13.0012C308.506 21.1312 322.571 32.3977 292.938 42.3463C246.859 57.771 140.217 65.8901 57.8575 58.7437C39.6175 57.1664 14.9105 55.5532 -3.08277 49.6871C-19.8208 44.2326 -18.9706 38.2843 -11.1055 32.9603C-3.09639 27.5 12.2085 22.6797 24.3759 19.6413C77.5721 6.38767 183.711 -4.16496 279.23 5.31184C281.194 5.49762 283.167 5.31636 283.74 4.90965C284.312 4.50295 283.339 4.02583 281.515 3.84367C183.191 -5.90994 73.6728 4.84087 18.9203 18.4806C3.78159 22.2701 -16.0623 28.7362 -21.8615 35.807C-25.7775 40.641 -23.2329 45.7516 -8.72754 50.5148C10.3812 56.762 36.6304 58.567 55.9927 60.2452C141.018 67.6253 251.32 59.2829 298.817 43.3499C330.718 32.6583 315.833 20.5436 269.93 11.8043C255.935 9.12097 241.652 6.74549 223.811 6.07541C221.844 6.00182 220.15 6.29839 220.139 6.74014C219.988 7.17826 221.524 7.59518 223.35 7.66513Z" fill="#FFD1BF"/>
</svg>
