<svg width="393" height="662" viewBox="0 0 393 662" fill="none" xmlns="http://www.w3.org/2000/svg">
<path fill-rule="evenodd" clip-rule="evenodd" d="M367.548 10.4725C367.19 10.5684 366.831 10.6647 366.47 10.7614C335.592 19.0294 249.938 46.6323 209.006 59.8227C201.767 62.1555 195.927 64.0376 192.036 65.2821C190.409 65.8025 188.668 64.9058 188.148 63.2792C187.627 61.6526 188.524 59.9122 190.151 59.3918C194.007 58.1585 199.81 56.2884 207.012 53.9673C247.88 40.797 333.814 13.1031 364.87 4.78748C365.237 4.6892 365.603 4.59097 365.969 4.49296C370.092 3.38799 374.113 2.31042 377.582 1.49542C381.256 0.632264 384.676 -0.0300023 387.016 0.00104858C387.629 0.00919236 388.305 0.0642761 388.959 0.235051C389.583 0.398067 390.475 0.740937 391.193 1.53606C392.012 2.44311 392.277 3.57129 392.163 4.60431C392.062 5.51223 391.683 6.28044 391.334 6.84424C390.634 7.97565 389.487 9.1749 388.08 10.435C386.626 11.7368 384.709 13.2654 382.294 15.0483C373.258 21.7185 363.852 27.9021 354.54 34.024C350.479 36.6936 346.436 39.3515 342.45 42.0328C329.246 50.9136 316.509 60.1456 305.116 71.2516C305.116 71.2509 305.112 71.2556 305.102 71.2658C305.045 71.3256 304.807 71.5747 304.38 72.033C303.914 72.5334 303.275 73.2262 302.531 74.0468C301.04 75.6913 299.144 77.8313 297.38 79.9554C296.25 81.3152 295.213 82.6219 294.379 83.7635C296.169 83.6569 298 83.4036 299.89 83.0665C301.562 82.7684 303.24 82.4129 304.972 82.0456L304.998 82.0403C306.705 81.6782 308.467 81.3046 310.233 80.99C338.043 76.0372 365.594 69.8428 393.236 63.6276C395.549 63.1076 397.963 62.5558 400.445 61.9884C411.878 59.3748 424.77 56.428 436 54.707C436.764 54.5898 437.532 54.4531 438.345 54.3085L438.671 54.2505C439.589 54.0875 440.56 53.9184 441.544 53.782C443.507 53.5097 445.657 53.3463 447.876 53.6332C449.586 53.8544 450.51 55.1188 450.825 56.16C451.087 57.0276 451.002 57.8423 450.907 58.3449C450.802 58.9068 450.609 59.4637 450.357 59.9615C450.128 60.4144 449.725 61.0647 449.067 61.5802C447.83 62.5493 445.378 63.9437 442.682 65.3866C439.889 66.8818 436.548 68.5766 433.33 70.1756C430.107 71.7764 426.989 73.2899 424.635 74.4241C423.458 74.9914 422.471 75.4641 421.757 75.8057L420.902 76.2142L420.653 76.3339C420.625 76.3475 420.604 76.3575 420.589 76.3646L420.561 76.3784C417.119 78.0941 413.64 79.7848 410.153 81.4792C396.056 88.3292 381.836 95.2389 369.495 104.096C369.426 104.145 369.355 104.196 369.281 104.248C368.83 104.57 368.285 104.96 367.724 105.417C367.491 105.607 367.279 105.79 367.089 105.965C373.408 107.599 380.826 107.904 388.524 107.695C392.455 107.588 396.402 107.35 400.265 107.103C400.708 107.075 401.151 107.046 401.593 107.018C404.977 106.8 408.297 106.587 411.406 106.471C411.813 106.455 413.074 106.392 414.868 106.301C421.917 105.946 437.188 105.176 441.14 105.3C442.712 105.349 444.344 105.634 445.648 106.534C447.184 107.593 447.83 109.193 447.793 110.787C447.761 112.164 447.234 113.455 446.703 114.473C446.143 115.543 445.408 116.626 444.64 117.65C443.435 119.257 441.971 120.95 440.683 122.44C440.347 122.83 440.022 123.206 439.717 123.562C438.952 124.456 438.311 125.229 437.831 125.877C437.348 126.528 437.195 126.834 437.172 126.879C437.17 126.884 437.169 126.886 437.169 126.885C436.629 128.505 434.878 129.381 433.257 128.84C431.637 128.3 430.761 126.549 431.301 124.929C431.634 123.93 432.3 122.951 432.862 122.193C433.48 121.361 434.24 120.45 435.015 119.543C435.369 119.13 435.728 118.715 436.086 118.3C437.357 116.829 438.628 115.358 439.69 113.941C440.362 113.044 440.879 112.261 441.22 111.609C441.24 111.571 441.259 111.534 441.277 111.498C441.176 111.491 441.066 111.485 440.945 111.481C437.308 111.367 423.122 112.08 415.817 112.448C413.716 112.553 412.184 112.63 411.637 112.651C408.617 112.763 405.387 112.971 401.99 113.189C401.549 113.218 401.106 113.246 400.659 113.275C396.794 113.522 392.747 113.767 388.692 113.877C380.621 114.096 372.282 113.793 364.963 111.8C363.193 111.318 361.135 110.367 360.333 108.257C359.511 106.093 360.562 104.2 361.233 103.259C361.987 102.201 363.002 101.287 363.815 100.624C364.543 100.03 365.262 99.5178 365.707 99.2008C365.773 99.1532 365.834 99.11 365.887 99.0716C378.702 89.8752 393.533 82.6725 407.67 75.8062C411.101 74.1402 414.49 72.4939 417.801 70.8438C417.882 70.8031 418.213 70.6447 418.737 70.3944C419.477 70.0402 420.602 69.502 421.95 68.8528C424.291 67.7248 427.385 66.223 430.577 64.6372C433.337 63.2663 436.156 61.8392 438.622 60.5403C438.067 60.6373 437.502 60.7335 436.937 60.82C425.953 62.5032 413.343 65.3851 401.912 67.9975C399.406 68.5702 396.956 69.13 394.593 69.6614L394.559 69.6691C366.951 75.8766 339.276 82.0994 311.318 87.0786C309.659 87.374 307.988 87.7281 306.256 88.0955L306.233 88.1002C304.525 88.4625 302.756 88.8376 300.976 89.1549C297.403 89.7919 293.624 90.2286 289.753 89.8794C288.824 89.7956 287.564 89.3267 286.862 88.0002C286.286 86.9136 286.43 85.8485 286.535 85.34C286.755 84.2731 287.353 83.1857 287.873 82.3395C289.006 80.4969 290.806 78.1888 292.621 76.004C296.27 71.6114 300.45 67.1624 300.797 66.8236C312.595 55.3229 325.702 45.8439 338.997 36.9015C343.101 34.1411 347.209 31.4404 351.304 28.7487C360.549 22.6714 369.723 16.6403 378.62 10.073C380.408 8.75311 381.852 7.62181 382.994 6.65985C381.838 6.87544 380.502 7.16223 378.997 7.51587C375.627 8.3076 371.7 9.35997 367.548 10.4725ZM386.117 3.51291C386.118 3.51285 386.115 3.5183 386.109 3.52944C386.114 3.51854 386.117 3.51297 386.117 3.51291ZM366.142 107.058C366.14 107.058 366.146 107.042 366.165 107.009C366.153 107.041 366.144 107.057 366.142 107.058Z" fill="#D7D6FF"/>
<path fill-rule="evenodd" clip-rule="evenodd" d="M92.1641 708.212C91.7402 709.558 90.3052 710.305 88.959 709.881C66.2069 702.72 43.6644 692.324 23.8817 678.873C22.7609 678.111 21.6218 677.346 20.4719 676.574C11.6977 670.685 2.29943 664.376 -4.31112 655.591C-10.9426 646.778 -12.8499 638.802 -10.65 631.364C-9.55182 627.65 -7.47171 624.233 -4.70218 621.031C-6.15707 619.456 -7.43688 617.702 -8.49049 615.747C-12.1688 608.921 -13.279 600.845 -12.9431 592.958C-12.6065 585.053 -10.8108 577.157 -8.49176 570.531C-4.43886 558.95 2.89942 549.932 12.1183 542.939C2.80414 535.766 -0.876069 524.974 0.892919 513.11C2.96743 499.197 13.4196 489.634 24.6214 483.458C26.147 482.616 27.7012 481.846 29.2816 481.149C28.776 480.444 28.2727 479.75 27.7716 479.071C26.9334 477.936 27.1744 476.337 28.3099 475.499C29.4454 474.662 31.0454 474.902 31.8837 476.037C32.6809 477.117 33.4495 478.184 34.2019 479.242C38.1805 477.908 42.3017 477.017 46.5332 476.593C46.6584 476.58 46.7932 476.566 46.9367 476.551C48.2287 476.416 50.2225 476.209 52.1548 476.366C54.2295 476.536 57.0132 477.18 58.6654 479.592C60.8215 482.74 60.6592 486.613 59.5652 489.758C58.4714 492.902 56.2636 495.892 53.4532 497.457C50.3389 499.192 47.323 499.473 44.526 498.444C41.8725 497.468 39.7455 495.43 38.0112 493.21C36.061 490.714 34.1624 488.047 32.302 485.411C30.5302 486.152 28.7918 486.992 27.0903 487.931C16.4794 493.782 7.67934 502.253 5.94819 513.863C4.34923 524.587 7.83935 533.879 16.5338 539.833C19.3987 537.962 22.4066 536.258 25.5222 534.708C36.185 529.403 47.5307 526.728 59.0942 525.329L59.4073 525.291C67.0042 524.371 76.9661 523.165 85.202 525.837C87.2656 526.506 89.3793 527.72 90.8823 529.507C92.4392 531.358 93.3268 533.836 92.7067 536.682C92.0642 539.63 90.1452 541.949 88.1199 543.666C86.0737 545.402 83.6974 546.714 81.7187 547.618C72.3929 551.881 61.7453 553.258 51.9151 553.365C40.0823 553.494 27.5784 551.897 16.69 545.914C7.40569 552.574 0.199778 561.168 -3.66732 572.218C-5.85289 578.463 -7.52516 585.861 -7.83666 593.175C-8.14891 600.508 -7.08737 607.578 -3.99061 613.324C-3.20336 614.785 -2.24442 616.125 -1.13778 617.354C0.675636 615.664 2.6662 614.03 4.78384 612.44C11.3472 607.511 19.1494 604.457 26.4834 601.586C27.8543 601.049 29.2087 600.519 30.5357 599.984C44.2886 594.441 56.7047 590.945 71.5223 590.269C80.4036 589.864 89.4345 591.872 96.5531 598.04C99.4098 600.515 101.118 603.291 101.737 606.255C102.354 609.205 101.836 612.082 100.699 614.683C98.4635 619.793 93.6954 624.186 89.0872 627.042C72.842 637.108 53.5935 638.074 35.6419 635.921C28.6523 635.083 19.7374 633.827 11.586 630.963C7.1329 629.398 2.78859 627.313 -0.918083 624.468C-3.26838 627.204 -4.90664 629.965 -5.74859 632.812C-7.34662 638.215 -6.23554 644.534 -0.226384 652.52C5.82787 660.566 14.4532 666.366 23.3119 672.324C24.4579 673.094 25.6078 673.868 26.7566 674.649C46.0738 687.784 68.1528 697.976 90.4942 705.009C91.8404 705.432 92.5881 706.867 92.1641 708.212ZM2.6826 620.782C5.70918 623.005 9.32591 624.754 13.2809 626.143C20.8594 628.806 29.2872 630.014 36.2507 630.849C53.716 632.943 71.5836 631.877 86.3942 622.7C90.5192 620.144 94.3501 616.444 96.0157 612.636C96.8286 610.778 97.0872 608.989 96.7341 607.299C96.3839 605.622 95.3783 603.783 93.2053 601.9C87.3578 596.834 79.7537 595.008 71.7553 595.373C57.6922 596.014 45.8607 599.315 32.4473 604.722C31.0208 605.297 29.5999 605.855 28.19 606.408C20.8497 609.289 13.8096 612.052 7.85399 616.524C5.95604 617.95 4.22831 619.366 2.6826 620.782ZM21.5946 542.685C30.8335 547.065 41.3837 548.371 51.8593 548.257C61.3259 548.153 71.1747 546.82 79.593 542.972C81.3223 542.182 83.2473 541.099 84.8131 539.771C86.3998 538.425 87.4037 537.012 87.7126 535.595C87.9477 534.516 87.6623 533.617 86.9698 532.794C86.2234 531.906 85.0112 531.146 83.6239 530.696C76.5551 528.402 67.646 529.44 59.7085 530.401C48.5092 531.756 37.777 534.318 27.7997 539.282C25.6631 540.345 23.5913 541.478 21.5946 542.685ZM37.2925 483.618C38.8294 485.79 40.3729 487.932 42.0397 490.066C43.5279 491.971 44.9367 493.151 46.2914 493.65C47.5027 494.095 48.9675 494.107 50.9652 492.995C52.456 492.164 53.9626 490.308 54.7376 488.08C55.5124 485.853 55.3733 483.829 54.4481 482.478C54.1432 482.033 53.3871 481.593 51.7391 481.458C50.3102 481.342 48.7932 481.497 47.4513 481.634C47.3133 481.648 47.1772 481.662 47.0433 481.676C43.7137 482.01 40.4577 482.661 37.2925 483.618Z" fill="#D7D6FF"/>
</svg>
