<svg width="238" height="11" viewBox="0 0 238 11" fill="none" xmlns="http://www.w3.org/2000/svg">
<path fill-rule="evenodd" clip-rule="evenodd" d="M7.94038 0.80059C7.94977 0.348879 8.31302 -0.00947141 8.75173 0.000190891C24.1563 0.339465 39.5484 0.990072 54.9318 1.64031C55.7942 1.67676 56.6565 1.71321 57.5188 1.74961C73.7665 2.43535 90.0057 3.10123 106.259 3.38147C149.135 4.12077 191.606 2.24184 234.413 0.260933C234.92 0.237454 235.832 0.304411 236.506 0.409702C236.814 0.457893 237.193 0.530483 237.447 0.652877C237.513 0.684798 237.639 0.751224 237.754 0.871783C237.877 1.00202 238.073 1.30119 237.972 1.701C237.889 2.0267 237.658 2.1887 237.577 2.24063C237.471 2.3082 237.363 2.34992 237.283 2.37676C229.876 4.84389 220.516 5.27534 212.71 5.63514C211.553 5.68846 210.431 5.7402 209.354 5.79677C168.566 7.9388 127.618 7.76205 86.7606 7.58569C75.5005 7.53708 64.2472 7.48851 53.006 7.48851H48.7904C73.7945 8.26655 98.8038 8.88347 123.815 9.29883C125.858 9.33275 127.426 9.34905 128.175 9.35685L128.251 9.35764C128.429 9.3595 128.555 9.36084 128.619 9.3618C128.635 9.36203 128.65 9.36228 128.661 9.36256C128.666 9.36267 128.675 9.36291 128.685 9.36335C128.686 9.3634 128.691 9.36358 128.697 9.36395C128.704 9.36434 128.713 9.36495 128.723 9.36587C128.723 9.36587 128.765 9.36911 128.816 9.38013C128.859 9.39052 129.023 9.45677 129.136 9.53069C129.425 9.98668 129.208 10.7669 128.972 10.9302C128.907 10.9561 128.812 10.9825 128.784 10.9879C128.768 10.9904 128.743 10.9938 128.733 10.9949C128.716 10.9967 128.701 10.9976 128.697 10.9978C128.685 10.9985 128.675 10.9988 128.672 10.9989C128.664 10.9991 128.655 10.9992 128.65 10.9993C128.638 10.9994 128.623 10.9996 128.606 10.9996C128.509 11.0001 128.278 11 127.899 11C127.739 10.9999 127.552 10.9999 127.339 10.9999H101.951C101.624 10.9999 101.343 10.7967 101.221 10.5064C78.9269 10.0313 56.6356 9.40584 34.3496 8.65854C29.2442 8.48735 24.1522 8.30544 19.0612 8.12356C13.6146 7.92898 8.16903 7.73444 2.70944 7.55311C2.18132 7.53556 1.76042 7.52242 1.44562 7.51259C1.35945 7.5099 1.28122 7.50745 1.21093 7.50524C1.04836 7.50011 0.925853 7.49612 0.846366 7.49306C0.808359 7.4916 0.772914 7.49008 0.746486 7.48845L0.745678 7.4884C0.739224 7.48803 0.703751 7.48595 0.66613 7.48046C0.656622 7.47908 0.620816 7.47386 0.576944 7.46217C0.558909 7.45737 0.502717 7.44214 0.435799 7.40954C0.400062 7.39099 0.314276 7.33614 0.265959 7.29772C0.194978 7.22859 0.0554771 7.01605 0.00458349 6.86835C-0.0191348 6.67583 0.053032 6.32914 0.132767 6.18874C0.198364 6.10745 0.324756 5.99604 0.378869 5.96089C0.472251 5.9055 0.555136 5.8834 0.575201 5.87805L0.576266 5.87777C0.629928 5.86343 0.673908 5.85817 0.683955 5.85696L0.684783 5.85686C0.739177 5.8503 0.804347 5.85 0.815123 5.84995C0.81581 5.84995 0.816276 5.84995 0.816504 5.84994C0.847599 5.84958 0.888662 5.8494 0.937949 5.84932C1.03709 5.84918 1.17946 5.84948 1.36324 5.84992C1.39784 5.85001 1.43397 5.8501 1.47161 5.85019C1.83493 5.85109 2.34005 5.85234 2.98768 5.85234H53.006C64.2624 5.85234 75.5258 5.90094 86.7921 5.94955C127.643 6.12581 168.533 6.30223 209.273 4.16273C210.368 4.10521 211.502 4.05263 212.664 3.99874C219.003 3.70481 226.18 3.37196 232.495 1.98744C190.365 3.9338 148.499 5.7462 106.232 5.0174C89.9573 4.73679 73.7001 4.07008 57.4538 3.3844C56.5928 3.34806 55.7318 3.31167 54.8709 3.27528C39.4838 2.62489 24.1062 1.9749 8.71774 1.63598C8.27903 1.62632 7.931 1.2523 7.94038 0.80059ZM0.841708 5.85523C0.836307 5.8549 0.837539 5.85488 0.843224 5.85532L0.841708 5.85523ZM128.628 9.36334C128.632 9.36322 128.634 9.36322 128.631 9.36326L128.628 9.36334Z" fill="white"/>
</svg>
