<svg width="60" height="60" viewBox="0 0 60 60" fill="none" xmlns="http://www.w3.org/2000/svg">
<rect x="0.5" y="0.5" width="59" height="59" rx="29.5" fill="url(#paint0_linear_0_879)" fill-opacity="0.4"/>
<rect x="0.5" y="0.5" width="59" height="59" rx="29.5" stroke="url(#paint1_linear_0_879)"/>
<path d="M36.0193 38.2806C33.3005 42.5935 31.9412 44.75 29.9987 44.75C28.0562 44.75 26.6968 42.5935 23.9782 38.2806L20.7987 33.2366C16.9141 27.074 14.9718 23.9927 16.1967 21.6213C17.4216 19.25 20.9555 19.25 28.0233 19.25H31.9741C39.0418 19.25 42.5759 19.25 43.8007 21.6213C45.0256 23.9927 43.0833 27.074 39.1987 33.2366L36.0193 38.2806Z" stroke="#BC4400" stroke-width="3" stroke-linejoin="round"/>
<path d="M42.75 27.75H17.25M37.3409 36.25H22.9167" stroke="#BC4400" stroke-width="3" stroke-linejoin="round"/>
<defs>
<linearGradient id="paint0_linear_0_879" x1="30" y1="0" x2="30" y2="60" gradientUnits="userSpaceOnUse">
<stop stop-color="white"/>
<stop offset="1" stop-color="#FFDDCC"/>
</linearGradient>
<linearGradient id="paint1_linear_0_879" x1="15.5" y1="7" x2="39.6836" y2="60" gradientUnits="userSpaceOnUse">
<stop stop-color="#FFF9F2"/>
<stop offset="1" stop-color="#F5F5F5"/>
</linearGradient>
</defs>
</svg>
