<svg width="60" height="60" viewBox="0 0 60 60" fill="none" xmlns="http://www.w3.org/2000/svg">
<rect x="0.5" y="0.5" width="59" height="59" rx="29.5" fill="url(#paint0_linear_0_144)" fill-opacity="0.4"/>
<rect x="0.5" y="0.5" width="59" height="59" rx="29.5" stroke="url(#paint1_linear_0_144)"/>
<path d="M40.8125 37.9705H20.1875C19.4971 37.9705 18.9375 38.5302 18.9375 39.2205V40.4705C18.9375 41.1609 19.4971 41.7205 20.1875 41.7205H40.8125C41.5029 41.7205 42.0625 41.1609 42.0625 40.4705V39.2205C42.0625 38.5302 41.5029 37.9705 40.8125 37.9705Z" stroke="#BC4400" stroke-width="3" stroke-linecap="round" stroke-linejoin="round"/>
<path d="M22.0625 27.3425V37.98M38.9375 27.3425V37.98M33.625 27.3425V37.98M27.375 27.3425V37.98M29.3 18.9375L19.5875 24.25C19.3908 24.3576 19.2267 24.5162 19.1123 24.7091C18.9979 24.9019 18.9376 25.122 18.9375 25.3463V26.5925C18.9375 26.7914 19.0165 26.9822 19.1572 27.1228C19.2978 27.2635 19.4886 27.3425 19.6875 27.3425H41.3125C41.5114 27.3425 41.7022 27.2635 41.8428 27.1228C41.9835 26.9822 42.0625 26.7914 42.0625 26.5925V25.3463C42.0624 25.122 42.0021 24.9019 41.8877 24.7091C41.7733 24.5162 41.6092 24.3576 41.4125 24.25L31.7 18.9375C31.3321 18.7362 30.9194 18.6307 30.5 18.6307C30.0806 18.6307 29.6679 18.7362 29.3 18.9375Z" stroke="#BC4400" stroke-width="3" stroke-linecap="round" stroke-linejoin="round"/>
<defs>
<linearGradient id="paint0_linear_0_144" x1="30" y1="0" x2="30" y2="60" gradientUnits="userSpaceOnUse">
<stop stop-color="white"/>
<stop offset="1" stop-color="#FFDDCC"/>
</linearGradient>
<linearGradient id="paint1_linear_0_144" x1="15.5" y1="7" x2="39.6836" y2="60" gradientUnits="userSpaceOnUse">
<stop stop-color="#FFF9F2"/>
<stop offset="1" stop-color="#F5F5F5"/>
</linearGradient>
</defs>
</svg>
