<svg width="60" height="60" viewBox="0 0 60 60" fill="none" xmlns="http://www.w3.org/2000/svg">
<rect x="0.5" y="0.5" width="59" height="59" rx="29.5" fill="url(#paint0_linear_0_52)" fill-opacity="0.4"/>
<rect x="0.5" y="0.5" width="59" height="59" rx="29.5" stroke="url(#paint1_linear_0_52)"/>
<path d="M18.75 27.5H41.25" stroke="#BC4400" stroke-width="1.5" stroke-linejoin="round"/>
<path d="M33.75 22.5H36.25" stroke="#BC4400" stroke-width="1.5" stroke-linecap="round" stroke-linejoin="round"/>
<path d="M41.25 31.25V28.75C41.25 23.4467 41.25 20.7951 39.6025 19.1475C37.955 17.5 35.3032 17.5 30 17.5C24.6967 17.5 22.045 17.5 20.3975 19.1475C18.75 20.7951 18.75 23.4467 18.75 28.75V31.25C18.75 36.5532 18.75 39.205 20.3975 40.8525C22.045 42.5 24.6967 42.5 30 42.5C35.3032 42.5 37.955 42.5 39.6025 40.8525C41.25 39.205 41.25 36.5532 41.25 31.25Z" stroke="#BC4400" stroke-width="1.5"/>
<path d="M23.75 32.5H24.4079M29.671 32.5H30.329M35.5921 32.5H36.25" stroke="#BC4400" stroke-width="1.5" stroke-linecap="round" stroke-linejoin="round"/>
<path d="M23.75 37.5H24.4079M29.671 37.5H30.329M35.5921 37.5H36.25" stroke="#BC4400" stroke-width="1.5" stroke-linecap="round" stroke-linejoin="round"/>
<defs>
<linearGradient id="paint0_linear_0_52" x1="30" y1="0" x2="30" y2="60" gradientUnits="userSpaceOnUse">
<stop stop-color="white"/>
<stop offset="1" stop-color="#FFDDCC"/>
</linearGradient>
<linearGradient id="paint1_linear_0_52" x1="15.5" y1="7" x2="39.6836" y2="60" gradientUnits="userSpaceOnUse">
<stop stop-color="#FFF9F2"/>
<stop offset="1" stop-color="#F5F5F5"/>
</linearGradient>
</defs>
</svg>
