<svg width="47" height="47" viewBox="0 0 47 47" fill="none" xmlns="http://www.w3.org/2000/svg">
<path d="M35.0119 26.4487C38.2022 26.4487 39.7179 26.4447 40.4955 26.5133C40.8868 26.5479 41.0364 26.5976 41.1094 26.6404C41.1754 26.6794 41.1992 26.7181 41.3235 26.8926L41.4656 27.0928L41.5165 37.0243L41.5175 37.2976L42.4675 37.4576C43.8103 37.6836 45.0557 38.6068 45.6674 39.8308C45.8419 40.1803 45.9986 40.6222 46.0247 40.796C46.0437 40.9227 46.0736 41.0457 46.1116 41.1414C46.1286 41.184 46.1573 41.2493 46.206 41.3056C46.2103 41.3105 46.217 41.3154 46.2229 41.3215C46.2347 41.4183 46.2441 41.5649 46.2441 41.7389C46.2441 41.9179 46.2357 42.0822 46.2229 42.2008C46.2183 42.244 46.2113 42.2769 46.207 42.3004C46.1876 42.3277 46.1735 42.3554 46.1625 42.3778C46.1405 42.4226 46.1217 42.4729 46.1063 42.5208C46.075 42.6181 46.0471 42.7371 46.0279 42.8577C45.9489 43.3526 45.6668 43.9405 45.2549 44.484C44.8447 45.0254 44.3282 45.4929 43.8151 45.7649C43.4926 45.9358 43.4249 46.0115 43.1206 46.0806C42.7964 46.1543 42.2352 46.2062 41.0203 46.2395C38.603 46.3059 33.7065 46.2971 23.2081 46.2978C16.4755 46.2983 11.6813 46.2915 8.52787 46.2756C6.95098 46.2676 5.78525 46.2574 4.993 46.2448C4.59671 46.2385 4.29538 46.2311 4.08331 46.2236C3.97709 46.2199 3.89458 46.2158 3.83521 46.212C3.78079 46.2085 3.75771 46.206 3.75357 46.2056C1.90656 45.8228 0.47926 44.227 0.244141 42.3661C0.255708 42.329 0.264275 42.2983 0.265346 42.2909C0.268866 42.2668 0.272244 42.2388 0.274888 42.2093C0.295806 41.977 0.29588 41.6272 0.273828 41.4168C0.271084 41.3907 0.266811 41.3633 0.262165 41.3384C0.259969 41.3267 0.256361 41.3062 0.249442 41.2844C0.248649 41.2819 0.247376 41.2792 0.246261 41.2759C0.491611 39.3793 1.98567 37.7857 3.92109 37.4534L4.57526 37.3411L4.84456 37.2955L4.84562 37.0222L4.87107 32.0067C4.88356 29.4943 4.88971 28.2485 4.91772 27.594C4.93186 27.2638 4.95138 27.1092 4.97179 27.025C4.98594 26.9669 4.99525 26.953 5.03753 26.8937C5.11892 26.7797 5.30338 26.6224 5.4171 26.5663C5.43345 26.5583 5.48163 26.538 5.64717 26.5197C5.81293 26.5013 6.0705 26.4876 6.49007 26.4773C7.3274 26.4567 8.77269 26.4517 11.3365 26.4508C14.5346 26.4497 16.0537 26.4449 16.8328 26.5133C17.2251 26.5477 17.3749 26.5976 17.4478 26.6404C17.5138 26.6794 17.5374 26.7178 17.6619 26.8926L17.804 27.0928L17.8549 37.0593L17.856 37.3824H28.5062L28.5072 37.0593L28.5571 27.0928L28.7002 26.8926C28.8245 26.7181 28.8483 26.6794 28.9144 26.6404C28.9873 26.5976 29.1369 26.5479 29.5282 26.5133C30.3058 26.4447 31.8215 26.4487 35.0119 26.4487ZM6.30453 40.1963C5.62927 39.5203 4.78752 39.3118 3.87974 39.5999C3.44432 39.7381 3.05105 40.0917 2.77178 40.4866C2.49155 40.883 2.28834 41.3752 2.2883 41.8406C2.2883 42.4662 2.58507 43.058 3.01457 43.4881C3.44413 43.9182 4.03565 44.2159 4.66114 44.216C5.28667 44.216 5.87813 43.9182 6.30771 43.4881C6.73725 43.058 7.03504 42.4662 7.03504 41.8406C7.03501 41.2345 6.76785 40.6603 6.30453 40.1963ZM8.55014 39.4653L8.70493 39.8997L8.8926 40.4241C9.01904 40.7789 9.06011 41.0734 9.06012 41.8406C9.06012 42.6083 9.01917 42.9032 8.8926 43.2582L8.70493 43.7816L8.55014 44.216H37.812L37.6561 43.7816L37.4695 43.2582C37.3429 42.9032 37.302 42.6083 37.302 41.8406C37.302 41.0734 37.3431 40.7789 37.4695 40.4241L37.6561 39.8997L37.812 39.4653H8.55014ZM43.3444 40.1963C42.6691 39.5203 41.8274 39.3118 40.9196 39.5999C40.6205 39.6948 40.2958 39.9535 40.0427 40.2165C39.7884 40.4808 39.5426 40.8166 39.4522 41.1213C39.3211 41.5634 39.2965 41.9867 39.4002 42.3916C39.5039 42.7962 39.7298 43.1577 40.0576 43.486C40.5209 43.9496 41.0951 44.216 41.701 44.216C42.3263 44.2159 42.917 43.918 43.3465 43.4881C43.7761 43.058 44.0738 42.4663 44.0738 41.8406C44.0738 41.2345 43.8076 40.6603 43.3444 40.1963ZM6.92902 28.5316V37.3824H15.7715V28.5316H12.3893V30.5965C12.3893 31.5771 12.3734 32.0845 12.3034 32.3944C12.271 32.538 12.2298 32.622 12.1836 32.6847C12.1349 32.7507 12.066 32.8131 11.9461 32.8987C11.8208 32.9882 11.6017 33.0513 11.3503 33.0513C11.0988 33.0513 10.8797 32.9882 10.7544 32.8987C10.6345 32.8131 10.5656 32.7507 10.5169 32.6847C10.4707 32.622 10.4295 32.538 10.3971 32.3944C10.3271 32.0845 10.3112 31.5772 10.3112 30.5965V28.5316H6.92902ZM30.5906 28.5316V37.3824H39.4331V28.5316H36.0509V30.5965C36.0509 31.5771 36.035 32.0845 35.965 32.3944C35.9326 32.538 35.8914 32.622 35.8452 32.6847C35.7965 32.7507 35.7276 32.8131 35.6077 32.8987C35.4824 32.9882 35.2633 33.0513 35.0119 33.0513C34.7604 33.0513 34.5413 32.9882 34.416 32.8987C34.2961 32.8131 34.2272 32.7507 34.1785 32.6847C34.1323 32.622 34.0911 32.538 34.0587 32.3944C33.9887 32.0845 33.9728 31.5771 33.9728 30.5965V28.5316H30.5906ZM23.1678 10.0492C26.3659 10.048 27.8851 10.0433 28.6641 10.1117C29.0567 10.1462 29.2063 10.197 29.2791 10.2399C29.3447 10.2786 29.3687 10.3166 29.4922 10.4899L29.6353 10.6912V22.4185L29.4922 22.6198C29.368 22.794 29.345 22.833 29.2791 22.8719C29.2063 22.9148 29.0568 22.9655 28.6652 23.0001C27.8876 23.0688 26.371 23.0637 23.1805 23.0637C19.9904 23.0637 18.4745 23.0688 17.6969 23.0001C17.3053 22.9655 17.1558 22.9148 17.083 22.8719C17.0171 22.833 16.9931 22.7941 16.8689 22.6198L16.7268 22.4195V10.6902L16.8678 10.4931L16.9463 10.402C17.0376 10.3071 17.162 10.208 17.2474 10.1657C17.2635 10.1578 17.3119 10.1376 17.4785 10.1191C17.6443 10.1008 17.9018 10.086 18.3214 10.0757C19.1587 10.055 20.604 10.0501 23.1678 10.0492ZM18.7603 12.13V20.9818H27.6018V12.13H24.2206V14.1959C24.2206 15.1769 24.2037 15.684 24.1337 15.9939C24.1013 16.137 24.061 16.2205 24.0149 16.2831C23.9662 16.3491 23.8965 16.4124 23.7764 16.4982C23.651 16.5875 23.4317 16.6497 23.1805 16.6497C22.9296 16.6496 22.711 16.5874 22.5857 16.4982C22.4656 16.4124 22.3959 16.3491 22.3472 16.2831C22.3011 16.2205 22.2608 16.137 22.2284 15.9939C22.1584 15.684 22.1415 15.1769 22.1415 14.1959V12.13H18.7603ZM23.1805 0.297852C30.7834 0.297852 34.733 0.299281 36.8196 0.32116C37.8645 0.332119 38.434 0.34827 38.7598 0.370955C39.0892 0.393895 39.1252 0.422787 39.1373 0.429226C39.2598 0.494599 39.4029 0.634971 39.5169 0.820169C39.6028 0.959871 39.6571 1.09982 39.6791 1.21535L39.6897 1.32236C39.6901 1.449 39.6404 1.63286 39.5434 1.81925C39.4459 2.00638 39.3252 2.14974 39.2253 2.21761C39.1945 2.2385 39.1591 2.28761 38.4078 2.3172C37.6818 2.34577 36.3571 2.35919 33.8413 2.38076L27.2996 2.43692L31.4929 4.76774C32.3484 5.24324 33.1515 5.69442 33.7555 6.03911C34.0576 6.21153 34.3101 6.35723 34.4934 6.46501C34.5848 6.51873 34.6581 6.56241 34.7118 6.59533C34.7699 6.63099 34.7911 6.64618 34.7913 6.64618C34.883 6.71752 34.9319 6.76795 34.9673 6.82735C35.004 6.88885 35.0404 6.9829 35.0691 7.15684C35.129 7.5197 35.1412 8.12628 35.1412 9.2726C35.1412 10.4562 35.1296 11.0552 35.0596 11.4095C35.0268 11.5749 34.9844 11.6633 34.9398 11.7253C34.8923 11.7909 34.8252 11.8516 34.698 11.9425C34.5728 12.0319 34.3535 12.0939 34.1022 12.094C33.851 12.094 33.6317 12.0318 33.5063 11.9425C33.3903 11.8596 33.3213 11.7957 33.272 11.7295C33.2249 11.6663 33.1838 11.5844 33.1511 11.4498C33.0806 11.1589 33.061 10.691 33.0589 9.79916L33.0546 8.21737V8.02667L32.8871 7.93449L28.1605 5.30807C26.8596 4.58512 25.6606 3.93002 24.7762 3.45824C24.3346 3.22266 23.9697 3.03238 23.7096 2.90096C23.58 2.83549 23.4728 2.78315 23.3947 2.74734C23.3564 2.72981 23.3204 2.71351 23.2897 2.70178C23.275 2.69615 23.255 2.68856 23.2335 2.68271C23.223 2.67984 23.2061 2.67607 23.1858 2.67318C23.1719 2.67119 23.1246 2.66421 23.0671 2.67636C23.0285 2.6845 22.9953 2.69967 22.9929 2.70072C22.9806 2.70595 22.9678 2.71193 22.9558 2.71768C22.931 2.72949 22.8992 2.7455 22.8625 2.76429C22.7882 2.80221 22.6849 2.85629 22.5571 2.92427C22.3012 3.06043 21.9414 3.25506 21.5043 3.49321C20.6295 3.96979 19.4424 4.62332 18.1549 5.33774L13.3085 8.02667L13.3075 8.21737L13.3032 9.7981C13.3009 10.6902 13.2816 11.1589 13.211 11.4498C13.1783 11.5844 13.1372 11.6663 13.0901 11.7295C13.0408 11.7957 12.9718 11.8596 12.8558 11.9425C12.7304 12.0318 12.5112 12.094 12.26 12.094C12.0086 12.0939 11.7894 12.0319 11.6641 11.9425C11.5307 11.8472 11.4621 11.7851 11.4139 11.7179C11.3688 11.655 11.3267 11.5653 11.2951 11.3926C11.2275 11.0229 11.2236 10.3935 11.2389 9.14017C11.2518 8.09109 11.2614 7.54558 11.2888 7.23101C11.3023 7.07581 11.3193 6.99746 11.3344 6.95131C11.3464 6.91444 11.3595 6.89012 11.3916 6.84642C11.3783 6.86444 11.3786 6.85866 11.4266 6.82099C11.4668 6.78949 11.5254 6.7478 11.6037 6.69492C11.7596 6.5895 11.9816 6.44933 12.2695 6.27537C12.8449 5.92769 13.6713 5.45115 14.7303 4.8578L19.0519 2.43692L12.5197 2.38076C10.0044 2.35919 8.68022 2.34577 7.95428 2.3172C7.39024 2.29499 7.22982 2.26157 7.17181 2.23774L7.13683 2.21761C7.03689 2.14975 6.91619 2.00641 6.81875 1.81925C6.72174 1.63285 6.67197 1.449 6.67244 1.32236C6.67309 1.19311 6.73072 1.00633 6.84526 0.820169C6.95927 0.63496 7.10226 0.494585 7.22483 0.429226C7.23691 0.422787 7.27294 0.393895 7.60227 0.370955C7.9281 0.348272 8.4976 0.332118 9.54253 0.32116C11.6291 0.299281 15.578 0.297852 23.1805 0.297852Z" fill="#121212"/>
</svg>
