<svg width="56" height="56" viewBox="0 0 56 56" fill="none" xmlns="http://www.w3.org/2000/svg">
<g clip-path="url(#clip0_167_3281)">
<path d="M1.8125 0.700195C1.87666 0.728047 1.9345 0.751525 1.97461 0.767578C2.06206 0.802583 2.09523 0.817671 2.11133 0.827148C2.37535 0.983671 2.48653 1.17632 2.54395 1.44629C2.61322 1.77223 2.593 2.13752 2.58496 2.6543C2.58121 2.89592 2.58293 3.15876 2.58203 3.38184L2.5791 4.08496L53.4082 4.08789L53.4141 3.39453C53.4171 3.04034 53.4181 2.68562 53.417 2.33105C53.4143 1.53832 53.3995 1.27523 53.7139 0.950195C53.8032 0.857868 53.8455 0.839047 53.8867 0.821289C53.913 0.809963 54.0332 0.766921 54.1738 0.700195H54.5283C54.6159 0.742484 54.6957 0.781392 54.752 0.808594C54.8538 0.857838 54.9137 0.890869 54.96 0.922852C55.0233 0.96668 55.1036 1.0347 55.2129 1.27051C55.225 1.29652 55.2441 1.34248 55.2744 1.41992C55.2811 1.43696 55.2908 1.45698 55.2998 1.47949V54.5107C55.1727 54.8077 55.1151 54.9211 55.0449 55.002C54.9862 55.0696 54.8806 55.1578 54.5273 55.2998H54.1963C54.1538 55.2803 54.1141 55.2633 54.0781 55.248C53.988 55.2099 53.9451 55.1927 53.8916 55.168C53.8171 55.1335 53.7622 55.1013 53.6904 55.0264C53.4058 54.7284 53.4121 54.4915 53.416 53.7461L53.4307 51.9424L52.7402 51.9277C52.0254 51.9125 51.2908 51.9096 50.5586 51.9111L48.3906 51.918L4.75586 51.9199C4.58965 51.9204 4.23741 51.9272 4.00488 51.9287C3.72228 51.9305 3.49214 51.9261 3.36816 51.9111L2.58984 51.8174L2.58398 52.6006C2.58183 52.8558 2.57946 53.137 2.58496 53.4062C2.59521 53.9057 2.60867 54.2733 2.53418 54.5879C2.47208 54.8501 2.35744 55.0338 2.0918 55.1758C2.0698 55.1876 2.03802 55.2009 1.95508 55.2334C1.91611 55.2487 1.86038 55.2718 1.79785 55.2998H1.46484C1.24051 55.1998 1.13236 55.1502 1.04102 55.084C0.96915 55.0318 0.889135 54.956 0.787109 54.7441C0.774997 54.7189 0.761555 54.6861 0.735352 54.624C0.726521 54.6031 0.713296 54.5773 0.700195 54.5479V1.45996C0.718983 1.41799 0.737532 1.37686 0.751953 1.3418C0.773523 1.28935 0.787878 1.25427 0.803711 1.2168C0.816656 1.18616 0.823167 1.17317 0.824219 1.1709C0.913585 1.00569 0.986563 0.943527 1.06055 0.895508C1.10949 0.863786 1.17056 0.831701 1.26367 0.787109C1.31096 0.764465 1.37392 0.733303 1.44336 0.700195H1.8125ZM2.58789 46.0303C2.57002 47.0997 2.59219 48.2796 2.58203 49.3154L2.5752 50.0225L50.0332 50.0264C50.1047 50.0264 50.2974 50.028 50.5557 50.0293C50.8116 50.0306 51.1276 50.0321 51.4375 50.0322C51.7464 50.0323 52.0529 50.0311 52.29 50.0273C52.4079 50.0255 52.5142 50.0232 52.5967 50.0195C52.637 50.0177 52.6789 50.0152 52.7168 50.0117C52.7353 50.01 52.7608 50.0071 52.7881 50.0029C52.8008 50.001 52.8711 49.9916 52.9502 49.9609L53.1006 49.9023L53.21 49.7842L53.2246 49.7686L53.4053 49.5732L53.4111 49.3066C53.4224 48.7599 53.4187 48.21 53.416 47.6729C53.4133 47.132 53.4116 46.6026 53.4248 46.082L53.4424 45.373L52.7334 45.3643C48.5896 45.3139 44.3565 45.3552 40.2227 45.3555L4.55176 45.3574C4.47006 45.3576 4.36301 45.3597 4.25293 45.3613C4.14003 45.363 4.01825 45.3647 3.89941 45.3652C3.63855 45.3663 3.45964 45.3603 3.39844 45.3506L2.60156 45.2227L2.58789 46.0303ZM2.58789 26.3438C2.54501 29.0802 2.55776 31.8233 2.57422 34.5596C2.5907 37.2984 2.61041 40.0298 2.58203 42.7529L2.5752 43.4561L3.27832 43.46C5.44988 43.4711 7.77908 43.5008 9.96094 43.4629L10.6484 43.4512L10.6533 32.3994C10.6533 31.9176 10.6224 31.6012 10.6621 31.2598C10.6966 30.9634 10.7786 30.7636 10.9404 30.6035C11.0902 30.4553 11.3024 30.3711 11.6406 30.3389C12.0202 30.3027 12.3535 30.339 12.8467 30.3389H24.4062C24.7886 30.3423 24.9358 30.3508 25.1074 30.4326C25.44 30.5911 25.5568 30.7914 25.6172 31.0664C25.6958 31.4246 25.6634 31.8118 25.6631 32.4004L25.6611 34.7793L25.6709 38.7734C25.6743 40.1048 25.6739 41.4338 25.6602 42.7529L25.6533 43.457L26.3574 43.46C27.4172 43.4648 28.5692 43.4817 29.6484 43.4629L30.335 43.4512L30.3428 34.5752L30.3398 32.376C30.3393 31.8931 30.3094 31.5824 30.3496 31.249C30.3841 30.963 30.4642 30.7644 30.6318 30.5986C30.7761 30.4562 30.9471 30.3859 31.1943 30.3535C31.4832 30.3158 31.7591 30.3384 32.1885 30.3389L42.8203 30.3379C43.5293 30.3379 44.1644 30.2997 44.7041 30.3984C44.803 30.4165 44.9526 30.4941 45.0938 30.6523C45.2345 30.8103 45.3063 30.9813 45.3193 31.0967C45.3423 31.3005 45.3506 31.5046 45.3525 31.7197L45.3496 32.4102L45.3477 34.7734C45.3474 37.4316 45.3755 40.1133 45.3477 42.7529L45.3398 43.4561L46.0439 43.46C48.2155 43.4711 50.5451 43.5008 52.7266 43.4629L53.4141 43.4512L53.4199 31.2939C53.4199 29.6643 53.3914 27.9842 53.4248 26.3916L53.4395 25.6855L52.7334 25.6777C48.6025 25.628 44.3874 25.6679 40.2666 25.668L4.58984 25.6699C4.47509 25.6701 4.11041 25.6769 3.91699 25.6777C3.64551 25.6789 3.45869 25.6728 3.39746 25.6631L2.60059 25.5361L2.58789 26.3438ZM12.541 32.9053C12.4888 36.1296 12.5675 39.5578 12.5352 42.7529L12.5283 43.46L23.7725 43.4629L23.7793 39.335C23.779 37.2259 23.7384 35.0248 23.7842 32.9551L23.7998 32.248L23.0928 32.2393C22.7396 32.2349 22.3864 32.2325 22.0332 32.2314L20.9727 32.2334C20.8945 32.2337 20.7959 32.2348 20.6953 32.2363C20.5916 32.2379 20.4812 32.2398 20.373 32.2402C20.1389 32.2412 19.9697 32.2357 19.8984 32.2256L19.0986 32.1113L19.1006 33.9385C19.1036 34.671 19.0966 34.9406 18.8203 35.2207L18.8193 35.2217C18.6432 35.4006 18.4027 35.5007 18.1514 35.501C17.8972 35.498 17.6544 35.3956 17.4756 35.2148C17.3823 35.1206 17.3114 35.0066 17.2695 34.8809C17.2601 34.8494 17.243 34.7581 17.2295 34.5898C17.2167 34.43 17.21 34.2396 17.208 34.0371C17.2041 33.6268 17.2177 33.2208 17.2217 32.9502L17.2324 32.248L16.5303 32.2393C16.1703 32.2349 15.8103 32.2325 15.4502 32.2314L14.3701 32.2334C14.2943 32.2337 14.1988 32.2358 14.1025 32.2373C14.0025 32.2389 13.8967 32.2399 13.793 32.2402C13.5649 32.2409 13.4097 32.2349 13.3516 32.2256L12.5537 32.0977L12.541 32.9053ZM32.2285 32.9053C32.1763 36.1297 32.255 39.5577 32.2227 42.7529L32.2158 43.46L43.46 43.4629L43.4668 39.335C43.4665 37.2258 43.426 35.0246 43.4717 32.9551L43.4873 32.248L42.7803 32.2393C42.4219 32.2349 42.0635 32.2325 41.7051 32.2314L40.6289 32.2334C40.5509 32.2337 40.4545 32.2348 40.3574 32.2363C40.2568 32.2379 40.151 32.2398 40.0469 32.2402C39.8222 32.2412 39.6591 32.2359 39.5859 32.2256L38.7861 32.1113L38.7881 33.9385C38.7914 34.6706 38.7841 34.9403 38.5078 35.2207L38.5068 35.2217C38.3309 35.4007 38.0902 35.501 37.8389 35.501C37.6163 35.4983 37.4029 35.42 37.2334 35.2793L37.1641 35.2158C36.9317 34.9788 36.8931 34.746 36.9004 34.1553C36.9059 33.7083 36.903 33.3799 36.9092 32.9492L36.9189 32.248L36.2178 32.2393C35.8578 32.2349 35.4978 32.2325 35.1377 32.2314L34.0576 32.2334C33.9818 32.2337 33.8864 32.2358 33.79 32.2373C33.69 32.2388 33.5842 32.2399 33.4805 32.2402C33.2525 32.2409 33.0967 32.2349 33.0381 32.2256L32.2412 32.0977L32.2285 32.9053ZM2.58789 6.66211C2.58347 7.36446 2.58 8.06716 2.5791 8.76953L2.58203 10.876C2.5832 14.9301 2.62414 19.0318 2.58203 23.0654L2.5752 23.7695L3.27832 23.7725C5.44984 23.7835 7.77907 23.8133 9.96094 23.7754L10.6484 23.7637L10.6533 12.7275C10.6533 12.2434 10.6224 11.9241 10.6621 11.5781C10.6967 11.2769 10.7792 11.0762 10.9404 10.917C11.091 10.7683 11.2996 10.6846 11.6299 10.6523C12.0024 10.616 12.3308 10.6515 12.8203 10.6514H24.4062C24.7116 10.6542 24.8803 10.6697 25.0137 10.709C25.1245 10.7416 25.2436 10.8015 25.4043 10.96C25.5409 11.0948 25.6216 11.2853 25.6553 11.5938C25.6928 11.9384 25.6633 12.2557 25.6631 12.7129L25.6611 15.0918L25.6709 19.0859C25.6743 20.4173 25.6739 21.7464 25.6602 23.0654L25.6533 23.7695L26.3574 23.7725C27.4182 23.7774 28.5676 23.7938 29.6475 23.7754L30.335 23.7637L30.3428 14.8994L30.3398 12.6924C30.3393 12.21 30.3094 11.8985 30.3496 11.5635C30.3842 11.2758 30.465 11.0779 30.6318 10.9131C30.7783 10.7685 30.9433 10.6998 31.1777 10.668C31.4561 10.6302 31.7231 10.6513 32.1514 10.6514L42.8301 10.6504L43.3281 10.6426C43.4933 10.6386 43.6518 10.6352 43.8076 10.6357C44.1233 10.6368 44.393 10.6548 44.6182 10.707C44.8386 10.7582 44.983 10.834 45.0811 10.9277C45.1733 11.016 45.2729 11.1663 45.3262 11.4561C45.3501 11.5864 45.3596 11.7776 45.3594 12.0186C45.3592 12.1345 45.3579 12.2524 45.3555 12.3721L45.3496 12.7227L45.3477 15.0859C45.3474 17.7443 45.3752 20.4259 45.3477 23.0654L45.3408 23.7686L46.0439 23.7725C48.2155 23.7838 50.545 23.8133 52.7266 23.7754L53.4141 23.7637L53.4199 11.6328C53.4199 9.99459 53.3911 8.30503 53.4248 6.7041L53.4395 5.99805L52.7334 5.99023C48.6093 5.94057 44.4011 5.98041 40.2871 5.98047L4.58984 5.98242C4.47522 5.9826 4.11026 5.98942 3.91699 5.99023C3.64557 5.99137 3.4588 5.98535 3.39746 5.97559L2.59277 5.84766L2.58789 6.66211ZM12.541 13.2178C12.5145 14.8564 12.5209 16.5077 12.5303 18.1523C12.5397 19.7994 12.5516 21.4391 12.5352 23.0654L12.5283 23.7725L23.0732 23.7754L23.7725 23.7764L23.7793 19.6475C23.779 17.5384 23.7384 15.3371 23.7842 13.2676L23.7998 12.5615L23.0928 12.5527C22.735 12.5483 22.3773 12.545 22.0195 12.5439L20.9453 12.5459C20.8673 12.5462 20.7705 12.5473 20.6729 12.5488C20.572 12.5504 20.4658 12.5523 20.3613 12.5527C20.1354 12.5536 19.9712 12.5484 19.8984 12.5381L19.0986 12.4238L19.1006 14.25C19.1036 14.9829 19.0966 15.2532 18.8203 15.5332L18.8193 15.5342C18.6431 15.7133 18.4026 15.8134 18.1514 15.8135C17.8973 15.8106 17.6544 15.7089 17.4756 15.5283C17.3823 15.4341 17.3114 15.3191 17.2695 15.1934C17.2601 15.1619 17.243 15.0706 17.2295 14.9023C17.2167 14.7425 17.21 14.5521 17.208 14.3496C17.2041 13.9393 17.2177 13.5333 17.2217 13.2627L17.2324 12.5605L16.5303 12.5527C16.1755 12.5483 15.8206 12.545 15.4658 12.5439L14.4014 12.5459C14.3253 12.5462 14.2273 12.5483 14.1279 12.5498C14.025 12.5514 13.9152 12.5524 13.8076 12.5527C13.5711 12.5534 13.4098 12.5473 13.3516 12.5381L12.5537 12.4102L12.541 13.2178ZM32.2285 13.2178C32.1763 16.4422 32.255 19.8701 32.2227 23.0654L32.2158 23.7725L42.7607 23.7754L43.46 23.7764L43.4668 19.6475C43.4665 17.5383 43.426 15.3372 43.4717 13.2676L43.4873 12.5615L42.7803 12.5527C42.4232 12.5483 42.0661 12.545 41.709 12.5439L40.6367 12.5459C40.5586 12.5462 40.4614 12.5473 40.3633 12.5488C40.2621 12.5504 40.1556 12.5523 40.0508 12.5527C39.8238 12.5537 39.6581 12.5485 39.585 12.5381L38.7861 12.4248L38.7881 14.25C38.7911 14.9831 38.784 15.2532 38.5078 15.5332C38.3313 15.7126 38.09 15.8135 37.8389 15.8135C37.5849 15.8106 37.3419 15.7089 37.1631 15.5283C37.0698 15.4341 36.9988 15.3191 36.957 15.1934C36.9476 15.1623 36.9305 15.071 36.917 14.9023C36.9042 14.7425 36.8975 14.5521 36.8955 14.3496C36.8915 13.9393 36.9052 13.5333 36.9092 13.2627L36.9199 12.5615L36.2178 12.5527C35.863 12.5483 35.5082 12.545 35.1533 12.5439L34.0889 12.5459C34.0127 12.5462 33.9148 12.5483 33.8154 12.5498C33.7125 12.5514 33.6027 12.5524 33.4951 12.5527C33.2583 12.5534 33.0964 12.5474 33.0381 12.5381L32.2412 12.4111L32.2285 13.2178Z" fill="#99A2AD"/>
</g>
<defs>
<clipPath id="clip0_167_3281">
<rect width="56" height="56" fill="white"/>
</clipPath>
</defs>
</svg>
