<svg width="56" height="56" viewBox="0 0 56 56" fill="none" xmlns="http://www.w3.org/2000/svg">
<g clip-path="url(#clip0_174_3396)">
<path d="M54.5137 0.700195C54.684 0.786891 54.7937 0.840251 54.8936 0.894531C55.0072 0.956339 55.0328 0.980196 55.04 0.987305C55.0442 0.991434 55.0656 1.01217 55.1191 1.11426C55.1665 1.20468 55.2187 1.32129 55.2998 1.49902V54.5088C55.1693 54.8104 55.1204 54.9124 55.0557 54.9893C55.0186 55.0332 54.9571 55.0912 54.7773 55.1826L54.5547 55.2861C54.549 55.2886 54.5421 55.2913 54.5283 55.2969C54.5263 55.2977 54.524 55.2988 54.5215 55.2998H1.45801C1.22659 55.2003 1.12149 55.1511 1.03906 55.0889C0.990104 55.0519 0.933298 54.9982 0.860352 54.874L0.78125 54.7236C0.770831 54.7018 0.758621 54.6712 0.733398 54.6094C0.725275 54.5895 0.712592 54.5641 0.700195 54.5352V54.1748C0.704366 54.1659 0.709185 54.1575 0.712891 54.1494C0.738819 54.0927 0.775591 54.0072 0.793945 53.9658C0.818441 53.9106 0.837712 53.8693 0.855469 53.8369C0.86998 53.8105 0.87914 53.7992 0.880859 53.7969C1.04527 53.6051 1.21717 53.4416 1.43555 53.2236L2.58008 52.082L52.3252 2.33789C52.7792 1.88273 53.2103 1.44006 53.6582 1.00098C53.8056 0.856566 53.8487 0.838708 53.8662 0.830078C53.9003 0.81331 53.9182 0.806889 54.0078 0.767578C54.0489 0.749551 54.093 0.725403 54.1445 0.700195H54.5137ZM43.3643 13.9717L43.8594 14.4668L45.2344 15.8389L45.2354 15.8398C45.4433 16.0467 45.6492 16.2356 45.8799 16.4736C46.1082 16.7092 46.2616 16.8965 46.3271 17.0176L46.373 17.1182C46.4616 17.3605 46.429 17.65 46.2744 17.9082C46.0993 18.2007 45.8133 18.3758 45.5029 18.3721H45.5C45.3245 18.3704 45.1527 18.3222 45.0029 18.2314L45.002 18.2305L44.9102 18.166C44.8025 18.0824 44.6468 17.942 44.459 17.7578C44.2168 17.5204 44.0037 17.2934 43.8223 17.1104C43.613 16.8991 43.4018 16.6917 43.1943 16.4863L42.5879 15.876C42.5757 15.8631 42.5631 15.8493 42.5488 15.834L42.0771 15.3252L41.5645 15.791C41.0132 16.2921 40.4291 16.9033 39.9307 17.4014L36.3496 20.9863L38.3145 22.9453C38.6562 23.2858 38.905 23.4894 39.126 23.7646C39.3192 24.0054 39.4043 24.2064 39.4033 24.4287V24.4307C39.4028 24.6592 39.3205 24.8785 39.1738 25.0508L39.1074 25.1221L39.1064 25.123C38.9205 25.3023 38.6824 25.3951 38.4551 25.3877C38.2875 25.3808 38.1238 25.3315 37.9805 25.2432C37.8886 25.1864 37.7445 25.0631 37.5596 24.8838L37.0566 24.376C36.5441 23.8547 36.0257 23.3391 35.502 22.8291L35.0352 22.375L34.5488 22.8076C34.3306 23.0015 33.1615 24.1575 32.0664 25.2559C31.5126 25.8112 30.9675 26.3614 30.5576 26.7822C30.3531 26.9922 30.1799 27.173 30.0547 27.3066C29.9929 27.3726 29.9388 27.4314 29.8975 27.4785C29.8774 27.5014 29.8546 27.5285 29.834 27.5547C29.824 27.5674 29.8086 27.5863 29.793 27.6094C29.7867 27.6186 29.7424 27.6829 29.71 27.7715L29.6025 28.0654L29.75 28.3418C29.8081 28.4504 29.8907 28.5459 29.9336 28.5947C29.9889 28.6576 30.0511 28.7232 30.1084 28.7812C30.2108 28.885 30.3556 29.0239 30.3896 29.0576L31.4629 30.123C31.8361 30.4941 32.0929 30.7218 32.2617 30.9922C32.3917 31.2005 32.4468 31.4025 32.3516 31.7158C32.2721 31.9719 32.0921 32.1846 31.8535 32.3066C31.639 32.4163 31.42 32.4344 31.1973 32.3613C31.1122 32.3333 30.9514 32.2415 30.7109 32.041C30.4828 31.8508 30.2325 31.6055 29.9678 31.333C29.4739 30.8245 28.8779 30.1571 28.4268 29.7988L27.9561 29.4248L27.5156 29.833C27.0415 30.272 26.5399 30.7705 26.0449 31.2705L24.6162 32.7178L23.4961 33.8359C23.3245 34.0076 22.9702 34.3453 22.7676 34.5986L22.3467 35.125L22.8574 35.5654C23.1962 35.858 23.6756 36.3658 24.0537 36.7412C24.2362 36.9223 24.4883 37.1621 24.7422 37.4219C25.0079 37.6937 25.1964 37.9091 25.2637 38.0176C25.3305 38.1253 25.3695 38.2483 25.377 38.375V38.3799C25.3943 38.6446 25.3033 38.9053 25.124 39.1016L25.0488 39.1768C24.6685 39.5227 24.1392 39.5041 23.7256 39.0879L22.2373 37.5947L22.2305 37.5879C22.0653 37.424 21.6655 37.0007 21.3828 36.792L20.8984 36.4336L17.3975 39.9316C17.0004 40.3283 16.1618 41.1216 15.7646 41.5918L15.3223 42.1152L15.8359 42.5684C16.2979 42.9758 16.7403 43.4717 17.2549 43.9678C17.3678 44.0766 17.5839 44.2883 17.79 44.499C17.8933 44.6046 17.991 44.7067 18.0703 44.7939C18.1099 44.8375 18.1434 44.8747 18.1689 44.9053C18.1816 44.9204 18.1918 44.9329 18.1992 44.9424C18.5076 45.4456 18.3519 46.0402 17.876 46.3086L17.8711 46.3115C17.6674 46.4284 17.4251 46.4589 17.1992 46.3955C17.1085 46.3699 16.9443 46.2822 16.7021 46.085C16.4713 45.8969 16.2203 45.6517 15.9541 45.376C15.8223 45.2394 15.6905 45.0986 15.5576 44.957C15.4259 44.8167 15.2921 44.6744 15.1621 44.5391C14.9074 44.274 14.6386 44.007 14.3848 43.8105L13.8975 43.4336L13.4609 43.8691L5.98535 51.3516C5.93213 51.4048 5.86073 51.4784 5.78613 51.5547C5.70994 51.6326 5.62636 51.7171 5.54395 51.7998C5.36435 51.98 5.23127 52.1066 5.17871 52.1465L3.61035 53.334L5.57617 53.4043C6.21863 53.427 6.93187 53.4112 7.54199 53.4102H53.4102L53.415 7.53516C53.415 7.47535 53.4165 7.34057 53.418 7.15918C53.4194 6.98109 53.4211 6.76437 53.4209 6.55273C53.4207 6.34264 53.4191 6.13096 53.4141 5.96387C53.4116 5.88159 53.4079 5.80103 53.4023 5.7334C53.3996 5.70063 53.3954 5.65963 53.3887 5.61816C53.3854 5.5976 53.3802 5.56688 53.3711 5.53223C53.3648 5.50815 53.3447 5.4331 53.2969 5.34961L53.1826 5.14941L52.9717 5.05664L52.9336 5.04004L52.4951 4.84668L43.3643 13.9717Z" fill="#DD5C21"/>
<path d="M43.6116 27.8825C44.0051 27.8562 44.2355 27.9784 44.3791 28.1354C44.5233 28.2931 44.6387 28.5511 44.6672 28.9098L44.674 29.07L44.6721 42.3727C44.6723 42.5778 44.6773 42.8605 44.676 43.1803C44.6746 43.5059 44.6663 43.761 44.6506 43.8659L44.6496 43.8688C44.621 44.0645 44.5301 44.2453 44.3899 44.3835L44.385 44.3874C44.2157 44.5567 43.9811 44.6488 43.6194 44.6833C43.2147 44.7218 42.8549 44.6828 42.3332 44.6823L29.0754 44.6794C28.8475 44.6769 28.7284 44.6702 28.6282 44.6491C28.542 44.6309 28.4454 44.5975 28.2951 44.5075C27.8633 44.2488 27.741 43.5638 28.0481 43.1852C28.4082 42.7413 29.0083 42.1887 29.5139 41.6842L41.8977 29.2985C42.3288 28.8665 42.7337 28.4481 43.1565 28.0622C43.2445 27.9819 43.344 27.9391 43.6116 27.8825ZM41.5403 32.3522C40.7733 33.0891 39.9983 33.8819 39.259 34.6217L33.3557 40.528C33.2323 40.6515 33.0696 40.8075 32.8489 41.027C32.6638 41.2111 32.4374 41.4406 32.3196 41.5934L32.1565 41.8053L32.176 42.0719L32.1799 42.1198L32.217 42.6217L32.7033 42.7467L32.7444 42.7575L32.8303 42.779L38.9826 42.7731C39.942 42.7731 41.1643 42.7346 42.0422 42.776L42.759 42.8102L42.7746 42.0924C42.7978 41.0513 42.801 39.9744 42.7981 38.8991L42.7864 35.7145L42.7873 33.8112C42.7875 33.7634 42.7883 33.6954 42.7893 33.61C42.7903 33.5272 42.7911 33.4318 42.7912 33.3366C42.7915 33.1696 42.79 32.9321 42.7678 32.7809L42.716 32.4264L42.3977 32.2614L42.3479 32.236L41.9016 32.0045L41.5403 32.3522Z" fill="white" fill-opacity="0.15"/>
</g>
<defs>
<clipPath id="clip0_174_3396">
<rect width="56" height="56" fill="white"/>
</clipPath>
</defs>
</svg>
