<svg preserveAspectRatio="none" width="100%" height="100%" overflow="visible" style="display: block;" viewBox="0 0 46 46" fill="none" xmlns="http://www.w3.org/2000/svg">
<g id="kid">
<path id="Vector" d="M22.9997 42.1667C33.5851 42.1667 42.1663 33.5855 42.1663 23C42.1663 12.4146 33.5851 3.83337 22.9997 3.83337C12.4142 3.83337 3.83301 12.4146 3.83301 23C3.83301 33.5855 12.4142 42.1667 22.9997 42.1667Z" stroke="var(--stroke-0, #BC4400)" stroke-width="3" stroke-linecap="round" stroke-linejoin="round"/>
<path id="Vector_2" d="M23 3.83333C26.8333 3.83333 29.7083 6.2666 29.7083 9.03097C29.7083 10.8197 28.8041 13.4167 25.875 13.4167C24.3051 13.4167 23.3025 12.2561 23 11.5" stroke="var(--stroke-0, #BC4400)" stroke-width="3" stroke-linecap="round" stroke-linejoin="round"/>
<path id="Vector_3" d="M29.9476 19.9084V20.9233M16.0518 19.9084V20.9233M16.7705 20.6041C16.7705 19.8102 16.4487 19.1666 16.0518 19.1666C15.6548 19.1666 15.333 19.8102 15.333 20.6041C15.333 21.398 15.6548 22.0416 16.0518 22.0416C16.4487 22.0416 16.7705 21.398 16.7705 20.6041ZM30.6663 20.6041C30.6663 19.8102 30.3445 19.1666 29.9476 19.1666C29.5506 19.1666 29.2288 19.8102 29.2288 20.6041C29.2288 21.398 29.5506 22.0416 29.9476 22.0416C30.3445 22.0416 30.6663 21.398 30.6663 20.6041Z" stroke="var(--stroke-0, #BC4400)" stroke-width="3" stroke-linecap="round" stroke-linejoin="round"/>
<path id="Vector_4" d="M15.333 30.6666C17.0812 32.9942 19.8646 34.5 22.9997 34.5C26.1348 34.5 28.9181 32.9942 30.6663 30.6666" stroke="var(--stroke-0, #BC4400)" stroke-width="3" stroke-linecap="round" stroke-linejoin="round"/>
</g>
</svg>
