<svg width="60" height="60" viewBox="0 0 60 60" fill="none" xmlns="http://www.w3.org/2000/svg">
<rect x="0.5" y="0.5" width="59" height="59" rx="29.5" fill="url(#paint0_linear_77_725)" fill-opacity="0.4"/>
<rect x="0.5" y="0.5" width="59" height="59" rx="29.5" stroke="url(#paint1_linear_77_725)"/>
<path d="M19.375 32.0975C19.375 26.8673 23.851 21.6988 26.9927 18.7153C28.6989 17.0949 31.3011 17.0949 33.0074 18.7153C36.149 21.6988 40.625 26.8673 40.625 32.0975C40.625 37.2255 36.6015 42.5 30 42.5C23.3985 42.5 19.375 37.2255 19.375 32.0975Z" stroke="#BC4400" stroke-width="1.5"/>
<path d="M35 32.5C35 35.2614 32.7614 37.5 30 37.5" stroke="#BC4400" stroke-width="1.5" stroke-linecap="round" stroke-linejoin="round"/>
<defs>
<linearGradient id="paint0_linear_77_725" x1="30" y1="0" x2="30" y2="60" gradientUnits="userSpaceOnUse">
<stop stop-color="white"/>
<stop offset="1" stop-color="#FFBC9A"/>
</linearGradient>
<linearGradient id="paint1_linear_77_725" x1="15.5" y1="7" x2="39.6836" y2="60" gradientUnits="userSpaceOnUse">
<stop stop-color="#FFF9F2"/>
<stop offset="1" stop-color="#F5F5F5"/>
</linearGradient>
</defs>
</svg>
