<svg width="64" height="64" viewBox="0 0 64 64" fill="none" xmlns="http://www.w3.org/2000/svg">
<path d="M38.4823 23.5728C38.8205 23.9911 39.4724 24.1325 39.8967 23.7635C40.6408 23.1238 41.4648 23.0315 42.3995 23.0499C45.0007 23.1115 47.0055 20.9216 46.7472 18.3874C46.575 16.7019 47.5835 15.6562 49.2685 15.7793C52.128 15.9822 54.2065 13.9339 54.0035 11.0736C53.9482 10.2986 54.1511 9.64655 54.6492 9.05603C55.0735 8.55164 55.0243 7.89962 54.5754 7.50594C54.1081 7.09996 53.4378 7.14917 52.995 7.65357C52.0972 8.66851 51.6852 9.85569 51.8574 11.2151C51.925 11.7256 51.8205 12.1931 51.5499 12.6237C50.9903 13.5095 50.1601 13.7494 49.0963 13.6017C47.3314 13.5525 45.9231 14.2784 45.0253 15.9146C44.5764 16.7327 44.5211 17.6185 44.5764 18.5288C44.6502 19.636 44.1275 20.4295 43.1374 20.7863C42.7254 20.9339 42.3011 20.8847 41.8768 20.8663C40.61 20.8109 39.5093 21.2046 38.5807 22.0658C38.1133 22.5025 38.0887 23.093 38.4762 23.5728H38.4823Z" fill="#00ABC8"/>
<path d="M60.5531 33.649C56.3899 31.5084 52.1099 31.287 47.7315 32.9109C46.2556 33.4583 44.9458 34.2949 43.679 35.2053C43.5867 35.0822 43.5006 34.9592 43.4022 34.8423C40.8379 31.7544 38.083 28.8326 35.1989 26.04C33.1449 24.0532 31.0418 22.1094 28.8034 20.3256C28.908 20.1718 29.0125 20.018 29.117 19.8642C32.7268 14.6296 33.1572 9.15507 30.3592 3.44678C30.0087 2.7271 29.4184 2.49335 28.8342 2.78861C28.2254 3.09617 28.0655 3.72974 28.4345 4.44327C30.0333 7.50655 30.4023 10.7175 29.5414 14.0575C29.074 15.866 28.2869 17.5207 27.0447 18.9416C25.1814 17.4468 23.2136 16.1059 21.1535 14.8941C19.7637 14.0821 18.3432 13.3317 16.812 12.8212C16.6521 12.7658 16.4799 12.6059 16.3139 12.8212C15.8342 13.9222 15.5206 15.0786 15.1393 16.2166C14.2108 18.9785 13.3068 21.7404 12.3905 24.5022C11.8494 25.8124 11.462 27.178 11.013 28.5189C10.601 29.7492 10.1275 30.9609 9.82005 32.2281C9.7524 32.3942 9.66631 32.5603 9.61096 32.7386C9.19895 33.9689 8.78694 35.2053 8.37492 36.4416C7.53245 38.9944 6.68382 41.541 5.84134 44.0937C5.42318 45.3178 4.98657 46.5357 4.58686 47.7659C4.21789 48.9162 3.75668 50.0419 3.47995 51.2229C3.4615 51.2475 3.43076 51.2721 3.41846 51.3029C2.30541 54.606 1.1862 57.9031 0.103899 61.2124C-0.0990328 61.8398 -0.00679093 62.4857 0.399073 63.0577C1.00787 63.9189 1.97948 64.208 3.06179 63.8512C4.92508 63.23 6.78836 62.621 8.63935 61.9813C10.0291 61.5015 11.4497 61.1201 12.8025 60.5419C13.4113 60.4619 13.9709 60.1974 14.5428 60.0068C16.3385 59.4101 18.128 58.795 19.9236 58.186C20.1019 58.1368 20.2803 58.0876 20.4586 58.0322C22.7032 57.2879 24.9477 56.5436 27.1923 55.7871C28.7296 55.2704 30.2547 54.7352 31.7859 54.2124C33.0466 53.9048 34.258 53.4312 35.4879 53.019C36.8285 52.57 38.1936 52.1763 39.5035 51.6412C42.1355 50.7677 44.7736 49.9065 47.4055 49.0208C48.6662 48.5963 49.9514 48.2334 51.1813 47.7167C51.3965 47.2861 51.0829 46.9417 50.9415 46.5972C49.5025 43.0726 47.3748 39.9601 45.0564 36.9645C45.1118 36.903 45.1671 36.8292 45.2286 36.78C47.8114 34.787 50.7324 33.8581 53.9916 34.0119C55.9656 34.1042 57.8166 34.6639 59.5692 35.5866C60.2087 35.9249 60.8544 35.7096 61.1311 35.1376C61.4017 34.5717 61.1865 33.9873 60.5469 33.6613L60.5531 33.649Z" fill="#00ABC8"/>
<path d="M63.1297 19.9735C59.9566 18.6698 56.7773 18.676 53.6042 19.9735C52.8724 20.2687 52.5711 20.8713 52.8293 21.4924C53.0815 22.0889 53.7087 22.2919 54.4159 21.9967C55.6765 21.4678 56.9864 21.1788 58.3884 21.2095C59.7598 21.1726 61.0819 21.4801 62.361 22.009C63.0374 22.2857 63.5909 22.1074 63.8738 21.5355C64.1874 20.9144 63.8861 20.2871 63.1235 19.9735H63.1297Z" fill="#00ABC8"/>
<path d="M41.9819 9.67113C41.7174 10.3047 41.9573 10.926 42.5169 11.1659C43.1072 11.4181 43.7222 11.1413 43.9989 10.4892C44.6507 8.93914 44.9828 7.32754 45.0074 5.556C44.9828 3.96285 44.663 2.34509 44.005 0.801148C43.716 0.12452 43.1257 -0.158434 42.5415 0.0876131C41.9388 0.339811 41.7113 0.936474 41.9942 1.6131C43.1011 4.30116 43.0888 6.98307 41.9819 9.67113Z" fill="#00ABC8"/>
<path d="M24.0802 10.9801C24.4123 11.2999 24.8428 11.3367 25.2609 11.1461C25.6607 10.9616 25.8697 10.6234 25.8759 10.0884C25.8882 9.91007 25.8144 9.65795 25.6361 9.47346C24.9842 8.80932 24.3447 8.13903 23.6559 7.51178C23.2132 7.10592 22.6044 7.18586 22.1985 7.61018C21.8172 8.01604 21.768 8.61254 22.1555 9.03685C22.7704 9.70714 23.4161 10.3528 24.0741 10.9801H24.0802Z" fill="#00ABC8"/>
<path d="M54.6561 38.4897C54.4347 38.2683 54.1641 38.133 53.8382 38.1453C53.3893 38.1576 53.0511 38.3605 52.8727 38.7664C52.6882 39.1846 52.719 39.6089 53.0449 39.9471C53.6414 40.5682 54.244 41.1831 54.8713 41.7735C55.3571 42.2347 55.9843 42.2224 56.4148 41.7919C56.8699 41.343 56.8637 40.7219 56.3779 40.2115C55.8183 39.6273 55.2341 39.0554 54.6561 38.4897Z" fill="#00ABC8"/>
<path d="M37.4314 14.5296C36.841 14.5604 36.429 15.04 36.4229 15.6058C36.4229 16.19 36.798 16.6204 37.4129 16.6881C37.7327 16.7188 38.0525 16.6881 38.3722 16.6881C38.7105 16.6881 39.0487 16.7127 39.3869 16.6881C40.0018 16.6327 40.3893 16.2084 40.3954 15.6242C40.3954 15.0523 39.9957 14.5665 39.4115 14.5296C38.7535 14.4927 38.0894 14.4927 37.4314 14.5296Z" fill="#00ABC8"/>
<path d="M47.3194 26.5492C47.344 27.0903 47.6945 27.4901 48.1988 27.5761C48.7215 27.6684 49.2688 27.3978 49.3918 26.869C49.5824 26.0265 49.5886 25.1594 49.3856 24.3169C49.2627 23.8065 48.7584 23.5605 48.2296 23.6282C47.7253 23.6897 47.3563 24.0894 47.3256 24.6244C47.3071 24.9442 47.3256 25.2639 47.3256 25.5837C47.3256 25.9035 47.3133 26.2233 47.3256 26.543L47.3194 26.5492Z" fill="#00ABC8"/>
<path d="M55.6389 25.4356C55.0363 25.4602 54.6058 25.8661 54.5689 26.438C54.532 27.0099 54.9071 27.5265 55.4975 27.5695C56.1985 27.6187 56.9118 27.6187 57.619 27.5695C58.1971 27.5265 58.5784 27.0038 58.5353 26.4319C58.4984 25.8846 58.0802 25.4725 57.5083 25.4418C57.1886 25.4233 56.8688 25.4418 56.549 25.4418C56.2477 25.4418 55.9402 25.4295 55.6389 25.4418V25.4356Z" fill="#00ABC8"/>
<path d="M37.5292 9.43718C38.0765 9.42488 38.5254 9.01901 38.5685 8.45941C38.5931 8.12119 38.5685 7.78297 38.5685 7.4509C38.5685 7.13113 38.5869 6.81136 38.5685 6.49159C38.5316 5.90124 38.0888 5.48308 37.5169 5.47078C36.9573 5.46463 36.4715 5.83974 36.4346 6.39935C36.3916 7.10653 36.3916 7.81987 36.4346 8.52091C36.4715 9.07436 36.9696 9.45563 37.5231 9.44333L37.5292 9.43718Z" fill="#00ABC8"/>
<path opacity="0.4" d="M51.1812 47.7037C50.1604 47.2977 49.1457 46.8918 48.168 46.3874C46.7966 45.68 45.493 44.8742 44.2077 44.0315C42.3567 42.8197 40.6041 41.4664 38.8884 40.0763C37.7877 39.1843 36.7177 38.2494 35.66 37.3082C33.397 35.2968 31.2324 33.1685 29.1415 30.9787C26.9093 28.6351 24.7508 26.2177 22.7645 23.6465C21.1841 21.5982 19.7021 19.4883 18.3923 17.2616C17.6543 16.0129 17.0148 14.7027 16.5228 13.331C16.4614 13.1588 16.3814 12.9865 16.3076 12.8143C16.4737 12.599 16.6458 12.7589 16.8057 12.8143C18.3369 13.3248 19.7575 14.0753 21.1472 14.8872C23.2073 16.0929 25.1751 17.4338 27.0384 18.9347C26.7494 19.4145 26.3374 19.7897 25.95 20.1895C25.4396 20.7185 25.3965 21.346 25.8331 21.8011C26.2943 22.2748 26.9462 22.2563 27.4812 21.715C27.9301 21.266 28.3606 20.7862 28.7972 20.3187C31.0356 22.1026 33.1387 24.0463 35.1926 26.0331C38.0767 28.8258 40.8255 31.7476 43.396 34.8355C43.4944 34.9523 43.5805 35.0754 43.6727 35.1984C43.2054 35.6351 42.7318 36.0657 42.2829 36.5147C41.7418 37.056 41.7172 37.7019 42.1968 38.1632C42.6519 38.6 43.2853 38.5508 43.8141 38.0402C44.2139 37.6527 44.5644 37.2221 45.0625 36.9453C47.3808 39.9348 49.5024 43.0473 50.9475 46.578C51.089 46.9225 51.4026 47.2608 51.1873 47.6976L51.1812 47.7037Z" fill="black"/>
<path opacity="0.2" d="M31.7862 54.2001C30.8515 53.4742 29.9229 52.7484 28.982 52.0287C26.8236 50.3679 24.7696 48.5902 22.7834 46.7203C20.6741 44.7396 18.6325 42.6851 16.6647 40.5629C14.3156 38.0287 12.1448 35.3529 10.1155 32.5664C10.0294 32.4434 9.9187 32.3388 9.82031 32.222C10.1216 30.9548 10.6013 29.743 11.0133 28.5128C11.4622 27.1718 11.8496 25.8063 12.3908 24.4961C13.1164 25.5541 13.8421 26.6182 14.5738 27.6701C16.6647 30.6719 18.983 33.4952 21.4735 36.1772C23.1954 38.0287 24.991 39.8002 26.799 41.5533C29.9229 44.592 33.2805 47.3477 36.8718 49.8204C37.7512 50.4233 38.6305 51.0261 39.5099 51.6227C38.2001 52.1579 36.8349 52.5516 35.4943 53.0006C34.2644 53.4127 33.053 53.8864 31.7923 54.1939L31.7862 54.2001Z" fill="black"/>
<path opacity="0.2" d="M5.84088 44.094C6.04997 44.131 6.12991 44.3155 6.24675 44.4508C10.3238 49.2549 14.7638 53.696 19.5665 57.7742C19.7018 57.8911 19.8924 57.9711 19.9231 58.1802C18.1275 58.7892 16.338 59.4043 14.5424 60.001C13.9643 60.1916 13.4109 60.4561 12.8021 60.5361C11.9596 59.7549 11.111 58.9799 10.2746 58.1864C7.9194 55.9535 5.6687 53.6099 3.47949 51.2171C3.75622 50.0361 4.21128 48.9104 4.5864 47.7601C4.98611 46.5299 5.42272 45.312 5.84088 44.0879V44.094Z" fill="black"/>
<path opacity="0.2" d="M58.3881 21.2092C56.9921 21.1784 55.6823 21.4675 54.4155 21.9963C53.7083 22.2915 53.0811 22.0886 52.829 21.4921C52.5645 20.871 52.872 20.2683 53.6038 19.9732C56.7769 18.6818 59.9562 18.6695 63.1293 19.9732C63.8918 20.2868 64.187 20.914 63.8795 21.5351C63.5967 22.107 63.0432 22.2854 62.3668 22.0086C61.0877 21.4798 59.7655 21.1662 58.3942 21.2092H58.3881Z" fill="black"/>
<path opacity="0.2" d="M45.007 5.556C44.9824 7.32139 44.6503 8.93914 43.9984 10.4892C43.7217 11.1413 43.1068 11.4181 42.5164 11.1659C41.9507 10.926 41.717 10.3047 41.9814 9.67113C43.0883 6.98307 43.1006 4.30731 41.9937 1.6131C41.717 0.936474 41.9445 0.339811 42.541 0.0876131C43.1252 -0.158434 43.7156 0.12452 44.0046 0.801148C44.6626 2.34509 44.9885 3.96285 45.007 5.556Z" fill="black"/>
<path opacity="0.2" d="M25.8758 10.0943C25.8697 10.6293 25.6606 10.9613 25.2609 11.152C24.8427 11.3426 24.4122 11.3057 24.0802 10.9859C23.4222 10.3587 22.7765 9.713 22.1615 9.04271C21.7741 8.6184 21.8172 8.0219 22.2046 7.61603C22.6104 7.19172 23.2192 7.11178 23.662 7.51764C24.3507 8.14489 24.9903 8.81518 25.6421 9.47932C25.8266 9.6638 25.8943 9.91593 25.882 10.0943H25.8758Z" fill="black"/>
<path opacity="0.2" d="M53.8382 38.1447C54.1641 38.1386 54.4347 38.2677 54.6561 38.4891C55.2341 39.061 55.8122 39.6268 56.3779 40.211C56.8637 40.7214 56.8699 41.3425 56.4148 41.7914C55.9843 42.2157 55.3571 42.228 54.8713 41.7729C54.244 41.1826 53.6414 40.5676 53.0449 39.9465C52.719 39.6083 52.6882 39.1779 52.8727 38.7658C53.0511 38.3661 53.3954 38.157 53.8382 38.1447Z" fill="black"/>
<path opacity="0.2" d="M38.3722 16.6959C38.0525 16.6959 37.7265 16.7266 37.4129 16.6959C36.8041 16.6344 36.4229 16.1978 36.4229 15.6136C36.4229 15.0478 36.841 14.5682 37.4314 14.5374C38.0894 14.5005 38.7535 14.5005 39.4115 14.5374C39.9957 14.5743 40.4016 15.0601 40.3954 15.632C40.3954 16.2162 40.008 16.6406 39.3869 16.6959C39.0487 16.7266 38.7105 16.6959 38.3722 16.6959Z" fill="black"/>
<path opacity="0.2" d="M47.319 25.5837C47.319 25.2639 47.3067 24.9442 47.319 24.6244C47.3498 24.0894 47.7249 23.6897 48.223 23.6282C48.7519 23.5605 49.2561 23.8065 49.3791 24.3169C49.582 25.1594 49.5759 26.0265 49.3853 26.869C49.2623 27.3978 48.715 27.6684 48.1923 27.5761C47.688 27.4901 47.3375 27.0903 47.3129 26.5492C47.2944 26.2294 47.3129 25.9096 47.3129 25.5899L47.319 25.5837Z" fill="black"/>
<path opacity="0.4" d="M56.5502 25.4374C56.87 25.4374 57.1898 25.4251 57.5096 25.4374C58.0753 25.4681 58.4996 25.8802 58.5365 26.4275C58.5734 26.9994 58.1983 27.5221 57.6202 27.5651C56.9192 27.6143 56.2059 27.6143 55.4987 27.5651C54.9145 27.5221 54.5394 27.0055 54.5701 26.4336C54.607 25.8617 55.0375 25.4558 55.6401 25.4312C55.9414 25.4189 56.2489 25.4312 56.5502 25.4312V25.4374Z" fill="black"/>
<path opacity="0.4" d="M38.575 7.44338C38.575 7.7816 38.5935 8.11982 38.575 8.45189C38.532 9.01149 38.0892 9.41736 37.5358 9.42966C36.9823 9.44196 36.4842 9.06684 36.4473 8.50724C36.4043 7.80005 36.4043 7.09286 36.4473 6.38567C36.4781 5.82607 36.97 5.45096 37.5296 5.45711C38.1015 5.4694 38.5443 5.88757 38.5812 6.47792C38.5996 6.79769 38.5812 7.11746 38.5812 7.43723L38.575 7.44338Z" fill="black"/>
</svg>
