<svg width="25" height="25" viewBox="0 0 25 25" fill="none" xmlns="http://www.w3.org/2000/svg">
<g clip-path="url(#clip0_311_45)">
<path d="M24.2866 17.666L18.8179 15.3223C18.5843 15.2227 18.3246 15.2017 18.078 15.2625C17.8315 15.3233 17.6113 15.4625 17.4507 15.6592L15.0288 18.6182C11.2279 16.8261 8.16904 13.7672 6.37695 9.96632L9.33594 7.54445C9.53305 7.38413 9.67256 7.16397 9.73335 6.91728C9.79414 6.67058 9.7729 6.4108 9.67285 6.17726L7.3291 0.708511C7.21929 0.456757 7.02508 0.251209 6.77996 0.127309C6.53483 0.0034095 6.25416 -0.0310757 5.98633 0.0298002L0.908203 1.20168C0.649985 1.2613 0.419602 1.40669 0.254656 1.61412C0.0897096 1.82154 -5.94829e-05 2.07875 2.95713e-08 2.34377C2.95713e-08 14.8682 10.1514 25 22.6562 25C22.9213 25.0002 23.1787 24.9105 23.3862 24.7455C23.5937 24.5806 23.7392 24.3501 23.7988 24.0918L24.9707 19.0137C25.0312 18.7446 24.996 18.4628 24.8711 18.2168C24.7463 17.9708 24.5396 17.7761 24.2866 17.666Z" fill="white"/>
</g>
<defs>
<clipPath id="clip0_311_45">
<rect width="25" height="25" fill="white"/>
</clipPath>
</defs>
</svg>
