<svg width="375" height="549" viewBox="0 0 375 549" fill="none" xmlns="http://www.w3.org/2000/svg">
<path fill-rule="evenodd" clip-rule="evenodd" d="M91.4471 251.418C91.0784 252.609 89.8306 253.27 88.66 252.895C68.8756 246.556 49.2734 237.355 32.071 225.449C31.0965 224.775 30.1059 224.098 29.106 223.415C21.4763 218.202 13.3039 212.618 7.55555 204.842C1.78903 197.042 0.130533 189.982 2.04346 183.398C2.99841 180.112 4.8072 177.087 7.21549 174.253C5.95037 172.859 4.83749 171.307 3.9213 169.576C0.722809 163.534 -0.242623 156.386 0.049437 149.406C0.342153 142.409 1.90368 135.42 3.9202 129.555C7.44447 119.305 13.8256 111.323 21.842 105.133C13.7427 98.7846 10.5425 89.2327 12.0808 78.7315C13.8847 66.4167 22.9736 57.9529 32.7142 52.4858C34.0409 51.7412 35.3923 51.0595 36.7666 50.4422C36.3269 49.8184 35.8893 49.2043 35.4535 48.6037C34.7247 47.5991 34.9342 46.1836 35.9216 45.442C36.909 44.7005 38.3004 44.9137 39.0293 45.9183C39.7225 46.8738 40.3908 47.8185 41.0451 48.7546C44.5048 47.5739 48.0884 46.7851 51.768 46.4096C51.8768 46.3985 51.9941 46.3861 52.1188 46.3729C53.2424 46.2537 54.9761 46.0699 56.6564 46.2094C58.4604 46.3592 60.8811 46.9298 62.3177 49.0645C64.1926 51.8504 64.0515 55.2789 63.1001 58.0624C62.149 60.8452 60.2292 63.4916 57.7854 64.8771C55.0773 66.4125 52.4547 66.661 50.0226 65.7503C47.7152 64.8863 45.8657 63.0829 44.3576 61.1179C42.6617 58.9083 41.0108 56.5478 39.393 54.2152C37.8523 54.8706 36.3407 55.6146 34.8611 56.445C25.6342 61.6238 17.982 69.1215 16.4767 79.398C15.0863 88.8899 18.1212 97.1144 25.6815 102.384C28.1728 100.728 30.7884 99.2202 33.4975 97.8482C42.7696 93.1529 52.6354 90.785 62.6906 89.5465L62.9629 89.5129C69.5689 88.6986 78.2314 87.6309 85.393 89.996C87.1874 90.5886 89.0255 91.6624 90.3324 93.2443C91.6863 94.8829 92.4581 97.0758 91.9188 99.595C91.3602 102.205 89.6915 104.257 87.9303 105.777C86.151 107.313 84.0847 108.474 82.3641 109.275C74.2547 113.048 64.9959 114.267 56.4479 114.362C46.1586 114.476 35.2856 113.062 25.8174 107.766C17.7441 113.661 11.4781 121.268 8.11537 131.048C6.21486 136.575 4.76072 143.123 4.48986 149.598C4.21833 156.088 5.14141 162.345 7.83425 167.432C8.51881 168.725 9.35268 169.91 10.315 170.999C11.8919 169.502 13.6228 168.057 15.4642 166.649C21.1715 162.286 27.956 159.583 34.3334 157.042C35.5254 156.567 36.7033 156.098 37.8571 155.624C49.8162 150.718 60.6128 147.624 73.4977 147.026C81.2206 146.667 89.0735 148.444 95.2636 153.903C97.7476 156.094 99.2334 158.551 99.7716 161.174C100.307 163.785 99.8577 166.332 98.8685 168.634C96.9248 173.158 92.7786 177.046 88.7715 179.573C74.6452 188.483 57.9074 189.338 42.2973 187.433C36.2194 186.691 28.4673 185.579 21.3791 183.044C17.5069 181.659 13.7292 179.813 10.506 177.295C8.46227 179.717 7.0377 182.161 6.30557 184.68C4.91597 189.463 5.88213 195.056 11.1075 202.124C16.3721 209.246 23.8723 214.38 31.5755 219.652C32.5721 220.335 33.572 221.019 34.5709 221.71C51.3686 233.337 70.5677 242.358 89.995 248.582C91.1656 248.957 91.8157 250.227 91.4471 251.418ZM13.637 174.033C16.2689 176 19.4138 177.548 22.853 178.778C29.443 181.135 36.7715 182.204 42.8267 182.943C58.0139 184.797 73.551 183.853 86.4297 175.73C90.0167 173.468 93.3479 170.193 94.7962 166.823C95.5031 165.178 95.728 163.595 95.421 162.098C95.1165 160.614 94.242 158.987 92.3524 157.32C87.2677 152.836 80.6554 151.22 73.7003 151.543C61.4715 152.11 51.1832 155.032 39.5194 159.818C38.279 160.327 37.0433 160.82 35.8174 161.31C29.4345 163.86 23.3127 166.305 18.1339 170.264C16.4835 171.526 14.9811 172.779 13.637 174.033ZM30.0823 104.908C38.1161 108.785 47.2901 109.941 56.3994 109.84C64.6312 109.749 73.1954 108.569 80.5157 105.163C82.0194 104.463 83.6933 103.504 85.0549 102.329C86.4346 101.138 87.3076 99.8875 87.5762 98.6328C87.7806 97.6779 87.5325 96.8826 86.9303 96.1538C86.2812 95.3682 85.2271 94.6952 84.0208 94.2968C77.874 92.2668 70.127 93.1853 63.2248 94.0354C53.4862 95.235 44.1539 97.5028 35.478 101.896C33.6201 102.837 31.8186 103.84 30.0823 104.908ZM43.7326 52.6282C45.069 54.5505 46.4112 56.4466 47.8606 58.3351C49.1547 60.0212 50.3797 61.0658 51.5578 61.5069C52.6111 61.9013 53.8848 61.9122 55.6219 60.9272C56.9182 60.1923 58.2283 58.5492 58.9023 56.5773C59.576 54.606 59.455 52.8146 58.6505 51.6191C58.3854 51.2251 57.7279 50.8351 56.2949 50.7162C55.0523 50.613 53.7332 50.7505 52.5663 50.8721C52.4464 50.8846 52.328 50.8969 52.2116 50.9088C49.3163 51.2042 46.4849 51.7809 43.7326 52.6282Z" fill="#B9BFFF"/>
<path fill-rule="evenodd" clip-rule="evenodd" d="M351.451 530.245C372.197 509.939 367.559 479.267 353.5 455.484C350.73 450.798 347.241 445.878 343.19 441.347C339.383 444.043 335.199 446.158 330.706 447.507C321.249 450.347 311.979 446.418 307.791 437.487C306.067 433.812 305.184 429.185 306.387 425.542C307.013 423.649 308.228 421.972 310.197 420.976C312.13 419.998 314.541 419.802 317.348 420.339C326.012 421.998 333.9 426.904 340.583 433.013C341.627 433.967 342.644 434.953 343.633 435.964C348.286 432.092 352.27 427.215 355.382 421.764C361.303 411.395 363.947 399.146 362.125 388.208C357.694 361.627 337.278 351.587 313.552 343.044C312.513 342.67 311.974 341.524 312.348 340.484C312.722 339.445 313.868 338.906 314.907 339.28C338.635 347.824 361.234 358.534 366.07 387.55C368.067 399.533 365.159 412.707 358.856 423.747C355.58 429.486 351.355 434.702 346.363 438.895C350.532 443.59 354.105 448.647 356.944 453.449C371.349 477.817 376.991 510.845 354.249 533.103C349.851 537.409 343.876 541.644 337.38 544.093C330.884 546.542 323.667 547.272 317.014 544.208C316.011 543.745 315.572 542.558 316.035 541.554C316.497 540.551 317.685 540.112 318.688 540.574C324.05 543.044 330.09 542.567 335.969 540.35C341.848 538.133 347.366 534.243 351.451 530.245ZM340.419 438.402C339.593 437.569 338.748 436.755 337.884 435.965C331.529 430.156 324.288 425.741 316.596 424.268C314.345 423.837 312.903 424.09 312.003 424.545C311.139 424.983 310.54 425.723 310.185 426.797C309.428 429.09 309.917 432.599 311.413 435.789C314.726 442.854 321.923 445.968 329.556 443.676C333.422 442.515 337.064 440.712 340.419 438.402Z" fill="#C5C9FB"/>
<g clip-path="url(#clip0_201_25)">
<path d="M351.749 218.062C350.886 212.362 349.572 210.179 344.938 206.748C350.638 205.886 352.821 204.571 356.251 199.938C357.114 205.638 358.429 207.821 363.062 211.251C357.362 212.114 355.179 213.428 351.749 218.062Z" stroke="#FCDDEC" stroke-width="2" stroke-miterlimit="10"/>
<path d="M358.361 216.245L360.154 219.222" stroke="#FCDDEC" stroke-width="2" stroke-miterlimit="10"/>
<path d="M361.245 204.639L364.222 202.846" stroke="#FCDDEC" stroke-width="2" stroke-miterlimit="10"/>
<path d="M349.639 201.755L347.846 198.778" stroke="#FCDDEC" stroke-width="2" stroke-miterlimit="10"/>
<path d="M346.755 213.361L343.778 215.154" stroke="#FCDDEC" stroke-width="2" stroke-miterlimit="10"/>
</g>
<g clip-path="url(#clip1_201_25)">
<path d="M344.288 519.602C343.425 513.901 342.111 511.718 337.477 508.288C343.177 507.425 345.361 506.111 348.791 501.477C349.653 507.177 350.968 509.361 355.602 512.791C349.901 513.653 347.718 514.968 344.288 519.602Z" stroke="#FCDDEC" stroke-width="2" stroke-miterlimit="10"/>
<path d="M350.901 517.784L352.693 520.761" stroke="#FCDDEC" stroke-width="2" stroke-miterlimit="10"/>
<path d="M353.784 506.178L356.761 504.385" stroke="#FCDDEC" stroke-width="2" stroke-miterlimit="10"/>
<path d="M342.178 503.295L340.386 500.317" stroke="#FCDDEC" stroke-width="2" stroke-miterlimit="10"/>
<path d="M339.294 514.901L336.317 516.693" stroke="#FCDDEC" stroke-width="2" stroke-miterlimit="10"/>
</g>
<g clip-path="url(#clip2_201_25)">
<path d="M27.6055 24.9454C23.2962 21.1155 20.8893 20.278 15.1333 20.6055C18.9632 16.2961 19.8007 13.8892 19.4731 8.13322C23.7825 11.9631 26.1894 12.8006 31.9454 12.4731C28.1155 16.7824 27.278 19.1894 27.6055 24.9454Z" stroke="#FCDDEC" stroke-width="2" stroke-miterlimit="10"/>
<path d="M31.5259 19.3183L34.8081 20.4604" stroke="#FCDDEC" stroke-width="2" stroke-miterlimit="10"/>
<path d="M26.3183 8.55281L27.4604 5.27063" stroke="#FCDDEC" stroke-width="2" stroke-miterlimit="10"/>
<path d="M15.5527 13.7602L12.2705 12.6181" stroke="#FCDDEC" stroke-width="2" stroke-miterlimit="10"/>
<path d="M20.7603 24.5258L19.6182 27.8079" stroke="#FCDDEC" stroke-width="2" stroke-miterlimit="10"/>
</g>
<g clip-path="url(#clip3_201_25)">
<path d="M29.0942 404.434C24.7849 400.604 22.3779 399.766 16.6219 400.094C20.4518 395.785 21.2894 393.378 20.9618 387.622C25.2712 391.452 27.6781 392.289 33.4341 391.961C29.6042 396.271 28.7667 398.678 29.0942 404.434Z" stroke="#FCDDEC" stroke-width="2" stroke-miterlimit="10"/>
<path d="M33.0146 398.807L36.2968 399.949" stroke="#FCDDEC" stroke-width="2" stroke-miterlimit="10"/>
<path d="M27.807 388.041L28.9491 384.759" stroke="#FCDDEC" stroke-width="2" stroke-miterlimit="10"/>
<path d="M17.0414 393.249L13.7592 392.107" stroke="#FCDDEC" stroke-width="2" stroke-miterlimit="10"/>
<path d="M22.2489 404.014L21.1069 407.297" stroke="#FCDDEC" stroke-width="2" stroke-miterlimit="10"/>
</g>
<defs>
<clipPath id="clip0_201_25">
<rect width="24" height="24" fill="white" transform="translate(368.539 200.247) rotate(103.952)"/>
</clipPath>
<clipPath id="clip1_201_25">
<rect width="24" height="24" fill="white" transform="translate(361.079 501.787) rotate(103.952)"/>
</clipPath>
<clipPath id="clip2_201_25">
<rect width="24" height="24" fill="white" transform="translate(29.1164 0.511353) rotate(64.1859)"/>
</clipPath>
<clipPath id="clip3_201_25">
<rect width="24" height="24" fill="white" transform="translate(30.6051 380) rotate(64.1859)"/>
</clipPath>
</defs>
</svg>
