<svg width="31" height="32" viewBox="0 0 31 32" fill="none" xmlns="http://www.w3.org/2000/svg">
<path d="M31 9.98392V29.9589H21.7624C19.2239 29.9589 17.8889 31.6692 17.7529 31.7638H13.2471C13.1091 31.6679 11.7932 29.9589 9.23764 29.9589H0V8.17896H1.81641V28.1539H9.24551C12.0841 28.1539 13.6641 29.7453 14.0578 29.9589H16.9422C17.3357 29.7454 18.9162 28.1539 21.7545 28.1539H29.1836V9.98392H31Z" fill="#7F4CBF"/>
<path d="M12.7712 27.0691C11.668 26.595 10.4746 26.3489 9.24551 26.3489H3.63281V4.56903H5.44922V22.739H8.17383C10.649 22.739 12.6737 24.6649 12.7712 27.0691Z" fill="#7F4CBF"/>
<path d="M21.7545 6.37396C19.8307 6.37396 17.9778 6.87478 16.3444 7.83243C16.3866 8.2424 16.4082 8.65929 16.4082 9.08141V28.116C16.5298 28.0284 16.6689 27.9312 16.8274 27.8278C19.6317 25.9693 21.5639 26.3489 27.3672 26.3489V6.37396H21.7545Z" fill="#7F4CBF"/>
<path d="M14.5918 27.2514C14.5918 23.768 11.7127 20.934 8.17383 20.934H7.26562V0.959106C11.8061 0.959106 14.5918 4.60279 14.5918 9.08145V27.2514Z" fill="#7F4CBF"/>
</svg>
