<svg width="30" height="27" viewBox="0 0 30 27" fill="none" xmlns="http://www.w3.org/2000/svg">
<path d="M9.94726 8.49279C15.6405 8.49279 19.8945 6.25635 19.8945 4.2566C19.8945 2.25705 15.6404 0.0205078 9.94726 0.0205078C4.25413 0.0205078 9.15527e-05 2.25705 9.15527e-05 4.2566C9.15527e-05 6.25635 4.25404 8.49279 9.94726 8.49279Z" fill="#7F4CBF"/>
<path d="M9.94726 25.4381C10.7782 25.4381 11.578 25.39 12.3388 25.3026C11.6975 24.4836 11.1672 23.5748 10.7699 22.5988C10.4969 22.608 10.223 22.6143 9.94716 22.6143C6.69407 22.6143 3.61333 21.9738 1.27269 20.8108C0.811825 20.5818 0.387718 20.3357 9.15527e-05 20.0753V21.202C9.15527e-05 23.2015 4.25404 25.4381 9.94726 25.4381Z" fill="#7F4CBF"/>
<path d="M9.94726 19.7897C9.97644 19.7897 10.0052 19.7892 10.0342 19.7891C9.97597 19.3263 9.94555 18.8548 9.94555 18.3765C9.94555 17.8984 9.97587 17.4273 10.0342 16.9648C10.0052 16.9648 9.97635 16.9658 9.94726 16.9658C6.69417 16.9658 3.61352 16.3253 1.27279 15.1623C0.811828 14.9333 0.387627 14.6873 0 14.4269V15.5535C9.47511e-05 17.5531 4.25404 19.7897 9.94726 19.7897Z" fill="#7F4CBF"/>
<path d="M9.94726 14.1411C10.2292 14.1411 10.5074 14.1354 10.7821 14.1247C11.2233 13.0492 11.8262 12.0558 12.5613 11.1748C11.7102 11.268 10.8356 11.3174 9.94726 11.3174C6.69417 11.3174 3.61352 10.6769 1.27279 9.51388C0.811828 9.2848 0.387627 9.03887 0 8.77844V9.90509C9.47511e-05 11.9047 4.25404 14.1411 9.94726 14.1411Z" fill="#7F4CBF"/>
<path d="M14.2111 13.6955C13.5961 14.6141 13.1568 15.6582 12.9406 16.7801C12.8409 17.2973 12.7882 17.8309 12.7882 18.3765C12.7882 18.7868 12.8183 19.1901 12.8753 19.5849C13.0152 20.5548 13.321 21.4719 13.7631 22.3073C14.227 23.184 14.8407 23.9706 15.5705 24.633C17.0873 26.0096 19.1046 26.8504 21.3158 26.8504C26.0179 26.8504 29.8434 23.049 29.8434 18.3765C29.8434 13.7039 26.0179 9.90265 21.3158 9.90265C20.8298 9.90265 20.3533 9.94389 19.8892 10.0218C17.5254 10.4191 15.4893 11.7861 14.2111 13.6955Z" fill="#7F4CBF"/>
</svg>
