<svg width="331" height="45" viewBox="0 0 331 45" fill="none" xmlns="http://www.w3.org/2000/svg">
<path d="M330.5 22.5C330.5 23.789 329.533 25.175 327.361 26.6181C325.212 28.0455 322.011 29.4416 317.841 30.782C309.508 33.4606 297.423 35.8801 282.459 37.9145C252.538 41.9823 211.186 44.5 165.5 44.5C119.814 44.5 78.4623 41.9823 48.5412 37.9145C33.577 35.8801 21.4922 33.4606 13.1588 30.782C8.98864 29.4416 5.78756 28.0455 3.63906 26.6181C1.46707 25.175 0.5 23.789 0.5 22.5C0.5 21.211 1.46707 19.825 3.63906 18.3819C5.78756 16.9545 8.98864 15.5584 13.1588 14.218C21.4922 11.5394 33.577 9.11995 48.5412 7.08554C78.4623 3.01772 119.814 0.5 165.5 0.5C211.186 0.5 252.538 3.01772 282.459 7.08554C297.423 9.11995 309.508 11.5394 317.841 14.218C322.011 15.5584 325.212 16.9545 327.361 18.3819C329.533 19.825 330.5 21.211 330.5 22.5Z" stroke="#D96331"/>
</svg>
