<svg width="49" height="49" viewBox="0 0 49 49" fill="none" xmlns="http://www.w3.org/2000/svg">
<path d="M39.0432 18.0124C38.9405 14.2329 37.3479 10.6472 34.6127 8.03678C31.8775 5.4264 28.2214 4.003 24.4412 4.0768C20.6642 3.99227 17.0066 5.40296 14.2646 8.00185C11.5225 10.6007 9.91791 14.1775 9.79999 17.9536C9.44719 24.794 16.2288 34.7704 23.618 44.5704C23.7141 44.6853 23.8339 44.7781 23.9692 44.8424C24.1046 44.9067 24.2522 44.9409 24.402 44.9428C24.5525 44.9451 24.7015 44.9127 24.8375 44.8481C24.9734 44.7836 25.0927 44.6885 25.186 44.5704C32.5752 34.7704 39.3764 24.794 39.004 17.9536L39.0432 18.0124ZM24.4216 42.4144C17.64 33.32 11.4268 24.0492 11.76 18.0712C11.8473 14.8012 13.2266 11.6989 15.5959 9.44343C17.9652 7.18797 21.1316 5.96306 24.402 6.0368C27.6743 5.96299 30.8427 7.18729 33.2152 9.44222C35.5876 11.6972 36.9712 14.7994 37.0636 18.0712C37.436 24.0492 31.36 33.32 24.4216 42.4144Z" fill="#14426D"/>
<path d="M24.5 10.5644C23.0222 10.5644 21.5776 11.0029 20.3492 11.8243C19.1207 12.6457 18.1636 13.8131 17.599 15.1788C17.0343 16.5445 16.8876 18.047 17.1773 19.4961C17.4671 20.9452 18.1802 22.2757 19.2266 23.3193C20.2729 24.3629 21.6053 25.0726 23.0552 25.3585C24.505 25.6444 26.0071 25.4937 27.3713 24.9255C28.7355 24.3573 29.9004 23.3971 30.7186 22.1665C31.5368 20.9359 31.9715 19.4902 31.9676 18.0124C31.9624 16.0353 31.1733 14.1409 29.7735 12.7447C28.3736 11.3485 26.4771 10.5644 24.5 10.5644ZM24.5 23.52C23.4107 23.52 22.3458 23.197 21.4401 22.5918C20.5344 21.9866 19.8285 21.1264 19.4116 20.1201C18.9948 19.1137 18.8857 18.0063 19.0982 16.9379C19.3107 15.8695 19.8353 14.8882 20.6055 14.1179C21.3758 13.3477 22.3571 12.8231 23.4255 12.6106C24.4939 12.3981 25.6013 12.5072 26.6077 12.924C27.614 13.3409 28.4742 14.0468 29.0794 14.9525C29.6846 15.8583 30.0076 16.9231 30.0076 18.0124C30.0076 18.7357 29.8651 19.4518 29.5883 20.1201C29.3116 20.7883 28.9059 21.3954 28.3944 21.9069C27.883 22.4183 27.2759 22.824 26.6077 23.1008C25.9394 23.3775 25.2233 23.52 24.5 23.52Z" fill="#14426D"/>
</svg>
