<svg width="192" height="192" viewBox="0 0 192 192" fill="none" xmlns="http://www.w3.org/2000/svg">
<circle cx="96" cy="96" r="96" fill="url(#paint0_linear_11_1555)"/>
<g clip-path="url(#clip0_11_1555)">
<path fill-rule="evenodd" clip-rule="evenodd" d="M50.7917 17.849L52.5272 18.4909V18.7112C50.7537 18.7112 48.9802 18.7112 47.2066 18.7112V18.4909L48.9567 17.8436V9.03966H46.4957L45.3091 11.5126H45V8.1886C48.2495 8.1886 51.4989 8.1886 54.7484 8.1886V11.5126H54.4393L53.2526 9.03966H50.7917V17.849Z" fill="#14426D"/>
<path fill-rule="evenodd" clip-rule="evenodd" d="M66.5579 18.7112V18.4909L65.5021 17.9463L61.4484 8.11322H60.3315L56.3016 17.956L55.2646 18.491V18.7113C56.4084 18.7113 57.5521 18.7113 58.6958 18.7113V18.491L57.3032 17.9759L58.4577 15.1516H62.3085L63.4635 17.9716L62.0593 18.491V18.7113C63.5588 18.7113 65.0583 18.7113 66.5579 18.7113V18.7112ZM58.8261 14.2505L60.3813 10.4457L61.9395 14.2505H58.8261Z" fill="#14426D"/>
<path fill-rule="evenodd" clip-rule="evenodd" d="M67.7608 8.20642V8.42669L69.125 9.03349V17.8131L67.811 18.491V18.7113C69.3071 18.7113 70.8032 18.7113 72.2993 18.7113V18.491L71.1124 17.8741V13.8466H72.2369L75.2211 18.7113C76.2084 18.7113 77.1958 18.7113 78.1832 18.7113V18.491L77.106 17.9312L74.1043 13.3335C75.036 13.0064 76.2582 12.2941 76.2582 10.807C76.2582 8.40414 73.5855 8.20648 73.5855 8.20648C71.6439 8.20648 69.7023 8.20648 67.7607 8.20648L67.7608 8.20642ZM71.1124 13.0696V9.08481H72.6482C72.6482 9.08481 74.2039 9.28502 74.2438 11.0271C74.2836 12.7693 72.4487 13.0696 72.4487 13.0696H71.1124H71.1124Z" fill="#14426D"/>
<path fill-rule="evenodd" clip-rule="evenodd" d="M113.095 18.7112V18.4909L114.394 17.8157C114.394 14.9111 114.394 12.0065 114.394 9.10184L113.095 8.42662V8.20636C115.842 8.20636 118.588 8.20636 121.335 8.20636V9.00507V10.9274H121.116L119.989 9.00507H116.269V12.8719H118.933L119.754 11.4703H119.973C119.973 12.6678 119.973 13.8653 119.973 15.0627H119.754L118.938 13.6706H116.269V17.9124H120.396L121.535 15.613H121.754V17.9124V18.7111C118.868 18.7111 115.981 18.7111 113.095 18.7111V18.7112Z" fill="#14426D"/>
<path fill-rule="evenodd" clip-rule="evenodd" d="M123.586 18.7112V18.4909L124.885 17.8157V9.10184L123.586 8.42662V8.20636C124.524 8.20636 125.463 8.20636 126.401 8.20636L132.564 15.5622V9.11166L130.709 8.42675V8.20648C132.086 8.20648 133.464 8.20648 134.84 8.20648V8.42675L133.541 9.10196V18.7113H132.685L126.082 10.9831V17.8871L127.717 18.491V18.7113C126.34 18.7113 124.963 18.7113 123.586 18.7113V18.7112Z" fill="#14426D"/>
<path fill-rule="evenodd" clip-rule="evenodd" d="M98.7173 8.20642H96.8421V8.20648H95.4458V8.42675L96.8421 9.15244V17.7652L95.4458 18.4909V18.7112H96.8421H97.0619H98.4974H98.7173H100.114V18.4909L98.7173 17.7652V9.15244L100.114 8.42675V8.20648H98.7173V8.20642Z" fill="#14426D"/>
<path fill-rule="evenodd" clip-rule="evenodd" d="M147 18.7112V18.4909L145.944 17.9463L141.891 8.11322H140.774L136.744 17.956L135.707 18.491V18.7113C136.851 18.7113 137.994 18.7113 139.138 18.7113V18.491L137.745 17.9759L138.9 15.1516H142.751L143.906 17.9716L142.501 18.491V18.7113C144.001 18.7113 145.5 18.7113 147 18.7113V18.7112ZM139.268 14.2505L140.823 10.4457L142.382 14.2505H139.268Z" fill="#14426D"/>
<path fill-rule="evenodd" clip-rule="evenodd" d="M101.867 8.20642V8.42669L103.232 9.03349V17.8131L101.918 18.491V18.7113C103.414 18.7113 104.91 18.7113 106.406 18.7113V18.491L105.219 17.8741V13.8466H106.344L109.328 18.7113C110.315 18.7113 111.302 18.7113 112.29 18.7113V18.491L111.213 17.9312L108.211 13.3335C109.143 13.0064 110.365 12.2941 110.365 10.807C110.365 8.40414 107.692 8.20648 107.692 8.20648C105.751 8.20648 103.809 8.20648 101.867 8.20648L101.867 8.20642ZM105.219 13.0696V9.08481H106.755C106.755 9.08481 108.311 9.28502 108.35 11.0271C108.39 12.7693 106.555 13.0696 106.555 13.0696H105.219H105.219Z" fill="#14426D"/>
<path fill-rule="evenodd" clip-rule="evenodd" d="M84.3126 8.00003C87.3141 8.00003 89.7473 10.4413 89.7473 13.4528C89.7473 16.4643 87.3141 18.9055 84.3126 18.9055C81.3111 18.9055 78.8779 16.4643 78.8779 13.4528C78.8779 10.4413 81.3111 8.00003 84.3126 8.00003ZM83.9337 8.78486C87.9866 8.3121 89.4566 17.9004 84.6747 18.1207C80.5988 18.3084 79.4709 9.3055 83.9337 8.78486Z" fill="#14426D"/>
<path d="M83.1707 31.4882L83.9598 31.3608C84.0037 31.678 84.1277 31.9208 84.3303 32.0908C84.5328 32.2593 84.817 32.3443 85.1799 32.3443C85.5473 32.3443 85.8194 32.2699 85.9978 32.1196C86.1747 31.9709 86.2639 31.7949 86.2639 31.5929C86.2639 31.4124 86.1837 31.2697 86.025 31.1665C85.9131 31.0952 85.641 31.0056 85.2086 30.8948C84.625 30.7476 84.2214 30.6201 83.9946 30.5123C83.7693 30.403 83.5985 30.2543 83.4821 30.063C83.3657 29.8733 83.3067 29.6624 83.3067 29.4316C83.3067 29.2207 83.355 29.0264 83.4503 28.8473C83.5471 28.6682 83.6771 28.5195 83.8419 28.4011C83.9659 28.31 84.1352 28.2326 84.3484 28.1688C84.5631 28.1051 84.7913 28.0732 85.0362 28.0732C85.4051 28.0732 85.7286 28.1263 86.0068 28.2341C86.2865 28.3404 86.492 28.486 86.6251 28.6682C86.7566 28.8518 86.8488 29.0962 86.8987 29.4028L86.1186 29.512C86.0838 29.2661 85.981 29.0734 85.8117 28.9353C85.6424 28.7972 85.4035 28.7289 85.0936 28.7289C84.7292 28.7289 84.4677 28.7896 84.312 28.911C84.1562 29.0324 84.0777 29.1751 84.0777 29.3375C84.0777 29.4407 84.1094 29.5348 84.1744 29.6183C84.2394 29.7033 84.3408 29.7746 84.4798 29.8307C84.56 29.8611 84.7928 29.9294 85.1828 30.0356C85.7452 30.1859 86.1383 30.3103 86.362 30.4059C86.5858 30.5016 86.7611 30.6427 86.8882 30.8248C87.0167 31.0085 87.0802 31.2362 87.0802 31.5093C87.0802 31.7749 87.003 32.0254 86.8473 32.2606C86.6916 32.4959 86.4678 32.678 86.1761 32.807C85.8828 32.936 85.5517 32.9998 85.1828 32.9998C84.572 32.9998 84.1049 32.8723 83.7844 32.6188C83.4639 32.3638 83.2598 31.9874 83.1707 31.4881L83.1707 31.4882ZM91.0986 31.1695L91.8787 31.2788C91.7926 31.8175 91.5748 32.238 91.2226 32.543C90.8703 32.8481 90.4364 32.9999 89.9239 32.9999C89.2814 32.9999 88.7644 32.7889 88.3744 32.367C87.9828 31.9451 87.7877 31.341 87.7877 30.5548C87.7877 30.0448 87.8724 29.6001 88.0402 29.2177C88.208 28.8367 88.4635 28.5498 88.8082 28.3601C89.1513 28.1689 89.5248 28.0733 89.93 28.0733C90.4394 28.0733 90.8582 28.2023 91.1817 28.4619C91.5068 28.7213 91.7154 29.0902 91.8061 29.5668L91.0351 29.6852C90.961 29.3679 90.831 29.1297 90.642 28.9688C90.4545 28.8094 90.2278 28.729 89.9617 28.729C89.5596 28.729 89.233 28.8731 88.9805 29.1615C88.7296 29.4514 88.6041 29.9068 88.6041 30.532C88.6041 31.1665 88.725 31.6264 88.967 31.9132C89.2104 32.2001 89.5263 32.3443 89.9149 32.3443C90.2293 32.3443 90.4909 32.2487 90.6995 32.0559C90.9096 31.8647 91.0427 31.5687 91.0986 31.1695H91.0986ZM92.5591 32.8998V26.3795H93.3573V28.7259C93.7278 28.2903 94.1949 28.0733 94.7603 28.0733C95.1065 28.0733 95.4073 28.1415 95.6643 28.2796C95.9198 28.4178 96.1028 28.6075 96.2131 28.8503C96.3234 29.0932 96.3779 29.4468 96.3779 29.9082V32.8997H95.5797V29.9112C95.5797 29.5121 95.4935 29.2207 95.3227 29.0385C95.1503 28.8565 94.9085 28.7653 94.5939 28.7653C94.3596 28.7653 94.1389 28.826 93.9318 28.949C93.7247 29.0719 93.578 29.2389 93.4888 29.4498C93.4011 29.6593 93.3573 29.9492 93.3573 30.3195V32.8997H92.559L92.5591 32.8998ZM97.3047 30.5366C97.3047 29.6639 97.5467 29.0173 98.0319 28.5969C98.4356 28.2478 98.9299 28.0733 99.512 28.0733C100.158 28.0733 100.687 28.2858 101.098 28.7107C101.508 29.1342 101.713 29.7216 101.713 30.4698C101.713 31.077 101.622 31.5535 101.441 31.9011C101.26 32.2487 100.995 32.5188 100.647 32.7116C100.301 32.9043 99.9216 33 99.512 33C98.8528 33 98.3207 32.789 97.9139 32.3655C97.5073 31.9421 97.3047 31.3319 97.3047 30.5366ZM98.1211 30.5381C98.1211 31.1422 98.2527 31.5945 98.5156 31.8935C98.7802 32.194 99.1113 32.3443 99.512 32.3443C99.9081 32.3443 100.238 32.194 100.502 31.892C100.765 31.5899 100.897 31.1301 100.897 30.5123C100.897 29.9295 100.764 29.4878 100.499 29.1888C100.235 28.8883 99.905 28.738 99.512 28.738C99.1113 28.738 98.7802 28.8867 98.5156 29.1857C98.2527 29.4848 98.1211 29.9355 98.1211 30.538V30.5381ZM102.35 30.5366C102.35 29.6639 102.592 29.0173 103.077 28.5969C103.481 28.2478 103.975 28.0733 104.557 28.0733C105.202 28.0733 105.732 28.2858 106.143 28.7107C106.552 29.1342 106.758 29.7216 106.758 30.4698C106.758 31.077 106.667 31.5535 106.486 31.9011C106.305 32.2487 106.04 32.5188 105.692 32.7116C105.346 32.9043 104.967 33 104.557 33C103.898 33 103.366 32.789 102.959 32.3655C102.552 31.9421 102.35 31.3319 102.35 30.5366ZM103.166 30.5381C103.166 31.1422 103.298 31.5945 103.561 31.8935C103.825 32.194 104.156 32.3443 104.557 32.3443C104.953 32.3443 105.283 32.194 105.547 31.892C105.81 31.5899 105.942 31.1301 105.942 30.5123C105.942 29.9295 105.809 29.4878 105.544 29.1888C105.28 28.8883 104.95 28.738 104.557 28.738C104.156 28.738 103.825 28.8867 103.561 29.1857C103.298 29.4848 103.166 29.9355 103.166 30.538V30.5381ZM107.676 32.8998V26.3795H108.474V32.8998H107.676Z" fill="#14426D"/>
</g>
<defs>
<linearGradient id="paint0_linear_11_1555" x1="96" y1="-48.4" x2="96" y2="153.6" gradientUnits="userSpaceOnUse">
<stop offset="0.0520833" stop-color="white"/>
<stop offset="0.65625" stop-color="white" stop-opacity="0"/>
</linearGradient>
<clipPath id="clip0_11_1555">
<rect width="102" height="25" fill="white" transform="translate(45 8)"/>
</clipPath>
</defs>
</svg>
