<svg width="100" height="25" viewBox="0 0 100 25" fill="none" xmlns="http://www.w3.org/2000/svg">
<g clip-path="url(#clip0_1_952)">
<path fill-rule="evenodd" clip-rule="evenodd" d="M5.67809 9.84904L7.37959 10.4909V10.7112C5.64087 10.7112 3.90214 10.7112 2.16336 10.7112V10.4909L3.87913 9.84365V1.03966H1.4664L0.303033 3.51257H0V0.188599C3.18578 0.188599 6.37144 0.188599 9.55721 0.188599V3.51257H9.25418L8.09081 1.03966H5.67809V9.84904Z" fill="#14426D"/>
<path fill-rule="evenodd" clip-rule="evenodd" d="M21.1352 10.7112V10.4909L20.1001 9.9463L16.1259 0.11322H15.0309L11.08 9.956L10.0634 10.491V10.7113C11.1847 10.7113 12.306 10.7113 13.4273 10.7113V10.491L12.062 9.97593L13.1938 7.15157H16.9692L18.1015 9.97157L16.7248 10.491V10.7113C18.1949 10.7113 19.665 10.7113 21.1352 10.7113V10.7112ZM13.555 6.25046L15.0797 2.44572L16.6074 6.25046H13.555Z" fill="#14426D"/>
<path fill-rule="evenodd" clip-rule="evenodd" d="M22.3145 0.206421V0.426686L23.652 1.03349V9.81312L22.3638 10.491V10.7113C23.8305 10.7113 25.2973 10.7113 26.764 10.7113V10.491L25.6004 9.87414V5.84659H26.7028L29.6285 10.7113C30.5965 10.7113 31.5645 10.7113 32.5326 10.7113V10.491L31.4765 9.93116L28.5337 5.33347C29.4471 5.00644 30.6454 4.29408 30.6454 2.807C30.6454 0.404144 28.025 0.206481 28.025 0.206481C26.1215 0.206481 24.218 0.206481 22.3145 0.206481L22.3145 0.206421ZM25.6004 5.06958V1.08481H27.1061C27.1061 1.08481 28.6313 1.28502 28.6704 3.02714C28.7095 4.76927 26.9105 5.06958 26.9105 5.06958H25.6004H25.6004Z" fill="#14426D"/>
<path fill-rule="evenodd" clip-rule="evenodd" d="M66.7597 10.7112V10.4909L68.0334 9.81572C68.0334 6.91107 68.0334 4.00649 68.0334 1.10184L66.7597 0.426625V0.20636C69.4526 0.20636 72.1454 0.20636 74.8383 0.20636V1.00507V2.9274H74.6232L73.5188 1.00507H69.8718V4.87191H72.4829L73.2882 3.47028H73.5033C73.5033 4.66777 73.5033 5.86526 73.5033 7.06275H73.2882L72.4884 5.67062H69.8718V9.91243H73.9171L75.0339 7.61301H75.249V9.91243V10.7111C72.4192 10.7111 69.5895 10.7111 66.7597 10.7111V10.7112Z" fill="#14426D"/>
<path fill-rule="evenodd" clip-rule="evenodd" d="M77.0453 10.7112V10.4909L78.3189 9.81572V1.10184L77.0453 0.426625V0.20636C77.9651 0.20636 78.8849 0.20636 79.8048 0.20636L85.8471 7.56217V1.11166L84.0289 0.426746V0.206481C85.3789 0.206481 86.7289 0.206481 88.0789 0.206481V0.426746L86.8053 1.10196V10.7113H85.9654L79.4923 2.98309V9.8871L81.0953 10.491V10.7113C79.7453 10.7113 78.3952 10.7113 77.0453 10.7113V10.7112Z" fill="#14426D"/>
<path fill-rule="evenodd" clip-rule="evenodd" d="M52.664 0.206421H50.8255V0.206481H49.4566V0.426746L50.8255 1.15244V9.76525L49.4566 10.4909V10.7112H50.8255H51.041H52.4484H52.664H54.0329V10.4909L52.664 9.76525V1.15244L54.0329 0.426746V0.206481H52.664V0.206421Z" fill="#14426D"/>
<path fill-rule="evenodd" clip-rule="evenodd" d="M100 10.7112V10.4909L98.9649 9.9463L94.9908 0.11322H93.8957L89.9448 9.956L88.9282 10.491V10.7113C90.0495 10.7113 91.1708 10.7113 92.2921 10.7113V10.491L90.9268 9.97593L92.0587 7.15157H95.834L96.9663 9.97157L95.5896 10.491V10.7113C97.0597 10.7113 98.5299 10.7113 100 10.7113V10.7112ZM92.4198 6.25046L93.9445 2.44572L95.4722 6.25046H92.4198Z" fill="#14426D"/>
<path fill-rule="evenodd" clip-rule="evenodd" d="M55.7524 0.206421V0.426686L57.0899 1.03349V9.81312L55.8017 10.491V10.7113C57.2684 10.7113 58.7352 10.7113 60.2019 10.7113V10.491L59.0383 9.87414V5.84659H60.1408L63.0664 10.7113C64.0344 10.7113 65.0024 10.7113 65.9705 10.7113V10.491L64.9144 9.93116L61.9716 5.33347C62.885 5.00644 64.0833 4.29408 64.0833 2.807C64.0833 0.404144 61.463 0.206481 61.463 0.206481C59.5594 0.206481 57.6559 0.206481 55.7524 0.206481L55.7524 0.206421ZM59.0383 5.06958V1.08481H60.544C60.544 1.08481 62.0692 1.28502 62.1083 3.02714C62.1474 4.76927 60.3484 5.06958 60.3484 5.06958H59.0383H59.0383Z" fill="#14426D"/>
<path fill-rule="evenodd" clip-rule="evenodd" d="M38.5417 0C41.4843 0 43.8698 2.44127 43.8698 5.45275C43.8698 8.46423 41.4843 10.9055 38.5417 10.9055C35.5991 10.9055 33.2136 8.46423 33.2136 5.45275C33.2136 2.44127 35.5991 0 38.5417 0ZM38.1702 0.784833C42.1437 0.312067 43.5849 9.9004 38.8967 10.1207C34.9007 10.3084 33.7949 1.30547 38.1702 0.784833Z" fill="#14426D"/>
<path d="M37.4223 23.4883L38.1959 23.3608C38.2389 23.6781 38.3605 23.9209 38.5591 24.0908C38.7576 24.2593 39.0363 24.3443 39.3921 24.3443C39.7522 24.3443 40.019 24.2699 40.1939 24.1197C40.3674 23.9709 40.4548 23.7949 40.4548 23.593C40.4548 23.4124 40.3762 23.2697 40.2206 23.1665C40.1109 23.0952 39.8441 23.0056 39.4202 22.8949C38.8481 22.7476 38.4523 22.6201 38.23 22.5123C38.0091 22.4031 37.8417 22.2544 37.7275 22.0631C37.6134 21.8733 37.5556 21.6624 37.5556 21.4317C37.5556 21.2207 37.603 21.0265 37.6964 20.8473C37.7913 20.6682 37.9187 20.5195 38.0803 20.4011C38.2018 20.31 38.3678 20.2326 38.5768 20.1688C38.7873 20.1052 39.0111 20.0732 39.2512 20.0732C39.6128 20.0732 39.93 20.1264 40.2027 20.2341C40.4769 20.3404 40.6784 20.4861 40.8089 20.6682C40.9378 20.8518 41.0282 21.0962 41.0772 21.4028L40.3123 21.5121C40.2783 21.2662 40.1775 21.0734 40.0114 20.9353C39.8455 20.7972 39.6113 20.7289 39.3074 20.7289C38.9502 20.7289 38.6939 20.7896 38.5411 20.911C38.3885 21.0324 38.3114 21.1751 38.3114 21.3375C38.3114 21.4407 38.3425 21.5348 38.4063 21.6183C38.47 21.7033 38.5694 21.7746 38.7057 21.8307C38.7843 21.8612 39.0125 21.9294 39.3949 22.0357C39.9462 22.1859 40.3316 22.3104 40.551 22.406C40.7703 22.5017 40.9423 22.6428 41.0668 22.8249C41.1928 23.0085 41.255 23.2362 41.255 23.5094C41.255 23.7749 41.1794 24.0254 41.0268 24.2607C40.8741 24.496 40.6547 24.6781 40.3687 24.8071C40.0811 24.9361 39.7566 24.9998 39.3949 24.9998C38.7961 24.9998 38.3381 24.8723 38.0239 24.6188C37.7097 24.3639 37.5096 23.9875 37.4222 23.4881L37.4223 23.4883ZM45.1947 23.1695L45.9595 23.2788C45.875 23.8175 45.6616 24.238 45.3163 24.5431C44.9709 24.8482 44.5455 24.9999 44.0431 24.9999C43.4131 24.9999 42.9063 24.789 42.5239 24.367C42.1399 23.9451 41.9488 23.341 41.9488 22.5548C41.9488 22.0448 42.0318 21.6001 42.1963 21.2177C42.3608 20.8367 42.6113 20.5499 42.9492 20.3601C43.2856 20.1689 43.6517 20.0733 44.049 20.0733C44.5485 20.0733 44.959 20.2023 45.2762 20.4619C45.5948 20.7214 45.7994 21.0902 45.8884 21.5668L45.1325 21.6852C45.0598 21.368 44.9323 21.1297 44.7471 20.9688C44.5633 20.8094 44.3409 20.729 44.0801 20.729C43.6859 20.729 43.3657 20.8731 43.1182 21.1615C42.8722 21.4514 42.7491 21.9068 42.7491 22.5321C42.7491 23.1665 42.8677 23.6264 43.1048 23.9132C43.3435 24.2001 43.6532 24.3443 44.0342 24.3443C44.3425 24.3443 44.5989 24.2487 44.8034 24.0559C45.0094 23.8647 45.1399 23.5687 45.1946 23.1695H45.1947ZM46.6266 24.8998V18.3795H47.4091V20.726C47.7723 20.2903 48.2302 20.0733 48.7846 20.0733C49.124 20.0733 49.4189 20.1416 49.6709 20.2797C49.9213 20.4178 50.1007 20.6075 50.2089 20.8504C50.3171 21.0932 50.3705 21.4469 50.3705 21.9082V24.8997H49.5879V21.9113C49.5879 21.5121 49.5034 21.2207 49.3359 21.0386C49.167 20.8565 48.9299 20.7653 48.6215 20.7653C48.3918 20.7653 48.1754 20.8261 47.9723 20.949C47.7693 21.0719 47.6255 21.2389 47.538 21.4498C47.452 21.6593 47.4091 21.9492 47.4091 22.3196V24.8997H46.6265L46.6266 24.8998ZM51.2791 22.5366C51.2791 21.6639 51.5163 21.0174 51.9921 20.597C52.3878 20.2479 52.8724 20.0733 53.4431 20.0733C54.076 20.0733 54.5948 20.2858 54.9979 20.7107C55.3995 21.1342 55.6011 21.7216 55.6011 22.4698C55.6011 23.077 55.5121 23.5535 55.3343 23.9011C55.1565 24.2487 54.8971 24.5188 54.5562 24.7116C54.2167 24.9043 53.8447 25 53.4431 25C52.7969 25 52.2752 24.789 51.8764 24.3656C51.4777 23.9421 51.2791 23.3319 51.2791 22.5366ZM52.0795 22.5381C52.0795 23.1423 52.2085 23.5945 52.4663 23.8935C52.7257 24.194 53.0503 24.3443 53.4431 24.3443C53.8314 24.3443 54.1545 24.194 54.4139 23.892C54.6717 23.5899 54.8007 23.1301 54.8007 22.5123C54.8007 21.9295 54.6703 21.4878 54.4109 21.1888C54.1515 20.8883 53.8284 20.738 53.4431 20.738C53.0503 20.738 52.7257 20.8868 52.4663 21.1858C52.2085 21.4848 52.0795 21.9356 52.0795 22.5381V22.5381ZM56.2252 22.5366C56.2252 21.6639 56.4624 21.0174 56.9381 20.597C57.3338 20.2479 57.8185 20.0733 58.3891 20.0733C59.022 20.0733 59.5408 20.2858 59.9439 20.7107C60.3456 21.1342 60.5471 21.7216 60.5471 22.4698C60.5471 23.077 60.4582 23.5535 60.2804 23.9011C60.1025 24.2487 59.8431 24.5188 59.5022 24.7116C59.1628 24.9043 58.7908 25 58.3891 25C57.7429 25 57.2212 24.789 56.8224 24.3656C56.4238 23.9421 56.2252 23.3319 56.2252 22.5366ZM57.0256 22.5381C57.0256 23.1423 57.1545 23.5945 57.4123 23.8935C57.6717 24.194 57.9963 24.3443 58.3891 24.3443C58.7774 24.3443 59.1005 24.194 59.3599 23.892C59.6178 23.5899 59.7467 23.1301 59.7467 22.5123C59.7467 21.9295 59.6163 21.4878 59.3569 21.1888C59.0976 20.8883 58.7744 20.738 58.3891 20.738C57.9963 20.738 57.6717 20.8868 57.4123 21.1858C57.1545 21.4848 57.0256 21.9356 57.0256 22.5381V22.5381ZM61.4469 24.8998V18.3795H62.2295V24.8998H61.4469Z" fill="#14426D"/>
</g>
<defs>
<clipPath id="clip0_1_952">
<rect width="100" height="25" fill="white"/>
</clipPath>
</defs>
</svg>
