<svg width="152" height="38" viewBox="0 0 152 38" fill="none" xmlns="http://www.w3.org/2000/svg">
<g clip-path="url(#clip0_1_23)">
<path fill-rule="evenodd" clip-rule="evenodd" d="M8.63069 14.9706L11.217 15.9462V16.281C8.57412 16.281 5.93126 16.281 3.28831 16.281V15.9462L5.89627 14.9624V1.5803H2.22893L0.46061 5.33911H0V0.286682C4.84238 0.286682 9.68458 0.286682 14.527 0.286682V5.33911H14.0664L12.298 1.5803H8.63069V14.9706Z" fill="#14426D"/>
<path fill-rule="evenodd" clip-rule="evenodd" d="M32.1255 16.281V15.9462L30.5521 15.1183L24.5114 0.172058H22.847L16.8416 15.1331L15.2964 15.9463V16.2811C17.0007 16.2811 18.7051 16.2811 20.4095 16.2811V15.9463L18.3343 15.1634L20.0546 10.8704H25.7931L27.5142 15.1567L25.4217 15.9463V16.2811C27.6563 16.2811 29.8909 16.2811 32.1255 16.2811V16.281ZM20.6036 9.50066L22.9211 3.71746L25.2432 9.50066H20.6036Z" fill="#14426D"/>
<path fill-rule="evenodd" clip-rule="evenodd" d="M33.9181 0.313721V0.648523L35.951 1.57087V14.9159L33.9929 15.9463V16.2811C36.2224 16.2811 38.4519 16.2811 40.6813 16.2811V15.9463L38.9126 15.0086V8.88678H40.5883L45.0353 16.2811C46.5067 16.2811 47.978 16.2811 49.4496 16.2811V15.9463L47.8442 15.0953L43.3711 8.10684C44.7595 7.60974 46.5809 6.52696 46.5809 4.2666C46.5809 0.61426 42.5981 0.313813 42.5981 0.313813C39.7047 0.313813 36.8113 0.313813 33.918 0.313813L33.9181 0.313721ZM38.9126 7.70572V1.64888H41.2012C41.2012 1.64888 43.5195 1.95319 43.579 4.60122C43.6384 7.24924 40.9039 7.70572 40.9039 7.70572H38.9126H38.9126Z" fill="#14426D"/>
<path fill-rule="evenodd" clip-rule="evenodd" d="M101.475 16.281V15.9462L103.411 14.9199C103.411 10.5048 103.411 6.08986 103.411 1.67479L101.475 0.648462V0.31366C105.568 0.31366 109.661 0.31366 113.754 0.31366V1.5277V4.44965H113.427L111.749 1.5277H106.205V7.4053H110.174L111.398 5.27482H111.725C111.725 7.095 111.725 8.91518 111.725 10.7354H111.398L110.182 8.61934H106.205V15.0669H112.354L114.051 11.5718H114.378V15.0669V16.2809C110.077 16.2809 105.776 16.2809 101.475 16.2809V16.281Z" fill="#14426D"/>
<path fill-rule="evenodd" clip-rule="evenodd" d="M117.109 16.281V15.9462L119.045 14.9199V1.67479L117.109 0.648462V0.31366C118.507 0.31366 119.905 0.31366 121.303 0.31366L130.488 11.4945V1.68971L127.724 0.648646V0.313844C129.776 0.313844 131.828 0.313844 133.88 0.313844V0.648646L131.944 1.67498V16.2811H130.667L120.828 4.53429V15.0284L123.265 15.9463V16.2811C121.213 16.2811 119.161 16.2811 117.109 16.2811V16.281Z" fill="#14426D"/>
<path fill-rule="evenodd" clip-rule="evenodd" d="M80.0493 0.313721H77.2548V0.313813H75.1741V0.648615L77.2548 1.75167V14.8431L75.1741 15.9462V16.281H77.2548H77.5824H79.7216H80.0493H82.13V15.9462L80.0493 14.8431V1.75167L82.13 0.648615V0.313813H80.0493V0.313721Z" fill="#14426D"/>
<path fill-rule="evenodd" clip-rule="evenodd" d="M152 16.281V15.9462L150.427 15.1183L144.386 0.172058H142.721L136.716 15.1331L135.171 15.9463V16.2811C136.875 16.2811 138.58 16.2811 140.284 16.2811V15.9463L138.209 15.1634L139.929 10.8704H145.668L147.389 15.1567L145.296 15.9463V16.2811C147.531 16.2811 149.765 16.2811 152 16.2811V16.281ZM140.478 9.50066L142.796 3.71746L145.118 9.50066H140.478Z" fill="#14426D"/>
<path fill-rule="evenodd" clip-rule="evenodd" d="M84.7437 0.313721V0.648523L86.7767 1.57087V14.9159L84.8185 15.9463V16.2811C87.048 16.2811 89.2775 16.2811 91.507 16.2811V15.9463L89.7382 15.0086V8.88678H91.414L95.8609 16.2811C97.3324 16.2811 98.8037 16.2811 100.275 16.2811V15.9463L98.6698 15.0953L94.1968 8.10684C95.5852 7.60974 97.4066 6.52696 97.4066 4.2666C97.4066 0.61426 93.4237 0.313813 93.4237 0.313813C90.5303 0.313813 87.637 0.313813 84.7436 0.313813L84.7437 0.313721ZM89.7382 7.70572V1.64888H92.0268C92.0268 1.64888 94.3452 1.95319 94.4046 4.60122C94.464 7.24924 91.7296 7.70572 91.7296 7.70572H89.7383H89.7382Z" fill="#14426D"/>
<path fill-rule="evenodd" clip-rule="evenodd" d="M58.5833 0C63.0561 0 66.6821 3.71074 66.6821 8.28818C66.6821 12.8656 63.0561 16.5764 58.5833 16.5764C54.1106 16.5764 50.4846 12.8656 50.4846 8.28818C50.4846 3.71074 54.1106 0 58.5833 0ZM58.0187 1.19295C64.0584 0.474342 66.249 15.0486 59.123 15.3834C53.0491 15.6688 51.3683 1.98431 58.0187 1.19295Z" fill="#14426D"/>
<path d="M56.8818 35.7021L58.0578 35.5084C58.1231 35.9906 58.3079 36.3597 58.6098 36.618C58.9116 36.8742 59.3352 37.0033 59.8759 37.0033C60.4233 37.0033 60.8289 36.8903 61.0948 36.6619C61.3584 36.4357 61.4913 36.1682 61.4913 35.8613C61.4913 35.5868 61.3718 35.3699 61.1353 35.213C60.9686 35.1046 60.563 34.9685 59.9187 34.8001C59.0491 34.5763 58.4475 34.3825 58.1096 34.2187C57.7739 34.0526 57.5194 33.8266 57.3459 33.5358C57.1724 33.2474 57.0845 32.9268 57.0845 32.5761C57.0845 32.2555 57.1565 31.9602 57.2985 31.6879C57.4427 31.4156 57.6365 31.1896 57.882 31.0096C58.0668 30.8712 58.3191 30.7535 58.6368 30.6566C58.9567 30.5598 59.2969 30.5113 59.6618 30.5113C60.2115 30.5113 60.6936 30.592 61.1081 30.7558C61.5249 30.9174 61.8313 31.1388 62.0295 31.4156C62.2255 31.6947 62.3629 32.0662 62.4373 32.5322L61.2748 32.6983C61.223 32.3245 61.0698 32.0316 60.8174 31.8216C60.5651 31.6117 60.2092 31.5079 59.7473 31.5079C59.2043 31.5079 58.8147 31.6002 58.5825 31.7847C58.3505 31.9692 58.2334 32.1861 58.2334 32.4329C58.2334 32.5899 58.2807 32.7328 58.3775 32.8598C58.4744 32.989 58.6254 33.0974 58.8327 33.1827C58.9521 33.2289 59.299 33.3327 59.8803 33.4942C60.7183 33.7226 61.3041 33.9117 61.6375 34.057C61.9709 34.2025 62.2322 34.417 62.4216 34.6938C62.6131 34.9729 62.7077 35.319 62.7077 35.7342C62.7077 36.1379 62.5927 36.5186 62.3607 36.8762C62.1286 37.2338 61.7952 37.5106 61.3604 37.7067C60.9233 37.9028 60.43 37.9997 59.8803 37.9997C58.9701 37.9997 58.2739 37.8059 57.7964 37.4205C57.3187 37.033 57.0146 36.4609 56.8817 35.7019L56.8818 35.7021ZM68.696 35.2177L69.8585 35.3837C69.7301 36.2026 69.4056 36.8417 68.8807 37.3054C68.3558 37.7692 67.7092 37.9999 66.9454 37.9999C65.988 37.9999 65.2175 37.6792 64.6363 37.0378C64.0527 36.3965 63.7621 35.4783 63.7621 34.2832C63.7621 33.5081 63.8883 32.8321 64.1383 32.2509C64.3884 31.6718 64.7691 31.2358 65.2828 30.9474C65.7941 30.6567 66.3506 30.5114 66.9544 30.5114C67.7137 30.5114 68.3377 30.7074 68.8198 31.102C69.3042 31.4964 69.6151 32.0571 69.7503 32.7816L68.6013 32.9614C68.4909 32.4793 68.2971 32.1171 68.0155 31.8726C67.7362 31.6302 67.3982 31.508 67.0018 31.508C66.4025 31.508 65.9158 31.7271 65.5396 32.1655C65.1657 32.6061 64.9786 33.2983 64.9786 34.2487C64.9786 35.213 65.1589 35.9121 65.5194 36.3481C65.8821 36.7841 66.3529 37.0033 66.932 37.0033C67.4006 37.0033 67.7903 36.858 68.1012 36.565C68.4143 36.2743 68.6126 35.8244 68.6959 35.2177H68.696ZM70.8724 37.8476V27.9368H72.0619V31.5034C72.6139 30.8413 73.31 30.5114 74.1526 30.5114C74.6685 30.5114 75.1168 30.6152 75.4998 30.8251C75.8804 31.0351 76.1531 31.3234 76.3176 31.6925C76.482 32.0617 76.5631 32.5992 76.5631 33.3005V37.8475H75.3736V33.3051C75.3736 32.6984 75.2451 32.2555 74.9906 31.9786C74.7338 31.7018 74.3734 31.5633 73.9047 31.5633C73.5555 31.5633 73.2266 31.6556 72.9179 31.8425C72.6093 32.0292 72.3907 32.2831 72.2578 32.6037C72.1271 32.9221 72.0618 33.3627 72.0618 33.9257V37.8475H70.8723L70.8724 37.8476ZM77.9443 34.2556C77.9443 32.9291 78.3048 31.9464 79.028 31.3073C79.6294 30.7767 80.3661 30.5114 81.2335 30.5114C82.1955 30.5114 82.984 30.8344 83.5967 31.4803C84.2073 32.1239 84.5136 33.0168 84.5136 34.1541C84.5136 35.077 84.3785 35.8013 84.1082 36.3296C83.8379 36.858 83.4436 37.2686 82.9254 37.5616C82.4095 37.8545 81.844 38 81.2335 38C80.2512 38 79.4583 37.6793 78.8521 37.0356C78.2462 36.392 77.9443 35.4645 77.9443 34.2556ZM79.1609 34.2579C79.1609 35.1762 79.3569 35.8636 79.7488 36.3181C80.143 36.7749 80.6365 37.0033 81.2335 37.0033C81.8237 37.0033 82.3148 36.7749 82.7091 36.3158C83.1011 35.8567 83.297 35.1577 83.297 34.2187C83.297 33.3328 83.0988 32.6615 82.7046 32.207C82.3103 31.7502 81.8192 31.5217 81.2335 31.5217C80.6365 31.5217 80.143 31.7479 79.7488 32.2023C79.3569 32.6569 79.1609 33.342 79.1609 34.2578V34.2579ZM85.4623 34.2556C85.4623 32.9291 85.8228 31.9464 86.546 31.3073C87.1474 30.7767 87.8841 30.5114 88.7515 30.5114C89.7135 30.5114 90.502 30.8344 91.1147 31.4803C91.7253 32.1239 92.0316 33.0168 92.0316 34.1541C92.0316 35.077 91.8964 35.8013 91.6262 36.3296C91.3559 36.858 90.9615 37.2686 90.4434 37.5616C89.9274 37.8545 89.362 38 88.7515 38C87.7692 38 86.9763 37.6793 86.3701 37.0356C85.7642 36.392 85.4623 35.4645 85.4623 34.2556ZM86.6789 34.2579C86.6789 35.1762 86.8749 35.8636 87.2668 36.3181C87.661 36.7749 88.1545 37.0033 88.7515 37.0033C89.3417 37.0033 89.8328 36.7749 90.2271 36.3158C90.619 35.8567 90.815 35.1577 90.815 34.2187C90.815 33.3328 90.6168 32.6615 90.2226 32.207C89.8283 31.7502 89.3371 31.5217 88.7515 31.5217C88.1545 31.5217 87.661 31.7479 87.2668 32.2023C86.8749 32.6569 86.6789 33.342 86.6789 34.2578V34.2579ZM93.3992 37.8476V27.9368H94.5888V37.8476H93.3992Z" fill="#14426D"/>
</g>
<defs>
<clipPath id="clip0_1_23">
<rect width="152" height="38" fill="white"/>
</clipPath>
</defs>
</svg>
