<svg width="33" height="28" viewBox="0 0 33 28" fill="none" xmlns="http://www.w3.org/2000/svg">
<path d="M17.2278 26.8244C17.2281 26.8244 17.2311 26.8236 17.2315 26.8236V4.07997C16.8518 3.88713 12.7419 0.630986 6.72672 0.314812L5.72265 0.263V23.0131L6.63077 23.0566C13.1749 23.3669 16.4501 26.4306 17.2278 26.8244Z" fill="#7F4CBF"/>
<path d="M19.1391 3.67731V26.4323C20.5705 26.1817 22.6959 25.9077 25.2445 25.9265C29.2495 25.9562 31.7822 26.6801 32.5555 26.8041V4.07064C32.2415 4.03582 29.3871 3.20362 25.2445 3.15421C23.4372 3.1326 21.3674 3.26971 19.1391 3.67731ZM22.0004 20.067V8.94367L30.3962 14.5053L22.0004 20.067Z" fill="#7F4CBF"/>
<path d="M23.9079 12.4849V16.5258L26.9574 14.5054L23.9079 12.4849Z" fill="#7F4CBF"/>
<path d="M12.0883 26.096C10.6673 25.5345 8.80549 25.0574 6.53952 24.9502L3.81509 24.8197V3.5127C1.62186 3.83664 0.449418 4.18675 0 4.28727V27.0929L1.18478 26.7976C4.72334 25.9196 8.47103 25.6905 12.0883 26.096Z" fill="#7F4CBF"/>
</svg>
