<svg width="355" height="141" viewBox="0 0 355 141" fill="none" xmlns="http://www.w3.org/2000/svg">
<path fill-rule="evenodd" clip-rule="evenodd" d="M272.185 35.6388C288.641 40.879 300.686 48.7077 312.593 57.0261C351.637 84.3263 359.646 111.339 323.722 125.101C267.887 146.405 154.262 137.848 74.0956 103.091C56.3383 95.4043 31.9892 86.0907 16.9094 69.4655C2.8803 54.005 7.11321 41.7292 18.1655 32.4464C29.4419 22.9126 47.816 16.4719 61.9745 13.017C123.859 -2.02408 238.346 1.30624 330.649 44.111C332.552 44.9721 334.672 45.0653 335.488 44.3494C336.303 43.6335 335.578 42.3989 333.816 41.5792C238.801 -2.47955 120.747 -6.20506 57.0529 9.27266C39.4316 13.5904 15.486 22.3946 5.55829 35.8379C-1.17906 45.0401 -1.46733 56.373 10.6699 69.8475C26.6747 87.5398 52.4921 97.626 71.3399 105.793C154.1 141.681 271.593 150.647 329.166 128.617C367.829 113.841 359.46 84.8517 317.469 55.5008C304.678 46.5128 291.417 38.1012 273.556 32.4141C271.586 31.7877 269.687 32.0034 269.426 32.9276C269.023 33.8104 270.358 35.0538 272.185 35.6388Z" fill="#B3B3E8"/>
</svg>
