<svg width="21" height="19" viewBox="0 0 21 19" fill="none" xmlns="http://www.w3.org/2000/svg">
<path d="M6.10021 18.9434C9.46925 18.9434 12.2004 16.1998 12.2004 12.8154C12.2004 9.43105 9.46925 6.6875 6.10021 6.6875C2.73116 6.6875 0 9.43105 0 12.8154C0 16.1998 2.73116 18.9434 6.10021 18.9434Z" fill="#04E061"/>
<path d="M16.6822 18.1694C18.718 18.1694 20.3683 16.5116 20.3683 14.4665C20.3683 12.4215 18.718 10.7637 16.6822 10.7637C14.6464 10.7637 12.9961 12.4215 12.9961 14.4665C12.9961 16.5116 14.6464 18.1694 16.6822 18.1694Z" fill="#FF4053"/>
<path d="M7.26638 5.8885C8.52621 5.8885 9.54746 4.8626 9.54746 3.59708C9.54746 2.33157 8.52621 1.30566 7.26638 1.30566C6.00661 1.30566 4.98535 2.33157 4.98535 3.59708C4.98535 4.8626 6.00661 5.8885 7.26638 5.8885Z" fill="#965EEB"/>
<path d="M15.2507 9.96451C17.9899 9.96451 20.2104 7.73386 20.2104 4.98226C20.2104 2.23063 17.9899 0 15.2507 0C12.5115 0 10.291 2.23063 10.291 4.98226C10.291 7.73386 12.5115 9.96451 15.2507 9.96451Z" fill="#00AAFF"/>
</svg>
