<svg width="3293" height="651" viewBox="0 0 3293 651" fill="none" xmlns="http://www.w3.org/2000/svg">
<g clip-path="url(#clip0_2011_8)">
<path d="M915.424 651.111H0L376.93 0L437.897 109.243L184.225 548.147H276.246L311.505 481.231H604.647L641.116 548.147H728.443L475.774 109.243L540.001 0L915.424 651.111Z" fill="#45494E"/>
<path d="M564.172 409.188H350.969L456.548 217.522L564.172 409.188Z" fill="#45494E"/>
<path d="M1206.43 193L1330.71 459H1302.09L1260.24 371.478H1145.38L1103.71 459H1074L1199.91 193H1206.43ZM1203.17 249.419L1157.34 345.801H1248.46L1203.17 249.419ZM1356.88 218.858V193H1503.08V218.858H1443.66V459H1416.48V218.858H1356.88ZM1768.2 459H1739.22L1650.99 253.397L1561.13 459H1532.14L1648.09 193H1653.89L1768.2 459ZM1932.96 193L2057.24 459H2028.62L1986.77 371.478H1871.91L1830.24 459H1800.53L1926.44 193H1932.96ZM1929.7 249.419L1883.86 345.801H1974.99L1929.7 249.419ZM2109.49 193H2136.31V304.572H2271.82V193H2298.63V459H2271.82V330.611H2136.31V459H2109.49V193ZM2348.17 218.858V193H2494.37V218.858H2434.95V459H2407.78V218.858H2348.17ZM2753.15 459H2725.44V255.205L2549.88 459H2543.91V193H2570.54V400.411L2747.18 193H2753.15V459ZM2829.5 193H2856.68V292.818L2963.02 193H2999.07L2870.99 312.347L3009.04 459H2973.71L2856.68 334.951V459H2829.5V193ZM3168.72 193L3293 459H3264.38L3222.53 371.478H3107.67L3066 459H3036.29L3162.2 193H3168.72ZM3165.46 249.419L3119.63 345.801H3210.75L3165.46 249.419Z" fill="#45494E"/>
</g>
<defs>
<clipPath id="clip0_2011_8">
<rect width="3293" height="651" fill="white"/>
</clipPath>
</defs>
</svg>
