<svg width="22" height="22" viewBox="0 0 22 22" fill="none" xmlns="http://www.w3.org/2000/svg">
<g clip-path="url(#clip0_2016_20)">
<path fill-rule="evenodd" clip-rule="evenodd" d="M11.3142 21.2973C9.21008 21.2973 8.23219 20.9901 6.53247 19.7614C5.45734 21.1437 2.05276 22.224 1.9043 20.3757C1.9043 18.9884 1.59712 17.8159 1.24898 16.5361C0.834289 14.9592 0.363281 13.2031 0.363281 10.6587C0.363281 4.58162 5.34983 0.00976562 11.2579 0.00976562C17.1711 0.00976562 21.8044 4.80688 21.8044 10.7149C21.814 13.5085 20.7147 16.1918 18.748 18.1758C16.7813 20.1598 14.1078 21.2824 11.3142 21.2973ZM11.4013 5.26254C8.52402 5.11406 6.2816 7.10561 5.785 10.2286C5.37542 12.814 6.10241 15.9626 6.7219 16.1264C7.01883 16.1981 7.76631 15.594 8.23219 15.1281C9.00261 15.6603 9.89961 15.98 10.833 16.0548C12.2661 16.1237 13.6691 15.6276 14.7404 14.6732C15.8116 13.7187 16.4657 12.382 16.5619 10.9505C16.6179 9.51594 16.1085 8.11677 15.1434 7.05399C14.1783 5.99119 12.8345 5.34975 11.4013 5.26765V5.26254Z" fill="#42464B"/>
</g>
<defs>
<clipPath id="clip0_2016_20">
<rect width="22" height="22" fill="white"/>
</clipPath>
</defs>
</svg>
