<svg width="22" height="22" viewBox="0 0 22 22" fill="none" xmlns="http://www.w3.org/2000/svg">
<mask id="mask0_2016_38" style="mask-type:luminance" maskUnits="userSpaceOnUse" x="0" y="0" width="22" height="22">
<path d="M0.422852 0.47168H21.5767V21.6255H0.422852V0.47168Z" fill="white"/>
</mask>
<g mask="url(#mask0_2016_38)">
<path d="M17.8791 4.08152C16.9779 3.1736 15.9054 2.45371 14.7237 1.96362C13.5421 1.47354 12.2749 1.22302 10.9957 1.2266C5.6285 1.2266 1.26066 5.5936 1.26066 10.9608C1.26066 12.6751 1.70827 14.3496 2.55866 15.8278L1.17773 20.8701L6.33843 19.5145C7.75912 20.2913 9.3592 20.6991 10.9906 20.6991H10.9948C16.3569 20.6991 20.8204 16.3313 20.8204 10.965C20.8204 8.36475 19.7161 5.92191 17.8791 4.08152ZM10.9957 19.0584C9.54559 19.0599 8.12188 18.6709 6.87404 17.9322L6.58043 17.7562L3.51989 18.5592L4.33558 15.5723L4.14266 15.266C3.33198 13.9765 2.90308 12.4839 2.90558 10.9608C2.90558 6.50152 6.53558 2.87152 10.9999 2.87152C13.1618 2.87152 15.1917 3.7126 16.7173 5.24329C18.243 6.77314 19.1813 8.80306 19.1771 10.965C19.1771 15.4284 15.4549 19.0584 10.9957 19.0584ZM15.4329 13C15.1917 12.8764 13.9944 12.2892 13.771 12.2097C13.5477 12.1268 13.3852 12.087 13.2227 12.3332C13.0603 12.5786 12.5966 13.1218 12.451 13.2894C12.3106 13.451 12.1659 13.473 11.9247 13.3503C10.4956 12.6353 9.5572 12.0743 8.61458 10.4564C8.36496 10.0266 8.86504 10.0571 9.32958 9.12799C9.40827 8.96552 9.3685 8.82506 9.30758 8.70237C9.24581 8.57968 8.75927 7.38237 8.55789 6.89583C8.36073 6.42198 8.1585 6.48799 8.00958 6.47952C7.86912 6.47106 7.70666 6.47106 7.5442 6.47106C7.38258 6.47106 7.11943 6.53199 6.89604 6.77314C6.67266 7.01852 6.04566 7.6066 6.04566 8.80391C6.04566 10.0004 6.9172 11.1579 7.03566 11.3204C7.1592 11.482 8.75081 13.9375 11.1928 14.9944C12.7362 15.6611 13.3412 15.7178 14.1129 15.6036C14.5817 15.5334 15.5514 15.0164 15.7527 14.4461C15.9541 13.8766 15.9541 13.3892 15.8932 13.2885C15.8357 13.1785 15.6732 13.1176 15.4329 12.9991V13Z" fill="#42464B"/>
</g>
</svg>
