<svg width="46" height="61" viewBox="0 0 46 61" fill="none" xmlns="http://www.w3.org/2000/svg">
<path d="M2.85938 61H42.8906C44.4671 61 45.75 59.7171 45.75 58.1406V18.1094C45.75 18.077 45.7347 18.0503 45.7328 18.0198C45.729 17.9759 45.7176 17.9378 45.7081 17.8959C45.6757 17.7605 45.6204 17.6385 45.5365 17.5318C45.5232 17.5146 45.5251 17.4937 45.5117 17.4765L30.2617 0.32025C30.256 0.314531 30.2484 0.314531 30.2427 0.308812C30.1283 0.186812 29.9834 0.102938 29.8176 0.053375C29.7813 0.0419375 29.7489 0.038125 29.7108 0.0324063C29.6555 0.022875 29.6041 0 29.5469 0H2.85938C1.28291 0 0 1.28291 0 2.85938V58.1406C0 59.7171 1.28291 61 2.85938 61ZM30.5 3.45984L42.6752 17.1562H31.4531C31.0338 17.1562 30.5 16.3556 30.5 15.7266V3.45984ZM1.90625 2.85938C1.90625 2.33325 2.33516 1.90625 2.85938 1.90625H28.5938V15.7266C28.5938 17.2687 29.8423 19.0625 31.4531 19.0625H43.8438V58.1406C43.8438 58.6668 43.4148 59.0938 42.8906 59.0938H2.85938C2.32562 59.0938 1.90625 58.6744 1.90625 58.1406V2.85938Z" fill="#013159"/>
<path d="M10.4844 26.6875H35.2656C35.7917 26.6875 36.2188 26.2605 36.2188 25.7344C36.2188 25.2083 35.7917 24.7812 35.2656 24.7812H10.4844C9.95825 24.7812 9.53125 25.2083 9.53125 25.7344C9.53125 26.2605 9.95825 26.6875 10.4844 26.6875Z" fill="#013159"/>
<path d="M10.4844 34.3125H35.2656C35.7917 34.3125 36.2188 33.8855 36.2188 33.3594C36.2188 32.8333 35.7917 32.4062 35.2656 32.4062H10.4844C9.95825 32.4062 9.53125 32.8333 9.53125 33.3594C9.53125 33.8855 9.95825 34.3125 10.4844 34.3125Z" fill="#013159"/>
<path d="M10.4844 19.0625H21.9219C22.448 19.0625 22.875 18.6355 22.875 18.1094C22.875 17.5833 22.448 17.1562 21.9219 17.1562H10.4844C9.95825 17.1562 9.53125 17.5833 9.53125 18.1094C9.53125 18.6355 9.95825 19.0625 10.4844 19.0625Z" fill="#013159"/>
<path d="M10.4844 41.9375H35.2656C35.7917 41.9375 36.2188 41.5105 36.2188 40.9844C36.2188 40.4583 35.7917 40.0312 35.2656 40.0312H10.4844C9.95825 40.0312 9.53125 40.4583 9.53125 40.9844C9.53125 41.5105 9.95825 41.9375 10.4844 41.9375Z" fill="#013159"/>
<path d="M10.4844 49.5625H35.2656C35.7917 49.5625 36.2188 49.1355 36.2188 48.6094C36.2188 48.0833 35.7917 47.6562 35.2656 47.6562H10.4844C9.95825 47.6562 9.53125 48.0833 9.53125 48.6094C9.53125 49.1355 9.95825 49.5625 10.4844 49.5625Z" fill="#013159"/>
</svg>
