<svg width="61" height="61" viewBox="0 0 61 61" fill="none" xmlns="http://www.w3.org/2000/svg">
<circle cx="30.5" cy="30.4998" r="30.201" stroke="url(#paint0_linear_905_251)" stroke-width="0.598039"/>
<path d="M30.2886 39.3828C30.4053 39.4995 30.5947 39.4995 30.7114 39.3828L32.6144 37.4798C32.7312 37.363 32.7312 37.1737 32.6144 37.0569C32.4976 36.9402 32.3083 36.9402 32.1915 37.0569L30.5 38.7484L28.8085 37.0569C28.6917 36.9402 28.5024 36.9402 28.3856 37.0569C28.2688 37.1737 28.2688 37.363 28.3856 37.4798L30.2886 39.3828ZM30.201 22.1272C30.201 22.1281 30.201 22.1291 30.201 22.1301C30.201 22.1311 30.201 22.1322 30.201 22.1333C30.201 22.1344 30.201 22.1355 30.201 22.1367C30.201 22.1379 30.201 22.1391 30.201 22.1403C30.201 22.1416 30.201 22.1429 30.201 22.1442C30.201 22.1456 30.201 22.1469 30.201 22.1484C30.201 22.1498 30.201 22.1512 30.201 22.1527C30.201 22.1542 30.201 22.1558 30.201 22.1573C30.201 22.1589 30.201 22.1605 30.201 22.1622C30.201 22.1638 30.201 22.1655 30.201 22.1672C30.201 22.169 30.201 22.1707 30.201 22.1726C30.201 22.1744 30.201 22.1762 30.201 22.1781C30.201 22.18 30.201 22.1819 30.201 22.1839C30.201 22.1859 30.201 22.1879 30.201 22.1899C30.201 22.1919 30.201 22.194 30.201 22.1961C30.201 22.1983 30.201 22.2004 30.201 22.2026C30.201 22.2048 30.201 22.2071 30.201 22.2093C30.201 22.2116 30.201 22.2139 30.201 22.2163C30.201 22.2186 30.201 22.221 30.201 22.2234C30.201 22.2259 30.201 22.2283 30.201 22.2308C30.201 22.2333 30.201 22.2359 30.201 22.2385C30.201 22.2411 30.201 22.2437 30.201 22.2463C30.201 22.249 30.201 22.2517 30.201 22.2544C30.201 22.2571 30.201 22.2599 30.201 22.2627C30.201 22.2655 30.201 22.2684 30.201 22.2712C30.201 22.2741 30.201 22.277 30.201 22.28C30.201 22.283 30.201 22.286 30.201 22.289C30.201 22.292 30.201 22.2951 30.201 22.2982C30.201 22.3013 30.201 22.3044 30.201 22.3076C30.201 22.3108 30.201 22.314 30.201 22.3173C30.201 22.3205 30.201 22.3238 30.201 22.3271C30.201 22.3305 30.201 22.3338 30.201 22.3372C30.201 22.3406 30.201 22.3441 30.201 22.3475C30.201 22.351 30.201 22.3545 30.201 22.3581C30.201 22.3616 30.201 22.3652 30.201 22.3688C30.201 22.3724 30.201 22.3761 30.201 22.3798C30.201 22.3835 30.201 22.3872 30.201 22.391C30.201 22.3947 30.201 22.3985 30.201 22.4024C30.201 22.4062 30.201 22.4101 30.201 22.414C30.201 22.4179 30.201 22.4218 30.201 22.4258C30.201 22.4298 30.201 22.4338 30.201 22.4378C30.201 22.4419 30.201 22.446 30.201 22.4501C30.201 22.4542 30.201 22.4584 30.201 22.4625C30.201 22.4667 30.201 22.471 30.201 22.4752C30.201 22.4795 30.201 22.4838 30.201 22.4881C30.201 22.4924 30.201 22.4968 30.201 22.5012C30.201 22.5056 30.201 22.51 30.201 22.5145C30.201 22.519 30.201 22.5235 30.201 22.528C30.201 22.5326 30.201 22.5371 30.201 22.5418C30.201 22.5464 30.201 22.551 30.201 22.5557C30.201 22.5604 30.201 22.5651 30.201 22.5698C30.201 22.5746 30.201 22.5794 30.201 22.5842C30.201 22.589 30.201 22.5938 30.201 22.5987C30.201 22.6036 30.201 22.6085 30.201 22.6135C30.201 22.6184 30.201 22.6234 30.201 22.6284C30.201 22.6334 30.201 22.6385 30.201 22.6436C30.201 22.6487 30.201 22.6538 30.201 22.6589C30.201 22.6641 30.201 22.6693 30.201 22.6745C30.201 22.6797 30.201 22.685 30.201 22.6903C30.201 22.6956 30.201 22.7009 30.201 22.7062C30.201 22.7116 30.201 22.717 30.201 22.7224C30.201 22.7278 30.201 22.7333 30.201 22.7388C30.201 22.7442 30.201 22.7498 30.201 22.7553C30.201 22.7609 30.201 22.7665 30.201 22.7721C30.201 22.7777 30.201 22.7833 30.201 22.789C30.201 22.7947 30.201 22.8004 30.201 22.8062C30.201 22.8119 30.201 22.8177 30.201 22.8235C30.201 22.8293 30.201 22.8352 30.201 22.8411C30.201 22.8469 30.201 22.8528 30.201 22.8588C30.201 22.8647 30.201 22.8707 30.201 22.8767C30.201 22.8827 30.201 22.8888 30.201 22.8948C30.201 22.9009 30.201 22.907 30.201 22.9131C30.201 22.9193 30.201 22.9254 30.201 22.9316C30.201 22.9378 30.201 22.9441 30.201 22.9503C30.201 22.9566 30.201 22.9629 30.201 22.9692C30.201 22.9755 30.201 22.9819 30.201 22.9883C30.201 22.9946 30.201 23.0011 30.201 23.0075C30.201 23.014 30.201 23.0204 30.201 23.027C30.201 23.0335 30.201 23.04 30.201 23.0466C30.201 23.0531 30.201 23.0598 30.201 23.0664C30.201 23.073 30.201 23.0797 30.201 23.0864C30.201 23.0931 30.201 23.0998 30.201 23.1066C30.201 23.1133 30.201 23.1201 30.201 23.1269C30.201 23.1337 30.201 23.1406 30.201 23.1475C30.201 23.1544 30.201 23.1613 30.201 23.1682C30.201 23.1751 30.201 23.1821 30.201 23.1891C30.201 23.1961 30.201 23.2031 30.201 23.2102C30.201 23.2173 30.201 23.2243 30.201 23.2315C30.201 23.2386 30.201 23.2457 30.201 23.2529C30.201 23.2601 30.201 23.2673 30.201 23.2745C30.201 23.2818 30.201 23.289 30.201 23.2963C30.201 23.3036 30.201 23.311 30.201 23.3183C30.201 23.3257 30.201 23.3331 30.201 23.3405C30.201 23.3479 30.201 23.3553 30.201 23.3628C30.201 23.3703 30.201 23.3778 30.201 23.3853C30.201 23.3929 30.201 23.4004 30.201 23.408C30.201 23.4156 30.201 23.4232 30.201 23.4309C30.201 23.4385 30.201 23.4462 30.201 23.4539C30.201 23.4616 30.201 23.4693 30.201 23.4771C30.201 23.4848 30.201 23.4926 30.201 23.5004C30.201 23.5083 30.201 23.5161 30.201 23.524C30.201 23.5319 30.201 23.5398 30.201 23.5477C30.201 23.5556 30.201 23.5636 30.201 23.5716C30.201 23.5796 30.201 23.5876 30.201 23.5956C30.201 23.6037 30.201 23.6117 30.201 23.6198C30.201 23.6279 30.201 23.6361 30.201 23.6442C30.201 23.6524 30.201 23.6606 30.201 23.6688C30.201 23.677 30.201 23.6852 30.201 23.6935C30.201 23.7017 30.201 23.71 30.201 23.7183C30.201 23.7267 30.201 23.735 30.201 23.7434C30.201 23.7518 30.201 23.7602 30.201 23.7686C30.201 23.777 30.201 23.7855 30.201 23.794C30.201 23.8024 30.201 23.8109 30.201 23.8195C30.201 23.828 30.201 23.8366 30.201 23.8452C30.201 23.8538 30.201 23.8624 30.201 23.871C30.201 23.8797 30.201 23.8883 30.201 23.897C30.201 23.9057 30.201 23.9144 30.201 23.9232C30.201 23.9319 30.201 23.9407 30.201 23.9495C30.201 23.9583 30.201 23.9671 30.201 23.976C30.201 23.9848 30.201 23.9937 30.201 24.0026C30.201 24.0115 30.201 24.0205 30.201 24.0294C30.201 24.0384 30.201 24.0474 30.201 24.0564C30.201 24.0654 30.201 24.0744 30.201 24.0835C30.201 24.0925 30.201 24.1016 30.201 24.1107C30.201 24.1198 30.201 24.129 30.201 24.1381C30.201 24.1473 30.201 24.1565 30.201 24.1657C30.201 24.1749 30.201 24.1841 30.201 24.1934C30.201 24.2027 30.201 24.212 30.201 24.2213C30.201 24.2306 30.201 24.2399 30.201 24.2493C30.201 24.2586 30.201 24.268 30.201 24.2774C30.201 24.2869 30.201 24.2963 30.201 24.3058C30.201 24.3152 30.201 24.3247 30.201 24.3342C30.201 24.3437 30.201 24.3533 30.201 24.3628C30.201 24.3724 30.201 24.382 30.201 24.3916C30.201 24.4012 30.201 24.4108 30.201 24.4205C30.201 24.4301 30.201 24.4398 30.201 24.4495C30.201 24.4592 30.201 24.4689 30.201 24.4787C30.201 24.4885 30.201 24.4982 30.201 24.508C30.201 24.5178 30.201 24.5277 30.201 24.5375C30.201 24.5474 30.201 24.5572 30.201 24.5671C30.201 24.577 30.201 24.5869 30.201 24.5969C30.201 24.6068 30.201 24.6168 30.201 24.6268C30.201 24.6368 30.201 24.6468 30.201 24.6568C30.201 24.6668 30.201 24.6769 30.201 24.687C30.201 24.6971 30.201 24.7072 30.201 24.7173C30.201 24.7274 30.201 24.7376 30.201 24.7478C30.201 24.7579 30.201 24.7681 30.201 24.7783C30.201 24.7886 30.201 24.7988 30.201 24.8091C30.201 24.8193 30.201 24.8296 30.201 24.8399C30.201 24.8502 30.201 24.8606 30.201 24.8709C30.201 24.8813 30.201 24.8917 30.201 24.9021C30.201 24.9125 30.201 24.9229 30.201 24.9333C30.201 24.9438 30.201 24.9542 30.201 24.9647C30.201 24.9752 30.201 24.9857 30.201 24.9962C30.201 25.0068 30.201 25.0173 30.201 25.0279C30.201 25.0385 30.201 25.0491 30.201 25.0597C30.201 25.0703 30.201 25.0809 30.201 25.0916C30.201 25.1023 30.201 25.1129 30.201 25.1237C30.201 25.1344 30.201 25.1451 30.201 25.1558C30.201 25.1666 30.201 25.1773 30.201 25.1881C30.201 25.1989 30.201 25.2097 30.201 25.2206C30.201 25.2314 30.201 25.2422 30.201 25.2531C30.201 25.264 30.201 25.2749 30.201 25.2858C30.201 25.2967 30.201 25.3077 30.201 25.3186C30.201 25.3296 30.201 25.3405 30.201 25.3515C30.201 25.3625 30.201 25.3736 30.201 25.3846C30.201 25.3956 30.201 25.4067 30.201 25.4178C30.201 25.4288 30.201 25.4399 30.201 25.4511C30.201 25.4622 30.201 25.4733 30.201 25.4845C30.201 25.4956 30.201 25.5068 30.201 25.518C30.201 25.5292 30.201 25.5404 30.201 25.5517C30.201 25.5629 30.201 25.5742 30.201 25.5855C30.201 25.5967 30.201 25.608 30.201 25.6194C30.201 25.6307 30.201 25.642 30.201 25.6534C30.201 25.6647 30.201 25.6761 30.201 25.6875C30.201 25.6989 30.201 25.7103 30.201 25.7217C30.201 25.7332 30.201 25.7446 30.201 25.7561C30.201 25.7676 30.201 25.7791 30.201 25.7906C30.201 25.8021 30.201 25.8136 30.201 25.8252C30.201 25.8367 30.201 25.8483 30.201 25.8599C30.201 25.8715 30.201 25.8831 30.201 25.8947C30.201 25.9063 30.201 25.918 30.201 25.9296C30.201 25.9413 30.201 25.953 30.201 25.9647C30.201 25.9763 30.201 25.9881 30.201 25.9998C30.201 26.0115 30.201 26.0233 30.201 26.0351C30.201 26.0468 30.201 26.0586 30.201 26.0704C30.201 26.0822 30.201 26.0941 30.201 26.1059C30.201 26.1177 30.201 26.1296 30.201 26.1415C30.201 26.1534 30.201 26.1652 30.201 26.1772C30.201 26.1891 30.201 26.201 30.201 26.213C30.201 26.2249 30.201 26.2369 30.201 26.2489C30.201 26.2608 30.201 26.2728 30.201 26.2849C30.201 26.2969 30.201 26.3089 30.201 26.321C30.201 26.333 30.201 26.3451 30.201 26.3572C30.201 26.3693 30.201 26.3814 30.201 26.3935C30.201 26.4056 30.201 26.4177 30.201 26.4299C30.201 26.442 30.201 26.4542 30.201 26.4664C30.201 26.4786 30.201 26.4908 30.201 26.503C30.201 26.5152 30.201 26.5275 30.201 26.5397C30.201 26.552 30.201 26.5643 30.201 26.5765C30.201 26.5888 30.201 26.6011 30.201 26.6135C30.201 26.6258 30.201 26.6381 30.201 26.6505C30.201 26.6628 30.201 26.6752 30.201 26.6876C30.201 26.6999 30.201 26.7123 30.201 26.7248C30.201 26.7372 30.201 26.7496 30.201 26.7621C30.201 26.7745 30.201 26.787 30.201 26.7994C30.201 26.8119 30.201 26.8244 30.201 26.8369C30.201 26.8494 30.201 26.862 30.201 26.8745C30.201 26.887 30.201 26.8996 30.201 26.9122C30.201 26.9247 30.201 26.9373 30.201 26.9499C30.201 26.9625 30.201 26.9751 30.201 26.9878C30.201 27.0004 30.201 27.013 30.201 27.0257C30.201 27.0384 30.201 27.051 30.201 27.0637C30.201 27.0764 30.201 27.0891 30.201 27.1018C30.201 27.1146 30.201 27.1273 30.201 27.14C30.201 27.1528 30.201 27.1656 30.201 27.1783C30.201 27.1911 30.201 27.2039 30.201 27.2167C30.201 27.2295 30.201 27.2423 30.201 27.2552C30.201 27.268 30.201 27.2809 30.201 27.2937C30.201 27.3066 30.201 27.3195 30.201 27.3323C30.201 27.3452 30.201 27.3581 30.201 27.3711C30.201 27.384 30.201 27.3969 30.201 27.4099C30.201 27.4228 30.201 27.4358 30.201 27.4487C30.201 27.4617 30.201 27.4747 30.201 27.4877C30.201 27.5007 30.201 27.5137 30.201 27.5267C30.201 27.5398 30.201 27.5528 30.201 27.5659C30.201 27.5789 30.201 27.592 30.201 27.6051C30.201 27.6181 30.201 27.6312 30.201 27.6443C30.201 27.6574 30.201 27.6705 30.201 27.6837C30.201 27.6968 30.201 27.71 30.201 27.7231C30.201 27.7363 30.201 27.7494 30.201 27.7626C30.201 27.7758 30.201 27.789 30.201 27.8022C30.201 27.8154 30.201 27.8286 30.201 27.8419C30.201 27.8551 30.201 27.8683 30.201 27.8816C30.201 27.8948 30.201 27.9081 30.201 27.9214C30.201 27.9347 30.201 27.948 30.201 27.9613C30.201 27.9746 30.201 27.9879 30.201 28.0012C30.201 28.0145 30.201 28.0279 30.201 28.0412C30.201 28.0546 30.201 28.068 30.201 28.0813C30.201 28.0947 30.201 28.1081 30.201 28.1215C30.201 28.1349 30.201 28.1483 30.201 28.1617C30.201 28.1751 30.201 28.1886 30.201 28.202C30.201 28.2155 30.201 28.2289 30.201 28.2424C30.201 28.2558 30.201 28.2693 30.201 28.2828C30.201 28.2963 30.201 28.3098 30.201 28.3233C30.201 28.3368 30.201 28.3503 30.201 28.3639C30.201 28.3774 30.201 28.3909 30.201 28.4045C30.201 28.418 30.201 28.4316 30.201 28.4452C30.201 28.4588 30.201 28.4723 30.201 28.4859C30.201 28.4995 30.201 28.5131 30.201 28.5267C30.201 28.5404 30.201 28.554 30.201 28.5676C30.201 28.5813 30.201 28.5949 30.201 28.6086C30.201 28.6222 30.201 28.6359 30.201 28.6496C30.201 28.6632 30.201 28.6769 30.201 28.6906C30.201 28.7043 30.201 28.718 30.201 28.7317C30.201 28.7454 30.201 28.7592 30.201 28.7729C30.201 28.7866 30.201 28.8004 30.201 28.8141C30.201 28.8279 30.201 28.8417 30.201 28.8554C30.201 28.8692 30.201 28.883 30.201 28.8968C30.201 28.9106 30.201 28.9244 30.201 28.9382C30.201 28.952 30.201 28.9658 30.201 28.9796C30.201 28.9934 30.201 29.0073 30.201 29.0211C30.201 29.035 30.201 29.0488 30.201 29.0627C30.201 29.0766 30.201 29.0904 30.201 29.1043C30.201 29.1182 30.201 29.1321 30.201 29.146C30.201 29.1599 30.201 29.1738 30.201 29.1877C30.201 29.2016 30.201 29.2155 30.201 29.2294C30.201 29.2434 30.201 29.2573 30.201 29.2713C30.201 29.2852 30.201 29.2992 30.201 29.3131C30.201 29.3271 30.201 29.341 30.201 29.355C30.201 29.369 30.201 29.383 30.201 29.397C30.201 29.411 30.201 29.425 30.201 29.439C30.201 29.453 30.201 29.467 30.201 29.481C30.201 29.4951 30.201 29.5091 30.201 29.5231C30.201 29.5372 30.201 29.5512 30.201 29.5653C30.201 29.5793 30.201 29.5934 30.201 29.6075C30.201 29.6215 30.201 29.6356 30.201 29.6497C30.201 29.6638 30.201 29.6778 30.201 29.6919C30.201 29.706 30.201 29.7201 30.201 29.7342C30.201 29.7484 30.201 29.7625 30.201 29.7766C30.201 29.7907 30.201 29.8048 30.201 29.819C30.201 29.8331 30.201 29.8473 30.201 29.8614C30.201 29.8756 30.201 29.8897 30.201 29.9039C30.201 29.918 30.201 29.9322 30.201 29.9464C30.201 29.9606 30.201 29.9747 30.201 29.9889C30.201 30.0031 30.201 30.0173 30.201 30.0315C30.201 30.0457 30.201 30.0599 30.201 30.0741C30.201 30.0883 30.201 30.1025 30.201 30.1168C30.201 30.131 30.201 30.1452 30.201 30.1594C30.201 30.1737 30.201 30.1879 30.201 30.2022C30.201 30.2164 30.201 30.2306 30.201 30.2449C30.201 30.2592 30.201 30.2734 30.201 30.2877C30.201 30.3019 30.201 30.3162 30.201 30.3305C30.201 30.3448 30.201 30.359 30.201 30.3733C30.201 30.3876 30.201 30.4019 30.201 30.4162C30.201 30.4305 30.201 30.4448 30.201 30.4591C30.201 30.4734 30.201 30.4877 30.201 30.502C30.201 30.5163 30.201 30.5307 30.201 30.545C30.201 30.5593 30.201 30.5736 30.201 30.588C30.201 30.6023 30.201 30.6166 30.201 30.631C30.201 30.6453 30.201 30.6597 30.201 30.674C30.201 30.6884 30.201 30.7027 30.201 30.7171C30.201 30.7314 30.201 30.7458 30.201 30.7601C30.201 30.7745 30.201 30.7889 30.201 30.8033C30.201 30.8176 30.201 30.832 30.201 30.8464C30.201 30.8608 30.201 30.8751 30.201 30.8895C30.201 30.9039 30.201 30.9183 30.201 30.9327C30.201 30.9471 30.201 30.9615 30.201 30.9759C30.201 30.9903 30.201 31.0047 30.201 31.0191C30.201 31.0335 30.201 31.0479 30.201 31.0623C30.201 31.0767 30.201 31.0912 30.201 31.1056C30.201 31.12 30.201 31.1344 30.201 31.1488C30.201 31.1633 30.201 31.1777 30.201 31.1921C30.201 31.2066 30.201 31.221 30.201 31.2354C30.201 31.2499 30.201 31.2643 30.201 31.2787C30.201 31.2932 30.201 31.3076 30.201 31.3221C30.201 31.3365 30.201 31.351 30.201 31.3654C30.201 31.3799 30.201 31.3943 30.201 31.4088C30.201 31.4232 30.201 31.4377 30.201 31.4521C30.201 31.4666 30.201 31.481 30.201 31.4955C30.201 31.51 30.201 31.5244 30.201 31.5389C30.201 31.5534 30.201 31.5678 30.201 31.5823C30.201 31.5968 30.201 31.6112 30.201 31.6257C30.201 31.6402 30.201 31.6546 30.201 31.6691C30.201 31.6836 30.201 31.6981 30.201 31.7125C30.201 31.727 30.201 31.7415 30.201 31.756C30.201 31.7705 30.201 31.7849 30.201 31.7994C30.201 31.8139 30.201 31.8284 30.201 31.8429C30.201 31.8573 30.201 31.8718 30.201 31.8863C30.201 31.9008 30.201 31.9153 30.201 31.9298C30.201 31.9443 30.201 31.9587 30.201 31.9732C30.201 31.9877 30.201 32.0022 30.201 32.0167C30.201 32.0312 30.201 32.0457 30.201 32.0601C30.201 32.0746 30.201 32.0891 30.201 32.1036C30.201 32.1181 30.201 32.1326 30.201 32.1471C30.201 32.1616 30.201 32.1761 30.201 32.1905C30.201 32.205 30.201 32.2195 30.201 32.234C30.201 32.2485 30.201 32.263 30.201 32.2775C30.201 32.292 30.201 32.3064 30.201 32.3209C30.201 32.3354 30.201 32.3499 30.201 32.3644C30.201 32.3789 30.201 32.3934 30.201 32.4078C30.201 32.4223 30.201 32.4368 30.201 32.4513C30.201 32.4658 30.201 32.4803 30.201 32.4947C30.201 32.5092 30.201 32.5237 30.201 32.5382C30.201 32.5527 30.201 32.5671 30.201 32.5816C30.201 32.5961 30.201 32.6106 30.201 32.625C30.201 32.6395 30.201 32.654 30.201 32.6685C30.201 32.6829 30.201 32.6974 30.201 32.7119C30.201 32.7263 30.201 32.7408 30.201 32.7553C30.201 32.7697 30.201 32.7842 30.201 32.7987C30.201 32.8131 30.201 32.8276 30.201 32.842C30.201 32.8565 30.201 32.871 30.201 32.8854C30.201 32.8999 30.201 32.9143 30.201 32.9288C30.201 32.9432 30.201 32.9577 30.201 32.9721C30.201 32.9865 30.201 33.001 30.201 33.0154C30.201 33.0299 30.201 33.0443 30.201 33.0587C30.201 33.0732 30.201 33.0876 30.201 33.102C30.201 33.1165 30.201 33.1309 30.201 33.1453C30.201 33.1598 30.201 33.1742 30.201 33.1886C30.201 33.203 30.201 33.2174 30.201 33.2318C30.201 33.2463 30.201 33.2607 30.201 33.2751C30.201 33.2895 30.201 33.3039 30.201 33.3183C30.201 33.3327 30.201 33.3471 30.201 33.3615C30.201 33.3759 30.201 33.3903 30.201 33.4046C30.201 33.419 30.201 33.4334 30.201 33.4478C30.201 33.4622 30.201 33.4766 30.201 33.4909C30.201 33.5053 30.201 33.5197 30.201 33.534C30.201 33.5484 30.201 33.5628 30.201 33.5771C30.201 33.5915 30.201 33.6058 30.201 33.6202C30.201 33.6345 30.201 33.6489 30.201 33.6632C30.201 33.6776 30.201 33.6919 30.201 33.7062C30.201 33.7206 30.201 33.7349 30.201 33.7492C30.201 33.7635 30.201 33.7779 30.201 33.7922C30.201 33.8065 30.201 33.8208 30.201 33.8351C30.201 33.8494 30.201 33.8637 30.201 33.878C30.201 33.8923 30.201 33.9066 30.201 33.9209C30.201 33.9352 30.201 33.9494 30.201 33.9637C30.201 33.978 30.201 33.9923 30.201 34.0065C30.201 34.0208 30.201 34.0351 30.201 34.0493C30.201 34.0636 30.201 34.0778 30.201 34.0921C30.201 34.1063 30.201 34.1205 30.201 34.1348C30.201 34.149 30.201 34.1632 30.201 34.1775C30.201 34.1917 30.201 34.2059 30.201 34.2201C30.201 34.2343 30.201 34.2485 30.201 34.2627C30.201 34.2769 30.201 34.2911 30.201 34.3053C30.201 34.3195 30.201 34.3337 30.201 34.3478C30.201 34.362 30.201 34.3762 30.201 34.3903C30.201 34.4045 30.201 34.4187 30.201 34.4328C30.201 34.447 30.201 34.4611 30.201 34.4752C30.201 34.4894 30.201 34.5035 30.201 34.5176C30.201 34.5318 30.201 34.5459 30.201 34.56C30.201 34.5741 30.201 34.5882 30.201 34.6023C30.201 34.6164 30.201 34.6305 30.201 34.6446C30.201 34.6587 30.201 34.6727 30.201 34.6868C30.201 34.7009 30.201 34.7149 30.201 34.729C30.201 34.743 30.201 34.7571 30.201 34.7711C30.201 34.7852 30.201 34.7992 30.201 34.8132C30.201 34.8272 30.201 34.8413 30.201 34.8553C30.201 34.8693 30.201 34.8833 30.201 34.8973C30.201 34.9113 30.201 34.9253 30.201 34.9392C30.201 34.9532 30.201 34.9672 30.201 34.9812C30.201 34.9951 30.201 35.0091 30.201 35.023C30.201 35.037 30.201 35.0509 30.201 35.0648C30.201 35.0788 30.201 35.0927 30.201 35.1066C30.201 35.1205 30.201 35.1344 30.201 35.1483C30.201 35.1622 30.201 35.1761 30.201 35.19C30.201 35.2039 30.201 35.2177 30.201 35.2316C30.201 35.2455 30.201 35.2593 30.201 35.2732C30.201 35.287 30.201 35.3008 30.201 35.3147C30.201 35.3285 30.201 35.3423 30.201 35.3561C30.201 35.3699 30.201 35.3837 30.201 35.3975C30.201 35.4113 30.201 35.4251 30.201 35.4389C30.201 35.4527 30.201 35.4664 30.201 35.4802C30.201 35.4939 30.201 35.5077 30.201 35.5214C30.201 35.5351 30.201 35.5489 30.201 35.5626C30.201 35.5763 30.201 35.59 30.201 35.6037C30.201 35.6174 30.201 35.6311 30.201 35.6448C30.201 35.6584 30.201 35.6721 30.201 35.6858C30.201 35.6994 30.201 35.7131 30.201 35.7267C30.201 35.7404 30.201 35.754 30.201 35.7676C30.201 35.7812 30.201 35.7948 30.201 35.8084C30.201 35.822 30.201 35.8356 30.201 35.8492C30.201 35.8627 30.201 35.8763 30.201 35.8899C30.201 35.9034 30.201 35.917 30.201 35.9305C30.201 35.944 30.201 35.9576 30.201 35.9711C30.201 35.9846 30.201 35.9981 30.201 36.0116C30.201 36.0251 30.201 36.0385 30.201 36.052C30.201 36.0655 30.201 36.0789 30.201 36.0924C30.201 36.1058 30.201 36.1192 30.201 36.1327C30.201 36.1461 30.201 36.1595 30.201 36.1729C30.201 36.1863 30.201 36.1997 30.201 36.2131C30.201 36.2264 30.201 36.2398 30.201 36.2532C30.201 36.2665 30.201 36.2799 30.201 36.2932C30.201 36.3065 30.201 36.3198 30.201 36.3331C30.201 36.3464 30.201 36.3597 30.201 36.373C30.201 36.3863 30.201 36.3996 30.201 36.4128C30.201 36.4261 30.201 36.4393 30.201 36.4526C30.201 36.4658 30.201 36.479 30.201 36.4922C30.201 36.5054 30.201 36.5186 30.201 36.5318C30.201 36.545 30.201 36.5582 30.201 36.5713C30.201 36.5845 30.201 36.5976 30.201 36.6108C30.201 36.6239 30.201 36.637 30.201 36.6501C30.201 36.6632 30.201 36.6763 30.201 36.6894C30.201 36.7025 30.201 36.7156 30.201 36.7286C30.201 36.7417 30.201 36.7547 30.201 36.7677C30.201 36.7808 30.201 36.7938 30.201 36.8068C30.201 36.8198 30.201 36.8328 30.201 36.8457C30.201 36.8587 30.201 36.8717 30.201 36.8846C30.201 36.8976 30.201 36.9105 30.201 36.9234C30.201 36.9364 30.201 36.9493 30.201 36.9622C30.201 36.975 30.201 36.9879 30.201 37.0008C30.201 37.0137 30.201 37.0265 30.201 37.0393C30.201 37.0522 30.201 37.065 30.201 37.0778C30.201 37.0906 30.201 37.1034 30.201 37.1162C30.201 37.129 30.201 37.1417 30.201 37.1545C30.201 37.1672 30.201 37.18 30.201 37.1927C30.201 37.2054 30.201 37.2181 30.201 37.2308C30.201 37.2435 30.201 37.2562 30.201 37.2688C30.201 37.2815 30.201 37.2942 30.201 37.3068C30.201 37.3194 30.201 37.332 30.201 37.3446C30.201 37.3572 30.201 37.3698 30.201 37.3824C30.201 37.395 30.201 37.4075 30.201 37.4201C30.201 37.4326 30.201 37.4452 30.201 37.4577C30.201 37.4702 30.201 37.4827 30.201 37.4951C30.201 37.5076 30.201 37.5201 30.201 37.5325C30.201 37.545 30.201 37.5574 30.201 37.5698C30.201 37.5823 30.201 37.5947 30.201 37.607C30.201 37.6194 30.201 37.6318 30.201 37.6442C30.201 37.6565 30.201 37.6688 30.201 37.6812C30.201 37.6935 30.201 37.7058 30.201 37.7181C30.201 37.7304 30.201 37.7426 30.201 37.7549C30.201 37.7672 30.201 37.7794 30.201 37.7916C30.201 37.8038 30.201 37.8161 30.201 37.8282C30.201 37.8404 30.201 37.8526 30.201 37.8648C30.201 37.8769 30.201 37.8891 30.201 37.9012C30.201 37.9133 30.201 37.9254 30.201 37.9375C30.201 37.9496 30.201 37.9617 30.201 37.9737C30.201 37.9858 30.201 37.9978 30.201 38.0098C30.201 38.0219 30.201 38.0339 30.201 38.0458C30.201 38.0578 30.201 38.0698 30.201 38.0817C30.201 38.0937 30.201 38.1056 30.201 38.1175C30.201 38.1295 30.201 38.1414 30.201 38.1532C30.201 38.1651 30.201 38.177 30.201 38.1888C30.201 38.2007 30.201 38.2125 30.201 38.2243C30.201 38.2361 30.201 38.2479 30.201 38.2597C30.201 38.2715 30.201 38.2832 30.201 38.2949C30.201 38.3067 30.201 38.3184 30.201 38.3301C30.201 38.3418 30.201 38.3535 30.201 38.3651C30.201 38.3768 30.201 38.3885 30.201 38.4001C30.201 38.4117 30.201 38.4233 30.201 38.4349C30.201 38.4465 30.201 38.4581 30.201 38.4696C30.201 38.4812 30.201 38.4927 30.201 38.5042C30.201 38.5157 30.201 38.5272 30.201 38.5387C30.201 38.5502 30.201 38.5616 30.201 38.5731C30.201 38.5845 30.201 38.5959 30.201 38.6073C30.201 38.6187 30.201 38.6301 30.201 38.6415C30.201 38.6528 30.201 38.6642 30.201 38.6755C30.201 38.6868 30.201 38.6981 30.201 38.7094C30.201 38.7207 30.201 38.7319 30.201 38.7432C30.201 38.7544 30.201 38.7656 30.201 38.7768C30.201 38.788 30.201 38.7992 30.201 38.8104C30.201 38.8215 30.201 38.8327 30.201 38.8438C30.201 38.8549 30.201 38.866 30.201 38.8771C30.201 38.8882 30.201 38.8993 30.201 38.9103C30.201 38.9213 30.201 38.9324 30.201 38.9434C30.201 38.9544 30.201 38.9653 30.201 38.9763C30.201 38.9873 30.201 38.9982 30.201 39.0091C30.201 39.02 30.201 39.0309 30.201 39.0418C30.201 39.0527 30.201 39.0635 30.201 39.0744C30.201 39.0852 30.201 39.096 30.201 39.1068C30.201 39.1176 30.201 39.1284 30.201 39.1391C30.201 39.1499 30.201 39.1606 30.201 39.1713H30.799C30.799 39.1606 30.799 39.1499 30.799 39.1391C30.799 39.1284 30.799 39.1176 30.799 39.1068C30.799 39.096 30.799 39.0852 30.799 39.0744C30.799 39.0635 30.799 39.0527 30.799 39.0418C30.799 39.0309 30.799 39.02 30.799 39.0091C30.799 38.9982 30.799 38.9873 30.799 38.9763C30.799 38.9653 30.799 38.9544 30.799 38.9434C30.799 38.9324 30.799 38.9213 30.799 38.9103C30.799 38.8993 30.799 38.8882 30.799 38.8771C30.799 38.866 30.799 38.8549 30.799 38.8438C30.799 38.8327 30.799 38.8215 30.799 38.8104C30.799 38.7992 30.799 38.788 30.799 38.7768C30.799 38.7656 30.799 38.7544 30.799 38.7432C30.799 38.7319 30.799 38.7207 30.799 38.7094C30.799 38.6981 30.799 38.6868 30.799 38.6755C30.799 38.6642 30.799 38.6528 30.799 38.6415C30.799 38.6301 30.799 38.6187 30.799 38.6073C30.799 38.5959 30.799 38.5845 30.799 38.5731C30.799 38.5616 30.799 38.5502 30.799 38.5387C30.799 38.5272 30.799 38.5157 30.799 38.5042C30.799 38.4927 30.799 38.4812 30.799 38.4696C30.799 38.4581 30.799 38.4465 30.799 38.4349C30.799 38.4233 30.799 38.4117 30.799 38.4001C30.799 38.3885 30.799 38.3768 30.799 38.3651C30.799 38.3535 30.799 38.3418 30.799 38.3301C30.799 38.3184 30.799 38.3067 30.799 38.2949C30.799 38.2832 30.799 38.2715 30.799 38.2597C30.799 38.2479 30.799 38.2361 30.799 38.2243C30.799 38.2125 30.799 38.2007 30.799 38.1888C30.799 38.177 30.799 38.1651 30.799 38.1532C30.799 38.1414 30.799 38.1295 30.799 38.1175C30.799 38.1056 30.799 38.0937 30.799 38.0817C30.799 38.0698 30.799 38.0578 30.799 38.0458C30.799 38.0339 30.799 38.0219 30.799 38.0098C30.799 37.9978 30.799 37.9858 30.799 37.9737C30.799 37.9617 30.799 37.9496 30.799 37.9375C30.799 37.9254 30.799 37.9133 30.799 37.9012C30.799 37.8891 30.799 37.8769 30.799 37.8648C30.799 37.8526 30.799 37.8404 30.799 37.8282C30.799 37.8161 30.799 37.8038 30.799 37.7916C30.799 37.7794 30.799 37.7672 30.799 37.7549C30.799 37.7426 30.799 37.7304 30.799 37.7181C30.799 37.7058 30.799 37.6935 30.799 37.6812C30.799 37.6688 30.799 37.6565 30.799 37.6442C30.799 37.6318 30.799 37.6194 30.799 37.607C30.799 37.5947 30.799 37.5823 30.799 37.5698C30.799 37.5574 30.799 37.545 30.799 37.5325C30.799 37.5201 30.799 37.5076 30.799 37.4951C30.799 37.4827 30.799 37.4702 30.799 37.4577C30.799 37.4452 30.799 37.4326 30.799 37.4201C30.799 37.4075 30.799 37.395 30.799 37.3824C30.799 37.3698 30.799 37.3572 30.799 37.3446C30.799 37.332 30.799 37.3194 30.799 37.3068C30.799 37.2942 30.799 37.2815 30.799 37.2688C30.799 37.2562 30.799 37.2435 30.799 37.2308C30.799 37.2181 30.799 37.2054 30.799 37.1927C30.799 37.18 30.799 37.1672 30.799 37.1545C30.799 37.1417 30.799 37.129 30.799 37.1162C30.799 37.1034 30.799 37.0906 30.799 37.0778C30.799 37.065 30.799 37.0522 30.799 37.0393C30.799 37.0265 30.799 37.0137 30.799 37.0008C30.799 36.9879 30.799 36.975 30.799 36.9622C30.799 36.9493 30.799 36.9364 30.799 36.9234C30.799 36.9105 30.799 36.8976 30.799 36.8846C30.799 36.8717 30.799 36.8587 30.799 36.8457C30.799 36.8328 30.799 36.8198 30.799 36.8068C30.799 36.7938 30.799 36.7808 30.799 36.7677C30.799 36.7547 30.799 36.7417 30.799 36.7286C30.799 36.7156 30.799 36.7025 30.799 36.6894C30.799 36.6763 30.799 36.6632 30.799 36.6501C30.799 36.637 30.799 36.6239 30.799 36.6108C30.799 36.5976 30.799 36.5845 30.799 36.5713C30.799 36.5582 30.799 36.545 30.799 36.5318C30.799 36.5186 30.799 36.5054 30.799 36.4922C30.799 36.479 30.799 36.4658 30.799 36.4526C30.799 36.4393 30.799 36.4261 30.799 36.4128C30.799 36.3996 30.799 36.3863 30.799 36.373C30.799 36.3597 30.799 36.3464 30.799 36.3331C30.799 36.3198 30.799 36.3065 30.799 36.2932C30.799 36.2799 30.799 36.2665 30.799 36.2532C30.799 36.2398 30.799 36.2264 30.799 36.2131C30.799 36.1997 30.799 36.1863 30.799 36.1729C30.799 36.1595 30.799 36.1461 30.799 36.1327C30.799 36.1192 30.799 36.1058 30.799 36.0924C30.799 36.0789 30.799 36.0655 30.799 36.052C30.799 36.0385 30.799 36.0251 30.799 36.0116C30.799 35.9981 30.799 35.9846 30.799 35.9711C30.799 35.9576 30.799 35.944 30.799 35.9305C30.799 35.917 30.799 35.9034 30.799 35.8899C30.799 35.8763 30.799 35.8627 30.799 35.8492C30.799 35.8356 30.799 35.822 30.799 35.8084C30.799 35.7948 30.799 35.7812 30.799 35.7676C30.799 35.754 30.799 35.7404 30.799 35.7267C30.799 35.7131 30.799 35.6994 30.799 35.6858C30.799 35.6721 30.799 35.6584 30.799 35.6448C30.799 35.6311 30.799 35.6174 30.799 35.6037C30.799 35.59 30.799 35.5763 30.799 35.5626C30.799 35.5489 30.799 35.5351 30.799 35.5214C30.799 35.5077 30.799 35.4939 30.799 35.4802C30.799 35.4664 30.799 35.4527 30.799 35.4389C30.799 35.4251 30.799 35.4113 30.799 35.3975C30.799 35.3837 30.799 35.3699 30.799 35.3561C30.799 35.3423 30.799 35.3285 30.799 35.3147C30.799 35.3008 30.799 35.287 30.799 35.2732C30.799 35.2593 30.799 35.2455 30.799 35.2316C30.799 35.2177 30.799 35.2039 30.799 35.19C30.799 35.1761 30.799 35.1622 30.799 35.1483C30.799 35.1344 30.799 35.1205 30.799 35.1066C30.799 35.0927 30.799 35.0788 30.799 35.0648C30.799 35.0509 30.799 35.037 30.799 35.023C30.799 35.0091 30.799 34.9951 30.799 34.9812C30.799 34.9672 30.799 34.9532 30.799 34.9392C30.799 34.9253 30.799 34.9113 30.799 34.8973C30.799 34.8833 30.799 34.8693 30.799 34.8553C30.799 34.8413 30.799 34.8272 30.799 34.8132C30.799 34.7992 30.799 34.7852 30.799 34.7711C30.799 34.7571 30.799 34.743 30.799 34.729C30.799 34.7149 30.799 34.7009 30.799 34.6868C30.799 34.6727 30.799 34.6587 30.799 34.6446C30.799 34.6305 30.799 34.6164 30.799 34.6023C30.799 34.5882 30.799 34.5741 30.799 34.56C30.799 34.5459 30.799 34.5318 30.799 34.5176C30.799 34.5035 30.799 34.4894 30.799 34.4752C30.799 34.4611 30.799 34.447 30.799 34.4328C30.799 34.4187 30.799 34.4045 30.799 34.3903C30.799 34.3762 30.799 34.362 30.799 34.3478C30.799 34.3337 30.799 34.3195 30.799 34.3053C30.799 34.2911 30.799 34.2769 30.799 34.2627C30.799 34.2485 30.799 34.2343 30.799 34.2201C30.799 34.2059 30.799 34.1917 30.799 34.1775C30.799 34.1632 30.799 34.149 30.799 34.1348C30.799 34.1205 30.799 34.1063 30.799 34.0921C30.799 34.0778 30.799 34.0636 30.799 34.0493C30.799 34.0351 30.799 34.0208 30.799 34.0065C30.799 33.9923 30.799 33.978 30.799 33.9637C30.799 33.9494 30.799 33.9352 30.799 33.9209C30.799 33.9066 30.799 33.8923 30.799 33.878C30.799 33.8637 30.799 33.8494 30.799 33.8351C30.799 33.8208 30.799 33.8065 30.799 33.7922C30.799 33.7779 30.799 33.7635 30.799 33.7492C30.799 33.7349 30.799 33.7206 30.799 33.7062C30.799 33.6919 30.799 33.6776 30.799 33.6632C30.799 33.6489 30.799 33.6345 30.799 33.6202C30.799 33.6058 30.799 33.5915 30.799 33.5771C30.799 33.5628 30.799 33.5484 30.799 33.534C30.799 33.5197 30.799 33.5053 30.799 33.4909C30.799 33.4766 30.799 33.4622 30.799 33.4478C30.799 33.4334 30.799 33.419 30.799 33.4046C30.799 33.3903 30.799 33.3759 30.799 33.3615C30.799 33.3471 30.799 33.3327 30.799 33.3183C30.799 33.3039 30.799 33.2895 30.799 33.2751C30.799 33.2607 30.799 33.2463 30.799 33.2318C30.799 33.2174 30.799 33.203 30.799 33.1886C30.799 33.1742 30.799 33.1598 30.799 33.1453C30.799 33.1309 30.799 33.1165 30.799 33.102C30.799 33.0876 30.799 33.0732 30.799 33.0587C30.799 33.0443 30.799 33.0299 30.799 33.0154C30.799 33.001 30.799 32.9865 30.799 32.9721C30.799 32.9577 30.799 32.9432 30.799 32.9288C30.799 32.9143 30.799 32.8999 30.799 32.8854C30.799 32.871 30.799 32.8565 30.799 32.842C30.799 32.8276 30.799 32.8131 30.799 32.7987C30.799 32.7842 30.799 32.7697 30.799 32.7553C30.799 32.7408 30.799 32.7263 30.799 32.7119C30.799 32.6974 30.799 32.6829 30.799 32.6685C30.799 32.654 30.799 32.6395 30.799 32.625C30.799 32.6106 30.799 32.5961 30.799 32.5816C30.799 32.5671 30.799 32.5527 30.799 32.5382C30.799 32.5237 30.799 32.5092 30.799 32.4947C30.799 32.4803 30.799 32.4658 30.799 32.4513C30.799 32.4368 30.799 32.4223 30.799 32.4078C30.799 32.3934 30.799 32.3789 30.799 32.3644C30.799 32.3499 30.799 32.3354 30.799 32.3209C30.799 32.3064 30.799 32.292 30.799 32.2775C30.799 32.263 30.799 32.2485 30.799 32.234C30.799 32.2195 30.799 32.205 30.799 32.1905C30.799 32.1761 30.799 32.1616 30.799 32.1471C30.799 32.1326 30.799 32.1181 30.799 32.1036C30.799 32.0891 30.799 32.0746 30.799 32.0601C30.799 32.0457 30.799 32.0312 30.799 32.0167C30.799 32.0022 30.799 31.9877 30.799 31.9732C30.799 31.9587 30.799 31.9443 30.799 31.9298C30.799 31.9153 30.799 31.9008 30.799 31.8863C30.799 31.8718 30.799 31.8573 30.799 31.8429C30.799 31.8284 30.799 31.8139 30.799 31.7994C30.799 31.7849 30.799 31.7705 30.799 31.756C30.799 31.7415 30.799 31.727 30.799 31.7125C30.799 31.6981 30.799 31.6836 30.799 31.6691C30.799 31.6546 30.799 31.6402 30.799 31.6257C30.799 31.6112 30.799 31.5968 30.799 31.5823C30.799 31.5678 30.799 31.5534 30.799 31.5389C30.799 31.5244 30.799 31.51 30.799 31.4955C30.799 31.481 30.799 31.4666 30.799 31.4521C30.799 31.4377 30.799 31.4232 30.799 31.4088C30.799 31.3943 30.799 31.3799 30.799 31.3654C30.799 31.351 30.799 31.3365 30.799 31.3221C30.799 31.3076 30.799 31.2932 30.799 31.2787C30.799 31.2643 30.799 31.2499 30.799 31.2354C30.799 31.221 30.799 31.2066 30.799 31.1921C30.799 31.1777 30.799 31.1633 30.799 31.1488C30.799 31.1344 30.799 31.12 30.799 31.1056C30.799 31.0912 30.799 31.0767 30.799 31.0623C30.799 31.0479 30.799 31.0335 30.799 31.0191C30.799 31.0047 30.799 30.9903 30.799 30.9759C30.799 30.9615 30.799 30.9471 30.799 30.9327C30.799 30.9183 30.799 30.9039 30.799 30.8895C30.799 30.8751 30.799 30.8608 30.799 30.8464C30.799 30.832 30.799 30.8176 30.799 30.8033C30.799 30.7889 30.799 30.7745 30.799 30.7601C30.799 30.7458 30.799 30.7314 30.799 30.7171C30.799 30.7027 30.799 30.6884 30.799 30.674C30.799 30.6597 30.799 30.6453 30.799 30.631C30.799 30.6166 30.799 30.6023 30.799 30.588C30.799 30.5736 30.799 30.5593 30.799 30.545C30.799 30.5307 30.799 30.5163 30.799 30.502C30.799 30.4877 30.799 30.4734 30.799 30.4591C30.799 30.4448 30.799 30.4305 30.799 30.4162C30.799 30.4019 30.799 30.3876 30.799 30.3733C30.799 30.359 30.799 30.3448 30.799 30.3305C30.799 30.3162 30.799 30.3019 30.799 30.2877C30.799 30.2734 30.799 30.2592 30.799 30.2449C30.799 30.2306 30.799 30.2164 30.799 30.2022C30.799 30.1879 30.799 30.1737 30.799 30.1594C30.799 30.1452 30.799 30.131 30.799 30.1168C30.799 30.1025 30.799 30.0883 30.799 30.0741C30.799 30.0599 30.799 30.0457 30.799 30.0315C30.799 30.0173 30.799 30.0031 30.799 29.9889C30.799 29.9747 30.799 29.9606 30.799 29.9464C30.799 29.9322 30.799 29.918 30.799 29.9039C30.799 29.8897 30.799 29.8756 30.799 29.8614C30.799 29.8473 30.799 29.8331 30.799 29.819C30.799 29.8048 30.799 29.7907 30.799 29.7766C30.799 29.7625 30.799 29.7484 30.799 29.7342C30.799 29.7201 30.799 29.706 30.799 29.6919C30.799 29.6778 30.799 29.6638 30.799 29.6497C30.799 29.6356 30.799 29.6215 30.799 29.6075C30.799 29.5934 30.799 29.5793 30.799 29.5653C30.799 29.5512 30.799 29.5372 30.799 29.5231C30.799 29.5091 30.799 29.4951 30.799 29.481C30.799 29.467 30.799 29.453 30.799 29.439C30.799 29.425 30.799 29.411 30.799 29.397C30.799 29.383 30.799 29.369 30.799 29.355C30.799 29.341 30.799 29.3271 30.799 29.3131C30.799 29.2992 30.799 29.2852 30.799 29.2713C30.799 29.2573 30.799 29.2434 30.799 29.2294C30.799 29.2155 30.799 29.2016 30.799 29.1877C30.799 29.1738 30.799 29.1599 30.799 29.146C30.799 29.1321 30.799 29.1182 30.799 29.1043C30.799 29.0904 30.799 29.0766 30.799 29.0627C30.799 29.0488 30.799 29.035 30.799 29.0211C30.799 29.0073 30.799 28.9934 30.799 28.9796C30.799 28.9658 30.799 28.952 30.799 28.9382C30.799 28.9244 30.799 28.9106 30.799 28.8968C30.799 28.883 30.799 28.8692 30.799 28.8554C30.799 28.8417 30.799 28.8279 30.799 28.8141C30.799 28.8004 30.799 28.7866 30.799 28.7729C30.799 28.7592 30.799 28.7454 30.799 28.7317C30.799 28.718 30.799 28.7043 30.799 28.6906C30.799 28.6769 30.799 28.6632 30.799 28.6496C30.799 28.6359 30.799 28.6222 30.799 28.6086C30.799 28.5949 30.799 28.5813 30.799 28.5676C30.799 28.554 30.799 28.5404 30.799 28.5267C30.799 28.5131 30.799 28.4995 30.799 28.4859C30.799 28.4723 30.799 28.4588 30.799 28.4452C30.799 28.4316 30.799 28.418 30.799 28.4045C30.799 28.3909 30.799 28.3774 30.799 28.3639C30.799 28.3503 30.799 28.3368 30.799 28.3233C30.799 28.3098 30.799 28.2963 30.799 28.2828C30.799 28.2693 30.799 28.2558 30.799 28.2424C30.799 28.2289 30.799 28.2155 30.799 28.202C30.799 28.1886 30.799 28.1751 30.799 28.1617C30.799 28.1483 30.799 28.1349 30.799 28.1215C30.799 28.1081 30.799 28.0947 30.799 28.0813C30.799 28.068 30.799 28.0546 30.799 28.0412C30.799 28.0279 30.799 28.0145 30.799 28.0012C30.799 27.9879 30.799 27.9746 30.799 27.9613C30.799 27.948 30.799 27.9347 30.799 27.9214C30.799 27.9081 30.799 27.8948 30.799 27.8816C30.799 27.8683 30.799 27.8551 30.799 27.8419C30.799 27.8286 30.799 27.8154 30.799 27.8022C30.799 27.789 30.799 27.7758 30.799 27.7626C30.799 27.7494 30.799 27.7363 30.799 27.7231C30.799 27.71 30.799 27.6968 30.799 27.6837C30.799 27.6705 30.799 27.6574 30.799 27.6443C30.799 27.6312 30.799 27.6181 30.799 27.6051C30.799 27.592 30.799 27.5789 30.799 27.5659C30.799 27.5528 30.799 27.5398 30.799 27.5267C30.799 27.5137 30.799 27.5007 30.799 27.4877C30.799 27.4747 30.799 27.4617 30.799 27.4487C30.799 27.4358 30.799 27.4228 30.799 27.4099C30.799 27.3969 30.799 27.384 30.799 27.3711C30.799 27.3581 30.799 27.3452 30.799 27.3323C30.799 27.3195 30.799 27.3066 30.799 27.2937C30.799 27.2809 30.799 27.268 30.799 27.2552C30.799 27.2423 30.799 27.2295 30.799 27.2167C30.799 27.2039 30.799 27.1911 30.799 27.1783C30.799 27.1656 30.799 27.1528 30.799 27.14C30.799 27.1273 30.799 27.1146 30.799 27.1018C30.799 27.0891 30.799 27.0764 30.799 27.0637C30.799 27.051 30.799 27.0384 30.799 27.0257C30.799 27.013 30.799 27.0004 30.799 26.9878C30.799 26.9751 30.799 26.9625 30.799 26.9499C30.799 26.9373 30.799 26.9247 30.799 26.9122C30.799 26.8996 30.799 26.887 30.799 26.8745C30.799 26.862 30.799 26.8494 30.799 26.8369C30.799 26.8244 30.799 26.8119 30.799 26.7994C30.799 26.787 30.799 26.7745 30.799 26.7621C30.799 26.7496 30.799 26.7372 30.799 26.7248C30.799 26.7123 30.799 26.6999 30.799 26.6876C30.799 26.6752 30.799 26.6628 30.799 26.6505C30.799 26.6381 30.799 26.6258 30.799 26.6135C30.799 26.6011 30.799 26.5888 30.799 26.5765C30.799 26.5643 30.799 26.552 30.799 26.5397C30.799 26.5275 30.799 26.5152 30.799 26.503C30.799 26.4908 30.799 26.4786 30.799 26.4664C30.799 26.4542 30.799 26.442 30.799 26.4299C30.799 26.4177 30.799 26.4056 30.799 26.3935C30.799 26.3814 30.799 26.3693 30.799 26.3572C30.799 26.3451 30.799 26.333 30.799 26.321C30.799 26.3089 30.799 26.2969 30.799 26.2849C30.799 26.2728 30.799 26.2608 30.799 26.2489C30.799 26.2369 30.799 26.2249 30.799 26.213C30.799 26.201 30.799 26.1891 30.799 26.1772C30.799 26.1652 30.799 26.1534 30.799 26.1415C30.799 26.1296 30.799 26.1177 30.799 26.1059C30.799 26.0941 30.799 26.0822 30.799 26.0704C30.799 26.0586 30.799 26.0468 30.799 26.0351C30.799 26.0233 30.799 26.0115 30.799 25.9998C30.799 25.9881 30.799 25.9763 30.799 25.9647C30.799 25.953 30.799 25.9413 30.799 25.9296C30.799 25.918 30.799 25.9063 30.799 25.8947C30.799 25.8831 30.799 25.8715 30.799 25.8599C30.799 25.8483 30.799 25.8367 30.799 25.8252C30.799 25.8136 30.799 25.8021 30.799 25.7906C30.799 25.7791 30.799 25.7676 30.799 25.7561C30.799 25.7446 30.799 25.7332 30.799 25.7217C30.799 25.7103 30.799 25.6989 30.799 25.6875C30.799 25.6761 30.799 25.6647 30.799 25.6534C30.799 25.642 30.799 25.6307 30.799 25.6194C30.799 25.608 30.799 25.5967 30.799 25.5855C30.799 25.5742 30.799 25.5629 30.799 25.5517C30.799 25.5404 30.799 25.5292 30.799 25.518C30.799 25.5068 30.799 25.4956 30.799 25.4845C30.799 25.4733 30.799 25.4622 30.799 25.4511C30.799 25.4399 30.799 25.4288 30.799 25.4178C30.799 25.4067 30.799 25.3956 30.799 25.3846C30.799 25.3736 30.799 25.3625 30.799 25.3515C30.799 25.3405 30.799 25.3296 30.799 25.3186C30.799 25.3077 30.799 25.2967 30.799 25.2858C30.799 25.2749 30.799 25.264 30.799 25.2531C30.799 25.2422 30.799 25.2314 30.799 25.2206C30.799 25.2097 30.799 25.1989 30.799 25.1881C30.799 25.1773 30.799 25.1666 30.799 25.1558C30.799 25.1451 30.799 25.1344 30.799 25.1237C30.799 25.1129 30.799 25.1023 30.799 25.0916C30.799 25.0809 30.799 25.0703 30.799 25.0597C30.799 25.0491 30.799 25.0385 30.799 25.0279C30.799 25.0173 30.799 25.0068 30.799 24.9962C30.799 24.9857 30.799 24.9752 30.799 24.9647C30.799 24.9542 30.799 24.9438 30.799 24.9333C30.799 24.9229 30.799 24.9125 30.799 24.9021C30.799 24.8917 30.799 24.8813 30.799 24.8709C30.799 24.8606 30.799 24.8502 30.799 24.8399C30.799 24.8296 30.799 24.8193 30.799 24.8091C30.799 24.7988 30.799 24.7886 30.799 24.7783C30.799 24.7681 30.799 24.7579 30.799 24.7478C30.799 24.7376 30.799 24.7274 30.799 24.7173C30.799 24.7072 30.799 24.6971 30.799 24.687C30.799 24.6769 30.799 24.6668 30.799 24.6568C30.799 24.6468 30.799 24.6368 30.799 24.6268C30.799 24.6168 30.799 24.6068 30.799 24.5969C30.799 24.5869 30.799 24.577 30.799 24.5671C30.799 24.5572 30.799 24.5474 30.799 24.5375C30.799 24.5277 30.799 24.5178 30.799 24.508C30.799 24.4982 30.799 24.4885 30.799 24.4787C30.799 24.4689 30.799 24.4592 30.799 24.4495C30.799 24.4398 30.799 24.4301 30.799 24.4205C30.799 24.4108 30.799 24.4012 30.799 24.3916C30.799 24.382 30.799 24.3724 30.799 24.3628C30.799 24.3533 30.799 24.3437 30.799 24.3342C30.799 24.3247 30.799 24.3152 30.799 24.3058C30.799 24.2963 30.799 24.2869 30.799 24.2774C30.799 24.268 30.799 24.2586 30.799 24.2493C30.799 24.2399 30.799 24.2306 30.799 24.2213C30.799 24.212 30.799 24.2027 30.799 24.1934C30.799 24.1841 30.799 24.1749 30.799 24.1657C30.799 24.1565 30.799 24.1473 30.799 24.1381C30.799 24.129 30.799 24.1198 30.799 24.1107C30.799 24.1016 30.799 24.0925 30.799 24.0835C30.799 24.0744 30.799 24.0654 30.799 24.0564C30.799 24.0474 30.799 24.0384 30.799 24.0294C30.799 24.0205 30.799 24.0115 30.799 24.0026C30.799 23.9937 30.799 23.9848 30.799 23.976C30.799 23.9671 30.799 23.9583 30.799 23.9495C30.799 23.9407 30.799 23.9319 30.799 23.9232C30.799 23.9144 30.799 23.9057 30.799 23.897C30.799 23.8883 30.799 23.8797 30.799 23.871C30.799 23.8624 30.799 23.8538 30.799 23.8452C30.799 23.8366 30.799 23.828 30.799 23.8195C30.799 23.8109 30.799 23.8024 30.799 23.794C30.799 23.7855 30.799 23.777 30.799 23.7686C30.799 23.7602 30.799 23.7518 30.799 23.7434C30.799 23.735 30.799 23.7267 30.799 23.7183C30.799 23.71 30.799 23.7017 30.799 23.6935C30.799 23.6852 30.799 23.677 30.799 23.6688C30.799 23.6606 30.799 23.6524 30.799 23.6442C30.799 23.6361 30.799 23.6279 30.799 23.6198C30.799 23.6117 30.799 23.6037 30.799 23.5956C30.799 23.5876 30.799 23.5796 30.799 23.5716C30.799 23.5636 30.799 23.5556 30.799 23.5477C30.799 23.5398 30.799 23.5319 30.799 23.524C30.799 23.5161 30.799 23.5083 30.799 23.5004C30.799 23.4926 30.799 23.4848 30.799 23.4771C30.799 23.4693 30.799 23.4616 30.799 23.4539C30.799 23.4462 30.799 23.4385 30.799 23.4309C30.799 23.4232 30.799 23.4156 30.799 23.408C30.799 23.4004 30.799 23.3929 30.799 23.3853C30.799 23.3778 30.799 23.3703 30.799 23.3628C30.799 23.3553 30.799 23.3479 30.799 23.3405C30.799 23.3331 30.799 23.3257 30.799 23.3183C30.799 23.311 30.799 23.3036 30.799 23.2963C30.799 23.289 30.799 23.2818 30.799 23.2745C30.799 23.2673 30.799 23.2601 30.799 23.2529C30.799 23.2457 30.799 23.2386 30.799 23.2315C30.799 23.2243 30.799 23.2173 30.799 23.2102C30.799 23.2031 30.799 23.1961 30.799 23.1891C30.799 23.1821 30.799 23.1751 30.799 23.1682C30.799 23.1613 30.799 23.1544 30.799 23.1475C30.799 23.1406 30.799 23.1337 30.799 23.1269C30.799 23.1201 30.799 23.1133 30.799 23.1066C30.799 23.0998 30.799 23.0931 30.799 23.0864C30.799 23.0797 30.799 23.073 30.799 23.0664C30.799 23.0598 30.799 23.0531 30.799 23.0466C30.799 23.04 30.799 23.0335 30.799 23.027C30.799 23.0204 30.799 23.014 30.799 23.0075C30.799 23.0011 30.799 22.9946 30.799 22.9883C30.799 22.9819 30.799 22.9755 30.799 22.9692C30.799 22.9629 30.799 22.9566 30.799 22.9503C30.799 22.9441 30.799 22.9378 30.799 22.9316C30.799 22.9254 30.799 22.9193 30.799 22.9131C30.799 22.907 30.799 22.9009 30.799 22.8948C30.799 22.8888 30.799 22.8827 30.799 22.8767C30.799 22.8707 30.799 22.8647 30.799 22.8588C30.799 22.8528 30.799 22.8469 30.799 22.8411C30.799 22.8352 30.799 22.8293 30.799 22.8235C30.799 22.8177 30.799 22.8119 30.799 22.8062C30.799 22.8004 30.799 22.7947 30.799 22.789C30.799 22.7833 30.799 22.7777 30.799 22.7721C30.799 22.7665 30.799 22.7609 30.799 22.7553C30.799 22.7498 30.799 22.7442 30.799 22.7388C30.799 22.7333 30.799 22.7278 30.799 22.7224C30.799 22.717 30.799 22.7116 30.799 22.7062C30.799 22.7009 30.799 22.6956 30.799 22.6903C30.799 22.685 30.799 22.6797 30.799 22.6745C30.799 22.6693 30.799 22.6641 30.799 22.6589C30.799 22.6538 30.799 22.6487 30.799 22.6436C30.799 22.6385 30.799 22.6334 30.799 22.6284C30.799 22.6234 30.799 22.6184 30.799 22.6135C30.799 22.6085 30.799 22.6036 30.799 22.5987C30.799 22.5938 30.799 22.589 30.799 22.5842C30.799 22.5794 30.799 22.5746 30.799 22.5698C30.799 22.5651 30.799 22.5604 30.799 22.5557C30.799 22.551 30.799 22.5464 30.799 22.5418C30.799 22.5371 30.799 22.5326 30.799 22.528C30.799 22.5235 30.799 22.519 30.799 22.5145C30.799 22.51 30.799 22.5056 30.799 22.5012C30.799 22.4968 30.799 22.4924 30.799 22.4881C30.799 22.4838 30.799 22.4795 30.799 22.4752C30.799 22.471 30.799 22.4667 30.799 22.4625C30.799 22.4584 30.799 22.4542 30.799 22.4501C30.799 22.446 30.799 22.4419 30.799 22.4378C30.799 22.4338 30.799 22.4298 30.799 22.4258C30.799 22.4218 30.799 22.4179 30.799 22.414C30.799 22.4101 30.799 22.4062 30.799 22.4024C30.799 22.3985 30.799 22.3947 30.799 22.391C30.799 22.3872 30.799 22.3835 30.799 22.3798C30.799 22.3761 30.799 22.3724 30.799 22.3688C30.799 22.3652 30.799 22.3616 30.799 22.3581C30.799 22.3545 30.799 22.351 30.799 22.3475C30.799 22.3441 30.799 22.3406 30.799 22.3372C30.799 22.3338 30.799 22.3305 30.799 22.3271C30.799 22.3238 30.799 22.3205 30.799 22.3173C30.799 22.314 30.799 22.3108 30.799 22.3076C30.799 22.3044 30.799 22.3013 30.799 22.2982C30.799 22.2951 30.799 22.292 30.799 22.289C30.799 22.286 30.799 22.283 30.799 22.28C30.799 22.277 30.799 22.2741 30.799 22.2712C30.799 22.2684 30.799 22.2655 30.799 22.2627C30.799 22.2599 30.799 22.2571 30.799 22.2544C30.799 22.2517 30.799 22.249 30.799 22.2463C30.799 22.2437 30.799 22.2411 30.799 22.2385C30.799 22.2359 30.799 22.2333 30.799 22.2308C30.799 22.2283 30.799 22.2259 30.799 22.2234C30.799 22.221 30.799 22.2186 30.799 22.2163C30.799 22.2139 30.799 22.2116 30.799 22.2093C30.799 22.2071 30.799 22.2048 30.799 22.2026C30.799 22.2004 30.799 22.1983 30.799 22.1961C30.799 22.194 30.799 22.1919 30.799 22.1899C30.799 22.1879 30.799 22.1859 30.799 22.1839C30.799 22.1819 30.799 22.18 30.799 22.1781C30.799 22.1762 30.799 22.1744 30.799 22.1726C30.799 22.1707 30.799 22.169 30.799 22.1672C30.799 22.1655 30.799 22.1638 30.799 22.1622C30.799 22.1605 30.799 22.1589 30.799 22.1573C30.799 22.1558 30.799 22.1542 30.799 22.1527C30.799 22.1512 30.799 22.1498 30.799 22.1484C30.799 22.1469 30.799 22.1456 30.799 22.1442C30.799 22.1429 30.799 22.1416 30.799 22.1403C30.799 22.1391 30.799 22.1379 30.799 22.1367C30.799 22.1355 30.799 22.1344 30.799 22.1333C30.799 22.1322 30.799 22.1311 30.799 22.1301C30.799 22.1291 30.799 22.1281 30.799 22.1272H30.201Z" fill="url(#paint1_linear_905_251)"/>
<defs>
<linearGradient id="paint0_linear_905_251" x1="20.8516" y1="65.8769" x2="60.2712" y2="2.25799" gradientUnits="userSpaceOnUse">
<stop offset="0.31" stop-color="#FF824C"/>
<stop offset="0.86" stop-color="#FF295E"/>
</linearGradient>
<linearGradient id="paint1_linear_905_251" x1="30.8418" y1="40.534" x2="33.1505" y2="40.3154" gradientUnits="userSpaceOnUse">
<stop offset="0.31" stop-color="#FF824C"/>
<stop offset="0.86" stop-color="#FF295E"/>
</linearGradient>
</defs>
</svg>
