<svg width="178" height="52" viewBox="0 0 178 52" fill="none" xmlns="http://www.w3.org/2000/svg">
<g clip-path="url(#clip0_905_111)">
<path d="M1.1373 44.9831C0.314546 43.2696 -0.0731317 41.3786 0.00878782 39.4784C0.0907074 37.5782 0.639682 35.7278 1.60682 34.092C6.73847 25.0743 11.9364 16.0733 17.1233 7.09991C17.3663 6.67868 17.6038 6.2519 17.8579 5.83621C18.737 4.32476 19.9427 3.03031 21.3861 2.0481C22.8296 1.0659 24.4742 0.420932 26.1989 0.160665C28.4214 -0.208503 30.7028 0.0645084 32.7764 0.947807C34.8501 1.83111 36.6304 3.28822 37.9095 5.14894C38.2243 5.59789 38.4895 6.07454 38.7601 6.54566C44.0188 15.6761 49.2793 24.812 54.5417 33.9535C55.5002 35.6033 56.0523 37.4589 56.152 39.3659C56.2516 41.2729 55.896 43.1763 55.1147 44.9176C54.3335 46.659 53.1491 48.1879 51.6601 49.3774C50.1712 50.5668 48.4207 51.3823 46.5543 51.7561C44.8624 52.1139 43.1127 52.0922 41.4301 51.6927C39.7476 51.2931 38.1738 50.5256 36.8213 49.4448C36.7174 49.3694 36.6195 49.286 36.5285 49.1954C35.706 48.3849 34.7767 47.6911 33.7666 47.1336L34.1753 47.1946C34.5763 47.2555 34.9841 47.2555 35.3851 47.1946C36.2369 47.0283 37.0034 46.567 37.5506 45.8913C38.0979 45.2155 38.3911 44.3683 38.379 43.4977C38.379 35.8601 38.379 28.2262 38.379 20.596C38.3772 20.0142 38.2372 19.4412 37.9705 18.9246C37.7038 18.4079 37.3182 17.9626 36.8456 17.6255C36.373 17.2884 35.827 17.0693 35.2531 16.9864C34.6792 16.9034 34.0938 16.959 33.5456 17.1485C33.1346 17.3039 32.7404 17.5007 32.3691 17.736L18.8964 25.5787C17.0551 26.6613 15.1918 27.7366 13.3063 28.8045C12.817 29.0693 12.3806 29.4225 12.0193 29.8464C11.422 30.5985 11.145 31.5568 11.2484 32.5129C11.3519 33.4689 11.8274 34.3452 12.5716 34.9511C12.7926 35.1229 13.0301 35.267 13.2566 35.4333C13.7054 35.7434 14.0786 36.1512 14.3483 36.6263C14.618 37.1013 14.7773 37.6314 14.8143 38.1769C14.8704 38.9928 14.6631 39.8051 14.2233 40.4936C13.3836 41.9347 12.5495 43.3795 11.721 44.8279C11.2147 45.6995 10.5031 46.4331 9.64854 46.9646C8.794 47.4961 7.82259 47.8092 6.81943 47.8765C5.81627 47.9438 4.81198 47.7632 3.89454 47.3506C2.9771 46.9379 2.17451 46.3058 1.55711 45.5096C1.4853 45.421 1.31406 45.1494 1.2312 45.1327L1.1373 44.9831Z" fill="url(#paint0_linear_905_111)"/>
<path d="M0.894531 44.3897C1.08034 44.7793 1.30227 45.1504 1.55739 45.4983C2.17449 46.2968 2.97763 46.931 3.89623 47.3452C4.81483 47.7593 5.82076 47.9407 6.82559 47.8733C7.83042 47.806 8.80338 47.4921 9.65895 46.959C10.5145 46.426 11.2265 45.6903 11.7323 44.8165C12.5609 43.3644 13.395 41.9196 14.2346 40.4823C14.6745 39.7937 14.8817 38.9814 14.8256 38.1655C14.7858 37.621 14.624 37.0925 14.3524 36.6194C14.0808 36.1463 13.7063 35.7408 13.2569 35.433C13.0304 35.2668 12.7929 35.1226 12.5719 34.9508C11.8277 34.3449 11.3521 33.4686 11.2487 32.5126C11.1452 31.5565 11.4223 30.5982 12.0195 29.8462C12.3824 29.4282 12.8186 29.0807 13.3066 28.8208C15.1736 27.7529 17.037 26.6777 18.8967 25.595L32.3693 17.7357C32.7363 17.4934 33.1268 17.2891 33.5349 17.1261C34.0831 16.9365 34.6684 16.8809 35.2424 16.9639C35.8163 17.0469 36.3622 17.266 36.8348 17.6031C37.3074 17.9402 37.693 18.3855 37.9597 18.9021C38.2264 19.4187 38.3665 19.9917 38.3682 20.5735C38.3682 28.2037 38.3682 35.8376 38.3682 43.4752C38.382 44.3509 38.0868 45.2033 37.535 45.8818C36.9831 46.5603 36.21 47.0212 35.3522 47.1832C34.9513 47.2441 34.5434 47.2441 34.1425 47.1832L33.7558 47.1111C31.6603 45.9965 29.2825 45.5301 26.9229 45.7708C24.5633 46.0115 22.3277 46.9485 20.4986 48.4635C20.0954 48.7905 19.7363 49.173 19.322 49.4889C17.8773 50.5941 16.2021 51.3571 14.422 51.7209C12.6418 52.0846 10.8026 52.0397 9.04219 51.5895C8.67761 51.5452 3.80559 50.1817 1.43587 45.6202C1.23182 45.2209 1.05107 44.8101 0.894531 44.3897Z" fill="url(#paint1_linear_905_111)"/>
<path d="M104.87 47.2556V46.3854C105.331 46.733 105.89 46.9268 106.467 46.9397C107.118 46.9397 107.571 46.6958 107.571 46.33C107.571 45.4432 104.992 45.7093 104.992 44.113C104.992 43.2262 105.782 42.6775 106.781 42.6775C107.266 42.6768 107.743 42.7928 108.173 43.0156V43.8359C107.763 43.5916 107.297 43.4562 106.82 43.4424C106.268 43.4424 105.798 43.653 105.798 44.0465C105.798 44.9444 108.422 44.6395 108.422 46.2635C108.422 47.1614 107.621 47.7046 106.505 47.7046C105.929 47.7124 105.362 47.5568 104.87 47.2556Z" fill="#2C008C"/>
<path d="M113.05 47.6936C112.144 47.6936 111.581 47.1393 111.581 46.0308V43.5533H110.935V42.7718H111.581V41.3252H112.47V42.7718H113.73V43.5533H112.459V46.0862C112.446 46.1927 112.457 46.3008 112.492 46.4024C112.526 46.504 112.583 46.5965 112.657 46.6732C112.732 46.7499 112.823 46.8086 112.924 46.8452C113.024 46.8817 113.132 46.8951 113.238 46.8844C113.413 46.8826 113.585 46.8468 113.746 46.779V47.5439C113.529 47.6476 113.291 47.6989 113.05 47.6936Z" fill="#2C008C"/>
<path d="M117.061 47.1614C116.706 46.7082 116.529 46.1403 116.564 45.5652V42.7939H117.464V45.5153C117.434 45.9159 117.559 46.3126 117.812 46.6238C117.918 46.7249 118.043 46.8039 118.179 46.8562C118.316 46.9085 118.462 46.9331 118.608 46.9286C119.436 46.9286 119.928 46.2524 119.928 45.1495V42.7717H120.834V47.5771H119.95V46.6404C119.825 46.9589 119.605 47.2309 119.32 47.4194C119.036 47.6079 118.7 47.7036 118.359 47.6935C118.117 47.7021 117.877 47.6591 117.653 47.5674C117.429 47.4757 117.227 47.3373 117.061 47.1614Z" fill="#2C008C"/>
<path d="M123.789 45.1714C123.765 44.5433 123.986 43.9307 124.406 43.4646C124.826 42.9985 125.412 42.7159 126.037 42.6772C126.354 42.6872 126.665 42.7698 126.945 42.9187C127.226 43.0676 127.469 43.2789 127.655 43.5363V40.5544H128.55V47.5768H127.711V46.7842C127.525 47.0497 127.282 47.2694 127 47.4269C126.718 47.5844 126.404 47.6754 126.081 47.6932C125.766 47.679 125.456 47.6024 125.17 47.4679C124.883 47.3334 124.627 47.1436 124.414 46.9094C124.201 46.6751 124.036 46.4011 123.929 46.1028C123.821 45.8046 123.774 45.4881 123.789 45.1714ZM126.197 46.884C126.616 46.8361 127.003 46.635 127.284 46.3192C127.565 46.0033 127.721 45.5947 127.721 45.1714C127.721 44.748 127.565 44.3394 127.284 44.0236C127.003 43.7077 126.616 43.5067 126.197 43.4587C125.785 43.5164 125.408 43.7216 125.135 44.0363C124.862 44.3511 124.712 44.7542 124.712 45.1714C124.712 45.5886 124.862 45.9917 125.135 46.3064C125.408 46.6212 125.785 46.8263 126.197 46.884Z" fill="#2C008C"/>
<path d="M131.782 41.0144H132.771V41.8957H131.782V41.0144ZM131.826 42.7936H132.727V47.5989H131.826V42.7936Z" fill="#2C008C"/>
<path d="M135.677 45.1715C135.692 44.691 135.848 44.2256 136.125 43.8337C136.403 43.4417 136.789 43.1406 137.237 42.968C137.684 42.7953 138.172 42.7588 138.639 42.8631C139.107 42.9673 139.534 43.2077 139.866 43.554C140.199 43.9004 140.422 44.3374 140.508 44.8104C140.594 45.2834 140.539 45.7713 140.35 46.2131C140.161 46.6549 139.846 47.031 139.445 47.2943C139.044 47.5576 138.575 47.6964 138.096 47.6934C137.443 47.6774 136.823 47.4036 136.37 46.9314C135.917 46.4593 135.668 45.8269 135.677 45.1715ZM138.096 46.8731C138.511 46.8254 138.894 46.6262 139.172 46.3134C139.45 46.0007 139.604 45.5962 139.604 45.1771C139.604 44.758 139.45 44.3535 139.172 44.0407C138.894 43.728 138.511 43.5288 138.096 43.4811C137.671 43.5156 137.275 43.7092 136.986 44.0234C136.697 44.3377 136.537 44.7496 136.537 45.1771C136.537 45.6046 136.697 46.0165 136.986 46.3307C137.275 46.645 137.671 46.8386 138.096 46.8731Z" fill="#2C008C"/>
<path d="M80.4221 30.8218C79.8994 31.5634 79.2063 32.1677 78.4015 32.5835C77.5967 32.9993 76.7039 33.2144 75.7986 33.2106C73.1859 33.2106 71.6558 31.6199 71.6558 29.0981C71.6558 26.1606 73.8984 24.5976 77.732 24.5976H80.1348V24.4368C80.1348 23.0069 79.0301 22.2198 76.7819 22.2198C75.3439 22.2202 73.9316 22.6026 72.6887 23.3283V19.9529C74.2051 19.0991 75.9217 18.6685 77.6602 18.7059C82.383 18.7059 84.2888 21.5436 84.2888 25.3569V32.8892H80.4221V30.8218ZM77.3343 30.0015C78.8091 30.0015 80.2619 29.1258 80.2619 27.8566V26.9808H77.5442C76.1687 26.9808 75.4064 27.4852 75.4064 28.5161C75.4064 29.547 76.0362 30.0015 77.3343 30.0015Z" fill="#2C008C"/>
<path d="M86.9668 25.9722C86.9668 21.8929 89.795 18.7115 93.2805 18.7115C94.7155 18.7522 96.0792 19.348 97.0865 20.3743V13.4128H101.39V32.8893H97.6112V31.1157C97.1161 31.7295 96.4988 32.2328 95.7987 32.5936C95.0987 32.9543 94.3313 33.1645 93.5457 33.2108C89.9 33.2108 86.9668 30.1624 86.9668 25.9722ZM94.3908 29.4197C96.1308 29.4197 97.451 27.9066 97.451 25.9999C97.451 24.0933 96.1308 22.5802 94.3908 22.5802C92.6508 22.5802 91.3527 24.0933 91.3527 25.9999C91.3527 27.9066 92.7005 29.4197 94.3908 29.4197Z" fill="#2C008C"/>
<path d="M103.13 19.033H107.964L110.947 28.361L113.935 19.033H118.79L113.09 32.8893H108.82L103.13 19.033Z" fill="#2C008C"/>
<path d="M128.191 30.8219C127.67 31.5637 126.978 32.1683 126.174 32.5842C125.37 33.0001 124.478 33.2151 123.573 33.2108C120.955 33.2108 119.425 31.6201 119.425 29.0982C119.425 26.1607 121.673 24.5977 125.501 24.5977H127.904V24.437C127.904 23.007 126.799 22.2199 124.551 22.2199C123.113 22.2203 121.701 22.6028 120.458 23.3284V19.953C121.974 19.0982 123.691 18.6675 125.429 18.706C130.158 18.706 132.058 21.5438 132.058 25.357V32.8893H128.191V30.8219ZM125.076 30.0017C126.556 30.0017 128.009 29.1259 128.009 27.8567V26.981H125.291C123.916 26.981 123.148 27.4853 123.148 28.5163C123.148 29.5472 123.811 30.0017 125.076 30.0017Z" fill="#2C008C"/>
<path d="M142.167 22.5304C140.819 22.5304 139.869 23.6389 139.869 25.3626V32.8893H135.511V19.033H139.753V21.3886C140.119 20.5659 140.721 19.8715 141.483 19.3945C142.245 18.9176 143.131 18.6798 144.028 18.7116C146.962 18.7116 148.862 20.8066 148.862 24.3594V32.8893H144.504V25.3626C144.487 23.589 143.62 22.5304 142.167 22.5304Z" fill="#2C008C"/>
<path d="M151.513 25.9502C151.509 24.9899 151.695 24.0384 152.063 23.1515C152.43 22.2647 152.97 21.4605 153.651 20.7861C154.333 20.1117 155.142 19.5808 156.03 19.2245C156.919 18.8683 157.87 18.6939 158.827 18.7117C160.047 18.7023 161.259 18.9184 162.401 19.3491V23.1124C161.481 22.7624 160.507 22.5748 159.523 22.5582C156.96 22.5582 155.689 24.038 155.689 25.9225C155.689 27.807 156.96 29.3644 159.556 29.3644C160.528 29.3472 161.49 29.1635 162.401 28.8213V32.5846C161.264 32.9912 160.066 33.1974 158.86 33.1943C157.9 33.2166 156.945 33.0453 156.052 32.6908C155.159 32.3362 154.346 31.8055 153.661 31.1301C152.976 30.4547 152.433 29.6482 152.064 28.7585C151.695 27.8688 151.508 26.9138 151.513 25.9502Z" fill="#2C008C"/>
<path d="M164.505 26.1881C164.505 21.9203 167.411 18.7112 171.504 18.7112C175.597 18.7112 178 21.5767 178 26.4707C178.005 26.6743 177.996 26.8781 177.972 27.0804H168.477C168.582 28.5104 170.035 29.6798 172.388 29.6798C173.997 29.6851 175.573 29.2252 176.928 28.3552L176.956 31.9578C175.479 32.7834 173.814 33.213 172.123 33.2049C167.488 33.2104 164.505 30.2674 164.505 26.1881ZM174.001 24.5973C173.741 23.0842 172.896 21.9979 171.333 21.9979C169.77 21.9979 168.825 23.0565 168.538 24.5973H174.001Z" fill="#2C008C"/>
</g>
<defs>
<linearGradient id="paint0_linear_905_111" x1="12.196" y1="54.6493" x2="47.5335" y2="12.6824" gradientUnits="userSpaceOnUse">
<stop offset="0.13" stop-color="#1A006D"/>
<stop offset="0.85" stop-color="#5400D1"/>
</linearGradient>
<linearGradient id="paint1_linear_905_111" x1="13.7043" y1="54.7654" x2="35.6398" y2="16.902" gradientUnits="userSpaceOnUse">
<stop offset="0.31" stop-color="#FF824C"/>
<stop offset="0.86" stop-color="#FF295E"/>
</linearGradient>
<clipPath id="clip0_905_111">
<rect width="178" height="52" fill="white"/>
</clipPath>
</defs>
</svg>
