<svg width="136" height="43" viewBox="0 0 136 43" fill="none" xmlns="http://www.w3.org/2000/svg">
<path fill-rule="evenodd" clip-rule="evenodd" d="M71.5816 11.1341C71.5816 12.6432 70.3536 13.8588 68.8291 13.8588C67.3046 13.8588 66.0766 12.6432 66.0766 11.1341C66.0766 9.62497 67.2623 8.4093 68.8291 8.4093C70.3959 8.45122 71.5816 9.66689 71.5816 11.1341ZM60.233 16.6256V17.2963C60.233 17.2963 58.9203 15.6195 56.1254 15.6195C51.5096 15.6195 47.9101 19.0988 47.9101 23.9196C47.9101 28.6984 51.4673 32.2196 56.1254 32.2196C58.9626 32.2196 60.233 30.5009 60.233 30.5009V31.2135C60.233 31.5489 60.4871 31.8004 60.8259 31.8004H64.256V16.0387H60.8259C60.4871 16.0387 60.233 16.3321 60.233 16.6256ZM60.2333 26.7281C59.5981 27.6503 58.3277 28.4468 56.8032 28.4468C54.093 28.4468 52.018 26.77 52.018 23.9195C52.018 21.069 54.093 19.3922 56.8032 19.3922C58.2853 19.3922 59.6404 20.2306 60.2333 21.1109V26.7281ZM66.7966 16.0387H70.8619V31.8004H66.7966V16.0387ZM127.522 15.6195C124.727 15.6195 123.414 17.2963 123.414 17.2963V8.45129H119.349V31.8004H122.779C123.118 31.8004 123.372 31.507 123.372 31.2136V30.5009C123.372 30.5009 124.685 32.2196 127.48 32.2196C132.095 32.2196 135.695 28.6984 135.695 23.9196C135.695 19.1408 132.095 15.6195 127.522 15.6195ZM126.844 28.4049C125.277 28.4049 124.049 27.6085 123.414 26.6862V21.069C124.049 20.2306 125.404 19.3503 126.844 19.3503C129.554 19.3503 131.629 21.0271 131.629 23.8776C131.629 26.7282 129.554 28.4049 126.844 28.4049ZM117.232 22.4524V31.8423H113.167V22.9135C113.167 20.3145 112.32 19.2665 110.033 19.2665C108.805 19.2665 107.534 19.8953 106.73 20.8175V31.8004H102.665V16.0387H105.883C106.222 16.0387 106.476 16.3321 106.476 16.6256V17.2963C107.661 16.0806 109.228 15.6195 110.795 15.6195C112.574 15.6195 114.056 16.1225 115.242 17.1286C116.681 18.3024 117.232 19.8115 117.232 22.4524ZM92.7969 15.6195C90.0021 15.6195 88.6893 17.2963 88.6893 17.2963V8.45129H84.624V31.8004H88.0541C88.3929 31.8004 88.647 31.507 88.647 31.2136V30.5009C88.647 30.5009 89.9597 32.2196 92.7546 32.2196C97.3704 32.2196 100.97 28.6984 100.97 23.9196C101.012 19.1408 97.4127 15.6195 92.7969 15.6195ZM92.12 28.4049C90.5532 28.4049 89.3251 27.6085 88.6899 26.6862V21.069C89.3251 20.2306 90.6802 19.3503 92.12 19.3503C94.8302 19.3503 96.9052 21.0271 96.9052 23.8776C96.9052 26.7282 94.8302 28.4049 92.12 28.4049ZM81.1095 15.6195C82.3375 15.6195 82.9727 15.8291 82.9727 15.8291V19.5599C82.9727 19.5599 79.585 18.4281 77.4676 20.8175V31.8423H73.4024V16.0387H76.8324C77.1712 16.0387 77.4253 16.3321 77.4253 16.6256V17.2963C78.1875 16.416 79.8391 15.6195 81.1095 15.6195ZM38.8901 30.3751C38.6783 29.8721 38.4666 29.3271 38.2549 28.866C37.9161 28.1115 37.5773 27.3988 37.2809 26.7281L37.2385 26.6862C34.3166 20.3983 31.1872 14.0265 27.8842 7.73862L27.7571 7.4871C27.4183 6.85831 27.0796 6.18759 26.7408 5.51688C26.3173 4.76233 25.8939 3.96586 25.2163 3.21131C23.8612 1.53453 21.9133 0.612305 19.8383 0.612305C17.721 0.612305 15.8154 1.53453 14.4179 3.12747C13.7827 3.88202 13.3169 4.67849 12.8934 5.43304C12.5547 6.10376 12.2159 6.77447 11.8771 7.40326L11.7501 7.65478C8.48938 13.9427 5.31338 20.3145 2.39146 26.6024L2.34911 26.6862C2.05268 27.3569 1.71391 28.0696 1.37514 28.8241C1.1634 29.2852 0.951671 29.7883 0.739937 30.3332C0.18943 31.8842 0.0200435 33.3514 0.231777 34.8605C0.69759 38.0045 2.81492 40.6454 5.73685 41.8191C6.83786 42.2803 7.98122 42.4899 9.16693 42.4899C9.5057 42.4899 9.92917 42.4479 10.2679 42.406C11.6654 42.2383 13.1052 41.7772 14.5026 40.9808C16.2388 40.0166 17.8903 38.6333 19.7536 36.6211C21.6168 38.6333 23.3107 40.0166 25.0046 40.9808C26.402 41.7772 27.8418 42.2383 29.2393 42.406C29.578 42.4479 30.0015 42.4899 30.3403 42.4899C31.526 42.4899 32.7117 42.2803 33.7661 41.8191C36.7304 40.6454 38.8054 37.9626 39.2712 34.8605C39.61 33.3933 39.4406 31.9262 38.8901 30.3751ZM19.7958 32.555C17.5091 29.7045 16.027 27.0216 15.5188 24.758C15.3071 23.7938 15.2647 22.9555 15.3918 22.2009C15.4764 21.5302 15.7305 20.9433 16.0693 20.4403C16.8739 19.3085 18.229 18.5958 19.7958 18.5958C21.3626 18.5958 22.7601 19.2665 23.5223 20.4403C23.8611 20.9433 24.1152 21.5302 24.1999 22.2009C24.3269 22.9555 24.2846 23.8358 24.0728 24.758C23.5647 26.9797 22.0825 29.6626 19.7958 32.555ZM36.6885 34.5251C36.392 36.7049 34.9099 38.5913 32.8392 39.4297C31.8228 39.8489 30.7218 39.9747 29.6208 39.8489C28.5621 39.7232 27.5035 39.3878 26.4025 38.759C24.878 37.9206 23.3535 36.6211 21.5749 34.6928C24.3698 31.2973 26.0637 28.1953 26.6989 25.4286C26.9953 24.1291 27.0377 22.9554 26.9106 21.8655C26.7412 20.8175 26.3601 19.8533 25.7673 19.0149C24.4545 17.1286 22.2525 16.0386 19.7964 16.0386C17.3403 16.0386 15.1382 17.1705 13.8255 19.0149C13.2326 19.8533 12.8515 20.8175 12.6821 21.8655C12.5128 22.9554 12.5551 24.171 12.8939 25.4286C13.5291 28.1953 15.2653 31.3393 18.0178 34.7347C16.2816 36.663 14.7148 37.9625 13.1903 38.8009C12.0893 39.4297 11.0306 39.7651 9.97195 39.8908C8.82859 40.0166 7.72758 39.8489 6.7536 39.4716C4.67862 38.6332 3.19648 36.7469 2.90005 34.5671C2.77301 33.5191 2.85771 32.4711 3.28117 31.2973C3.40821 30.8781 3.61995 30.4589 3.83168 29.9559C4.12811 29.2852 4.46688 28.5726 4.80566 27.8599L4.848 27.7761C7.76992 21.5301 10.9036 15.1583 14.1643 8.95426L14.2913 8.70274C14.6301 8.07395 14.9689 7.40324 15.3076 6.77444C15.6464 6.10373 16.0275 5.47494 16.4933 4.92999C17.3826 3.92392 18.5683 3.37897 19.8811 3.37897C21.1938 3.37897 22.3795 3.92392 23.2688 4.92999C23.7346 5.47494 24.1157 6.10373 24.4545 6.77444C24.7933 7.40324 25.1321 8.07395 25.4708 8.70274L25.5979 8.95426C28.8162 15.2003 31.9499 21.572 34.8676 27.818V27.8599C35.2063 28.5307 35.5028 29.2852 35.8415 29.9559C36.0533 30.4589 36.265 30.8781 36.392 31.2973C36.7308 32.3872 36.8579 33.4352 36.6885 34.5251Z" fill="#003057"/>
</svg>
