<svg width="30" height="30" viewBox="0 0 30 30" fill="none" xmlns="http://www.w3.org/2000/svg">
<path d="M26.25 17.5H25V3.75C25 3.41848 24.8683 3.10054 24.6339 2.86612C24.3995 2.6317 24.0815 2.5 23.75 2.5H6.25C5.91848 2.5 5.60054 2.6317 5.36612 2.86612C5.1317 3.10054 5 3.41848 5 3.75V17.5H3.75C3.41848 17.5 3.10054 17.6317 2.86612 17.8661C2.6317 18.1005 2.5 18.4185 2.5 18.75C2.5 19.0815 2.6317 19.3995 2.86612 19.6339C3.10054 19.8683 3.41848 20 3.75 20H13.75V21.4375L8.0625 25.1875C7.82917 25.3319 7.64985 25.5491 7.55221 25.8056C7.45457 26.0621 7.44404 26.3435 7.52224 26.6066C7.60044 26.8696 7.76303 27.0996 7.98492 27.2611C8.2068 27.4225 8.47566 27.5065 8.75 27.5C8.99575 27.5028 9.2362 27.4285 9.4375 27.2875L13.75 24.4375V26.25C13.75 26.5815 13.8817 26.8995 14.1161 27.1339C14.3505 27.3683 14.6685 27.5 15 27.5C15.3315 27.5 15.6495 27.3683 15.8839 27.1339C16.1183 26.8995 16.25 26.5815 16.25 26.25V24.4375L20.5625 27.2875C20.7638 27.4285 21.0042 27.5028 21.25 27.5C21.5171 27.4979 21.7764 27.4104 21.9901 27.2502C22.2038 27.09 22.3606 26.8656 22.4375 26.6098C22.5143 26.3541 22.5073 26.0804 22.4173 25.8289C22.3273 25.5775 22.1592 25.3614 21.9375 25.2125L16.25 21.4625V20H26.25C26.5815 20 26.8995 19.8683 27.1339 19.6339C27.3683 19.3995 27.5 19.0815 27.5 18.75C27.5 18.4185 27.3683 18.1005 27.1339 17.8661C26.8995 17.6317 26.5815 17.5 26.25 17.5ZM22.5 17.5H7.5V5H22.5V17.5ZM11.25 15C11.4559 14.9989 11.6583 14.947 11.8393 14.8489C12.0203 14.7508 12.1743 14.6095 12.2875 14.4375L13.95 11.9375L15.3625 13.3625C15.4937 13.4945 15.6526 13.5955 15.8278 13.6582C16.0029 13.7209 16.1899 13.7437 16.375 13.725C16.5593 13.7048 16.7368 13.6438 16.8946 13.5465C17.0524 13.4492 17.1866 13.3181 17.2875 13.1625L19.7875 9.4125C19.9347 9.13804 19.9742 8.8185 19.8981 8.51648C19.8221 8.21445 19.6361 7.95168 19.3764 7.77964C19.1168 7.6076 18.8023 7.53868 18.4945 7.58637C18.1868 7.63407 17.9079 7.79495 17.7125 8.0375L16.05 10.5375L14.6375 9.1125C14.5063 8.98053 14.3474 8.87951 14.1722 8.8168C13.9971 8.75408 13.8101 8.73126 13.625 8.75C13.4407 8.77022 13.2632 8.83118 13.1054 8.92847C12.9476 9.02576 12.8134 9.15694 12.7125 9.3125L10.2125 13.0625C10.0316 13.3381 9.96686 13.674 10.0324 13.997C10.098 14.3201 10.2885 14.6042 10.5625 14.7875C10.7638 14.9285 11.0042 15.0028 11.25 15Z" fill="white"/>
</svg>
