<svg width="20" height="25" viewBox="0 0 20 25" fill="none" xmlns="http://www.w3.org/2000/svg">
<path d="M16.25 0H1.25C0.918479 0 0.600537 0.131696 0.366117 0.366116C0.131696 0.600537 0 0.918479 0 1.25V21.25C0 21.5815 0.131696 21.8995 0.366117 22.1339C0.600537 22.3683 0.918479 22.5 1.25 22.5H2.5V23.75C2.5 24.0815 2.6317 24.3995 2.86612 24.6339C3.10054 24.8683 3.41848 25 3.75 25C4.08152 25 4.39946 24.8683 4.63388 24.6339C4.8683 24.3995 5 24.0815 5 23.75V22.5H16.25C17.2446 22.5 18.1984 22.1049 18.9017 21.4017C19.6049 20.6984 20 19.7446 20 18.75V3.75C20 2.75544 19.6049 1.80161 18.9017 1.09835C18.1984 0.395088 17.2446 0 16.25 0ZM12.5 20H2.5V2.5H12.5V20ZM17.5 18.75C17.5 19.0815 17.3683 19.3995 17.1339 19.6339C16.8995 19.8683 16.5815 20 16.25 20H15V2.5H16.25C16.5815 2.5 16.8995 2.6317 17.1339 2.86612C17.3683 3.10054 17.5 3.41848 17.5 3.75V18.75Z" fill="white"/>
</svg>
