<svg width="105" height="54" viewBox="0 0 105 54" fill="none" xmlns="http://www.w3.org/2000/svg">
<path fill-rule="evenodd" clip-rule="evenodd" d="M102.532 51.343H103.052L103.77 53.2704H103.784L104.473 51.343H104.979V53.6834H104.642V51.7698H104.628L103.91 53.6834H103.587L102.883 51.7698H102.869V53.6834H102.532V51.343ZM102.363 51.343V51.6184H101.547V53.6834H101.209V51.6184H100.393V51.343H102.363ZM104.979 16.7472C104.979 15.522 103.966 14.5308 102.714 14.5308C101.462 14.5308 100.435 15.522 100.435 16.7472V21.4279C100.435 22.6531 101.462 23.6581 102.714 23.6581C103.966 23.6581 104.979 22.6531 104.979 21.4279V16.7472ZM92.4875 10.621C92.4875 9.38892 91.4747 8.39221 90.1805 8.39221C88.9285 8.39221 87.9157 9.38892 87.9157 10.621V21.4279C87.9157 22.6532 88.9285 23.6581 90.1805 23.6581C91.4747 23.6581 92.4875 22.6532 92.4875 21.4279V10.621ZM79.9538 2.22333C79.9538 0.996711 78.941 0 77.689 0C76.437 0 75.4101 0.996711 75.4101 2.22333V25.8608C75.4101 27.0998 76.437 28.091 77.689 28.091C78.941 28.091 79.9538 27.0998 79.9538 25.8608V2.22333ZM67.4332 10.621C67.4332 9.38892 66.4203 8.39221 65.1543 8.39221C63.9023 8.39221 62.8895 9.38892 62.8895 10.621V21.4279C62.8895 22.6532 63.9023 23.6581 65.1543 23.6581C66.4203 23.6581 67.4332 22.6532 67.4332 21.4279V10.621ZM54.9137 16.7472C54.9137 15.522 53.8868 14.5308 52.6348 14.5308C51.3828 14.5308 50.3559 15.522 50.3559 16.7472V21.4279C50.3559 22.6531 51.3828 23.6581 52.6348 23.6581C53.8868 23.6581 54.9137 22.6531 54.9137 21.4279V16.7472ZM42.4082 10.621C42.4082 9.38892 41.3813 8.39221 40.1293 8.39221C38.8632 8.39221 37.8363 9.38892 37.8363 10.621V21.4279C37.8363 22.6532 38.8632 23.6581 40.1293 23.6581C41.3813 23.6581 42.4082 22.6532 42.4082 21.4279V10.621ZM29.8885 2.22333C29.8885 0.996711 28.8616 0 27.6096 0C26.3436 0 25.3308 0.996711 25.3308 2.22333V25.8608C25.3308 27.0998 26.3436 28.091 27.6096 28.091C28.8616 28.091 29.8885 27.0998 29.8885 25.8608V2.22333ZM17.3679 10.621C17.3679 9.38892 16.341 8.39221 15.089 8.39221C13.8229 8.39221 12.8101 9.38892 12.8101 10.621V21.4279C12.8101 22.6532 13.8229 23.6581 15.089 23.6581C16.341 23.6581 17.3679 22.6532 17.3679 21.4279V10.621ZM4.84294 16.7472C4.84294 15.522 3.82025 14.5308 2.56545 14.5308C1.30925 14.5308 0.285156 15.522 0.285156 16.7472V21.4279C0.285156 22.6531 1.30925 23.6581 2.56545 23.6581C3.82025 23.6581 4.84294 22.6531 4.84294 21.4279V16.7472ZM51.9033 39.9305C51.833 39.9167 49.8917 39.3936 48.3021 39.3936C46.4734 39.3936 45.4746 39.9855 45.4746 40.8528C45.4746 41.9266 46.8251 42.3121 47.5706 42.5461L48.8367 42.9316C51.8189 43.8677 53.1834 45.8639 53.1834 48.0253C53.1834 52.4995 49.1602 54.0001 45.6434 54.0001C43.2098 54.0001 40.9168 53.5733 40.6918 53.5182V49.4157C41.0997 49.5259 43.0269 50.0903 45.0245 50.0903C47.3033 50.0903 48.3584 49.4295 48.3584 48.4245C48.3584 47.5159 47.4581 46.9928 46.3186 46.6486C46.0373 46.5523 45.6153 46.4284 45.3339 46.332C42.7737 45.5473 40.6496 44.0742 40.6496 41.1282C40.6496 37.7966 43.1957 35.5664 47.43 35.5664C49.6526 35.5664 51.7627 36.0895 51.9033 36.1308V39.9305ZM85.9462 40.1094C83.2171 40.1094 81.2055 42.2019 81.2055 44.7901C81.2055 47.3782 83.2171 49.4708 85.9462 49.4708C88.6752 49.4708 90.7009 47.3782 90.7009 44.7901C90.7009 42.2019 88.6752 40.1094 85.9462 40.1094ZM95.5536 44.7901C95.5536 49.8838 91.5445 54.0001 85.9457 54.0001C80.347 54.0001 76.3378 49.8838 76.3378 44.7901C76.3378 39.6964 80.347 35.5664 85.9457 35.5664C91.5445 35.5664 95.5536 39.6964 95.5536 44.7901ZM23.5862 40.9905C23.4033 40.8941 21.9263 40.0406 19.7318 40.0406C16.7495 40.0406 14.6957 42.0643 14.6957 44.7901C14.6957 47.4333 16.6651 49.5396 19.7318 49.5396C21.8841 49.5396 23.3893 48.6999 23.5862 48.5897V53.3668C23.0094 53.532 21.448 54.0001 19.3942 54.0001C14.2315 54.0001 9.71169 50.5171 9.71169 44.7901C9.71169 39.4624 13.8095 35.5664 19.3942 35.5664C21.5605 35.5664 23.1501 36.0758 23.5862 36.2134V40.9905ZM71.4992 40.9905C71.3164 40.8941 69.8393 40.0406 67.6448 40.0406C64.6766 40.0406 62.6228 42.0643 62.6228 44.7901C62.6228 47.4333 64.5922 49.5396 67.6448 49.5396C69.7971 49.5396 71.3023 48.6999 71.4992 48.5897V53.3668C70.9365 53.532 69.361 54.0001 67.3213 54.0001C62.1586 54.0001 57.6289 50.5171 57.6289 44.7901C57.6289 39.4624 61.7225 35.5664 67.3213 35.5664C69.4735 35.5664 71.0772 36.0758 71.4992 36.2134V40.9905ZM34.4884 53.6834H29.9025V35.8831H34.4884V53.6834Z" fill="#003057"/>
</svg>
