<svg width="89" height="43" viewBox="0 0 89 43" fill="none" xmlns="http://www.w3.org/2000/svg">
<path fill-rule="evenodd" clip-rule="evenodd" d="M36.6573 0.633862C33.0009 0.888882 29.9063 3.95932 29.9063 8.28447L29.9063 28.8697C29.9063 29.6143 29.3547 30.257 28.5479 30.257L22.1135 30.257C8.18258 30.2774 9.41839 12.4872 21.276 12.4668H28.4049V7.29499H21.0309C16.3022 7.29499 12.799 9.05972 10.4397 11.6813C8.07023 14.3131 6.88549 17.8426 6.88549 21.3721C6.87528 24.9016 8.0498 28.4107 10.4704 31.0425C12.8909 33.6641 16.5473 35.4288 21.562 35.4288L33.7056 35.4288C34.5023 35.4288 35.1661 34.7351 35.1661 33.9395V8.83531C35.1559 7.53981 35.8913 6.54013 36.8411 6.2443C37.7909 5.94848 38.9042 6.32591 39.5578 7.26439L39.5885 7.29499C43.0406 12.936 56.7468 34.8984 56.7672 34.9392C57.1451 35.4696 57.5945 35.5716 57.9213 35.4594C58.2482 35.3472 58.575 35.0004 58.575 34.1231V8.83531C58.5648 7.53981 59.3001 6.54013 60.25 6.2443C61.1998 5.94848 62.2926 6.32591 62.9463 7.26439V7.29499H62.9974C66.4495 12.936 80.1557 34.8984 80.1761 34.9392C80.5438 35.4696 80.983 35.5716 81.3302 35.4594C81.6775 35.3472 82.0145 35.0208 82.0145 34.1537V0.766472H76.8057V20.25C76.8057 20.25 73.7009 14.9558 68.39 5.82607C63.1812 -3.10983 53.3458 0.593056 53.3458 8.28447V20.25C53.3458 20.25 50.292 14.9558 44.9709 5.82607C42.6831 1.91916 39.5068 0.419643 36.6573 0.633862ZM21.9397 0.766502C-7.02525 0.766502 -6.7495 41.9981 22.3278 42.0186H33.7054C38.5976 42.0186 41.7126 39.1317 41.7126 33.7865V23.3307C41.7126 23.3307 48.0959 33.8783 50.6084 38.0096C54.8673 45.038 65.1521 43.6507 65.1215 34.878V23.3307C65.1215 23.3307 71.4844 33.8783 73.9866 38.0096C78.2456 45.038 88.561 43.6507 88.5304 34.878V0.756302H83.3216V34.1435C83.3318 35.4288 82.6577 36.3775 81.7283 36.6733C80.7989 36.9794 79.7367 36.5917 79.0831 35.6839H79.0627V35.6328C79.0627 35.6328 65.3462 13.7317 61.8532 8.01927C61.843 8.00907 61.8328 8.02947 61.8226 8.01927C61.8124 8.01927 61.8328 7.98867 61.8226 7.98867C61.4651 7.50924 60.9953 7.40722 60.6174 7.51943C60.2293 7.64184 59.8514 7.97847 59.8617 8.82514V34.1129C59.8719 35.388 59.208 36.3877 58.2888 36.7039C57.3696 37.01 56.3176 36.6019 55.6742 35.6839V35.6532H55.6436C55.6436 35.6532 41.9169 13.7113 38.4341 8.00908C38.0665 7.48883 37.5967 7.36642 37.2086 7.48883C36.8204 7.61124 36.4426 7.94787 36.4528 8.79453V8.82514V33.9293C36.4528 35.4492 35.1965 36.7243 33.6748 36.7243L21.5413 36.7243C16.21 36.7243 12.1758 34.8066 9.51008 31.9198C6.84441 29.0329 5.52689 25.1974 5.52689 21.3619C5.53711 17.5366 6.84441 13.6705 9.4488 10.7837C12.0532 7.89686 15.9547 5.97911 21.0103 5.97911H28.3843V0.756302L21.9397 0.766502Z" fill="#003057"/>
</svg>
