<svg width="1681" height="1673" viewBox="0 0 1681 1673" fill="none" xmlns="http://www.w3.org/2000/svg">
<rect x="0.5" y="209.5" width="209" height="209" stroke="#EFF2F2"/>
<rect x="0.5" y="1045.5" width="209" height="209" stroke="#EFF2F2"/>
<rect x="0.5" y="627.5" width="209" height="209" stroke="#EFF2F2"/>
<rect x="0.5" y="1463.5" width="209" height="209" stroke="#EFF2F2"/>
<rect x="0.5" y="0.5" width="209" height="209" stroke="#EFF2F2"/>
<rect x="0.5" y="836.5" width="209" height="209" stroke="#EFF2F2"/>
<rect x="0.5" y="418.5" width="209" height="209" stroke="#EFF2F2"/>
<rect x="0.5" y="1254.5" width="209" height="209" stroke="#EFF2F2"/>
<rect x="840.5" y="209.5" width="211" height="209" stroke="#EFF2F2"/>
<rect x="840.5" y="1045.5" width="211" height="209" stroke="#EFF2F2"/>
<rect x="840.5" y="627.5" width="211" height="209" stroke="#EFF2F2"/>
<rect x="840.5" y="1463.5" width="211" height="209" stroke="#EFF2F2"/>
<rect x="840.5" y="0.5" width="211" height="209" stroke="#EFF2F2"/>
<rect x="840.5" y="836.5" width="211" height="209" stroke="#EFF2F2"/>
<rect x="840.5" y="418.5" width="211" height="209" stroke="#EFF2F2"/>
<rect x="840.5" y="1254.5" width="211" height="209" stroke="#EFF2F2"/>
<rect x="420.5" y="209.5" width="209" height="209" stroke="#EFF2F2"/>
<rect x="420.5" y="1045.5" width="209" height="209" stroke="#EFF2F2"/>
<rect x="420.5" y="627.5" width="209" height="209" stroke="#EFF2F2"/>
<rect x="420.5" y="1463.5" width="209" height="209" stroke="#EFF2F2"/>
<rect x="420.5" y="0.5" width="209" height="209" stroke="#EFF2F2"/>
<rect x="420.5" y="836.5" width="209" height="209" stroke="#EFF2F2"/>
<rect x="420.5" y="418.5" width="209" height="209" stroke="#EFF2F2"/>
<rect x="420.5" y="1254.5" width="209" height="209" stroke="#EFF2F2"/>
<rect x="1260.5" y="209.5" width="211" height="209" stroke="#EFF2F2"/>
<rect x="1260.5" y="1045.5" width="211" height="209" stroke="#EFF2F2"/>
<rect x="1260.5" y="627.5" width="211" height="209" stroke="#EFF2F2"/>
<rect x="1260.5" y="1463.5" width="211" height="209" stroke="#EFF2F2"/>
<rect x="1260.5" y="0.5" width="211" height="209" stroke="#EFF2F2"/>
<rect x="1260.5" y="836.5" width="211" height="209" stroke="#EFF2F2"/>
<rect x="1260.5" y="418.5" width="211" height="209" stroke="#EFF2F2"/>
<rect x="1260.5" y="1254.5" width="211" height="209" stroke="#EFF2F2"/>
<rect x="209.5" y="209.5" width="211" height="209" stroke="#EFF2F2"/>
<rect x="209.5" y="1045.5" width="211" height="209" stroke="#EFF2F2"/>
<rect x="209.5" y="627.5" width="211" height="209" stroke="#EFF2F2"/>
<rect x="209.5" y="1463.5" width="211" height="209" stroke="#EFF2F2"/>
<rect x="209.5" y="0.5" width="211" height="209" stroke="#EFF2F2"/>
<rect x="209.5" y="836.5" width="211" height="209" stroke="#EFF2F2"/>
<rect x="209.5" y="418.5" width="211" height="209" stroke="#EFF2F2"/>
<rect x="209.5" y="1254.5" width="211" height="209" stroke="#EFF2F2"/>
<rect x="1051.5" y="209.5" width="209" height="209" stroke="#EFF2F2"/>
<rect x="1051.5" y="1045.5" width="209" height="209" stroke="#EFF2F2"/>
<rect x="1051.5" y="627.5" width="209" height="209" stroke="#EFF2F2"/>
<rect x="1051.5" y="1463.5" width="209" height="209" stroke="#EFF2F2"/>
<rect x="1051.5" y="0.5" width="209" height="209" stroke="#EFF2F2"/>
<rect x="1051.5" y="836.5" width="209" height="209" stroke="#EFF2F2"/>
<rect x="1051.5" y="418.5" width="209" height="209" stroke="#EFF2F2"/>
<rect x="1051.5" y="1254.5" width="209" height="209" stroke="#EFF2F2"/>
<rect x="629.5" y="209.5" width="211" height="209" stroke="#EFF2F2"/>
<rect x="629.5" y="1045.5" width="211" height="209" stroke="#EFF2F2"/>
<rect x="629.5" y="627.5" width="211" height="209" stroke="#EFF2F2"/>
<rect x="629.5" y="1463.5" width="211" height="209" stroke="#EFF2F2"/>
<rect x="629.5" y="0.5" width="211" height="209" stroke="#EFF2F2"/>
<rect x="629.5" y="836.5" width="211" height="209" stroke="#EFF2F2"/>
<rect x="629.5" y="418.5" width="211" height="209" stroke="#EFF2F2"/>
<rect x="629.5" y="1254.5" width="211" height="209" stroke="#EFF2F2"/>
<rect x="1471.5" y="209.5" width="209" height="209" stroke="#EFF2F2"/>
<rect x="1471.5" y="1045.5" width="209" height="209" stroke="#EFF2F2"/>
<rect x="1471.5" y="627.5" width="209" height="209" stroke="#EFF2F2"/>
<rect x="1471.5" y="1463.5" width="209" height="209" stroke="#EFF2F2"/>
<rect x="1471.5" y="0.5" width="209" height="209" stroke="#EFF2F2"/>
<rect x="1471.5" y="836.5" width="209" height="209" stroke="#EFF2F2"/>
<rect x="1471.5" y="418.5" width="209" height="209" stroke="#EFF2F2"/>
<rect x="1471.5" y="1254.5" width="209" height="209" stroke="#EFF2F2"/>
</svg>
