<svg width="110" height="45" viewBox="0 0 110 45" fill="none" xmlns="http://www.w3.org/2000/svg">
<path fill-rule="evenodd" clip-rule="evenodd" d="M27.4195 31.2019V0.510254H32.9587V14.3301C32.9587 14.3301 35.3236 10.2035 42.9081 10.2035C51.0252 10.2035 55.8188 15.985 55.8188 23.1636C55.8188 24.0219 55.7542 24.8515 55.6288 25.6481C56.9507 21.955 61.4749 20.133 68.921 20.133H75.6747V18.9294C75.6747 15.5551 72.7346 13.7927 68.921 13.7927C63.0622 13.7927 62.764 17.5324 62.764 17.5324H57.0116C57.0116 16.5008 57.7573 10.1174 69.3258 10.1174C73.2787 10.1174 77.6163 10.9581 79.8037 14.2578L78.1459 11.1276H84.6226L93.9328 29.9337L103.222 11.1276H109.102L92.2071 44.5918H86.05L90.9288 35.2639L80.5062 15.5842C80.9761 16.7213 81.2396 18.0811 81.2352 19.7032V31.7821C81.2352 33.1791 81.427 35.3714 81.427 35.3714H76.3138C76.3138 35.3714 76.186 33.609 76.186 31.8251C76.186 31.8251 73.5868 36.3171 65.5123 36.3171C59.6108 36.3171 55.222 33.437 55.222 28.1498C55.222 27.8694 55.2349 27.5965 55.2606 27.331C53.7225 32.7528 49.1219 36.2742 42.9081 36.2742C35.6005 36.2742 32.9161 32.0401 32.9161 32.0401C32.9161 33.6306 32.7244 35.393 32.7244 35.393H27.2917C27.2917 35.393 27.4195 32.9428 27.4195 31.2019ZM0 23.3355C0 13.4059 6.41275 10.1175 14.1038 10.1175C24.5432 10.1175 27.4193 17.1671 27.4193 21.7235V24.6251H5.62448C5.62448 29.2675 9.11847 32.5559 13.9547 32.5559C19.8987 32.5559 21.1131 28.3433 21.1131 28.3433H26.8015C26.8015 28.3433 26.0558 36.1667 14.2955 36.1667C4.30358 36.1667 0 31.2018 0 23.3355ZM21.6668 20.9499C21.6668 16.6728 18.5137 13.8358 13.9119 13.8358C9.86395 13.8358 5.75212 16.4149 5.77342 20.9499H21.6668ZM41.5232 13.9861C46.7429 13.9861 50.0664 17.8978 50.0664 23.142C50.0664 28.7731 46.2316 32.4484 41.5658 32.4484C35.984 32.4484 32.98 28.0639 32.98 23.185C32.98 18.6715 35.6644 13.9861 41.5232 13.9861ZM75.6963 23.7439V25.3558C75.6963 27.4406 74.418 32.6419 66.8974 32.6419C62.7642 32.6419 60.9959 30.5571 60.9959 28.1499C60.9959 23.7869 66.94 23.7439 75.6963 23.7439Z" fill="#003057"/>
</svg>
