<svg width="122" height="39" viewBox="0 0 122 39" fill="none" xmlns="http://www.w3.org/2000/svg">
<path fill-rule="evenodd" clip-rule="evenodd" d="M16.2586 29.9435C20.8232 29.9435 24.2629 28.4869 26.9555 25.75C29.7274 23.0436 30.5879 19.2545 30.5879 16.1892C30.5879 15.2374 30.5131 14.3647 30.3634 13.6318H16.2586V17.7188H26.2852C25.9859 20.0178 25.197 21.6964 24.0048 22.8641C22.5431 24.2843 20.2633 25.8564 16.2586 25.8564C10.0861 25.8564 5.25861 21.0031 5.25861 14.982C5.25861 8.96091 10.0861 4.10451 16.2586 4.10451C19.586 4.10451 22.0221 5.38475 23.8149 7.02686L26.7716 4.14404C24.2629 1.81163 20.9355 0.0205078 16.2586 0.0205078C7.80127 0.0205078 0.693359 6.73189 0.693359 14.982C0.693359 23.229 7.80127 29.9435 16.2586 29.9435ZM42.0028 29.9434C47.4623 29.9434 51.9147 25.8563 51.9147 20.3066C51.9147 14.7265 47.4623 10.6759 42.0028 10.6759C36.534 10.6759 32.0816 14.7265 32.0816 20.3066C32.0816 25.8563 36.534 29.9434 42.0028 29.9434ZM42.0025 26.1483C39.0062 26.1483 36.4214 23.7399 36.4214 20.3067C36.4214 16.843 39.0062 14.4741 42.0025 14.4741C44.9926 14.4741 47.5742 16.843 47.5742 20.3067C47.5742 23.7399 44.9926 26.1483 42.0025 26.1483ZM63.6256 29.9434C69.0882 29.9434 73.5406 25.8563 73.5406 20.3066C73.5406 14.7265 69.0882 10.6759 63.6256 10.6759C58.1599 10.6759 53.7076 14.7265 53.7076 20.3066C53.7076 25.8563 58.1599 29.9434 63.6256 29.9434ZM63.6259 26.1483C60.6327 26.1483 58.0479 23.7399 58.0479 20.3067C58.0479 16.843 60.6327 14.4741 63.6259 14.4741C66.6191 14.4741 69.2007 16.843 69.2007 20.3067C69.2007 23.7399 66.6191 26.1483 63.6259 26.1483ZM84.8771 38.5918C89.9624 38.5918 94.2714 35.6756 94.2714 28.5567V11.2598H90.1526V12.8289H90.003C89.027 11.6977 87.1563 10.6759 84.8054 10.6759C79.8635 10.6759 75.3394 14.9089 75.3394 20.3461C75.3394 25.7499 79.8635 29.9434 84.8054 29.9434C87.1563 29.9434 89.027 28.9216 90.003 27.7539H90.1526V29.1406C90.1526 32.8292 88.1322 34.7967 84.8771 34.7967C82.2238 34.7967 80.5744 32.9387 79.8978 31.3635L76.122 32.8992C77.2102 35.4566 80.088 38.5918 84.8771 38.5918ZM85.1733 26.1483C82.1832 26.1483 79.6733 23.7064 79.6733 20.3462C79.6733 16.9525 82.1832 14.4741 85.1733 14.4741C88.1322 14.4741 90.4519 16.9525 90.4519 20.3462C90.4519 23.7064 88.1322 26.1483 85.1733 26.1483ZM101.602 1.04224H97.2618V29.3596H101.602V1.04224ZM113.499 29.9434C118.023 29.9434 120.645 27.246 121.731 25.6739L118.36 23.4874C117.241 25.087 115.707 26.1483 113.499 26.1483C111.292 26.1483 109.717 25.163 108.71 23.229L121.918 17.8982L121.469 16.8065C120.645 14.6535 118.136 10.6759 113.013 10.6759C107.924 10.6759 103.697 14.5835 103.697 20.3066C103.697 25.7104 107.887 29.9434 113.499 29.9434ZM107.999 20.0179C107.887 16.2988 110.955 14.3982 113.162 14.3982C114.883 14.3982 116.343 15.2375 116.832 16.4417L107.999 20.0179Z" fill="#003057"/>
</svg>
