<svg width="30" height="30" viewBox="0 0 30 30" fill="none" xmlns="http://www.w3.org/2000/svg">
<path d="M24.5998 8.59999C23.326 7.93055 21.8407 7.78695 20.4623 8.19999C20.3952 6.79807 19.791 5.47578 18.7751 4.50737C17.7592 3.53895 16.4095 2.99872 15.006 2.99872C13.6025 2.99872 12.2528 3.53895 11.2369 4.50737C10.2211 5.47578 9.61689 6.79807 9.54977 8.19999C8.17513 7.786 6.69399 7.91577 5.41227 8.56249C4.46839 9.05859 3.69035 9.82011 3.1741 10.7531C2.65784 11.6861 2.42595 12.7498 2.50702 13.8131C2.5881 14.8763 2.97858 15.8926 3.63033 16.7365C4.28208 17.5805 5.16658 18.2152 6.17477 18.5625C5.53126 19.4781 5.1824 20.5683 5.17477 21.6875C5.18033 22.0017 5.20958 22.3151 5.26227 22.625C5.47278 23.8944 6.12765 25.0477 7.10995 25.8789C8.09225 26.71 9.33801 27.165 10.6248 27.1625C10.8911 27.1807 11.1584 27.1807 11.4248 27.1625C12.8536 26.9374 14.1371 26.161 14.9998 25C15.8714 26.1422 17.1538 26.9 18.5748 27.1125C18.8411 27.1307 19.1084 27.1307 19.3748 27.1125C20.3725 27.1113 21.3507 26.8363 22.2028 26.3175C23.055 25.7986 23.7484 25.0558 24.2074 24.17C24.6664 23.2842 24.8735 22.2893 24.806 21.2939C24.7385 20.2985 24.3991 19.3408 23.8248 18.525C24.8379 18.1837 25.7283 17.552 26.3851 16.7086C27.0419 15.8651 27.4361 14.8471 27.5187 13.7812C27.6013 12.7154 27.3687 11.6488 26.8496 10.7142C26.3306 9.77958 25.5482 9.01827 24.5998 8.52499V8.59999ZM12.9248 6.17499C13.4832 5.64018 14.2266 5.34164 14.9998 5.34164C15.773 5.34164 16.5163 5.64018 17.0748 6.17499C17.5011 6.60197 17.7906 7.14626 17.9064 7.73845C18.0222 8.33063 17.9589 8.94388 17.7248 9.49999L17.3998 10.2375L16.5748 10.9625C16.0675 10.7884 15.536 10.6956 14.9998 10.6875C14.3067 10.6881 13.6214 10.8329 12.9873 11.1125L12.2873 9.49999C12.0447 8.94634 11.9757 8.33212 12.0896 7.73847C12.2034 7.14481 12.4946 6.59965 12.9248 6.17499ZM5.29977 14.725C5.02072 14.1109 4.95955 13.4201 5.12638 12.7665C5.29321 12.113 5.67805 11.536 6.21728 11.1308C6.75651 10.7257 7.41785 10.5167 8.09198 10.5383C8.76611 10.56 9.41267 10.811 9.92477 11.25L10.5373 11.7875L10.9748 12.7875C10.3486 13.6253 10.0069 14.6415 9.99977 15.6875C9.98495 15.8747 9.98495 16.0628 9.99977 16.25H9.31227L8.26227 16.35C7.66171 16.4134 7.05611 16.2917 6.52664 16.0013C5.99716 15.7108 5.56909 15.2655 5.29977 14.725ZM13.5498 22.325C13.3993 22.9923 13.0235 23.5873 12.4855 24.0099C11.9476 24.4325 11.2805 24.6568 10.5966 24.6451C9.91263 24.6334 9.25362 24.3863 8.73054 23.9455C8.20746 23.5047 7.85226 22.8971 7.72477 22.225C7.71279 22.0502 7.71279 21.8748 7.72477 21.7C7.7293 21.1919 7.86667 20.6939 8.12323 20.2553C8.37979 19.8167 8.74661 19.4529 9.18727 19.2L9.82477 18.75L10.9623 18.625C11.6792 19.6224 12.7382 20.321 13.9373 20.5875L13.5498 22.325ZM14.9998 18.1875C14.5053 18.1875 14.022 18.0409 13.6108 17.7662C13.1997 17.4915 12.8793 17.101 12.6901 16.6442C12.5009 16.1874 12.4513 15.6847 12.5478 15.1998C12.6443 14.7148 12.8824 14.2694 13.232 13.9197C13.5816 13.5701 14.0271 13.332 14.512 13.2355C14.997 13.1391 15.4997 13.1886 15.9565 13.3778C16.4133 13.567 16.8037 13.8874 17.0784 14.2986C17.3532 14.7097 17.4998 15.193 17.4998 15.6875C17.4998 16.3505 17.2364 16.9864 16.7675 17.4553C16.2987 17.9241 15.6628 18.1875 14.9998 18.1875ZM22.2748 22.2125C22.1458 22.9752 21.7224 23.6567 21.0959 24.1103C20.4693 24.5639 19.6896 24.7532 18.9248 24.6375C18.3221 24.5526 17.7598 24.2856 17.313 23.8723C16.8662 23.4591 16.5563 22.9192 16.4248 22.325L16.2498 21.575L16.5123 20.425C17.6654 20.0494 18.6427 19.2676 19.2623 18.225L19.8873 18.6H19.9998L20.8248 19.0875C21.3608 19.3936 21.7883 19.8588 22.0481 20.4187C22.3079 20.9787 22.3871 21.6055 22.2748 22.2125ZM24.6998 14.7125C24.4539 15.2093 24.0747 15.628 23.6045 15.9216C23.1342 16.2152 22.5916 16.3722 22.0373 16.375H21.7373L20.9373 16.25L19.9998 15.7375C19.998 14.5221 19.5537 13.349 18.7498 12.4375L19.2873 11.975L20.0748 11.25C20.5883 10.7934 21.2447 10.5296 21.9313 10.5036C22.618 10.4777 23.2924 10.6913 23.8389 11.1079C24.3854 11.5244 24.7702 12.118 24.9272 12.787C25.0843 13.456 25.0039 14.1588 24.6998 14.775V14.7125Z" fill="white"/>
</svg>
