<svg width="50" height="50" viewBox="0 0 50 50" fill="none" xmlns="http://www.w3.org/2000/svg">
<rect width="50" height="50" fill="#003057"/>
<path fill-rule="evenodd" clip-rule="evenodd" d="M23.429 20.969H27.143V22.819C27.678 21.755 29.05 20.799 31.111 20.799C35.062 20.799 36 22.917 36 26.803V34H32V27.688C32 25.475 31.465 24.227 30.103 24.227C28.214 24.227 27.429 25.572 27.429 27.687V34H23.429V20.969ZM16.57 33.83H20.57V20.799H16.57V33.83ZM21.143 16.55C21.1431 16.8853 21.0767 17.2172 20.9474 17.5266C20.8181 17.8359 20.6287 18.1165 20.39 18.352C19.9064 18.8326 19.2518 19.1017 18.57 19.1C17.8894 19.0995 17.2363 18.8312 16.752 18.353C16.5142 18.1167 16.3254 17.8358 16.1963 17.5264C16.0673 17.217 16.0006 16.8852 16 16.55C16 15.873 16.27 15.225 16.753 14.747C17.2369 14.2682 17.8902 13.9997 18.571 14C19.253 14 19.907 14.269 20.39 14.747C20.872 15.225 21.143 15.873 21.143 16.55Z" fill="white"/>
</svg>
