<svg width="135" height="42" viewBox="0 0 135 42" fill="none" xmlns="http://www.w3.org/2000/svg">
<path d="M79.8273 35.7908C78.9858 36.8847 78.0322 37.7823 76.9102 38.6238C74.9467 40.0543 72.1699 41.4567 68.3552 41.4567C60.5295 41.4567 54.3867 35.2018 54.3867 27.2358C54.3867 19.2698 60.5295 13.0149 68.3552 13.0149C72.1418 13.0149 74.9467 14.3893 76.798 15.7357C77.8638 16.521 78.8175 17.4467 79.5468 18.4003L75.648 22.1028C75.1431 21.4296 74.526 20.7845 73.7967 20.2796C72.5065 19.382 70.7674 18.4003 68.3832 18.4003C63.6429 18.4003 59.9965 22.0467 59.9965 27.2358C59.9965 32.4249 63.6149 36.0713 68.3832 36.0713C70.7955 36.0713 72.6187 35.1737 73.9089 34.0798C74.6382 33.5188 75.3114 32.8176 75.9285 32.0883L79.8273 35.7908Z" fill="white"/>
<path d="M84.2598 13.8562H89.8415V29.6479C89.8415 33.6308 92.366 36.0992 95.9843 36.0992C100.164 36.0992 103.249 33.0138 103.249 28.554V13.8562H108.831V40.8395H103.249V36.9126C102.632 37.7541 101.959 38.4834 101.117 39.1565C99.7148 40.2785 97.7234 41.4005 94.8623 41.4005C88.7196 41.4005 84.2598 36.9687 84.2598 29.6479V13.8562Z" fill="white"/>
<path d="M117.132 32.6209C117.722 33.3502 118.339 33.9393 119.096 34.4441C120.414 35.3417 122.097 36.2112 124.341 36.2112C127.567 36.2112 129.222 34.6124 129.222 32.8734C129.222 28.4416 114.552 30.7136 114.552 21.233C114.552 17.0817 118.339 13.4634 124.622 13.4634C127.903 13.4634 130.372 14.417 131.999 15.2866C132.98 15.7915 133.092 15.9317 133.653 16.3524L130.68 20.644C130.231 20.2513 129.699 19.8586 129.081 19.522C127.988 18.9049 126.501 18.4 124.65 18.4C121.705 18.4 120.33 19.7744 120.33 21.1769C120.33 25.6087 135 23.3928 135 32.8173C135 37.2491 131.017 41.1198 124.341 41.1198C120.667 41.1198 118.002 39.9137 116.179 38.6235C115.029 37.8661 114.608 37.4173 113.767 36.5478L117.132 32.6209Z" fill="white"/>
<path d="M28.6942 35.2298L23.2246 35.2578V13.9685H44.6261V19.2137H28.6942V35.2298Z" fill="white"/>
<path d="M44.4859 19.2139H50.1238V40.7837H28.582V35.2299H44.5139L44.4859 19.2139Z" fill="white"/>
<path d="M15.3429 5.46958C17.3344 5.46958 18.26 6.11471 19.0734 6.5074C19.5783 5.63788 21.4576 1.93539 21.4576 1.93539C19.8307 0.897573 18.4002 0 14.6697 0C9.56476 0 5.30129 3.39395 5.30129 10.6867V13.8282H1.26221H0V19.0734H1.26221H5.32934V40.7835H11.0514V19.0734H17.9514V13.8563H11.0233V11.3599C11.0233 7.46107 12.3977 5.46958 15.3429 5.46958Z" fill="white"/>
</svg>
