<svg width="29" height="29" viewBox="0 0 29 29" fill="none" xmlns="http://www.w3.org/2000/svg">
<path d="M22.9582 2.41669H6.0415C5.08009 2.41669 4.15806 2.79861 3.47824 3.47843C2.79842 4.15824 2.4165 5.08028 2.4165 6.04169V18.125C2.4165 19.0864 2.79842 20.0085 3.47824 20.6883C4.15806 21.3681 5.08009 21.75 6.0415 21.75H9.6665V24.1667H6.0415C5.72103 24.1667 5.41369 24.294 5.18708 24.5206C4.96048 24.7472 4.83317 25.0546 4.83317 25.375C4.83317 25.6955 4.96048 26.0028 5.18708 26.2294C5.41369 26.456 5.72103 26.5834 6.0415 26.5834H22.9582C23.2786 26.5834 23.586 26.456 23.8126 26.2294C24.0392 26.0028 24.1665 25.6955 24.1665 25.375C24.1665 25.0546 24.0392 24.7472 23.8126 24.5206C23.586 24.294 23.2786 24.1667 22.9582 24.1667H19.3332V21.75H22.9582C23.9196 21.75 24.8416 21.3681 25.5214 20.6883C26.2013 20.0085 26.5832 19.0864 26.5832 18.125V6.04169C26.5832 5.08028 26.2013 4.15824 25.5214 3.47843C24.8416 2.79861 23.9196 2.41669 22.9582 2.41669ZM16.9165 24.1667H12.0832V21.75H16.9165V24.1667ZM24.1665 18.125C24.1665 18.4455 24.0392 18.7528 23.8126 18.9794C23.586 19.206 23.2786 19.3334 22.9582 19.3334H6.0415C5.72103 19.3334 5.41369 19.206 5.18708 18.9794C4.96048 18.7528 4.83317 18.4455 4.83317 18.125V16.9167H24.1665V18.125ZM24.1665 14.5H4.83317V6.04169C4.83317 5.72122 4.96048 5.41387 5.18708 5.18727C5.41369 4.96066 5.72103 4.83335 6.0415 4.83335H22.9582C23.2786 4.83335 23.586 4.96066 23.8126 5.18727C24.0392 5.41387 24.1665 5.72122 24.1665 6.04169V14.5Z" fill="white"/>
</svg>
