<svg width="30" height="30" viewBox="0 0 30 30" fill="none" xmlns="http://www.w3.org/2000/svg">
<path d="M8.75 12.5C8.50277 12.5 8.2611 12.5733 8.05554 12.7107C7.84998 12.848 7.68976 13.0432 7.59515 13.2716C7.50054 13.5001 7.47579 13.7514 7.52402 13.9939C7.57225 14.2363 7.6913 14.4591 7.86612 14.6339C8.04093 14.8087 8.26366 14.9278 8.50614 14.976C8.74861 15.0242 8.99995 14.9995 9.22835 14.9049C9.45676 14.8102 9.65199 14.65 9.78934 14.4445C9.92669 14.2389 10 13.9972 10 13.75C10 13.4185 9.8683 13.1005 9.63388 12.8661C9.39946 12.6317 9.08152 12.5 8.75 12.5ZM23.75 7.5H22.5V3.75C22.5 3.41848 22.3683 3.10054 22.1339 2.86612C21.8995 2.6317 21.5815 2.5 21.25 2.5H8.75C8.41848 2.5 8.10054 2.6317 7.86612 2.86612C7.6317 3.10054 7.5 3.41848 7.5 3.75V7.5H6.25C5.25544 7.5 4.30161 7.89509 3.59835 8.59835C2.89509 9.30161 2.5 10.2554 2.5 11.25V18.75C2.5 19.7446 2.89509 20.6984 3.59835 21.4017C4.30161 22.1049 5.25544 22.5 6.25 22.5H7.5V26.25C7.5 26.5815 7.6317 26.8995 7.86612 27.1339C8.10054 27.3683 8.41848 27.5 8.75 27.5H21.25C21.5815 27.5 21.8995 27.3683 22.1339 27.1339C22.3683 26.8995 22.5 26.5815 22.5 26.25V22.5H23.75C24.7446 22.5 25.6984 22.1049 26.4017 21.4017C27.1049 20.6984 27.5 19.7446 27.5 18.75V11.25C27.5 10.2554 27.1049 9.30161 26.4017 8.59835C25.6984 7.89509 24.7446 7.5 23.75 7.5ZM10 5H20V7.5H10V5ZM20 25H10V20H20V25ZM25 18.75C25 19.0815 24.8683 19.3995 24.6339 19.6339C24.3995 19.8683 24.0815 20 23.75 20H22.5V18.75C22.5 18.4185 22.3683 18.1005 22.1339 17.8661C21.8995 17.6317 21.5815 17.5 21.25 17.5H8.75C8.41848 17.5 8.10054 17.6317 7.86612 17.8661C7.6317 18.1005 7.5 18.4185 7.5 18.75V20H6.25C5.91848 20 5.60054 19.8683 5.36612 19.6339C5.1317 19.3995 5 19.0815 5 18.75V11.25C5 10.9185 5.1317 10.6005 5.36612 10.3661C5.60054 10.1317 5.91848 10 6.25 10H23.75C24.0815 10 24.3995 10.1317 24.6339 10.3661C24.8683 10.6005 25 10.9185 25 11.25V18.75Z" fill="white"/>
</svg>
