<svg width="30" height="30" viewBox="0 0 30 30" fill="none" xmlns="http://www.w3.org/2000/svg">
<path d="M27.1374 19.475L21.4874 13.8375C21.6057 13.2617 21.6643 12.6753 21.6624 12.0875C21.662 10.4758 21.2553 8.89022 20.4799 7.47733C19.7045 6.06444 18.5854 4.86982 17.2261 4.0039C15.8668 3.13798 14.3111 2.62871 12.7029 2.52315C11.0947 2.41759 9.48577 2.71916 8.02494 3.39998C7.83986 3.48452 7.67822 3.61297 7.55405 3.77417C7.42989 3.93537 7.34695 4.12445 7.31244 4.32498C7.27807 4.52296 7.29193 4.72631 7.35286 4.9178C7.41379 5.10928 7.51998 5.28326 7.66244 5.42498L13.0999 10.85L10.8499 13.1L5.42494 7.66248C5.28203 7.52223 5.10751 7.41837 4.91608 7.35964C4.72466 7.3009 4.52192 7.28902 4.32494 7.32498C4.12567 7.35822 3.93742 7.43927 3.77632 7.56118C3.61523 7.68309 3.48608 7.84223 3.39994 8.02498C2.71685 9.49061 2.41554 11.1052 2.52406 12.7186C2.63257 14.3319 3.14737 15.8916 4.02058 17.2526C4.89379 18.6135 6.09703 19.7315 7.51837 20.5026C8.93971 21.2736 10.533 21.6726 12.1499 21.6625C12.7377 21.6644 13.3242 21.6057 13.8999 21.4875L19.5374 27.1375C19.6536 27.2546 19.7919 27.3476 19.9442 27.4111C20.0965 27.4746 20.2599 27.5072 20.4249 27.5072C20.59 27.5072 20.7533 27.4746 20.9057 27.4111C21.058 27.3476 21.1962 27.2546 21.3124 27.1375C21.4296 27.0213 21.5226 26.883 21.5861 26.7307C21.6495 26.5784 21.6822 26.415 21.6822 26.25C21.6822 26.085 21.6495 25.9216 21.5861 25.7693C21.5226 25.6169 21.4296 25.4787 21.3124 25.3625L15.1874 19.2375C15.0344 19.0854 14.8446 18.9756 14.6365 18.9186C14.4284 18.8617 14.2091 18.8596 13.9999 18.9125C13.3964 19.0741 12.7747 19.1581 12.1499 19.1625C11.215 19.1707 10.2877 18.9939 9.42137 18.6422C8.55506 18.2905 7.76691 17.7709 7.1023 17.1132C6.4377 16.4556 5.90978 15.673 5.54896 14.8104C5.18814 13.9479 5.00155 13.0224 4.99994 12.0875C4.99832 11.6687 5.03177 11.2506 5.09994 10.8375L9.99994 15.75C10.1161 15.8671 10.2544 15.9601 10.4067 16.0236C10.559 16.0871 10.7224 16.1197 10.8874 16.1197C11.0525 16.1197 11.2158 16.0871 11.3682 16.0236C11.5205 15.9601 11.6587 15.8671 11.7749 15.75L15.7499 11.7375C15.9752 11.5044 16.1012 11.1929 16.1012 10.8687C16.1012 10.5446 15.9752 10.2331 15.7499 9.99998L10.8874 5.09998C11.3007 5.03249 11.7187 4.99905 12.1374 4.99998C14.015 5.00329 15.8145 5.75147 17.141 7.08027C18.4674 8.40908 19.2124 10.2099 19.2124 12.0875C19.2081 12.7123 19.1241 13.3339 18.9624 13.9375C18.9095 14.1466 18.9117 14.3659 18.9686 14.574C19.0256 14.7821 19.1354 14.9719 19.2874 15.125L25.4124 21.25C25.6478 21.4854 25.9671 21.6176 26.2999 21.6176C26.6328 21.6176 26.9521 21.4854 27.1874 21.25C27.4228 21.0146 27.5551 20.6954 27.5551 20.3625C27.5551 20.0296 27.4228 19.7104 27.1874 19.475H27.1374Z" fill="white"/>
</svg>
