<svg width="351" height="1393" viewBox="0 0 351 1393" fill="none" xmlns="http://www.w3.org/2000/svg">
<rect x="0.5" y="174.521" width="173.854" height="173.854" stroke="#EFF2F2"/>
<rect x="0.5" y="870.604" width="173.854" height="173.854" stroke="#EFF2F2"/>
<rect x="0.5" y="522.563" width="173.854" height="173.854" stroke="#EFF2F2"/>
<rect x="0.5" y="1218.65" width="173.854" height="173.854" stroke="#EFF2F2"/>
<rect x="0.5" y="0.5" width="173.854" height="173.854" stroke="#EFF2F2"/>
<rect x="0.5" y="696.584" width="173.854" height="173.854" stroke="#EFF2F2"/>
<rect x="0.5" y="348.542" width="173.854" height="173.854" stroke="#EFF2F2"/>
<rect x="0.5" y="1044.63" width="173.854" height="173.854" stroke="#EFF2F2"/>
<rect x="174.521" y="174.521" width="175.519" height="173.854" stroke="#EFF2F2"/>
<rect x="174.521" y="870.604" width="175.519" height="173.854" stroke="#EFF2F2"/>
<rect x="174.521" y="522.563" width="175.519" height="173.854" stroke="#EFF2F2"/>
<rect x="174.521" y="1218.65" width="175.519" height="173.854" stroke="#EFF2F2"/>
<rect x="174.521" y="0.5" width="175.519" height="173.854" stroke="#EFF2F2"/>
<rect x="174.521" y="696.584" width="175.519" height="173.854" stroke="#EFF2F2"/>
<rect x="174.521" y="348.542" width="175.519" height="173.854" stroke="#EFF2F2"/>
<rect x="174.521" y="1044.63" width="175.519" height="173.854" stroke="#EFF2F2"/>
</svg>
