<svg width="25" height="22" viewBox="0 0 25 22" fill="none" xmlns="http://www.w3.org/2000/svg">
<path d="M8.75 17.1111H13.75C15.4076 17.1111 16.9973 16.4673 18.1694 15.3212C19.3415 14.1752 20 12.6208 20 11V9.77778H21.25C22.2446 9.77778 23.1984 9.39147 23.9017 8.70384C24.6049 8.0162 25 7.08357 25 6.11111C25 5.13865 24.6049 4.20602 23.9017 3.51839C23.1984 2.83075 22.2446 2.44444 21.25 2.44444H20V1.22222C20 0.898069 19.8683 0.587192 19.6339 0.357981C19.3995 0.128769 19.0815 0 18.75 0H3.75C3.41848 0 3.10054 0.128769 2.86612 0.357981C2.6317 0.587192 2.5 0.898069 2.5 1.22222V11C2.5 12.6208 3.15848 14.1752 4.33058 15.3212C5.50269 16.4673 7.0924 17.1111 8.75 17.1111ZM20 4.88889H21.25C21.5815 4.88889 21.8995 5.01766 22.1339 5.24687C22.3683 5.47608 22.5 5.78696 22.5 6.11111C22.5 6.43526 22.3683 6.74614 22.1339 6.97535C21.8995 7.20456 21.5815 7.33333 21.25 7.33333H20V4.88889ZM5 2.44444H17.5V11C17.5 11.9725 17.1049 12.9051 16.4017 13.5927C15.6984 14.2804 14.7446 14.6667 13.75 14.6667H8.75C7.75544 14.6667 6.80161 14.2804 6.09835 13.5927C5.39509 12.9051 5 11.9725 5 11V2.44444ZM23.75 19.5556H1.25C0.918479 19.5556 0.600537 19.6843 0.366116 19.9135C0.131696 20.1427 0 20.4536 0 20.7778C0 21.1019 0.131696 21.4128 0.366116 21.642C0.600537 21.8712 0.918479 22 1.25 22H23.75C24.0815 22 24.3995 21.8712 24.6339 21.642C24.8683 21.4128 25 21.1019 25 20.7778C25 20.4536 24.8683 20.1427 24.6339 19.9135C24.3995 19.6843 24.0815 19.5556 23.75 19.5556Z" fill="white"/>
</svg>
