<svg width="50" height="50" viewBox="0 0 50 50" fill="none" xmlns="http://www.w3.org/2000/svg">
<rect width="50" height="50" fill="#003057"/>
<path d="M35.1984 13.5186C34.8878 13.2593 34.513 13.0893 34.1138 13.0268C33.7145 12.9643 33.3059 13.0116 32.9313 13.1636L13.3808 21.0854C12.9627 21.258 12.6068 21.5542 12.3603 21.9346C12.1138 22.315 11.9885 22.7616 12.0008 23.2152C12.0132 23.6687 12.1627 24.1078 12.4295 24.4741C12.6964 24.8404 13.0679 25.1165 13.4948 25.266L17.4494 26.6463L19.6536 33.9618C19.6836 34.0595 19.7271 34.1526 19.7828 34.2382C19.7912 34.2513 19.8032 34.2611 19.8122 34.2738C19.8765 34.364 19.9543 34.4437 20.0428 34.5101C20.068 34.5293 20.0921 34.5474 20.119 34.5645C20.2226 34.6334 20.3372 34.6838 20.458 34.7135L20.4709 34.7146L20.4782 34.7177C20.5508 34.7325 20.6247 34.7401 20.6987 34.7402C20.7059 34.7402 20.7122 34.7368 20.7193 34.7366C20.831 34.7347 20.9418 34.7154 21.0477 34.6794C21.0724 34.6709 21.0935 34.6568 21.1174 34.6467C21.1963 34.6138 21.2711 34.5717 21.3402 34.5213C21.3956 34.4745 21.4509 34.4277 21.5063 34.3809L24.4542 31.1145L28.851 34.5328C29.238 34.8352 29.7145 34.9996 30.205 35C30.7191 34.9993 31.2172 34.8213 31.616 34.4959C32.0149 34.1704 32.29 33.7172 32.3955 33.2123L35.9548 15.6763C36.0355 15.2816 36.0077 14.8723 35.8745 14.4923C35.7413 14.1122 35.5076 13.7757 35.1984 13.5186ZM21.1313 26.9949C20.9801 27.1461 20.8767 27.3388 20.8341 27.5487L20.4964 29.1954L19.6411 26.3563L24.076 24.0386L21.1313 26.9949ZM30.188 32.8017L24.9922 28.7622C24.7748 28.5937 24.5021 28.5135 24.2285 28.5376C23.9548 28.5618 23.7003 28.6886 23.5156 28.8927L22.5715 29.9385L22.9052 28.311L30.6323 20.5561C30.8167 20.3712 30.9291 20.1262 30.949 19.8654C30.969 19.6045 30.8952 19.3452 30.741 19.1342C30.5869 18.9233 30.3625 18.7747 30.1086 18.7154C29.8548 18.6562 29.5881 18.6901 29.357 18.8112L18.2673 24.6059L14.2043 23.1137L33.8177 15.2389L30.188 32.8017Z" fill="white"/>
</svg>
