<svg width="32" height="32" viewBox="0 0 32 32" fill="none" xmlns="http://www.w3.org/2000/svg">
<path d="M16.0002 20C15.2091 20 14.4357 20.2346 13.7779 20.6742C13.1201 21.1137 12.6074 21.7384 12.3047 22.4693C12.0019 23.2002 11.9227 24.0045 12.0771 24.7804C12.2314 25.5563 12.6124 26.269 13.1718 26.8285C13.7312 27.3879 14.4439 27.7688 15.2199 27.9232C15.9958 28.0775 16.8 27.9983 17.5309 27.6955C18.2619 27.3928 18.8866 26.8801 19.3261 26.2223C19.7656 25.5645 20.0002 24.7912 20.0002 24C20.0002 22.9392 19.5788 21.9217 18.8286 21.1716C18.0785 20.4215 17.0611 20 16.0002 20ZM16.0002 25.3334C15.7365 25.3334 15.4787 25.2552 15.2595 25.1087C15.0402 24.9621 14.8693 24.7539 14.7684 24.5103C14.6675 24.2666 14.6411 23.9985 14.6925 23.7399C14.7439 23.4813 14.8709 23.2437 15.0574 23.0572C15.2439 22.8707 15.4815 22.7438 15.7401 22.6923C15.9987 22.6409 16.2668 22.6673 16.5105 22.7682C16.7541 22.8691 16.9623 23.04 17.1088 23.2593C17.2553 23.4785 17.3335 23.7363 17.3335 24C17.3335 24.3537 17.1931 24.6928 16.943 24.9428C16.693 25.1929 16.3538 25.3334 16.0002 25.3334ZM16.0002 14.6667C13.5265 14.6752 11.1556 15.6571 9.40021 17.4C9.15188 17.6498 9.01249 17.9878 9.01249 18.34C9.01249 18.6923 9.15188 19.0302 9.40021 19.28C9.65003 19.5284 9.98797 19.6678 10.3402 19.6678C10.6925 19.6678 11.0304 19.5284 11.2802 19.28C11.8995 18.6592 12.6352 18.1666 13.4451 17.8305C14.255 17.4944 15.1233 17.3214 16.0002 17.3214C16.8771 17.3214 17.7454 17.4944 18.5553 17.8305C19.3653 18.1666 20.1009 18.6592 20.7202 19.28C20.9664 19.5312 21.3019 19.675 21.6535 19.68C21.9241 19.6956 22.1929 19.6284 22.4243 19.4873C22.6556 19.3462 22.8385 19.138 22.9486 18.8904C23.0586 18.6428 23.0906 18.3675 23.0403 18.1013C22.99 17.835 22.8597 17.5904 22.6669 17.4C21.7896 16.529 20.7493 15.8393 19.6054 15.3703C18.4615 14.9013 17.2365 14.6622 16.0002 14.6667ZM16.0002 9.33336C12.1122 9.3437 8.38498 10.8863 5.62688 13.6267C5.50256 13.751 5.40395 13.8986 5.33667 14.061C5.26939 14.2235 5.23476 14.3976 5.23476 14.5734C5.23476 14.9284 5.37581 15.269 5.62688 15.52C5.87795 15.7711 6.21848 15.9122 6.57355 15.9122C6.92862 15.9122 7.26914 15.7711 7.52021 15.52C9.77022 13.2728 12.8202 12.0106 16.0002 12.0106C19.1802 12.0106 22.2302 13.2728 24.4802 15.52C24.6048 15.6436 24.7526 15.7414 24.915 15.8077C25.0775 15.8741 25.2514 15.9077 25.4269 15.9067C25.6024 15.9077 25.7763 15.8741 25.9388 15.8077C26.1012 15.7414 26.249 15.6436 26.3735 15.52C26.4985 15.3961 26.5977 15.2486 26.6654 15.0861C26.7331 14.9237 26.7679 14.7494 26.7679 14.5734C26.7679 14.3973 26.7331 14.2231 26.6654 14.0606C26.5977 13.8981 26.4985 13.7506 26.3735 13.6267C23.6154 10.8863 19.8882 9.3437 16.0002 9.33336ZM30.1469 9.85336C28.2895 7.99483 26.0842 6.5205 23.6568 5.5146C21.2295 4.50871 18.6277 3.99097 16.0002 3.99097C13.3727 3.99097 10.7709 4.50871 8.34359 5.5146C5.91624 6.5205 3.71089 7.99483 1.85355 9.85336C1.60248 10.1044 1.46143 10.445 1.46143 10.8C1.46143 11.1551 1.60248 11.4956 1.85355 11.7467C2.10462 11.9978 2.44515 12.1388 2.80021 12.1388C3.15528 12.1388 3.49581 11.9978 3.74688 11.7467C6.99725 8.49801 11.4047 6.67306 16.0002 6.67306C20.5957 6.67306 25.0032 8.49801 28.2535 11.7467C28.3775 11.8717 28.525 11.9709 28.6874 12.0386C28.8499 12.1062 29.0242 12.1411 29.2002 12.1411C29.3762 12.1411 29.5505 12.1062 29.713 12.0386C29.8755 11.9709 30.0229 11.8717 30.1469 11.7467C30.2719 11.6227 30.371 11.4753 30.4387 11.3128C30.5064 11.1503 30.5413 10.976 30.5413 10.8C30.5413 10.624 30.5064 10.4497 30.4387 10.2873C30.371 10.1248 30.2719 9.97731 30.1469 9.85336Z" fill="white"/>
</svg>
