<svg width="60" height="60" fill="none" xmlns="http://www.w3.org/2000/svg"><path fill="#00FF38" d="M0 0h60v60H0z"/><path fill-rule="evenodd" clip-rule="evenodd" d="M14.565 15.037a4.408 4.408 0 00-1.378.457c-.333.182-.788.507-.788.563 0 .02.486.371 1.08.782l4.424 3.066a17685.14 17685.14 0 0011.169 7.739l1.034.712 1.269-.884c.698-.486 2.24-1.557 3.427-2.38a40503.223 40503.223 0 008.704-6.037l3.346-2.321c.507-.352.926-.655.932-.674.02-.065-.539-.452-.93-.644a5.519 5.519 0 00-.778-.3l-.388-.11-15.396-.005c-8.7-.004-15.54.012-15.727.036zm-3.546 3.788c-.017.194-.024 5.393-.015 11.553.015 10.399.022 11.223.099 11.505.351 1.281 1.254 2.33 2.425 2.816.776.322-.504.3 16.605.298 16.784 0 15.693.016 16.404-.246a4.218 4.218 0 001.934-1.514c.223-.325.51-.962.618-1.367.087-.326.09-.78.09-11.84 0-6.324-.014-11.514-.03-11.53-.018-.018-.684.42-1.48.973l-3.557 2.467-9.189 6.372-3.479 2.412-1.345.932-4.57-3.164-9.469-6.557a2787.468 2787.468 0 00-4.953-3.427c-.04-.025-.066.068-.088.317z" fill="#000"/></svg>