<svg width="1520" height="561" viewBox="0 0 1520 561" fill="none" xmlns="http://www.w3.org/2000/svg">
<path d="M578.114 304.745L566.836 308.553C565.543 308.99 565.005 309.532 565.223 310.179L590.613 385.368L577.879 389.668C575.13 390.596 573.161 390.765 571.972 390.176C570.863 389.56 569.831 387.837 568.875 385.007L543.936 311.152C542.98 308.323 542.757 306.327 543.265 305.164C543.854 303.975 545.523 302.916 548.272 301.988L574.224 293.224L578.114 304.745ZM579.075 291.586L591.809 287.286C594.557 286.358 596.486 286.202 597.595 286.818C598.785 287.407 599.857 289.117 600.813 291.946L625.711 365.68C626.667 368.51 626.863 370.56 626.302 371.83C625.713 373.02 624.084 374.065 621.416 374.966L608.683 379.266L594.964 338.64L581.745 343.103L577.855 331.583L591.074 327.119L579.075 291.586Z" fill="#E8E8E8"/>
<path d="M674.499 327.588L691.477 321.855C692.366 321.555 693.002 321.971 693.384 323.103L700.592 344.447C701.356 346.71 700.606 348.224 698.343 348.989L668.995 358.899L665.104 347.378L676.383 343.57C677.676 343.133 678.282 342.793 678.2 342.551C678.172 342.2 678.089 341.822 677.953 341.418L673.858 329.291C673.639 328.644 673.597 328.253 673.732 328.118C673.839 327.901 674.095 327.725 674.499 327.588ZM664.75 360.332L652.017 364.632C649.268 365.56 647.299 365.73 646.109 365.141C645 364.525 643.968 362.802 643.012 359.972L618.073 286.117C617.118 283.287 616.894 281.291 617.402 280.129C617.991 278.939 619.66 277.88 622.409 276.952L635.143 272.652L664.75 360.332Z" fill="#E8E8E8"/>
<path d="M666.533 262.053L704.492 249.236C705.785 248.799 706.986 248.889 708.095 249.505C709.204 250.121 710.004 251.157 710.495 252.612L738.465 335.442L725.731 339.741C722.983 340.67 721.013 340.839 719.824 340.25C718.715 339.634 717.683 337.911 716.727 335.081L694.573 269.473L675.169 276.025C672.824 276.817 670.997 275.272 669.687 271.391L666.533 262.053ZM713.708 246.123L733.112 239.571C735.457 238.78 737.284 240.324 738.594 244.205L741.748 253.543L718.827 261.283L713.708 246.123Z" fill="#E8E8E8"/>
<path d="M766.3 228.5L778.053 263.305C778.49 264.598 779.087 265.432 779.844 265.807C780.682 266.155 782.152 265.974 784.254 265.264L793.228 262.234L797.118 273.754L781.717 278.955C777.108 280.511 773.225 281.282 770.068 281.267C766.992 281.225 764.357 280.224 762.163 278.262C760.023 276.193 758.274 273.812 756.914 271.118C755.635 268.398 754.19 264.653 752.579 259.883C750.941 255.032 749.861 251.299 749.338 248.683C748.896 246.04 748.953 243.409 749.509 240.789C750.147 238.142 751.69 235.91 754.138 234.092C756.668 232.248 760.236 230.547 764.845 228.991L766.3 228.5ZM798.079 260.596L799.534 260.104C803.01 258.93 805.706 258.11 807.62 257.644C809.588 257.07 811.57 256.805 813.567 256.852C815.537 256.817 816.982 257.095 817.901 257.685C818.902 258.247 820.027 259.444 821.275 261.274C822.577 262.996 823.651 264.975 824.496 267.212C825.341 269.448 826.474 272.668 827.893 276.872C829.313 281.077 830.405 284.445 831.171 286.979C831.909 289.432 832.337 291.899 832.455 294.381C832.626 296.755 832.498 298.51 832.07 299.645C831.724 300.753 830.784 301.971 829.251 303.299C827.691 304.546 825.968 305.579 824.082 306.395C822.25 307.104 819.596 308.046 816.119 309.219L814.664 309.711L798.079 260.596ZM766.603 295.812L781.884 290.653C783.016 290.27 783.757 290.2 784.109 290.441C784.461 290.683 784.814 291.329 785.169 292.38L788.363 301.839C788.8 303.133 789.276 304.008 789.79 304.465C790.358 304.814 791.37 304.742 792.825 304.251L805.923 299.828L809.813 311.349L791.986 317.369C786.084 319.362 781.256 319.866 777.501 318.882C773.827 317.871 771.144 314.86 769.451 309.847L765.765 298.932C765.192 297.235 765.471 296.195 766.603 295.812ZM771.11 226.74L786.512 221.539C792.414 219.546 797.201 219.056 800.875 220.067C804.63 221.05 807.354 224.049 809.046 229.061L812.732 239.976C813.305 241.674 813.026 242.714 811.894 243.096L796.614 248.256C795.482 248.638 794.74 248.708 794.388 248.467C794.037 248.225 793.683 247.579 793.328 246.528L790.134 237.069C789.697 235.775 789.195 234.954 788.627 234.605C788.112 234.149 787.128 234.166 785.672 234.657L775 238.261L771.11 226.74Z" fill="#E8E8E8"/>
<path d="M870.937 290.709L858.204 295.009C855.455 295.937 853.485 296.106 852.296 295.517C851.187 294.901 850.155 293.178 849.199 290.348L824.26 216.493C823.305 213.664 823.081 211.668 823.589 210.505C824.178 209.316 825.847 208.257 828.596 207.328L841.33 203.029L870.937 290.709ZM902.677 261.077L906.158 271.385C907.086 274.134 907.256 276.103 906.667 277.293C906.051 278.401 904.327 279.433 901.498 280.389L875.788 289.071L870.055 272.092L902.677 261.077ZM883.32 227.758L885.777 235.035C886.76 237.945 887.105 239.9 886.812 240.9C886.492 241.819 884.998 242.728 882.33 243.629L862.684 250.263L857.974 236.317L883.32 227.758ZM877.59 190.784L881.071 201.092C881.999 203.841 882.169 205.811 881.58 207C880.963 208.109 879.24 209.141 876.411 210.097L851.914 218.369L846.18 201.391L877.59 190.784Z" fill="#E8E8E8"/>
<path d="M942.621 266.501L941.166 266.993C937.932 268.085 935.142 268.757 932.795 269.009C930.529 269.234 928.342 268.891 926.234 267.982C924.179 266.965 922.393 265.676 920.876 264.117C919.439 262.531 917.851 259.96 916.11 256.405C913.498 251.072 910.609 243.716 907.442 234.338C904.248 224.879 902.036 218.195 900.807 214.287C899.658 210.352 898.712 206.483 897.969 202.681C897.198 198.798 896.916 195.831 897.124 193.779C897.386 191.619 898.039 189.552 899.083 187.579C900.182 185.496 901.714 183.898 903.679 182.784C905.698 181.562 908.325 180.405 911.559 179.313L913.014 178.821L942.621 266.501ZM917.865 177.183L933.266 171.983C939.168 169.99 943.956 169.499 947.63 170.51C951.385 171.494 954.109 174.492 955.801 179.504L959.487 190.419C960.06 192.117 959.781 193.157 958.649 193.539L943.369 198.699C942.237 199.081 941.495 199.151 941.143 198.91C940.792 198.668 940.438 198.022 940.083 196.971L936.889 187.512C936.452 186.218 935.95 185.397 935.382 185.049C934.867 184.592 933.882 184.609 932.427 185.101L921.755 188.704L917.865 177.183ZM954.712 232.291L969.992 227.131C971.124 226.749 971.977 227.407 972.55 229.105L976.236 240.019C977.928 245.032 977.58 249.068 975.19 252.126C972.881 255.158 968.776 257.67 962.874 259.663L947.472 264.863L943.582 253.343L954.254 249.739C955.709 249.247 956.517 248.705 956.676 248.11C956.889 247.408 956.778 246.41 956.341 245.116L953.147 235.657C952.792 234.606 952.681 233.878 952.814 233.473C952.948 233.067 953.58 232.674 954.712 232.291Z" fill="#E8E8E8"/>
</svg>
