<svg width="42" height="29" viewBox="0 0 42 29" fill="none" xmlns="http://www.w3.org/2000/svg">
<path d="M1.12469 2.91772C0.617475 3.11709 0.367922 3.68989 0.567294 4.1971C0.766666 4.70431 1.33946 4.95386 1.84668 4.75449L1.12469 2.91772ZM33.9462 28.0542C34.3491 28.4213 34.9732 28.3923 35.3403 27.9895L41.3221 21.4251C41.6892 21.0222 41.6602 20.3981 41.2574 20.031C40.8545 19.664 40.2304 19.6929 39.8633 20.0958L34.5461 25.9308L28.7111 20.6136C28.3083 20.2465 27.6841 20.2755 27.3171 20.6784C26.95 21.0812 26.979 21.7053 27.3818 22.0724L33.9462 28.0542ZM1.84668 4.75449C13.1522 0.310581 20.8076 2.09847 25.7516 6.71532C30.7821 11.4129 33.2482 19.2537 33.6251 27.3706L35.5966 27.2791C35.2082 18.9138 32.6635 10.4695 27.0986 5.27288C21.4473 -0.00444861 12.9228 -1.71982 1.12469 2.91772L1.84668 4.75449Z" fill="#1F4977"/>
</svg>
