<svg width="36" height="36" viewBox="0 0 36 36" fill="none" xmlns="http://www.w3.org/2000/svg">
<path d="M17.5382 13.1401C16.6019 14.0237 15.7291 14.8471 14.7811 15.744C15.4139 16.2104 16.0114 16.6589 16.6184 17.094C17.0818 17.4264 17.5664 17.7299 18.0251 18.069C18.5239 18.4372 18.8061 18.9035 18.7991 19.5372C18.7803 21.5075 18.7662 23.4755 18.8014 25.4457C18.8179 26.3739 18.0228 26.9161 17.4064 26.9295C16.6395 26.9473 15.9973 26.2802 15.9903 25.4568C15.9809 23.9887 16.0044 22.5205 15.9691 21.0545C15.962 20.8068 15.7997 20.4788 15.5951 20.3293C14.2 19.3119 12.7933 18.3011 11.3489 17.3483C10.0503 16.4893 9.92565 15.0523 11.0219 14.0639C12.4781 12.7497 13.8942 11.393 15.2916 10.0208C16.0538 9.2733 17.6864 9.33355 18.3639 10.2841C19.2955 11.5894 20.3117 12.8389 21.3233 14.0907C21.4715 14.2736 21.7843 14.4209 22.029 14.4343C22.8288 14.4789 23.6334 14.441 24.4379 14.4566C25.1201 14.4677 25.5953 14.9162 25.6047 15.5254C25.6141 16.1122 25.0731 16.6633 24.4308 16.6723C23.2546 16.6879 22.0784 16.7147 20.9069 16.6522C20.5752 16.6343 20.1753 16.3889 19.9565 16.1323C19.2225 15.2799 18.5568 14.3763 17.8628 13.4927C17.7734 13.3789 17.6652 13.2807 17.5358 13.1424L17.5382 13.1401Z" fill="#E2E000"/>
<path d="M14.5835 24.5085C14.6235 27.3958 12.1558 29.9752 8.81059 29.9953C5.52657 30.0131 2.98828 27.4092 3.00004 24.4795C3.0118 21.4227 5.66066 18.9482 8.81294 18.966C12.0076 18.9839 14.6282 21.4204 14.5859 24.5085H14.5835ZM4.67263 24.5085C4.67498 26.6506 6.53342 28.4111 8.79177 28.4155C11.0431 28.42 12.925 26.6506 12.9156 24.513C12.9062 22.2371 11.116 20.5681 8.79647 20.5614C6.48872 20.5547 4.67734 22.2683 4.67499 24.5063L4.67263 24.5085Z" fill="#E2E000"/>
<path d="M19.9377 24.4885C19.8059 21.4137 22.5912 18.937 25.7106 18.9683C28.9381 18.9995 31.4858 21.3803 31.5 24.5019C31.5117 27.5386 28.8488 30.0288 25.6588 29.9997C22.403 29.9707 19.7895 27.3691 19.9377 24.4862V24.4885ZM21.5914 24.484C21.5162 26.5011 23.2711 28.3932 25.6659 28.4021C28.0136 28.4111 29.8415 26.6818 29.8227 24.4818C29.8015 22.2259 28.0724 20.5971 25.727 20.5614C23.4381 20.5279 21.5585 22.2572 21.5914 24.4818V24.484Z" fill="#E2E000"/>
<path d="M22.0878 8.07287C22.0737 9.24653 21.0786 10.1703 19.8859 10.1524C18.745 10.1346 17.7358 9.36925 17.7405 8.04386C17.7428 6.90813 18.7097 6.00223 19.8953 6C21.0904 6 22.0902 6.94384 22.0878 8.07287Z" fill="#E2E000"/>
</svg>
