<svg width="14" height="18" viewBox="0 0 14 18" fill="none" xmlns="http://www.w3.org/2000/svg">
<path fill-rule="evenodd" clip-rule="evenodd" d="M7 0C7.55228 0 8 0.447715 8 1V10.5858L11.2929 7.29289C11.6834 6.90237 12.3166 6.90237 12.7071 7.29289C13.0976 7.68342 13.0976 8.31658 12.7071 8.70711L7.70711 13.7071C7.31658 14.0976 6.68342 14.0976 6.29289 13.7071L1.29289 8.70711C0.902369 8.31658 0.902369 7.68342 1.29289 7.29289C1.68342 6.90237 2.31658 6.90237 2.70711 7.29289L6 10.5858V1C6 0.447715 6.44772 0 7 0Z" fill="black"/>
<path fill-rule="evenodd" clip-rule="evenodd" d="M0 17C0 16.4477 0.447715 16 1 16H13C13.5523 16 14 16.4477 14 17C14 17.5523 13.5523 18 13 18H1C0.447715 18 0 17.5523 0 17Z" fill="black"/>
</svg>
