<svg width="36" height="36" viewBox="0 0 36 36" fill="none" xmlns="http://www.w3.org/2000/svg">
<path fill-rule="evenodd" clip-rule="evenodd" d="M23.3825 17.9706C23.3825 17.1584 24.0409 16.5 24.8531 16.5H31.5294C32.3416 16.5 33 17.1584 33 17.9706C33 18.7827 32.3416 19.4411 31.5294 19.4411H24.8531C24.0409 19.4411 23.3825 18.7827 23.3825 17.9706Z" fill="#E2E000"/>
<path fill-rule="evenodd" clip-rule="evenodd" d="M3 17.9706C3 17.1584 3.65839 16.5 4.47056 16.5H19.8821C20.6942 16.5 21.3526 17.1584 21.3526 17.9706C21.3526 18.7827 20.6942 19.4411 19.8821 19.4411H4.47056C3.65839 19.4411 3 18.7827 3 17.9706Z" fill="#E2E000"/>
<path fill-rule="evenodd" clip-rule="evenodd" d="M3 26.8675C3 26.0554 3.65839 25.397 4.47056 25.397H31.5289C32.3411 25.397 32.9995 26.0554 32.9995 26.8675C32.9995 27.6797 32.3411 28.3381 31.5289 28.3381H4.47056C3.65839 28.3381 3 27.6797 3 26.8675Z" fill="#E2E000"/>
</svg>
