<svg width="56" height="64" viewBox="0 0 56 64" fill="none" xmlns="http://www.w3.org/2000/svg">
<path d="M53.684 3.29401C54.4438 2.23143 55.2035 1.15704 56 0.0354194C55.7794 0.0354194 55.6324 0.0118065 55.4731 0.0118065C49.579 0.0118065 43.6726 0.0118065 37.7786 0.0118065C37.4477 0.0118065 37.2516 0.106258 37.0678 0.377807C35.6586 2.3731 34.2372 4.3684 32.828 6.36369C31.2473 8.59512 29.6788 10.8265 28.1103 13.058C27.951 12.9281 27.7549 12.8218 27.6324 12.6566C24.7405 8.59512 21.8486 4.52188 18.9689 0.448646C18.7606 0.153484 18.5646 0 18.1847 0C12.2783 0.0118065 6.38424 0 0.490153 0C0.343107 0 0.196061 0.0118065 0 0.023613C0.122538 0.20071 0.196061 0.330582 0.281838 0.448646C3.87221 5.50182 7.46258 10.5668 11.053 15.62C12.891 18.2174 14.7414 20.8148 16.5917 23.4123C16.4691 23.5303 16.3711 23.6602 16.2363 23.7428C14.435 24.9235 12.8298 26.3048 11.4573 27.9223C8.89628 30.9448 7.22976 34.3687 6.54354 38.2412C6.05339 40.9803 6.10241 43.7194 6.66608 46.4231C7.14398 48.749 8.02626 50.9568 9.2639 53.0229C11.4206 56.6003 14.3737 59.3866 18.1357 61.3465C22.4858 63.6015 27.1545 64.4162 32.0683 63.8022C34.1392 63.5425 36.1365 63.0348 38.0481 62.232C41.1239 60.9451 43.8074 59.1033 46.0621 56.6711C47.7777 54.8293 49.1379 52.775 50.1059 50.4963C51.4661 47.2968 52.042 43.9673 51.7847 40.4962C51.5886 37.8752 50.9637 35.3722 49.8608 32.9873C48.709 30.4725 47.1037 28.2647 45.0696 26.3403C43.6726 25.0179 42.1287 23.8609 40.4131 22.94C40.2538 22.8574 39.4083 22.3733 39.972 22.5976C44.5427 16.1631 49.1011 9.72854 53.6718 3.29401H53.684Z" fill="#E2E000"/>
<path opacity="0.2" d="M33.0853 20.3662C31.6271 20.2481 30.1812 20.012 28.723 20.0356C24.5689 20.0946 20.6722 21.1218 17.1063 23.247C16.947 23.3414 16.7632 23.365 16.5794 23.4241C14.7291 20.8266 12.891 18.2292 11.0407 15.6318C7.46258 10.5786 3.87221 5.52543 0.281838 0.460453C0.196061 0.342388 0.122538 0.212517 0 0.0354194C0.196061 0.023613 0.343107 0 0.490153 0C6.38424 0 12.2783 0.0118065 18.1847 0C18.5768 0 18.7729 0.153484 18.9689 0.43684C21.8486 4.51008 24.7405 8.58331 27.6324 12.6447C27.7427 12.81 27.951 12.9163 28.1103 13.0462C28.1348 13.176 28.1103 13.3295 28.1838 13.424C28.9313 14.4984 29.691 15.5491 30.4385 16.6117C31.3208 17.8632 32.2031 19.1147 33.0976 20.3662H33.0853Z" fill="black"/>
<path opacity="0.4" d="M33.0845 20.3662C32.2022 19.1147 31.3199 17.8632 30.4254 16.6117C29.6779 15.5491 28.9182 14.4866 28.1707 13.424C28.0972 13.3295 28.1217 13.176 28.0972 13.0462C29.6657 10.8147 31.2464 8.58331 32.8149 6.35189C34.2241 4.35659 35.6455 2.3731 37.0547 0.366001C37.2385 0.106258 37.4346 0 37.7654 0C43.6595 0 49.5659 0 55.46 0C55.607 0 55.7541 0.0118065 55.9869 0.023613C55.1904 1.14523 54.4306 2.21962 53.6709 3.2822C49.1002 9.71673 44.5418 16.1513 39.9711 22.5858C39.4075 22.3497 38.8438 22.1253 38.2801 21.8892C36.6136 21.1808 34.8735 20.6613 33.0722 20.3544L33.0845 20.3662Z" fill="black"/>
<path opacity="0.2" d="M45.6336 42.0423C45.5601 50.8264 38.1955 58.0637 28.8826 58.0047C19.8883 57.9457 12.3399 50.8736 12.438 41.8062C12.536 33.1993 19.827 25.9029 29.3115 26.0209C38.22 26.139 45.5846 33.1284 45.6458 42.0423H45.6336ZM16.5675 42.0069C16.6165 48.6658 22.1307 53.8842 28.7723 54.0023C35.904 54.1204 41.3815 48.6067 41.4673 42.1958C41.5531 35.3835 35.8673 30.0824 29.1399 30.0233C22.1552 29.9643 16.6043 35.4189 16.5675 42.0069Z" fill="black"/>
</svg>
