<svg width="64" height="64" viewBox="0 0 64 64" fill="none" xmlns="http://www.w3.org/2000/svg">
<path d="M56.8349 33.8751C59.8877 24.1722 59.7732 13.4402 55.9954 3.82307C55.0541 1.47084 52.9426 0.221227 50.7294 0.0252091C47.8801 -0.219814 44.8528 1.32383 44.0133 4.54588C42.5505 10.4142 41.4057 16.9195 39.4468 22.6286C38.4038 25.8629 37.2208 28.7296 35.8598 31.2656C26.4598 13.8813 7.95238 32.8828 8.34669 39.1064C8.34669 39.1064 9.49148 40.7603 10.1402 40.0742C19.8709 29.8077 29.131 29.3055 26.2563 42.8062C20.6087 47.1309 13.4346 49.9119 4.23817 52.4234C2.26659 52.8889 0.638439 54.3223 0.142364 56.356C0.0660444 56.7113 0.00244499 57.0543 0.00244499 57.4096C-0.0738743 59.8353 1.64331 62.0528 4.20001 62.6286C6.04439 63.0329 7.91422 63.4617 9.8222 63.6699C15.8133 64.3682 21.7026 63.9885 27.6936 62.4081C28.902 62.1018 30.085 61.722 31.2298 61.3055C31.2298 61.428 31.3061 61.526 31.4587 61.575C43.1483 64.552 52.2685 53.1094 52.0395 44.2886C52.3448 43.8231 52.6373 43.3453 52.9045 42.8675C52.9045 42.8675 58.9464 44.1538 60.1675 52.9747C60.2057 53.2442 60.5491 53.3177 60.7018 53.1094C68.7662 41.2748 59.6842 34.5612 56.8095 33.8874L56.8349 33.8751Z" fill="#E2E000"/>
<path opacity="0.2" d="M31.3696 61.0606C31.2933 61.1218 31.2552 61.2076 31.2552 61.2934C30.1104 61.7099 28.9401 62.0774 27.719 62.396C21.728 63.9886 15.8387 64.3561 9.84759 63.6578C7.93961 63.4496 6.06978 63.0208 4.2254 62.6165C1.6687 62.0407 -0.0484837 59.8355 0.0278356 57.3975C19.1458 57.863 31.4841 51.5782 39.2433 42.8799C40.617 47.5843 39.7648 53.9672 31.3569 61.0606H31.3696Z" fill="black"/>
<path opacity="0.2" d="M44.649 35.2837C43.1607 37.9422 41.3799 40.5027 39.243 42.8794C38.2509 39.4123 36.0503 36.8518 34.7783 35.5777C38.8487 34.7079 42.1177 34.6956 44.649 35.2837Z" fill="black"/>
<path opacity="0.4" d="M52.0519 44.2765C52.2809 53.0973 43.1607 64.5399 31.4711 61.5629C31.3312 61.5261 31.2422 61.4159 31.2422 61.2934C31.2422 61.2076 31.2803 61.1219 31.3567 61.0606C39.7645 53.9672 40.6167 47.5721 39.243 42.8799C41.3799 40.5032 43.1607 37.9427 44.649 35.2842C49.7242 36.4603 51.9502 40.0621 52.0519 44.2765Z" fill="black"/>
<path opacity="0.4" d="M60.7275 53.097C60.5748 53.3176 60.2314 53.2318 60.1932 52.9623C58.9721 44.1415 52.9302 42.8551 52.9302 42.8551V42.8306C54.5583 40.0006 55.8685 36.9868 56.8479 33.875C59.7226 34.5366 68.8046 41.2502 60.7402 53.097H60.7275Z" fill="black"/>
<path opacity="0.2" d="M35.8724 31.2654C34.8929 33.1276 33.8372 34.8182 32.6669 36.3619L29.9703 39.5227C28.8128 40.7233 27.5917 41.8014 26.2688 42.806C29.1435 29.3052 19.8834 29.8075 10.1527 40.074C9.50402 40.76 8.35923 39.1061 8.35923 39.1061C7.96491 32.8825 26.4724 13.881 35.8724 31.2654Z" fill="black"/>
</svg>
