<svg width="140" height="127" viewBox="0 0 140 127" fill="none" xmlns="http://www.w3.org/2000/svg">
<path d="M140 0V98.5461L0 126.087V0H140Z" fill="#EB0045"/>
<path fill-rule="evenodd" clip-rule="evenodd" d="M69.6718 42.2693V30.432C69.6718 25.3359 66.9983 23.2227 63.0908 23.2227C59.1834 23.2227 56.4888 25.3724 56.4888 30.2983V42.3179C56.4888 47.2772 58.4274 49.503 62.864 49.503C67.3007 49.503 69.6718 47.332 69.6718 42.2693ZM61.4275 42.92V29.8786C61.4275 28.185 62.0021 27.4309 63.0425 27.4309C64.2703 27.4309 64.7089 28.2458 64.7089 29.8391V42.8957C64.7089 44.5741 64.1433 45.3191 63.0546 45.3191C61.9658 45.3191 61.4275 44.4951 61.4275 42.92ZM38.9538 49.1199V23.6058H34.0786V49.1199H38.9538ZM72.2606 49.1199V23.6058H77.662C78.4665 26.7195 81.0099 38.277 81.2125 39.3959H81.3305C81.0613 36.0026 80.8859 31.3595 80.8859 27.7989V23.6058H85.4163V49.1199H79.9665C79.4403 46.6935 76.667 33.491 76.5037 32.6731H76.3706C76.5611 35.6772 76.7093 40.7521 76.7093 44.7627V49.1199H72.2606ZM54.2387 29.9425V30.8607C54.2387 34.4973 52.7961 35.5768 51.7074 36.0937C53.2861 36.863 54.027 38.0275 54.027 41.5881L54.021 41.953V49.1198H49.1972C49.1972 49.1198 49.1881 44.644 49.1881 41.3875C49.1881 38.5171 48.8615 38.0275 47.0016 38.0275H46.4269V49.1198H41.5517V23.6027H47.8847C52.1368 23.6027 54.2387 25.4818 54.2387 29.9425ZM46.439 34.1598H47.0439V34.1568C48.674 34.1568 49.3393 33.6399 49.3393 31.2651V30.0337C49.3393 28.3218 48.9976 27.4704 47.2012 27.4704H46.439V34.1598ZM34 53.2612H40.4388V81.3325H48.5893L47.9844 86.9973H34V53.2612ZM56.9727 87.0003L57.7772 78.9578H57.7802H61.9568L62.9125 87.0003H69.6022L64.721 53.2612H55.1127L50.3827 87.0003H56.9727ZM60.6969 66.414C60.941 68.8072 61.1918 71.2649 61.4003 73.2414H58.3336C58.7873 69.0422 59.5918 61.4558 59.6916 59.1297H59.9426C60.1321 60.8775 60.4099 63.6007 60.6968 66.4131L60.6969 66.414ZM71.5227 53.2612H79.4706C86.363 53.2612 88.728 56.3961 88.728 63.3775V76.0722C88.728 81.889 87.5213 86.9973 79.8728 86.9973H71.5227V53.2612ZM77.9614 81.7886H79.2196C81.7842 81.7886 82.1864 80.1193 82.1864 77.4891V62.3649C82.1864 59.8868 81.633 58.5216 79.1682 58.5216H77.9614V81.7886ZM95.3664 76.1756V87.0003L95.3724 86.9973H101.811V76.4249C101.811 75.7195 101.863 75.4154 101.962 74.9593L107.999 53.2612H101.358C101.318 53.478 101.278 53.6961 101.238 53.9155C100.359 58.7142 99.3706 64.1109 98.8413 67.981H98.6387C98.2492 63.865 97.2444 58.4718 96.3601 53.7254L96.2737 53.2612H89.23L95.1154 74.4546C95.2666 75.011 95.3664 75.6191 95.3664 76.1756Z" fill="white"/>
<path d="M98.4726 50.4848L98.4938 34.3086L92.2395 47.2617L90.7334 41.0406L88.1748 41.0102L89.1244 38.8239L91.8554 38.8482L92.427 40.3595L101.273 22L101.328 39.0793L104.524 32.5936L106.938 38.8361H109L108.141 41.0223H105.256L104.337 38.6506L98.4726 50.4848Z" fill="white"/>
</svg>
