<svg width="141" height="127" viewBox="0 0 141 127" fill="none" xmlns="http://www.w3.org/2000/svg">
<path d="M140.5 0V98.5461L0.5 126.087V0H140.5Z" fill="#773DBD"/>
<path fill-rule="evenodd" clip-rule="evenodd" d="M39.5738 31.3984C39.5738 32.8346 39.8344 33.5439 41.8153 35.0843L41.8182 35.0814C45.3368 37.8408 46.5994 39.3869 46.5994 43.316C46.5994 47.0511 45.1283 50.129 40.5642 50.129C36.0002 50.129 34.697 47.3841 34.697 43.8488V42.0913H39.206V44.0717C39.206 45.6411 39.5854 46.3707 40.6453 46.3707C41.7052 46.3707 41.9543 45.2907 41.9543 44.1644C41.9543 41.9118 41.5315 41.2603 39.0873 39.2219C36.3911 36.9461 35.0039 35.4926 35.0039 32.0846C35.0039 28.6767 36.1334 25.5352 40.6685 25.5352C45.4845 25.5352 46.194 28.807 46.194 31.5374V33.2399H41.8471V31.4824C41.8471 30.0347 41.6068 29.3195 40.6974 29.3195C39.8489 29.3195 39.5738 30.0462 39.5738 31.3984ZM86.0948 32.7043V31.8472C86.0948 27.6749 84.111 25.9202 80.1001 25.9202H74.1286V49.7758H78.7245V39.4043H79.2661C81.0181 39.4043 81.328 39.8618 81.328 42.5459C81.328 45.5919 81.3367 49.7758 81.3367 49.7758H85.8863V43.0757L85.892 42.7341C85.892 39.4043 85.1941 38.3156 83.7056 37.5975C84.7308 37.114 86.0948 36.1035 86.0948 32.7043ZM79.3095 35.7879H78.739V29.5338H79.4572C81.1513 29.5338 81.4728 30.33 81.4728 31.9312V33.0836C81.4728 35.3044 80.8444 35.7879 79.3095 35.7879ZM88.9386 75.8491V75.8462L88.9444 75.8491H88.9386ZM88.9386 75.8491V78.0555C88.9386 80.0765 89.454 81.0638 90.8181 81.0638C92.1821 81.0638 92.5585 79.6537 92.5585 78.151C92.5585 75.189 91.9938 74.3435 88.7967 71.6652C85.223 68.6568 83.4391 66.8704 83.4391 62.2666C83.4391 57.6629 84.8958 53.6672 90.8673 53.6672C97.166 53.6672 98.1072 57.9901 98.1072 61.563V63.3495H92.4195V61.4704C92.4195 59.5912 92.0894 58.6502 90.9165 58.6502C89.7437 58.6502 89.4135 59.5912 89.4135 61.3748C89.4135 63.254 89.79 64.195 92.3761 66.216C96.9836 69.8353 98.6285 71.9026 98.6285 77.0247C98.6285 82.1467 96.9373 86.0005 90.7312 86.0005C84.5251 86.0005 83.0221 82.3812 83.0221 77.7283V75.8491H88.9386ZM64.3836 54.1797H64.3865V85.5257H72.1882C79.3326 85.5257 80.462 80.7801 80.462 75.3743V63.5783C80.462 57.0925 78.2524 54.1797 71.8118 54.1797H64.3865V54.1768L64.3836 54.1797ZM70.4014 80.6874H71.5772C73.9751 80.6874 74.3515 79.1354 74.3515 76.6917V62.6401C74.3515 60.3383 73.8332 59.0672 71.5309 59.0672H70.4014V80.6874ZM40.3267 54.1797H34.5V85.5286H40.3296V76.3182L42.1164 72.3225L45.218 85.5286H51.7513L46.2982 66.3058L51.5631 54.1797H44.8879C44.3128 55.9234 43.6285 58.0266 42.9526 60.1038L42.9523 60.1049L42.9517 60.1067L42.9514 60.1077C41.9701 63.1236 41.0069 66.0841 40.4223 67.8085H40.3267V54.1797ZM60.7318 85.5286V54.1797H54.7139V85.5286H60.7318ZM68.7247 25.9173H61.8612L58.4758 49.7729H63.1702L63.7581 44.0949H66.741L67.4012 49.7729H72.1912L68.7276 25.9173H68.7247ZM64.1606 40.05C64.4763 37.0995 65.0468 31.7314 65.1279 30.0694H65.3103C65.5333 32.3539 66.0112 36.9982 66.3529 40.05H64.1635H64.1606ZM59.6227 25.9173L58.9653 30.2518H55.4785V49.7729H50.8826V30.2518H47.726V29.9739V25.9173H59.3157H59.6227Z" fill="white"/>
<path d="M99.4189 51.1216L99.4421 35.7207L93.4503 48.0524L92.0081 42.1312L89.5581 42.1023L90.4674 40.0205L93.0825 40.0407L93.6298 41.4827L102.101 24L102.153 40.2637L105.217 34.0848L107.525 40.0291H109.5L108.68 42.1139H105.915L105.034 39.8525L99.4189 51.1216Z" fill="white"/>
</svg>
