<svg width="140" height="127" viewBox="0 0 140 127" fill="none" xmlns="http://www.w3.org/2000/svg">
<path d="M140 0V98.5461L0 126.087V0H140Z" fill="#00ABC8"/>
<path fill-rule="evenodd" clip-rule="evenodd" d="M38.3575 42.9222V44.5389C38.3575 46.0224 38.739 46.7502 39.7407 46.7502C40.7425 46.7502 41.0216 45.7158 41.0216 44.6102C41.0216 42.436 40.606 41.8135 38.2551 39.8437C35.6282 37.6324 34.3132 36.3223 34.3132 32.9372C34.3132 29.5521 35.3863 26.6191 39.7779 26.6191C44.4114 26.6191 45.103 29.7968 45.103 32.42V33.7332H40.9192V32.3519C40.9192 30.9706 40.6773 30.2799 39.812 30.2799C38.9467 30.2799 38.7048 30.9706 38.7048 32.2837C38.7048 33.665 38.9809 34.3557 40.882 35.8392C44.2719 38.4996 45.4814 40.0172 45.4814 43.7832C45.4814 47.5493 44.2378 50.38 39.6725 50.38C35.1072 50.38 34 47.7196 34 44.3035V42.9222H38.3575ZM40.4416 61.1828C40.4416 63.01 40.7735 63.9113 43.2856 65.8687H43.2887C47.7548 69.3746 49.3582 71.3412 49.3582 76.3368C49.3582 81.0878 47.4942 84.9994 41.6977 84.9994C35.9012 84.9994 34.2481 81.509 34.2481 77.0151V74.779H39.9702V77.2969C39.9702 79.2915 40.454 80.2175 41.8001 80.2175C43.1461 80.2175 43.4624 78.8424 43.4624 77.4115C43.4624 74.5467 42.9228 73.7198 39.8214 71.1275C36.3974 68.2317 34.6389 66.3828 34.6389 62.0499C34.6389 57.7171 36.078 53.725 41.8311 53.725C47.9408 53.725 48.8433 57.8874 48.8433 61.3593V63.5242H43.3259V61.2881C43.3259 59.4484 43.0251 58.5378 41.8683 58.5378C40.789 58.5378 40.4416 59.4639 40.4416 61.1828ZM64.431 84.5503L68.7265 54.2143H77.4383L81.8361 84.5503H75.7574L74.92 77.331H71.1363L70.3888 84.5503H64.431ZM72.8731 59.4917C72.7676 61.6071 72.0481 68.4331 71.6449 72.1836H74.4238C73.9927 68.2999 73.3879 62.3968 73.1026 59.4917H72.8731ZM99.4831 62.8428V61.7526C99.4831 56.4504 96.9679 54.2143 91.8754 54.2143H84.2955V84.5503H90.1293V71.3629H90.8178C93.0415 71.3629 93.4323 71.9452 93.4323 75.3582C93.4323 79.2295 93.4447 84.5503 93.4447 84.5503H99.2195V76.0302L99.2288 75.5966C99.2288 71.3629 98.3418 69.9785 96.4531 69.0649C97.7557 68.4516 99.4831 67.1663 99.4831 62.8428ZM93.6184 63.3259C93.6184 66.1505 92.8213 66.7637 90.8705 66.7637H90.1479V58.8104H91.0597C93.209 58.8104 93.6184 59.8231 93.6184 61.8579V63.3228V63.3259ZM65.8856 54.2143L65.0513 59.7271H60.6256V84.5472H54.7919V59.7271H50.7879V59.3709V54.2143H65.4979H65.8856ZM45.9683 26.997L48.5952 50.0301H48.5983H53.2318C53.4213 48.3928 53.6426 46.719 53.8688 45.0084C54.2202 42.3506 54.5834 39.6042 54.857 36.7683H55.0306C55.3071 40.2514 55.6963 43.5675 56.0612 46.6778C56.1957 47.8238 56.3269 48.9419 56.448 50.0301H61.0474L63.9875 26.997H59.5959C59.2858 30.794 58.8702 38.1837 58.6624 42.467H58.4887C58.3442 40.9242 58.1926 39.2388 58.0374 37.5128L58.0374 37.5127C57.7096 33.868 57.3656 30.0424 57.0373 26.997H53.2318C53.027 29.0149 52.8094 31.3054 52.5898 33.6165L52.5898 33.6166L52.5898 33.6169C52.2907 36.7646 51.988 39.9506 51.709 42.5382H51.5695C51.464 38.9115 50.9802 31.1068 50.6701 26.997H45.9683ZM69.8275 26.997V50.0301H65.4017V26.997H69.8275ZM84.28 31.2431C84.2118 34.0769 84.1777 39.119 84.1777 42.6745V50.0301H88.4669V26.997H82.1028C81.8366 28.9507 81.5603 30.8687 81.2994 32.6801C80.8824 35.5749 80.5045 38.1975 80.2699 40.2587H80.2017C79.9256 37.1152 79.234 31.3825 78.6448 26.997H72.2807V50.0301H76.2908V42.8479C76.2908 38.8743 76.1853 33.8694 76.1171 31.175H76.2567C76.7405 35.4923 77.7453 44.988 78.2633 50.0301H82.0315C82.6518 45.1614 83.6566 35.8361 84.1404 31.2431H84.28Z" fill="white"/>
<path d="M100.308 51.0497L100.33 36.2579L94.5706 48.1043L93.1811 42.415L90.8271 42.3871L91.7017 40.3864L94.217 40.408L94.7411 41.7924L102.885 25L102.935 40.6217L105.881 34.6877L108.102 40.3988H110L109.212 42.3964H106.554L105.708 40.2284L100.308 51.0497Z" fill="white"/>
</svg>
