<svg width="140" height="127" viewBox="0 0 140 127" fill="none" xmlns="http://www.w3.org/2000/svg">
<path d="M140 0V98.5461L0 126.087V0H140Z" fill="#E2E000"/>
<path d="M97.8997 51.4495L97.9255 34.156L91.0664 48.0034L89.418 41.3551L87.5078 41.3219L88.5514 38.985L90.646 39.0109L91.2729 40.6267L100.968 21L101.027 39.2586L104.534 32.3257L107.178 38.9961H108.734L107.794 41.3329H105.334L104.327 38.8001L97.8997 51.4495Z" fill="black"/>
<path fill-rule="evenodd" clip-rule="evenodd" d="M69.3609 43.5924V32.0707C69.3609 27.1123 66.75 25.0527 62.937 25.0527C59.1239 25.0527 56.4946 27.1456 56.4946 31.9413V43.6404C56.4946 48.4658 58.3827 50.6325 62.7157 50.6325C67.0487 50.6325 69.3609 48.5212 69.3609 43.5924ZM61.3144 44.2246V31.5309H61.3181C61.3181 29.8855 61.8786 29.1496 62.8927 29.1496C64.0912 29.1496 64.519 29.9409 64.519 31.4939V44.1988C64.519 45.8331 63.9695 46.5578 62.9038 46.5578C61.838 46.5578 61.3144 45.7591 61.3144 44.2246ZM39.9886 50.2591V25.4225H35.2314V50.2591H39.9886ZM71.4813 50.2591V50.2554H75.818V46.0143C75.818 42.1096 75.6705 37.1734 75.4861 34.2486H75.6152C75.7738 35.0436 78.4842 47.8963 78.9968 50.2591H84.3181V25.4225H79.8966V29.5046C79.8966 32.9692 80.0662 37.4877 80.3318 40.7933H80.2174C80.0183 39.7025 77.5365 28.4545 76.751 25.4225H71.4813V50.2554H71.4739L71.4813 50.2591ZM54.9089 31.5937V32.4886C54.9089 36.0271 53.5002 37.0809 52.4382 37.5838C53.9796 38.3307 54.7024 39.4659 54.7024 42.9305L54.695 43.2855V50.2591H49.9858C49.9858 50.2591 49.9748 45.9033 49.9748 42.7345C49.9748 39.9392 49.6576 39.4622 47.8433 39.4622H47.2828V50.2591H42.5257V25.4225H48.7062C52.8585 25.4225 54.9089 27.2528 54.9089 31.5937ZM47.2938 35.698H47.8839L47.8876 35.6943C49.4769 35.6943 50.126 35.1915 50.126 32.8805V31.6825C50.126 30.0149 49.7904 29.1866 48.0388 29.1866H47.2938V35.698ZM109 63.9512V62.768C109 57.0108 106.083 54.5889 100.187 54.5889H91.4062V87.5121H98.1658V73.1988H98.9623C101.54 73.1988 101.994 73.8311 101.994 77.5324C101.994 81.7328 102.008 87.5084 102.008 87.5084H108.698V78.2645L108.705 77.7949C108.705 73.2025 107.676 71.6976 105.489 70.7066C106.998 70.0411 109 68.6471 109 63.9549V63.9512ZM99.0213 68.2071H98.1842V59.577H99.2389C101.728 59.577 102.204 60.6751 102.204 62.8863V64.4762C102.204 67.5415 101.282 68.2071 99.0213 68.2071ZM41.1725 62.1542C41.1725 64.1361 41.5597 65.1159 44.4693 67.2383V67.2309C49.6431 71.0357 51.5017 73.1729 51.5017 78.5936C51.5017 83.748 49.3444 87.9965 42.6292 87.9965C35.9139 87.9965 34 84.2065 34 79.3294V76.9038H40.6304V79.6363C40.6304 81.8031 41.1873 82.8088 42.7472 82.8088C44.3071 82.8088 44.6721 81.3187 44.6721 79.7657C44.6721 76.6597 44.0452 75.7612 40.4534 72.9474C36.4892 69.8081 34.4499 67.8004 34.4499 63.097C34.4499 58.3937 36.113 54.0602 42.7804 54.0602C49.8607 54.0602 50.9043 58.5786 50.9043 62.3464V64.6944H44.5136V62.2688C44.5136 60.2721 44.1632 59.2848 42.8246 59.2848C41.5745 59.2848 41.1725 60.2906 41.1725 62.1542ZM83.4628 54.5852H73.3697L68.395 87.5084H75.2983L76.1649 79.6733H80.5496L81.5194 87.5084H88.5592L83.4628 54.5852ZM76.7513 74.0899C77.2159 70.0189 78.053 62.6127 78.1747 60.3165H78.4402C78.7684 63.4705 79.4691 69.8784 79.9706 74.0899H76.7513ZM70.3679 54.5852L69.398 60.5679H64.2722V87.5084H57.5126V60.5679H52.8735V60.1834V54.5852H69.9143H70.3679Z" fill="black"/>
</svg>
