<svg width="36" height="36" viewBox="0 0 36 36" fill="none" xmlns="http://www.w3.org/2000/svg">
<path fill-rule="evenodd" clip-rule="evenodd" d="M11.2631 6.09481C8.32701 5.87698 5.57563 6.07974 4.82327 6.24562C4.01427 6.42398 3.21386 5.91275 3.0355 5.10375C2.85714 4.29475 3.36837 3.49434 4.17737 3.31597C5.33001 3.06185 8.40613 2.87461 11.485 3.10303C13.0451 3.21877 14.6805 3.44581 16.1289 3.85378C17.5351 4.24987 18.9721 4.87227 19.921 5.91764C20.7414 6.82149 21.2077 7.73363 21.4331 8.65991C21.6521 9.55996 21.6217 10.3924 21.5741 11.0633C21.5648 11.1932 21.5556 11.3167 21.5467 11.4346C21.458 12.616 21.4119 13.2303 21.8896 13.9786C22.486 14.9128 23.6312 15.7567 25.4611 16.3324C27.2835 16.9058 29.6731 17.1743 32.5541 17.0375C33.3816 16.9982 34.0843 17.6371 34.1236 18.4646C34.1629 19.2921 33.524 19.9948 32.6965 20.0341C29.5776 20.1823 26.8147 19.9033 24.5608 19.1941C22.3144 18.4874 20.4596 17.3138 19.361 15.593C18.313 13.9514 18.4544 12.3302 18.5515 11.2169C18.5628 11.0878 18.5734 10.9655 18.5816 10.8508C18.624 10.2542 18.6235 9.80226 18.5182 9.36918C18.4192 8.96234 18.2067 8.4926 17.6996 7.93395C17.321 7.51683 16.5437 7.08734 15.3155 6.74141C14.1295 6.40735 12.7105 6.20219 11.2631 6.09481Z" fill="#E2E000"/>
<path fill-rule="evenodd" clip-rule="evenodd" d="M8.96478 11.1404C7.58023 10.8854 5.90711 10.8566 4.70431 11.0218C3.88359 11.1346 3.12687 10.5606 3.01414 9.73991C2.9014 8.91919 3.47533 8.16247 4.29605 8.04974C5.82325 7.83996 7.81764 7.87867 9.50808 8.18996C10.3502 8.34504 11.2037 8.58307 11.9104 8.94622C12.5656 9.28286 13.422 9.89897 13.6592 10.9643C13.9421 12.2298 13.5868 13.3051 13.1406 14.1629C12.9222 14.5828 12.6655 14.982 12.431 15.3378C12.3779 15.4184 12.3262 15.4966 12.2755 15.573C12.0908 15.8516 11.921 16.1079 11.7566 16.379C11.3478 17.0535 11.0728 17.6651 10.9931 18.3343C10.9159 18.9817 11.0063 19.817 11.562 20.9504L11.5637 20.9538C13.0061 23.9145 19.0709 30.7296 32.5023 29.6258C33.328 29.558 34.0523 30.1723 34.1201 30.9979C34.188 31.8236 33.5737 32.5479 32.748 32.6157C18.0715 33.8218 10.8463 26.3291 8.86753 22.2694C8.09642 20.696 7.85889 19.2819 8.01417 17.9792C8.16689 16.698 8.68508 15.6587 9.19122 14.8238C9.39024 14.4955 9.60316 14.1744 9.79166 13.8902C9.83807 13.8202 9.883 13.7524 9.92588 13.6873C10.155 13.3395 10.3375 13.0507 10.4791 12.7785C10.7164 12.3223 10.7839 12.0173 10.7525 11.7428C10.7123 11.7128 10.6454 11.669 10.5393 11.6146C10.196 11.4382 9.66012 11.2684 8.96478 11.1404Z" fill="#E2E000"/>
<path fill-rule="evenodd" clip-rule="evenodd" d="M23.0698 25.7658C23.0698 24.9373 23.7414 24.2658 24.5698 24.2658H30.9598C31.7883 24.2658 32.4598 24.9373 32.4598 25.7658C32.4598 26.5942 31.7883 27.2658 30.9598 27.2658H24.5698C23.7414 27.2658 23.0698 26.5942 23.0698 25.7658Z" fill="#E2E000"/>
<path fill-rule="evenodd" clip-rule="evenodd" d="M14.7751 21.5508C14.7751 20.7224 15.4467 20.0508 16.2751 20.0508H20.1752C21.0036 20.0508 21.6752 20.7224 21.6752 21.5508C21.6752 22.3792 21.0036 23.0508 20.1752 23.0508H16.2751C15.4467 23.0508 14.7751 22.3792 14.7751 21.5508Z" fill="#E2E000"/>
<path fill-rule="evenodd" clip-rule="evenodd" d="M13.4399 16.6908C13.4399 15.8624 14.1115 15.1908 14.9399 15.1908H16.0799C16.9084 15.1908 17.5799 15.8624 17.5799 16.6908C17.5799 17.5192 16.9084 18.1908 16.0799 18.1908H14.9399C14.1115 18.1908 13.4399 17.5192 13.4399 16.6908Z" fill="#E2E000"/>
</svg>
