<svg width="18" height="24" viewBox="0 0 18 24" fill="none" xmlns="http://www.w3.org/2000/svg">
<path d="M5.14427 15.5705C4.46911 14.6369 3.86818 13.8129 3.27443 12.9813C2.99431 12.588 2.66391 12.212 2.46759 11.7763C2.0534 10.8577 2.32634 9.88424 3.13078 9.26183C4.44038 8.24856 5.76914 7.25769 7.08114 6.24691C7.24394 6.12243 7.36604 5.94068 7.5073 5.78633C7.33492 5.67927 7.17212 5.55479 6.99016 5.47015C6.6478 5.31081 6.28389 5.19878 5.9511 5.02202C5.0485 4.54152 4.17223 4.80293 3.29118 5.07679C2.66631 5.27098 2.04622 5.48757 1.41895 5.66683C0.942517 5.80127 0.229056 5.37305 0.0638592 4.88509C-0.132462 4.31248 0.140473 3.4685 0.655217 3.30418C2.03425 2.86103 3.41328 2.39547 4.82344 2.10667C5.32143 2.0046 5.92237 2.35564 6.46105 2.54734C7.8784 3.05522 9.26701 3.65273 10.7011 4.09837C11.9221 4.47679 12.3483 5.45023 12.7242 6.53321C13.1264 7.6884 13.5382 8.84109 13.9859 9.97635C14.0457 10.1307 14.3666 10.29 14.5342 10.2577C15.0752 10.1606 15.6139 10.0062 16.1358 9.81702C17.2372 9.41868 18.1589 10.0361 17.977 11.1465C17.9195 11.5 17.5723 11.9606 17.2587 12.0776C16.0712 12.5183 14.8526 12.8817 13.6268 13.1855C12.8918 13.3672 12.3603 12.7871 12.0179 11.7091C11.721 10.7755 11.381 9.85685 11.0147 8.95063C10.9669 8.83362 10.5742 8.72159 10.4689 8.79628C9.27419 9.66764 8.10823 10.5788 6.93031 11.4726C6.61907 11.7091 6.76272 11.9033 6.93031 12.1373C7.71559 13.2153 8.47933 14.3108 9.27898 15.3763C9.70274 15.944 9.77936 16.5714 9.53994 17.1813C9.27898 17.851 8.75705 18.1821 8.00768 18.2469C6.04686 18.4162 4.09084 18.6601 2.1372 18.8942C1.4405 18.9763 0.818014 18.8942 0.387065 18.2543C0.104554 17.8336 -0.0390935 17.4029 0.217082 16.8726C0.473257 16.3448 0.829985 16.0112 1.38304 15.9564C2.43168 15.8494 3.48511 15.7747 4.53615 15.6826C4.69895 15.6676 4.85936 15.6228 5.14187 15.568L5.14427 15.5705Z" fill="#E2E000"/>
<path d="M13.2676 4.54899C12.0179 4.54152 11.053 3.52327 11.0722 2.22867C11.0914 0.973898 12.061 0.0253544 13.2964 0.000458263C14.7185 -0.0269275 15.5493 1.17805 15.5301 2.29091C15.511 3.47347 14.6658 4.60625 13.27 4.5465L13.2676 4.54899Z" fill="#E2E000"/>
<path d="M6.12587 19.641C5.74998 20.2012 5.37889 20.7639 4.99343 21.319C4.54333 21.9663 4.07168 22.5987 3.62158 23.2435C3.09965 23.9904 2.18747 24.2244 1.54823 23.7639C0.851534 23.2609 0.7438 22.3348 1.28967 21.5257C1.30164 21.5083 1.316 21.4933 1.32558 21.4759C2.02467 20.1589 3.00149 19.4244 4.53854 19.6535C5.0078 19.7232 5.51057 19.544 5.99659 19.4792L6.12826 19.6435L6.12587 19.641Z" fill="#E2E000"/>
</svg>
