<svg width="18" height="18" viewBox="0 0 18 18" fill="none" xmlns="http://www.w3.org/2000/svg">
<path fill-rule="evenodd" clip-rule="evenodd" d="M7.2 1.8C4.21766 1.8 1.8 4.21766 1.8 7.2C1.8 10.1823 4.21766 12.6 7.2 12.6C10.1823 12.6 12.6 10.1823 12.6 7.2C12.6 4.21766 10.1823 1.8 7.2 1.8ZM0 7.2C0 3.22355 3.22355 0 7.2 0C11.1764 0 14.4 3.22355 14.4 7.2C14.4 8.86224 13.8367 10.3929 12.8906 11.6116L17.7368 16.464C18.0881 16.8157 18.0877 17.3856 17.736 17.7368C17.3843 18.0881 16.8144 18.0877 16.4632 17.736L11.6186 12.8851C10.3988 13.8345 8.86544 14.4 7.2 14.4C3.22355 14.4 0 11.1764 0 7.2Z" fill="#868686"/>
</svg>
