<svg width="36" height="36" viewBox="0 0 36 36" fill="none" xmlns="http://www.w3.org/2000/svg">
<path d="M14.5619 18.6299C14.8775 18.4044 15.0599 18.2453 15.268 18.1289C16.2126 17.6017 17.1618 17.0865 18.1111 16.5688C18.4384 16.3907 18.5343 16.2079 18.3122 15.8232C17.7393 14.8306 17.1899 13.819 16.6989 12.7813C16.2547 11.8457 16.4791 10.6347 17.7838 10.383C20.0634 9.94131 22.336 9.4569 24.6203 9.04372C25.0903 8.95823 25.6444 8.99623 26.084 9.17432C26.7784 9.45452 26.9958 10.1147 26.8462 10.9553C26.7457 11.5252 26.1822 11.9716 25.5275 12.0927C23.8745 12.4038 22.2285 12.7457 20.4609 13.0995C20.7672 13.7027 21.0384 14.2678 21.3353 14.8187C22.6423 17.2479 23.9446 19.6795 25.275 22.0945C25.5252 22.548 25.4036 22.6905 24.9594 22.7498C23.1497 22.9944 21.5762 22.5646 20.206 21.2634C18.6769 19.8101 16.8158 18.9909 14.5619 18.6276V18.6299Z" fill="#E2E000"/>
<path d="M13.0632 20.3681C15.2656 20.4512 17.3395 21.1921 19.0627 22.7997C21.153 24.7493 24.0639 25.236 26.6638 24.0939C27.896 23.5525 29.1586 23.0467 30.4515 22.6857C30.9192 22.5551 31.4172 22.5409 31.9199 22.5456C32.4693 22.5504 32.9299 22.9659 32.993 23.5192C33.0655 24.1722 32.5628 24.7374 31.9175 24.7421C31.8591 24.7421 31.8006 24.7421 31.7468 24.7469C30.4048 24.8324 29.1983 25.3263 28.0106 25.9247C26.5142 26.6798 24.9126 27.1238 23.2432 26.9695C21.1226 26.7748 19.1913 26.0363 17.6084 24.5094C16.3458 23.2913 14.8074 22.6857 13.0936 22.6264C11.6136 22.5765 10.2504 23.0989 8.94813 23.7923C7.95211 24.3242 6.89295 24.6139 5.79639 24.7611C5.24694 24.8347 4.72788 24.4833 4.59461 23.9348L4.53148 23.6736C4.38886 23.0823 4.74425 22.4863 5.32643 22.3438C6.38559 22.0826 7.94743 21.7668 8.54364 21.4866C9.95117 20.8264 11.3914 20.3943 13.0655 20.3634L13.0632 20.3681Z" fill="#E2E000"/>
<path d="M28.9902 16.792C29.1422 18.459 27.5149 19.7151 26.1635 19.7104C24.6765 19.7056 23.283 18.3735 23.2876 16.8015C23.2923 15.2461 24.4941 13.8523 26.1869 13.8594C27.744 13.8641 29.1352 15.1987 28.9902 16.792Z" fill="#E2E000"/>
</svg>
