<svg width="36" height="36" viewBox="0 0 36 36" fill="none" xmlns="http://www.w3.org/2000/svg">
<path fill-rule="evenodd" clip-rule="evenodd" d="M10.1237 6.8324C10.1237 5.91983 10.8588 5.1768 11.7946 5.1768C12.2424 5.1768 12.6625 5.3583 12.9777 5.66107C13.2856 5.97193 13.4655 6.38624 13.4655 6.8324V23.3883C13.4655 23.7366 13.6321 24.0638 13.9137 24.2686C14.8244 24.9309 15.4124 26.0045 15.4124 27.2054C15.4124 29.2103 13.7995 30.8232 11.7946 30.8232C9.79197 30.8232 8.1768 29.1973 8.1768 27.2054C8.1768 26.0045 8.76473 24.9309 9.67542 24.2686C9.95704 24.0638 10.1237 23.7366 10.1237 23.3883V6.8324ZM11.7946 3C9.66448 3 7.94686 4.70971 7.94686 6.8324V22.8694C6.75334 23.933 6 25.4855 6 27.2054C6 30.3949 8.58514 33 11.7946 33C15.0017 33 17.5892 30.4126 17.5892 27.2054C17.5892 25.4855 16.8358 23.933 15.6423 22.8694V20.4298H17.1295C17.7306 20.4298 18.2179 19.9425 18.2179 19.3414C18.2179 18.7402 17.7306 18.253 17.1295 18.253H15.6423V16.6127H17.1295C17.7306 16.6127 18.2179 16.1254 18.2179 15.5243C18.2179 14.9232 17.7306 14.4359 17.1295 14.4359H15.6423V12.7956H17.1295C17.7306 12.7956 18.2179 12.3083 18.2179 11.7072C18.2179 11.1061 17.7306 10.6188 17.1295 10.6188H15.6423V8.96316H17.1295C17.7306 8.96316 18.2179 8.47587 18.2179 7.87476C18.2179 7.27366 17.7306 6.78636 17.1295 6.78636H15.642C15.6297 5.75106 15.2011 4.80596 14.5111 4.11592L14.5111 4.11583L14.4991 4.10418C13.8032 3.42935 12.8462 3 11.7946 3ZM12.5301 9.08583V25.7184C13.1893 25.9944 13.6492 26.6535 13.6492 27.42C13.6492 28.4471 12.8214 29.2749 11.7943 29.2749C10.7672 29.2749 9.93943 28.4471 9.93943 27.42C9.93943 26.6535 10.3993 26.0097 11.0585 25.7184V9.08583C11.0585 8.68726 11.3957 8.35001 11.7943 8.35001C12.1929 8.35001 12.5301 8.67193 12.5301 9.08583Z" fill="#E2E000"/>
<path d="M26.3201 17.4657C25.8746 17.7075 25.4801 17.7966 24.971 17.7966C23.6982 17.7966 23.1255 17.1221 23.1255 15.1366C23.1255 13.0493 23.7873 12.4766 24.9964 12.4766C25.4419 12.4766 25.9128 12.5784 26.3073 12.7438V10.8347C25.9891 10.6947 25.4291 10.542 24.6655 10.542C22.0818 10.542 21 11.9547 21 15.2511C21 18.3566 22.1073 19.7312 24.5382 19.7312C25.3528 19.7312 25.9764 19.5657 26.3201 19.3748V17.4657Z" fill="#E2E000"/>
<path d="M29.1707 13.6691C28.9035 13.6691 28.8053 13.44 28.8053 12.48C28.8053 11.5036 28.9035 11.2691 29.1544 11.2691C29.4217 11.2691 29.5198 11.4982 29.5198 12.48C29.5198 13.4564 29.4107 13.6691 29.1707 13.6691ZM29.1653 14.4382C29.9835 14.4382 30.4144 13.9473 30.4144 12.4691C30.4144 11.0018 30.0326 10.5 29.1544 10.5C28.3362 10.5 27.9053 10.9909 27.9053 12.4691C27.9053 13.9364 28.3198 14.4382 29.1653 14.4382Z" fill="#E2E000"/>
</svg>
