<svg width="142" height="18" viewBox="0 0 142 18" fill="none" xmlns="http://www.w3.org/2000/svg">
<path d="M7.29289 17.7071C7.68342 18.0976 8.31658 18.0976 8.70711 17.7071L15.0711 11.3431C15.4616 10.9526 15.4616 10.3195 15.0711 9.92893C14.6805 9.53841 14.0474 9.53841 13.6569 9.92893L8 15.5858L2.34315 9.92893C1.95262 9.53841 1.31946 9.53841 0.928932 9.92893C0.538408 10.3195 0.538408 10.9526 0.928932 11.3431L7.29289 17.7071ZM7 0V17H9V0H7Z" fill="#FF5E1E"/>
<path d="M133.293 17.7071C133.683 18.0976 134.317 18.0976 134.707 17.7071L141.071 11.3431C141.462 10.9526 141.462 10.3195 141.071 9.92893C140.681 9.53841 140.047 9.53841 139.657 9.92893L134 15.5858L128.343 9.92893C127.953 9.53841 127.319 9.53841 126.929 9.92893C126.538 10.3195 126.538 10.9526 126.929 11.3431L133.293 17.7071ZM133 0V17H135V0H133Z" fill="#FF5E1E"/>
<path d="M70.2929 17.7071C70.6834 18.0976 71.3166 18.0976 71.7071 17.7071L78.0711 11.3431C78.4616 10.9526 78.4616 10.3195 78.0711 9.92893C77.6805 9.53841 77.0474 9.53841 76.6569 9.92893L71 15.5858L65.3431 9.92893C64.9526 9.53841 64.3195 9.53841 63.9289 9.92893C63.5384 10.3195 63.5384 10.9526 63.9289 11.3431L70.2929 17.7071ZM70 0V17H72V0H70Z" fill="#FF5E1E"/>
</svg>
