<svg width="68" height="275" viewBox="0 0 68 275" fill="none" xmlns="http://www.w3.org/2000/svg">
<path d="M6.77743 68.0414L59.4441 78.1245" stroke="#FF5E1E" stroke-miterlimit="10" stroke-linecap="round" stroke-linejoin="round" stroke-dasharray="17.27 17.27"/>
<path d="M17.5901 255.498L54.6179 267.585" stroke="#FF5E1E" stroke-miterlimit="10" stroke-linecap="round" stroke-linejoin="round" stroke-dasharray="17.27 17.27"/>
<path d="M55.9288 14.7775C56.2979 14.7018 56.667 14.626 56.9924 14.7128C61.2466 14.4538 64.8637 17.8584 65.1151 22.1077C65.2633 26.4165 62.011 30.0795 57.6972 30.2355C55.836 30.3488 54.0903 29.7088 52.698 28.7274C56.4485 28.0726 59.1848 24.7076 58.9491 20.724C58.8514 18.1712 57.6622 16.1113 55.9288 14.7775Z" stroke="#FF5E1E" stroke-miterlimit="10" stroke-linecap="round" stroke-linejoin="round"/>
<path d="M28.1893 3.7078L30.5262 2.99716L31.3027 0.698931L32.6253 2.69851L34.9746 2.68162L33.5789 4.62231L34.2947 6.95808L32.052 6.07524L30.0965 7.55539L30.1347 5.1056L28.1893 3.7078Z" stroke="#FF5E1E" stroke-miterlimit="10" stroke-linecap="round" stroke-linejoin="round"/>
<path d="M3.9822 47.8836C5.35541 48.1271 6.34042 49.5198 6.09918 50.891C5.85794 52.2623 4.46563 53.2437 3.09242 53.0002C1.71921 52.7567 0.7342 51.364 0.975439 49.9927C1.21668 48.6214 2.60899 47.6401 3.9822 47.8836Z" stroke="#FF5E1E" stroke-miterlimit="10" stroke-linecap="round" stroke-linejoin="round"/>
<path d="M27.9016 94.9492L21.0076 107.588L8.65579 114.482L21.0076 121.376L27.9016 133.728L34.7956 121.376L47.4346 114.482L34.7956 107.588L27.9016 94.9492Z" stroke="#FF5E1E" stroke-miterlimit="10" stroke-linecap="round" stroke-linejoin="round"/>
</svg>
