<svg width="77" height="94" viewBox="0 0 77 94" fill="none" xmlns="http://www.w3.org/2000/svg">
<g clip-path="url(#clip0_36_489)">
<path d="M71.7337 77.1019L32.1216 91.5196C29.4954 92.4754 26.585 91.1183 25.6291 88.4921L1.7325 22.8367C0.77664 20.2105 2.1338 17.3 4.76002 16.3442L44.3174 1.94645C46.9436 0.990585 49.854 2.34775 50.8099 4.97396L74.7065 70.6293C75.7171 73.2356 74.3599 76.1461 71.7337 77.1019ZM5.15829 17.4384C3.13392 18.1752 2.08995 20.414 2.82676 22.4384L26.7234 88.0938C27.4602 90.1182 29.699 91.1621 31.7234 90.4253L71.2807 76.0276C73.3051 75.2908 74.3491 73.052 73.6123 71.0276L49.7156 5.37224C48.9788 3.34786 46.74 2.30389 44.7157 3.04071L5.15829 17.4384Z" fill="#FF5E1E"/>
<path d="M57.4078 44.8917L22.4463 57.6166L30.3958 24.9821L57.4078 44.8917ZM24.0724 55.7856L54.9305 44.5542L31.0779 27.0264L24.0724 55.7856Z" fill="#FF5E1E"/>
<path d="M23.0489 43.2704C21.7358 43.7483 20.3179 43.0871 19.8399 41.774C19.362 40.4609 20.0232 39.043 21.3363 38.5651C22.6494 38.0872 24.0673 38.7483 24.5452 40.0614C25.0232 41.3746 24.362 42.7925 23.0489 43.2704ZM21.5354 39.1122C20.5506 39.4707 20.0286 40.5901 20.3871 41.5749C20.7455 42.5597 21.8649 43.0817 22.8497 42.7233C23.8346 42.3648 24.3566 41.2454 23.9981 40.2606C23.6397 39.2758 22.575 38.7339 21.5354 39.1122Z" fill="#FF5E1E"/>
<path d="M47.6697 34.3092C46.3566 34.7871 44.9387 34.126 44.4608 32.8129C43.9829 31.4998 44.644 30.0818 45.9571 29.6039C47.2703 29.126 48.6882 29.7872 49.1661 31.1003C49.644 32.4134 48.9828 33.8313 47.6697 34.3092ZM46.1563 30.151C45.1715 30.5095 44.6495 31.6289 45.0079 32.6137C45.3664 33.5986 46.4858 34.1205 47.4706 33.7621C48.4554 33.4036 48.9774 32.2842 48.619 31.2994C48.2605 30.3146 47.1411 29.7926 46.1563 30.151Z" fill="#FF5E1E"/>
<path d="M24.803 36.6837C23.4899 37.1617 22.072 36.5005 21.5941 35.1874C21.1162 33.8743 21.7773 32.4564 23.0904 31.9784C24.4036 31.5005 25.8215 32.1617 26.2994 33.4748C26.832 34.768 26.1161 36.2058 24.803 36.6837ZM23.2697 32.4708C22.2848 32.8293 21.7629 33.9487 22.1213 34.9335C22.4798 35.9183 23.5992 36.4403 24.584 36.0819C25.5688 35.7234 26.0908 34.604 25.7324 33.6192C25.4286 32.6145 24.3092 32.0925 23.2697 32.4708Z" fill="#FF5E1E"/>
<path d="M42.0923 30.391C40.7792 30.8689 39.3613 30.2077 38.8834 28.8946C38.4055 27.5815 39.0666 26.1636 40.3798 25.6857C41.6929 25.2078 43.1108 25.8689 43.5887 27.1821C44.0666 28.4952 43.3507 29.933 42.0923 30.391ZM40.559 26.1781C39.5741 26.5366 39.0522 27.656 39.4106 28.6408C39.7691 29.6256 40.8885 30.1476 41.8733 29.7892C42.8581 29.4307 43.3801 28.3113 43.0217 27.3265C42.6632 26.3416 41.5438 25.8197 40.559 26.1781Z" fill="#FF5E1E"/>
<path d="M27.0246 30.3605C26.9698 30.3805 26.9151 30.4004 26.8405 30.3656L21.8854 28.3275C21.7361 28.2579 21.6764 28.0938 21.746 27.9445C21.8156 27.7953 21.9797 27.7355 22.129 27.8051L27.0841 29.8432C27.2333 29.9128 27.2931 30.0769 27.2235 30.2262C27.1141 30.266 27.0793 30.3406 27.0246 30.3605Z" fill="#8D97FF"/>
<path d="M28.0092 28.6391C27.8997 28.6789 27.8251 28.6442 27.7505 28.6094L20.0881 22.5378C19.9935 22.4483 19.9338 22.2842 20.0581 22.115C20.1476 22.0205 20.3118 21.9607 20.4809 22.085L28.1433 28.1566C28.2379 28.2461 28.2976 28.4102 28.1733 28.5794C28.0987 28.5446 28.0639 28.6192 28.0092 28.6391Z" fill="#8D97FF"/>
<path d="M28.6103 26.3755C28.5009 26.4153 28.3716 26.4004 28.277 26.3109L21.9573 18.8213C21.8428 18.6771 21.8577 18.5477 22.0019 18.4333C22.1462 18.3188 22.2755 18.3337 22.39 18.4779L28.7097 25.9676C28.8241 26.1118 28.8093 26.2411 28.665 26.3556C28.665 26.3556 28.665 26.3556 28.6103 26.3755Z" fill="#8D97FF"/>
<path d="M36.326 26.9751C36.2713 26.995 36.1419 26.9801 36.0673 26.9453C35.918 26.8757 35.8583 26.7116 35.9279 26.5623L38.4137 21.816C38.4833 21.6667 38.6474 21.607 38.7967 21.6766C38.946 21.7462 39.0057 21.9103 38.9361 22.0596L36.4503 26.8059C36.4354 26.9352 36.3807 26.9552 36.326 26.9751Z" fill="#8D97FF"/>
<path d="M34.4654 26.2891C34.4107 26.309 34.356 26.3289 34.2813 26.2941C34.152 26.2792 34.0176 26.0803 34.0325 25.9509L35.9996 16.3746C36.0144 16.2452 36.2134 16.1109 36.3427 16.1257C36.4721 16.1406 36.6064 16.3396 36.5915 16.4689L34.6245 26.0453C34.6096 26.1746 34.5201 26.2691 34.4654 26.2891Z" fill="#8D97FF"/>
<path d="M32.5498 24.9416C32.4951 24.9615 32.4951 24.9615 32.4403 24.9815C32.2563 24.9865 32.1418 24.8423 32.1567 24.7129L32.1837 14.9133C32.1787 14.7292 32.3229 14.6148 32.4522 14.6297C32.6363 14.6246 32.7507 14.7689 32.7358 14.8982L32.7089 24.6978C32.7487 24.8073 32.6592 24.9018 32.5498 24.9416Z" fill="#8D97FF"/>
<path d="M30.8191 26.3152C30.6549 26.3749 30.5057 26.3053 30.4459 26.1412L28.1757 19.9039C28.116 19.7398 28.1856 19.5905 28.3497 19.5308C28.5139 19.4711 28.6631 19.5407 28.7229 19.7048L30.9731 25.8873C31.0528 26.1062 30.9832 26.2554 30.8191 26.3152Z" fill="#FF5E1E"/>
<path d="M28.6972 17.4215C28.8963 17.9686 28.6379 18.6203 28.036 18.8394C27.4889 19.0385 26.8372 18.7801 26.6181 18.1782C26.419 17.6311 26.6774 16.9794 27.2793 16.7603C27.8811 16.5413 28.4981 16.8744 28.6972 17.4215Z" fill="#FF5E1E"/>
<path d="M33.6473 86.0075L28.1496 82.9896L7.47908 26.1977L9.29285 19.7752L43.0307 7.43362L48.7923 11.3468L69.4031 67.9746L67.1663 73.7456L33.6473 86.0075ZM28.5624 82.5915L33.667 85.3807L66.6389 73.3179L68.6868 68.0494L48.1955 11.7499L42.8469 8.12015L9.71084 20.2426L8.03124 26.1826L28.5624 82.5915Z" fill="#FF5E1E"/>
<path d="M7.32342 21.8551C7.52256 22.4022 7.26408 23.0539 6.66224 23.273C6.11511 23.4721 5.46338 23.2136 5.24433 22.6118C5.04519 22.0647 5.30367 21.413 5.90551 21.1939C6.47255 21.0495 7.12428 21.308 7.32342 21.8551Z" fill="#FF5E1E"/>
<path d="M47.975 7.05919C48.1742 7.60631 47.9157 8.25804 47.3138 8.47709C46.7667 8.67623 46.115 8.41775 45.8959 7.81591C45.6968 7.26878 45.9553 6.61706 46.5571 6.398C47.1789 6.23367 47.7759 6.51206 47.975 7.05919Z" fill="#FF5E1E"/>
<path d="M30.5429 85.6503C30.742 86.1974 30.4836 86.8491 29.8817 87.0682C29.3346 87.2673 28.6829 87.0088 28.4638 86.407C28.2647 85.8598 28.5232 85.2081 29.125 84.9891C29.6721 84.7899 30.3438 85.1031 30.5429 85.6503Z" fill="#FF5E1E"/>
<path d="M71.1945 70.8544C71.3936 71.4015 71.1352 72.0532 70.5333 72.2723C69.9862 72.4714 69.3345 72.2129 69.1154 71.6111C68.9163 71.0639 69.1748 70.4122 69.7766 70.1932C70.3784 69.9741 70.9954 70.3072 71.1945 70.8544Z" fill="#FF5E1E"/>
<path d="M37.9187 47.5241C32.8304 49.3761 28.1436 46.3729 27.9198 46.2685L27.6959 46.1641L27.8003 45.9403C27.9047 45.7164 30.4798 40.194 34.8568 38.6009C39.2339 37.0078 44.8904 39.1004 45.1491 39.1301L45.373 39.2345L45.3432 39.4932C45.3432 39.4932 43.9371 45.3336 37.9187 47.5241ZM28.4619 45.8853C29.4171 46.4671 33.5067 48.5104 37.7196 46.977C42.7532 45.1449 44.3984 40.6426 44.7363 39.5282C43.602 39.1356 38.7565 37.7392 35.0908 39.0734C31.425 40.4076 29.0038 44.8207 28.4619 45.8853Z" fill="#FF5E1E"/>
<path d="M37.784 45.9622C36.0879 46.5795 34.2769 45.6897 33.6795 44.0483C33.0622 42.3522 33.952 40.5412 35.5934 39.9438C37.2895 39.3265 39.1005 40.2164 39.6979 41.8577C40.2953 43.4991 39.4253 45.3648 37.784 45.9622ZM35.7727 40.4362C34.4048 40.9341 33.7089 42.4266 34.2067 43.7944C34.7045 45.1622 36.1971 45.8582 37.5649 45.3604C38.9327 44.8625 39.6287 43.37 39.1309 42.0022C38.6529 40.6891 37.1405 39.9384 35.7727 40.4362Z" fill="#FF5E1E"/>
<path d="M35.7826 40.1226L35.509 40.2222L37.5203 45.7482L37.7939 45.6486L35.7826 40.1226Z" fill="#FF5E1E"/>
<path d="M39.3995 41.7184L33.8735 43.7297L33.9731 44.0033L39.4991 41.992L39.3995 41.7184Z" fill="#FF5E1E"/>
<path d="M34.1959 41.3556L34.052 41.6086L39.163 44.5164L39.307 44.2634L34.1959 41.3556Z" fill="#FF5E1E"/>
<path d="M37.6425 40.208L35.3516 45.4971L35.6187 45.6128L37.9096 40.3237L37.6425 40.208Z" fill="#FF5E1E"/>
<path d="M37.415 42.5646C37.5743 43.0023 37.3655 43.4501 36.9278 43.6094C36.4901 43.7687 36.0424 43.5599 35.883 43.1222C35.7237 42.6845 35.9325 42.2367 36.3702 42.0774C36.8079 41.9181 37.2756 42.1816 37.415 42.5646Z" fill="#8D97FF"/>
<path d="M32.1782 30.2198L31.6311 30.4189L34.2996 37.7505L34.8467 37.5513L32.1782 30.2198Z" fill="#FF5E1E"/>
<path d="M44.2952 61.1273L43.748 61.3264L48.3083 73.8556L48.8554 73.6565L44.2952 61.1273Z" fill="#8D97FF"/>
<path d="M44.0813 61.391C41.4004 62.3667 38.47 60.9549 37.5141 58.3286C36.5384 55.6477 37.9502 52.7174 40.5764 51.7615C43.2574 50.7857 46.1877 52.1976 47.1436 54.8238C48.0995 57.45 46.7622 60.4152 44.0813 61.391ZM40.7557 52.2539C38.403 53.1102 37.1851 55.7221 38.0414 58.0748C38.8976 60.4274 41.5096 61.6454 43.8622 60.7891C46.2149 59.9328 47.4328 57.3209 46.5766 54.9682C45.7203 52.6156 43.1083 51.3976 40.7557 52.2539Z" fill="#FF5E1E"/>
<path d="M45.1615 63.848C45.1615 63.848 45.5449 65.0716 46.7637 65.1857C47.9477 65.3744 48.8828 65.2199 48.8828 65.2199C48.8828 65.2199 47.3702 63.7877 46.6836 63.6038C45.9424 63.4399 45.1615 63.848 45.1615 63.848Z" fill="#8D97FF"/>
<path d="M44.8332 63.9675C44.8332 63.9675 45.3261 65.1512 44.4657 66.022C43.6801 66.9276 42.8644 67.4104 42.8644 67.4104C42.8644 67.4104 43.1025 65.3409 43.5103 64.7588C43.918 64.1767 44.8332 63.9675 44.8332 63.9675Z" fill="#8D97FF"/>
<path d="M46.7347 68.1705C46.7347 68.1705 47.118 69.3941 48.3368 69.5081C49.5208 69.6968 50.4559 69.5423 50.4559 69.5423C50.4559 69.5423 48.9433 68.1101 48.2568 67.9263C47.5354 67.8171 46.7347 68.1705 46.7347 68.1705Z" fill="#8D97FF"/>
<path d="M46.4064 68.2899C46.4064 68.2899 46.8992 69.4737 46.0389 70.3445C45.2532 71.25 44.4375 71.7328 44.4375 71.7328C44.4375 71.7328 44.6757 69.6634 45.0834 69.0812C45.511 68.5538 46.4064 68.2899 46.4064 68.2899Z" fill="#8D97FF"/>
<path d="M50.3729 74.5913C50.6517 75.3572 50.249 76.1234 49.483 76.4022C48.717 76.681 47.9508 76.2783 47.6919 75.567C47.4131 74.8011 47.7959 73.9802 48.5072 73.7213C49.2931 73.4972 50.114 73.88 50.3729 74.5913Z" fill="#FF5E1E"/>
<path d="M38.3459 78.6588L33.8047 80.3116L34.8133 76.103L38.3459 78.6588ZM34.2523 79.8389L37.7539 78.5644L35.0472 76.5755L34.2523 79.8389Z" fill="#FF5E1E"/>
<path d="M28.6694 57.5202C28.7689 57.7937 28.6497 58.147 28.3214 58.2665C28.0478 58.366 27.6946 58.2467 27.5751 57.9185C27.4755 57.6449 27.5948 57.2917 27.9231 57.1722C28.2514 57.0527 28.5499 57.1919 28.6694 57.5202Z" fill="#8D97FF"/>
<path d="M29.2468 59.1069C29.3463 59.3804 29.227 59.7336 28.8988 59.8531C28.6252 59.9527 28.272 59.8334 28.1525 59.5051C28.0529 59.2316 28.1722 58.8784 28.5005 58.7589C28.8288 58.6394 29.1273 58.7786 29.2468 59.1069Z" fill="#8D97FF"/>
<path d="M29.8044 60.6388C29.9039 60.9124 29.7847 61.2656 29.4564 61.3851C29.1828 61.4847 28.8296 61.3654 28.7101 61.0371C28.6106 60.7636 28.7298 60.4103 29.0581 60.2909C29.4063 60.2261 29.7048 60.3653 29.8044 60.6388Z" fill="#8D97FF"/>
<path d="M30.382 62.2255C30.4816 62.4991 30.3623 62.8523 30.034 62.9718C29.7605 63.0713 29.4072 62.9521 29.2878 62.6238C29.1882 62.3502 29.3075 61.997 29.6358 61.8775C29.9839 61.8128 30.2824 61.9519 30.382 62.2255Z" fill="#8D97FF"/>
<path d="M30.9594 63.8122C31.059 64.0857 30.9397 64.439 30.6114 64.5585C30.3379 64.658 29.9846 64.5387 29.8652 64.2105C29.7656 63.9369 29.8849 63.5837 30.2131 63.4642C30.5613 63.3994 30.8598 63.5386 30.9594 63.8122Z" fill="#8D97FF"/>
<path d="M31.537 65.3988C31.6366 65.6724 31.5173 66.0256 31.1891 66.1451C30.9155 66.2447 30.5623 66.1254 30.4428 65.7971C30.3432 65.5236 30.4625 65.1703 30.7908 65.0509C31.1191 64.9314 31.4375 65.1253 31.537 65.3988Z" fill="#8D97FF"/>
<path d="M32.1144 66.9855C32.214 67.2591 32.0947 67.6123 31.7665 67.7318C31.4929 67.8314 31.1397 67.7121 31.0202 67.3838C30.9206 67.1102 31.0399 66.757 31.3682 66.6375C31.6964 66.518 32.0149 66.712 32.1144 66.9855Z" fill="#8D97FF"/>
<path d="M32.6921 68.5722C32.7916 68.8458 32.6724 69.199 32.3441 69.3185C32.0705 69.418 31.7173 69.2987 31.5978 68.9705C31.4783 68.6422 31.6175 68.3437 31.9458 68.2242C32.2741 68.1047 32.5726 68.2439 32.6921 68.5722Z" fill="#8D97FF"/>
<path d="M33.2695 70.1589C33.369 70.4324 33.2498 70.7856 32.9215 70.9051C32.6479 71.0047 32.2947 70.8854 32.1752 70.5571C32.0756 70.2836 32.1949 69.9304 32.5232 69.8109C32.8515 69.6914 33.15 69.8306 33.2695 70.1589Z" fill="#8D97FF"/>
<path d="M33.8271 71.6908C33.9267 71.9644 33.8074 72.3176 33.4791 72.4371C33.2055 72.5367 32.8523 72.4174 32.7328 72.0891C32.6333 71.8156 32.7525 71.4623 33.0808 71.3429C33.429 71.2781 33.7275 71.4173 33.8271 71.6908Z" fill="#8D97FF"/>
<path d="M34.4045 73.2775C34.504 73.5511 34.3848 73.9043 34.0565 74.0238C33.7829 74.1234 33.4297 74.0041 33.3102 73.6758C33.2107 73.4022 33.3299 73.049 33.6582 72.9295C34.0064 72.8648 34.3049 73.004 34.4045 73.2775Z" fill="#8D97FF"/>
<path d="M34.9821 74.8642C35.0817 75.1377 34.9624 75.491 34.6341 75.6104C34.3606 75.71 34.0073 75.5907 33.8879 75.2625C33.7883 74.9889 33.9076 74.6357 34.2358 74.5162C34.584 74.4514 34.8825 74.5906 34.9821 74.8642Z" fill="#8D97FF"/>
<path d="M63.0761 69.6578L58.5349 71.3106L59.5435 67.102L63.0761 69.6578ZM58.9825 70.8379L62.4841 69.5635L59.7775 67.5745L58.9825 70.8379Z" fill="#FF5E1E"/>
<path d="M53.3996 48.5192C53.4992 48.7928 53.3799 49.146 53.0516 49.2655C52.778 49.365 52.4248 49.2458 52.3053 48.9175C52.2058 48.6439 52.3251 48.2907 52.6533 48.1712C52.9816 48.0517 53.2801 48.1909 53.3996 48.5192Z" fill="#8D97FF"/>
<path d="M53.977 50.1059C54.0766 50.3794 53.9573 50.7327 53.629 50.8521C53.3554 50.9517 53.0022 50.8324 52.8827 50.5042C52.7832 50.2306 52.9024 49.8774 53.2307 49.7579C53.559 49.6384 53.8575 49.7776 53.977 50.1059Z" fill="#8D97FF"/>
<path d="M54.5346 51.6379C54.6342 51.9114 54.5149 52.2646 54.1866 52.3841C53.9131 52.4837 53.5598 52.3644 53.4403 52.0361C53.3408 51.7626 53.4601 51.4094 53.7883 51.2899C54.1365 51.2251 54.435 51.3643 54.5346 51.6379Z" fill="#8D97FF"/>
<path d="M55.1122 53.2245C55.2118 53.4981 55.0925 53.8513 54.7643 53.9708C54.4907 54.0704 54.1375 53.9511 54.018 53.6228C53.9184 53.3492 54.0377 52.996 54.366 52.8765C54.7142 52.8118 55.0127 52.951 55.1122 53.2245Z" fill="#8D97FF"/>
<path d="M55.6896 54.8112C55.7892 55.0848 55.6699 55.438 55.3416 55.5575C55.0681 55.657 54.7149 55.5378 54.5954 55.2095C54.4958 54.9359 54.6151 54.5827 54.9434 54.4632C55.2916 54.3984 55.5901 54.5376 55.6896 54.8112Z" fill="#8D97FF"/>
<path d="M56.2673 56.3979C56.3668 56.6714 56.2476 57.0247 55.9193 57.1441C55.6457 57.2437 55.2925 57.1244 55.173 56.7961C55.0734 56.5226 55.1927 56.1694 55.521 56.0499C55.8493 55.9304 56.1677 56.1243 56.2673 56.3979Z" fill="#8D97FF"/>
<path d="M56.8447 57.9845C56.9442 58.2581 56.825 58.6113 56.4967 58.7308C56.2231 58.8304 55.8699 58.7111 55.7504 58.3828C55.6508 58.1093 55.7701 57.756 56.0984 57.6366C56.4267 57.5171 56.7451 57.711 56.8447 57.9845Z" fill="#8D97FF"/>
<path d="M57.4223 59.5712C57.5219 59.8448 57.4026 60.198 57.0743 60.3175C56.8007 60.4171 56.4475 60.2978 56.328 59.9695C56.2086 59.6412 56.3478 59.3427 56.676 59.2232C57.0043 59.1037 57.3028 59.2429 57.4223 59.5712Z" fill="#8D97FF"/>
<path d="M57.9997 61.1579C58.0993 61.4315 57.98 61.7847 57.6517 61.9042C57.3781 62.0037 57.0249 61.8844 56.9054 61.5562C56.8059 61.2826 56.9251 60.9294 57.2534 60.8099C57.5817 60.6904 57.8802 60.8296 57.9997 61.1579Z" fill="#8D97FF"/>
<path d="M58.5573 62.6899C58.6569 62.9634 58.5376 63.3166 58.2093 63.4361C57.9358 63.5357 57.5825 63.4164 57.4631 63.0881C57.3635 62.8146 57.4828 62.4614 57.811 62.3419C58.1592 62.2771 58.4577 62.4163 58.5573 62.6899Z" fill="#8D97FF"/>
<path d="M59.1347 64.2765C59.2343 64.5501 59.115 64.9033 58.7867 65.0228C58.5132 65.1224 58.1599 65.0031 58.0404 64.6748C57.9409 64.4013 58.0602 64.048 58.3884 63.9285C58.7366 63.8638 59.0351 64.003 59.1347 64.2765Z" fill="#8D97FF"/>
<path d="M59.7123 65.8632C59.8119 66.1368 59.6926 66.49 59.3643 66.6095C59.0908 66.709 58.7376 66.5898 58.6181 66.2615C58.5185 65.9879 58.6378 65.6347 58.9661 65.5152C59.3143 65.4504 59.6128 65.5896 59.7123 65.8632Z" fill="#8D97FF"/>
<path d="M32.3001 55.5792L31.7529 55.7783L36.3331 68.3623L36.8802 68.1631L32.3001 55.5792Z" fill="#FF5E1E"/>
<path d="M48.7139 49.6051L48.1667 49.8042L52.7469 62.3881L53.2941 62.189L48.7139 49.6051Z" fill="#FF5E1E"/>
<path d="M21.4536 48.2502C20.6876 48.529 19.8667 48.1463 19.5879 47.3803C19.3091 46.6143 19.6919 45.7934 20.4579 45.5146C21.2239 45.2358 22.0448 45.6186 22.3236 46.3846C22.6024 47.1506 22.2196 47.9715 21.4536 48.2502ZM20.657 46.0617C20.2193 46.221 19.9758 46.7434 20.1351 47.1811C20.2944 47.6188 20.8168 47.8624 21.2545 47.7031C21.6922 47.5438 21.9358 47.0214 21.7764 46.5837C21.6171 46.146 21.0947 45.9024 20.657 46.0617Z" fill="#FF5E1E"/>
<path d="M51.1626 37.437C50.3966 37.7158 49.5757 37.333 49.2969 36.567C49.0181 35.8011 49.4009 34.9802 50.1669 34.7014C50.9329 34.4226 51.7538 34.8054 52.0325 35.5714C52.3113 36.3373 51.9286 37.1582 51.1626 37.437ZM50.366 35.2485C49.9283 35.4078 49.6847 35.9302 49.844 36.3679C50.0034 36.8056 50.5257 37.0492 50.9634 36.8899C51.4011 36.7306 51.6447 36.2082 51.4854 35.7705C51.3261 35.3328 50.8037 35.0892 50.366 35.2485Z" fill="#FF5E1E"/>
<path d="M44.1405 59.5105C42.4444 60.1278 40.5787 59.2578 39.9614 57.5617C39.344 55.8656 40.214 54 41.9101 53.3826C42.1837 53.2831 42.4772 53.2382 42.7706 53.1933L43.3029 53.1235L42.8503 53.4122C41.7661 54.1786 41.3437 55.5715 41.8017 56.8299C42.2597 58.0883 43.4787 58.8839 44.8018 58.7741L45.3341 58.7043L44.8815 58.9929C44.6677 59.2566 44.414 59.4109 44.1405 59.5105ZM42.0097 53.6562C40.4777 54.2138 39.6773 55.9302 40.2349 57.4621C40.8323 59.1035 42.7129 59.8442 44.2945 59.0826C43.0758 58.9686 41.9662 58.1332 41.548 56.9842C41.1099 55.7805 41.4428 54.4821 42.3032 53.6113C42.1738 53.5964 42.0644 53.6363 42.0097 53.6562Z" fill="#FF5E1E"/>
<path d="M37.6516 69.4316C37.7511 69.7051 37.6318 70.0583 37.3036 70.1778C36.9753 70.2973 36.6768 70.1581 36.5573 69.8298C36.4577 69.5563 36.577 69.2031 36.9053 69.0836C37.2336 68.9641 37.552 69.158 37.6516 69.4316Z" fill="#8D97FF"/>
<path d="M38.2289 71.0182C38.3285 71.2918 38.2092 71.645 37.881 71.7645C37.5527 71.884 37.2542 71.7448 37.1347 71.4165C37.0351 71.1429 37.1544 70.7897 37.4827 70.6702C37.811 70.5508 38.1095 70.69 38.2289 71.0182Z" fill="#8D97FF"/>
<path d="M38.8066 72.6049C38.9062 72.8785 38.7869 73.2317 38.4586 73.3512C38.1303 73.4707 37.8318 73.3315 37.7123 73.0032C37.6128 72.7296 37.732 72.3764 38.0603 72.2569C38.3886 72.1374 38.6871 72.2766 38.8066 72.6049Z" fill="#8D97FF"/>
<path d="M39.3642 74.1369C39.4638 74.4105 39.3445 74.7637 39.0162 74.8832C38.6879 75.0026 38.3894 74.8634 38.2699 74.5352C38.1704 74.2616 38.2897 73.9084 38.6179 73.7889C38.9462 73.6694 39.2646 73.8633 39.3642 74.1369Z" fill="#8D97FF"/>
<path d="M39.9416 75.7236C40.0412 75.9971 39.9219 76.3503 39.5936 76.4698C39.2653 76.5893 38.9668 76.4501 38.8473 76.1218C38.7478 75.8483 38.867 75.4951 39.1953 75.3756C39.5236 75.2561 39.842 75.45 39.9416 75.7236Z" fill="#8D97FF"/>
<path d="M40.5192 77.3102C40.6188 77.5838 40.4995 77.937 40.1712 78.0565C39.843 78.176 39.5445 78.0368 39.425 77.7085C39.3254 77.4349 39.4447 77.0817 39.773 76.9622C40.1012 76.8428 40.4197 77.0367 40.5192 77.3102Z" fill="#8D97FF"/>
<path d="M41.0966 78.8969C41.1962 79.1705 41.0769 79.5237 40.7486 79.6432C40.4204 79.7626 40.1218 79.6235 40.0024 79.2952C39.9028 79.0216 40.0221 78.6684 40.3504 78.5489C40.6786 78.4294 40.9971 78.6233 41.0966 78.8969Z" fill="#8D97FF"/>
<path d="M11.5829 26.7485C11.8267 26.9076 11.9462 27.2359 11.7871 27.4797C11.628 27.7235 11.2997 27.843 11.0559 27.6839C10.8121 27.5248 10.6926 27.1965 10.8517 26.9527C11.0109 26.7089 11.3391 26.5894 11.5829 26.7485Z" fill="#8D97FF"/>
<path d="M13.0605 27.574C13.3043 27.7331 13.4237 28.0614 13.2646 28.3051C13.1055 28.5489 12.7772 28.6684 12.5335 28.5093C12.2897 28.3502 12.1702 28.0219 12.3293 27.7781C12.4884 27.5343 12.8167 27.4149 13.0605 27.574Z" fill="#8D97FF"/>
<path d="M14.5383 28.3993C14.7821 28.5584 14.9016 28.8867 14.7424 29.1304C14.5833 29.3742 14.2551 29.4937 13.9566 29.3545C13.7128 29.1954 13.5933 28.8671 13.7524 28.6233C13.9662 28.3596 14.2945 28.2402 14.5383 28.3993Z" fill="#8D97FF"/>
<path d="M16.0159 29.2245C16.2596 29.3836 16.3791 29.7118 16.22 29.9556C16.0609 30.1994 15.7326 30.3189 15.4888 30.1598C15.2451 30.0007 15.1256 29.6724 15.2847 29.4286C15.4239 29.1301 15.7721 29.0654 16.0159 29.2245Z" fill="#8D97FF"/>
<path d="M17.4737 29.9951C17.7175 30.1542 17.837 30.4825 17.6978 30.781C17.5387 31.0248 17.2104 31.1443 16.9666 30.9852C16.7228 30.8261 16.6034 30.4978 16.7625 30.254C16.9017 29.9555 17.2299 29.836 17.4737 29.9951Z" fill="#8D97FF"/>
<path d="M18.9513 30.8203C19.1951 30.9794 19.3146 31.3077 19.1754 31.6062C19.0163 31.85 18.688 31.9695 18.4442 31.8104C18.2004 31.6513 18.081 31.323 18.2202 31.0245C18.3793 30.7807 18.7075 30.6612 18.9513 30.8203Z" fill="#8D97FF"/>
<path d="M20.4289 31.6458C20.6727 31.8049 20.7922 32.1332 20.653 32.4317C20.4939 32.6755 20.1656 32.795 19.9218 32.6359C19.678 32.4768 19.5585 32.1485 19.7176 31.9047C19.8369 31.5515 20.1851 31.4867 20.4289 31.6458Z" fill="#8D97FF"/>
<path d="M45.8333 14.2824C45.7488 14.561 45.8683 14.8893 46.1469 14.9738C46.4255 15.0583 46.7538 14.9388 46.8382 14.6602C46.9227 14.3816 46.8032 14.0533 46.5247 13.9689C46.2461 13.8844 45.9178 14.0039 45.8333 14.2824Z" fill="#8D97FF"/>
<path d="M45.2317 15.8645C45.1473 16.1431 45.2667 16.4713 45.5453 16.5558C45.8239 16.6403 46.1522 16.5208 46.2914 16.2223C46.3759 15.9437 46.2564 15.6155 45.9778 15.531C45.6445 15.4664 45.3162 15.5859 45.2317 15.8645Z" fill="#8D97FF"/>
<path d="M44.6304 17.4465C44.5459 17.7251 44.6654 18.0534 44.944 18.1379C45.2226 18.2223 45.5509 18.1029 45.6354 17.8243C45.7199 17.5457 45.6004 17.2174 45.3218 17.1329C45.0432 17.0484 44.7149 17.1679 44.6304 17.4465Z" fill="#8D97FF"/>
<path d="M44.0289 19.0286C43.9444 19.3072 44.0639 19.6355 44.3425 19.72C44.6211 19.8045 44.9494 19.685 45.0339 19.4064C45.1184 19.1278 44.9989 18.7995 44.7203 18.7151C44.4218 18.5759 44.1134 18.7501 44.0289 19.0286Z" fill="#8D97FF"/>
<path d="M43.4077 20.5561C43.3232 20.8347 43.4427 21.163 43.7412 21.3022C44.0198 21.3867 44.3481 21.2672 44.4326 20.9886C44.517 20.71 44.3976 20.3817 44.119 20.2972C43.8205 20.158 43.4922 20.2775 43.4077 20.5561Z" fill="#8D97FF"/>
<path d="M42.8062 22.1382C42.7217 22.4168 42.8412 22.745 43.1397 22.8842C43.4183 22.9687 43.7466 22.8492 43.8311 22.5706C43.9155 22.292 43.7961 21.9638 43.4976 21.8246C43.219 21.7401 42.8907 21.8596 42.8062 22.1382Z" fill="#8D97FF"/>
<path d="M42.2047 23.72C42.1202 23.9986 42.2397 24.3269 42.5382 24.4661C42.8168 24.5506 43.1451 24.4311 43.2295 24.1525C43.314 23.8739 43.1945 23.5456 42.9159 23.4612C42.5975 23.2672 42.2892 23.4414 42.2047 23.72Z" fill="#8D97FF"/>
<path d="M54.0656 63.4574C54.1652 63.731 54.0459 64.0842 53.7176 64.2037C53.4441 64.3033 53.0908 64.184 52.9714 63.8557C52.8718 63.5822 52.9911 63.2289 53.3193 63.1095C53.5929 63.0099 53.966 63.1839 54.0656 63.4574Z" fill="#8D97FF"/>
<path d="M54.643 65.0441C54.7426 65.3177 54.6233 65.6709 54.295 65.7904C54.0215 65.89 53.6682 65.7707 53.5487 65.4424C53.4492 65.1688 53.5685 64.8156 53.8967 64.6961C54.1703 64.5966 54.5235 64.7158 54.643 65.0441Z" fill="#8D97FF"/>
<path d="M55.2206 66.6308C55.3202 66.9044 55.2009 67.2576 54.8727 67.3771C54.5991 67.4766 54.2459 67.3573 54.1264 67.0291C54.0268 66.7555 54.1461 66.4023 54.4744 66.2828C54.7479 66.1832 55.1012 66.3025 55.2206 66.6308Z" fill="#8D97FF"/>
<path d="M55.7783 68.1628C55.8778 68.4363 55.7585 68.7896 55.4303 68.909C55.1567 69.0086 54.8035 68.8893 54.684 68.561C54.5844 68.2875 54.7037 67.9343 55.032 67.8148C55.3255 67.7699 55.6787 67.8892 55.7783 68.1628Z" fill="#8D97FF"/>
<path d="M56.3557 69.7494C56.4552 70.023 56.3359 70.3762 56.0077 70.4957C55.7341 70.5953 55.3809 70.476 55.2614 70.1477C55.1618 69.8742 55.2811 69.5209 55.6094 69.4014C55.9029 69.3566 56.2561 69.4759 56.3557 69.7494Z" fill="#8D97FF"/>
<path d="M56.9333 71.3361C57.0329 71.6097 56.9136 71.9629 56.5853 72.0824C56.3117 72.1819 55.9585 72.0627 55.839 71.7344C55.7395 71.4608 55.8587 71.1076 56.187 70.9881C56.4805 70.9433 56.8337 71.0625 56.9333 71.3361Z" fill="#8D97FF"/>
<path d="M57.5107 72.9228C57.6103 73.1963 57.491 73.5496 57.1627 73.669C56.8891 73.7686 56.5359 73.6493 56.4164 73.3211C56.3169 73.0475 56.4361 72.6943 56.7644 72.5748C57.038 72.4752 57.4111 72.6492 57.5107 72.9228Z" fill="#8D97FF"/>
</g>
<defs>
<clipPath id="clip0_36_489">
<rect width="52.2853" height="80" fill="white" transform="translate(0 18.0767) rotate(-20)"/>
</clipPath>
</defs>
</svg>
