<svg width="89" height="56" viewBox="0 0 89 56" fill="none" xmlns="http://www.w3.org/2000/svg">
<g clip-path="url(#clip0_36_836)">
<path d="M75.9023 43.3701L62.5491 52.8242L62.3574 52.5687L75.7106 43.1146L75.9023 43.3701Z" fill="#FF5E1E"/>
<path d="M15.0143 21.2044C15.0143 21.3322 14.9504 21.4599 14.8226 21.5238L8.56128 24.0151C8.36961 24.079 8.24183 24.0151 8.11405 23.8235C8.05016 23.6318 8.11405 23.5041 8.30572 23.3763L14.567 20.885C14.7587 20.8212 14.8865 20.885 15.0143 21.0767C15.0143 21.0767 15.0143 21.1405 15.0143 21.2044Z" fill="#8D97FF"/>
<path d="M14.3115 18.7132C14.3115 18.9048 14.1837 19.0326 14.0559 19.0326L1.78886 20.374C1.59719 20.374 1.46941 20.2463 1.40552 20.1185C1.40552 19.9269 1.5333 19.7991 1.66108 19.7352L13.9281 18.3938C14.1837 18.3938 14.3115 18.5215 14.3115 18.7132Z" fill="#8D97FF"/>
<path d="M12.906 16.1581C12.906 16.222 12.906 16.222 12.906 16.1581C12.906 16.3498 12.7143 16.4775 12.5865 16.4775L0.319454 15.3277C0.127782 15.3277 -5.86374e-08 15.1361 -6.42219e-08 15.0083C-7.25987e-08 14.8167 0.191673 14.6889 0.319454 14.6889L12.5865 15.8387C12.7782 15.9026 12.906 16.0304 12.906 16.1581Z" fill="#8D97FF"/>
<path d="M20.3811 9.89799C20.3811 10.0257 20.3173 10.1535 20.1256 10.2174C19.9339 10.2813 19.8061 10.1535 19.7422 10.0257L17.7616 3.57394C17.6977 3.3823 17.8255 3.25455 17.9533 3.19067C18.145 3.12679 18.2728 3.25455 18.3366 3.38231L20.3173 9.83411C20.3811 9.83411 20.3811 9.89799 20.3811 9.89799Z" fill="#8D97FF"/>
<path d="M18.0172 10.9198C18.0172 11.0476 17.9533 11.1114 17.8894 11.1753C17.7616 11.2392 17.5699 11.2392 17.4422 11.1114L10.7336 0.763005C10.6697 0.635246 10.6697 0.44361 10.7975 0.315852C10.9253 0.188093 11.117 0.251972 11.2447 0.37973L18.0172 10.7921C18.0172 10.8559 18.0172 10.8559 18.0172 10.9198Z" fill="#8D97FF"/>
<path d="M15.1421 11.4309C15.1421 11.4948 15.1421 11.6225 15.0782 11.6864C14.9504 11.8142 14.7587 11.8142 14.6309 11.6864L5.94178 2.87108C5.814 2.74332 5.814 2.55168 5.94178 2.42393C6.06956 2.29617 6.26124 2.29617 6.38902 2.42393L15.0782 11.2393C15.1421 11.3031 15.1421 11.367 15.1421 11.4309Z" fill="#8D97FF"/>
<path d="M51.6239 31.4247L33.7345 35.3213L24.9814 24.3341L32.2011 22.2261L32.3289 22.2899L51.6239 31.4247ZM33.9901 34.5547L49.6433 31.1691L32.1372 22.8648L26.0676 24.6535L33.9901 34.5547Z" fill="#FF5E1E"/>
<path d="M69.7049 39.9845L69.1938 40.3039C68.6826 40.6233 55.9044 47.9694 52.7738 47.8416C49.0681 47.7139 37.3761 38.132 36.865 37.7487L36.4177 37.3654L52.5821 31.8718L69.7049 39.9845ZM37.7594 37.6209C39.9317 39.4096 49.707 47.0751 52.8377 47.2028C55.4572 47.2667 65.8714 41.4537 68.3632 40.0483L52.646 32.5745L37.7594 37.6209Z" fill="#FF5E1E"/>
<path d="M31.4981 22.0345L31.4981 22.0983C31.4981 22.2261 31.3703 22.3539 31.1787 22.3539L23.4479 22.6094C23.384 22.6094 23.2562 22.6094 23.1923 22.5455L15.206 14.8161C15.0782 14.6884 15.0782 14.5606 15.1421 14.4328C15.206 14.3051 15.3976 14.2412 15.5254 14.3051L31.3065 21.7151C31.4342 21.7789 31.4981 21.9067 31.4981 22.0345ZM23.5118 21.9706L29.837 21.7789L16.9949 15.6465L23.5118 21.9706Z" fill="#FF5E1E"/>
<path d="M74.3051 42.4122C74.3051 42.5399 74.2412 42.6038 74.1773 42.6677L61.0796 51.8024C60.9518 51.9302 60.7602 51.8663 60.6324 51.7386C60.5046 51.6108 60.5685 51.4192 60.6963 51.2914L73.7939 42.0928C73.9217 41.965 74.1134 42.0289 74.2412 42.1567C74.3051 42.2844 74.3051 42.3483 74.3051 42.4122Z" fill="#8D97FF"/>
<path d="M16.42 12.8999C17.3784 13.3471 17.8256 14.5608 17.3784 15.519C16.9311 16.4772 15.7172 16.9243 14.7588 16.4772C13.8005 16.03 13.3532 14.8163 13.8005 13.8581C14.2477 12.8999 15.4616 12.4528 16.42 12.8999Z" fill="#FF5E1E"/>
<path d="M47.1801 44.7473L47.4407 45.3306L64.0654 37.9045L63.8048 37.3213L47.1801 44.7473Z" fill="#FF5E1E"/>
<path d="M39.7998 39.4428L40.0437 40.0332L55.2797 33.7425L55.0359 33.152L39.7998 39.4428Z" fill="#FF5E1E"/>
<path d="M30.2787 30.1362L30.3982 30.7637L43.5778 28.2538L43.4583 27.6263L30.2787 30.1362Z" fill="#FF5E1E"/>
<path d="M47.7264 41.7732C47.9181 42.1565 47.7903 42.6036 47.407 42.7953C47.0236 42.9869 46.5764 42.8591 46.3847 42.4759C46.193 42.0926 46.3208 41.6454 46.7041 41.4538C47.0875 41.2622 47.5347 41.4538 47.7264 41.7732Z" fill="#FF5E1E"/>
<path d="M49.7071 40.7512C49.8988 41.1345 49.771 41.5816 49.3877 41.7733C49.0043 41.9649 48.5571 41.8372 48.3654 41.4539C48.1737 41.0706 48.3015 40.6235 48.6849 40.4318C49.0682 40.2402 49.5154 40.3679 49.7071 40.7512Z" fill="#FF5E1E"/>
<path d="M51.6876 39.7292C51.8792 40.1125 51.7515 40.5597 51.3681 40.7513C50.9848 40.9429 50.5375 40.8152 50.3459 40.4319C50.1542 40.0486 50.282 39.6015 50.6653 39.4098C51.0487 39.2182 51.4959 39.346 51.6876 39.7292Z" fill="#FF5E1E"/>
<path d="M53.7323 38.7068C53.9239 39.0901 53.7961 39.5372 53.4128 39.7289C53.0295 39.9205 52.5822 39.7927 52.3906 39.4095C52.1989 39.0262 52.3267 38.579 52.71 38.3874C53.0933 38.1957 53.5406 38.3235 53.7323 38.7068Z" fill="#FF5E1E"/>
<path d="M55.7127 37.6208C55.9044 38.0041 55.7766 38.4513 55.3933 38.6429C55.0099 38.8346 54.5627 38.7068 54.371 38.3235C54.1793 37.9402 54.3071 37.4931 54.6905 37.3014C55.0738 37.1098 55.521 37.3014 55.7127 37.6208Z" fill="#FF5E1E"/>
<path d="M57.6934 36.5989C57.8851 36.9821 57.7573 37.4293 57.374 37.6209C56.9906 37.8126 56.5434 37.6848 56.3517 37.3015C56.1601 36.9183 56.2878 36.4711 56.6712 36.2795C57.1184 36.0878 57.5657 36.2156 57.6934 36.5989Z" fill="#FF5E1E"/>
<path d="M48.9532 45.8644L49.2092 46.4497L66.302 38.9756L66.046 38.3903L48.9532 45.8644Z" fill="#FF5E1E"/>
<path d="M64.4795 53.416L64.854 53.9336L77.9504 44.4614L77.5759 43.9438L64.4795 53.416Z" fill="#FF5E1E"/>
<path d="M83.7609 46.692L83.697 46.9475C83.6331 47.1392 82.7386 51.8023 77.5635 54.0381C67.3409 58.4458 57.0545 49.7582 56.9906 49.6943L56.6711 49.4388L70.7271 40.5596L83.7609 46.692ZM57.7573 49.4388C59.6101 50.8441 68.491 57.2321 77.3718 53.3993C81.5886 51.6107 82.8025 47.9696 83.0581 47.0114L70.791 41.1984L57.7573 49.4388Z" fill="#8D97FF"/>
<path d="M74.7075 27.1113L75.8281 43.4268L76.1468 43.4049L75.0262 27.0894L74.7075 27.1113Z" fill="#FF5E1E"/>
<path d="M51.3684 32.0635L31.0511 22.4177L29.1982 15.9659L45.3626 15.902L51.3684 32.0635ZM31.6261 21.9706L50.2183 30.7859L44.9793 16.4769L30.0927 16.5408L31.6261 21.9706Z" fill="#FF5E1E"/>
<path d="M68.8104 40.3042L52.3266 32.4471L52.2627 32.3193L46.5764 16.605L47.0875 16.6689C47.6626 16.7966 61.7824 19.2879 64.2103 22.0986C66.2548 24.4622 68.6188 39.0266 68.6827 39.6654L68.8104 40.3042ZM52.8377 31.9999L67.9799 39.2183C67.0854 33.8524 65.2326 24.2705 63.7631 22.5458C61.7186 20.1822 50.2182 17.9465 47.5348 17.4354L52.8377 31.9999Z" fill="#FF5E1E"/>
<path d="M31.6261 22.1625C31.6261 22.2264 31.6261 22.2902 31.5622 22.3541C31.4983 22.4819 31.3066 22.4819 31.1789 22.418L15.4617 15.008C15.3339 14.9441 15.27 14.7525 15.27 14.6247C15.3339 14.497 15.4617 14.3692 15.5895 14.3692L26.6426 15.6468C26.7065 15.6468 26.8343 15.7107 26.8343 15.7746L31.4983 21.9708C31.6261 22.0347 31.6261 22.0986 31.6261 22.1625ZM17.4423 15.2635L30.2844 21.3321L26.4509 16.2856L17.4423 15.2635Z" fill="#FF5E1E"/>
<path d="M74.4967 42.54C74.4967 42.7316 74.3689 42.8594 74.1773 42.8594C73.9856 42.8594 73.8578 42.7316 73.8578 42.54L72.7078 26.5702C72.7078 26.3785 72.8355 26.2508 73.0272 26.2508C73.2189 26.2508 73.3467 26.3785 73.3467 26.5702L74.4967 42.54Z" fill="#8D97FF"/>
<path d="M50.2886 17.8758L55.0244 33.6611L55.6364 33.4776L50.9006 17.6923L50.2886 17.8758Z" fill="#FF5E1E"/>
<path d="M37.0961 16.3985L43.4639 28.2061L44.0262 27.9029L37.6585 16.0953L37.0961 16.3985Z" fill="#FF5E1E"/>
<path d="M56.863 22.5457C57.2463 22.4818 57.5019 22.0986 57.438 21.6514C57.3741 21.2681 56.9908 21.0126 56.5435 21.0765C56.1602 21.1404 55.9046 21.5237 55.9685 21.9708C56.0324 22.418 56.4158 22.6735 56.863 22.5457Z" fill="#8D97FF"/>
<path d="M57.3103 24.7812C57.6936 24.7174 57.9492 24.3341 57.8853 23.8869C57.8214 23.5037 57.438 23.2481 56.9908 23.312C56.6075 23.3759 56.3519 23.7592 56.4158 24.2063C56.4797 24.5896 56.9269 24.8451 57.3103 24.7812Z" fill="#8D97FF"/>
<path d="M57.7575 27.0171C58.1409 26.9532 58.3964 26.506 58.3325 26.1228C58.2687 25.7395 57.8853 25.484 57.4381 25.5478C57.0547 25.6117 56.7992 25.995 56.8631 26.4422C56.9908 26.8254 57.3742 27.081 57.7575 27.0171Z" fill="#8D97FF"/>
<path d="M58.2048 29.1893C58.5881 29.1254 58.8437 28.7421 58.7798 28.295C58.7159 27.9117 58.3326 27.6562 57.8853 27.7201C57.502 27.7839 57.2464 28.1672 57.3103 28.6144C57.4381 29.0615 57.8215 29.317 58.2048 29.1893Z" fill="#8D97FF"/>
<path d="M58.6521 31.4248C59.0354 31.3609 59.291 30.9776 59.2271 30.5305C59.1632 30.1472 58.716 29.8917 58.3326 29.9556C57.9493 30.0194 57.6937 30.4027 57.7576 30.8499C57.8854 31.2331 58.2687 31.4887 58.6521 31.4248Z" fill="#8D97FF"/>
<path d="M59.1631 33.6606C59.5464 33.5967 59.802 33.2135 59.7381 32.7663C59.6742 32.383 59.2269 32.1275 58.8436 32.1914C58.4602 32.2553 58.2047 32.6386 58.2686 33.0857C58.3325 33.469 58.7158 33.7245 59.1631 33.6606Z" fill="#8D97FF"/>
<path d="M76.7217 28.1974L77.637 44.333L78.2748 44.2968L77.3596 28.1613L76.7217 28.1974Z" fill="#FF5E1E"/>
<path d="M85.8693 41.0706C85.8693 44.8394 83.8886 47.1391 83.8248 47.2669L83.697 47.4585L70.6632 41.2622L70.6632 41.0706L68.6826 24.7175L69.1299 24.7814C69.2576 24.7814 82.4831 27.2727 85.4859 38.0044C85.7415 39.0264 85.8693 40.0485 85.8693 41.0706ZM83.5053 46.6281C83.9525 45.9893 85.2304 43.9451 85.2304 41.0706C85.2304 40.1124 85.1026 39.1542 84.847 38.196C82.2275 28.9335 71.6855 26.059 69.3854 25.5479L71.2383 40.8151L83.5053 46.6281Z" fill="#8D97FF"/>
<path d="M15.5255 14.4328C15.5255 14.4967 15.5255 14.4967 15.5255 14.5605C15.4616 14.6883 15.2699 14.816 15.0782 14.6883L6.70854 10.7278C6.58076 10.6639 6.45298 10.4723 6.58076 10.2806C6.64465 10.1529 6.83632 10.0251 7.028 10.1529L15.3977 14.1134C15.4616 14.2411 15.5255 14.3689 15.5255 14.4328Z" fill="#FF5E1E"/>
<path d="M89 49.1833C89 49.2471 89 49.3749 88.9361 49.4388C88.8083 49.7582 88.4249 49.8859 88.1055 49.7582L15.1421 15.1356C14.8226 15.0079 14.6949 14.6246 14.8226 14.3052C14.9504 13.9858 15.3338 13.8581 15.6532 13.9858L88.6166 48.6083C88.8722 48.7361 89 48.9916 89 49.1833Z" fill="#FF5E1E"/>
<path d="M7.73072 10.8558L4.34451 11.4307L2.04443 8.17283L5.87789 7.85344L7.73072 10.8558Z" fill="#FF5E1E"/>
<path d="M58.7557 20.1138L63.2979 37.5459L63.9161 37.3849L59.374 19.9528L58.7557 20.1138Z" fill="#FF5E1E"/>
<path d="M61.4318 20.9583L65.7261 38.519L66.3467 38.3673L62.0525 20.8065L61.4318 20.9583Z" fill="#FF5E1E"/>
</g>
<defs>
<clipPath id="clip0_36_836">
<rect width="55" height="89" fill="white" transform="translate(0 55.252) rotate(-90)"/>
</clipPath>
</defs>
</svg>
