<svg width="100" height="61" viewBox="0 0 100 61" fill="none" xmlns="http://www.w3.org/2000/svg">
<g clip-path="url(#clip0_36_890)">
<path d="M10.3005 44.6425L10.3005 19.8208L9.99397 19.8208L9.99397 44.6425L10.3005 44.6425Z" fill="#FF5E1E"/>
<path d="M4.78223 45.2524L4.78223 19.8208L4.47567 19.8208L4.47567 45.2524L4.78223 45.2524Z" fill="#FF5E1E"/>
<path d="M7.5415 45.0084L7.5415 19.8208L6.92838 19.8208L6.92838 45.0084L7.5415 45.0084Z" fill="#FF5E1E"/>
<path d="M22.5024 56.1676L4.45532 52.3291L4.32712 52.9255L22.3742 56.764L22.5024 56.1676Z" fill="#8D97FF"/>
<path d="M5.94717 52.7539C5.94717 52.7539 7.90916 53.1808 8.39966 55.0714C8.89016 56.962 8.82885 58.4867 8.82885 58.4867C8.82885 58.4867 6.19242 56.3521 5.88586 55.2544C5.51798 54.1566 5.94717 52.7539 5.94717 52.7539Z" fill="#8D97FF"/>
<path d="M6.25384 52.6928C6.25384 52.6928 8.21582 53.2417 9.50337 51.778C10.7909 50.3143 11.4041 48.9116 11.4041 48.9116C11.4041 48.9116 8.0932 49.6435 7.29614 50.4363C6.49908 51.2291 6.25384 52.6928 6.25384 52.6928Z" fill="#8D97FF"/>
<path d="M13.2436 54.5225C13.2436 54.5225 15.2056 54.9494 15.696 56.84C16.1865 58.7306 16.1252 60.2552 16.1252 60.2552C16.1252 60.2552 13.4888 58.1207 13.1822 57.0229C12.7531 55.9252 13.2436 54.5225 13.2436 54.5225Z" fill="#8D97FF"/>
<path d="M13.2436 54.3395C13.2436 54.3395 15.2056 54.8884 16.4931 53.4247C17.7807 51.9611 18.3938 50.5583 18.3938 50.5583C18.3938 50.5583 15.083 51.2902 14.2859 52.083C13.4888 52.8149 13.2436 54.3395 13.2436 54.3395Z" fill="#8D97FF"/>
<path d="M24.2184 59.2184C25.4446 59.5234 26.7322 58.7305 26.9774 57.5108C27.284 56.2911 26.4869 55.0713 25.2607 54.7664C24.0344 54.4614 22.8082 55.2543 22.5016 56.474C22.1951 57.6938 22.9308 58.9135 24.2184 59.2184Z" fill="#FF5E1E"/>
<path d="M22.9109 7.40932L22.7812 6.81323L4.9831 10.6423L5.11271 11.2384L22.9109 7.40932Z" fill="#8D97FF"/>
<path d="M6.31494 10.9168C6.31494 10.9168 8.27693 10.4289 9.50317 11.9536C10.7294 13.4783 11.3425 14.82 11.3425 14.82C11.3425 14.82 8.03168 14.0272 7.23462 13.2343C6.49888 12.3805 6.31494 10.9168 6.31494 10.9168Z" fill="#8D97FF"/>
<path d="M6.19224 10.4289C6.19224 10.4289 8.21554 10.0629 8.70604 8.17235C9.19654 6.28175 9.19653 4.75708 9.19653 4.75708C9.19653 4.75708 6.56011 6.83064 6.13092 7.9284C5.76305 9.02617 6.19224 10.4289 6.19224 10.4289Z" fill="#8D97FF"/>
<path d="M13.6111 9.39203C13.6111 9.39203 15.5731 8.90413 16.7993 10.3678C18.0256 11.8925 18.6387 13.2342 18.6387 13.2342C18.6387 13.2342 15.3278 12.4414 14.5308 11.6485C13.795 10.8557 13.6111 9.39203 13.6111 9.39203Z" fill="#8D97FF"/>
<path d="M13.4884 8.84318C13.4884 8.84318 15.5117 8.47726 16.0022 6.58666C16.4927 4.69606 16.4927 3.17139 16.4927 3.17139C16.4927 3.17139 13.8563 5.24494 13.4271 6.34271C13.0592 7.44048 13.4884 8.84318 13.4884 8.84318Z" fill="#8D97FF"/>
<path d="M25.567 8.90406C26.7933 8.66011 27.5903 7.44037 27.3451 6.15965C27.0998 4.93991 25.8736 4.14707 24.586 4.39102C23.3598 4.63497 22.5627 5.85471 22.808 7.13544C23.1145 8.35518 24.3408 9.14801 25.567 8.90406Z" fill="#FF5E1E"/>
<path d="M69.7731 31.3473C69.4666 31.3473 69.2213 31.1033 69.2213 30.7984C69.2213 30.4935 69.4666 30.2495 69.7731 30.2495C70.0797 30.2495 70.325 30.4935 70.325 30.7984C70.325 31.1033 70.0797 31.3473 69.7731 31.3473Z" fill="#8D97FF"/>
<path d="M68.1791 31.3473C67.8726 31.3473 67.6273 31.1033 67.6273 30.7984C67.6273 30.4935 67.8726 30.2495 68.1791 30.2495C68.4857 30.2495 68.731 30.4935 68.731 30.7984C68.731 31.1033 68.4857 31.3473 68.1791 31.3473Z" fill="#8D97FF"/>
<path d="M66.5849 31.3473C66.2783 31.3473 66.0331 31.1033 66.0331 30.7984C66.0331 30.4935 66.2783 30.2495 66.5849 30.2495C66.8915 30.2495 67.1367 30.4935 67.1367 30.7984C67.0754 31.1033 66.8302 31.3473 66.5849 31.3473Z" fill="#8D97FF"/>
<path d="M64.9294 31.3473C64.6228 31.3473 64.3776 31.1033 64.3776 30.7984C64.3776 30.4935 64.6228 30.2495 64.9294 30.2495C65.236 30.2495 65.4812 30.4935 65.4812 30.7984C65.4812 31.1033 65.236 31.3473 64.9294 31.3473Z" fill="#8D97FF"/>
<path d="M63.3354 31.3473C63.0288 31.3473 62.7836 31.1033 62.7836 30.7984C62.7836 30.4935 63.0288 30.2495 63.3354 30.2495C63.642 30.2495 63.8872 30.4935 63.8872 30.7984C63.8872 31.1033 63.642 31.3473 63.3354 31.3473Z" fill="#8D97FF"/>
<path d="M61.7412 31.3473C61.4346 31.3473 61.1894 31.1033 61.1894 30.7984C61.1894 30.4935 61.4346 30.2495 61.7412 30.2495C62.0477 30.2495 62.293 30.4935 62.293 30.7984C62.2317 31.1033 61.9864 31.3473 61.7412 31.3473Z" fill="#8D97FF"/>
<path d="M60.0859 31.3473C59.7793 31.3473 59.5341 31.1033 59.5341 30.7984C59.5341 30.4935 59.7793 30.2495 60.0859 30.2495C60.3924 30.2495 60.6377 30.4935 60.6377 30.7984C60.6377 31.1033 60.3924 31.3473 60.0859 31.3473Z" fill="#8D97FF"/>
<path d="M58.4917 31.3473C58.1851 31.3473 57.9398 31.1033 57.9398 30.7984C57.9398 30.4935 58.1851 30.2495 58.4917 30.2495C58.7982 30.2495 59.0435 30.4935 59.0435 30.7984C59.0435 31.1033 58.7982 31.3473 58.4917 31.3473Z" fill="#8D97FF"/>
<path d="M56.8977 31.3473C56.5911 31.3473 56.3458 31.1033 56.3458 30.7984C56.3458 30.4935 56.5911 30.2495 56.8977 30.2495C57.2042 30.2495 57.4495 30.4935 57.4495 30.7984C57.3882 31.1033 57.2042 31.3473 56.8977 31.3473Z" fill="#8D97FF"/>
<path d="M55.2421 31.3473C54.9356 31.3473 54.6903 31.1033 54.6903 30.7984C54.6903 30.4935 54.9356 30.2495 55.2421 30.2495C55.5487 30.2495 55.7939 30.4935 55.7939 30.7984C55.7939 31.1033 55.5487 31.3473 55.2421 31.3473Z" fill="#8D97FF"/>
<path d="M53.6481 31.3473C53.3416 31.3473 53.0963 31.1033 53.0963 30.7984C53.0963 30.4935 53.3416 30.2495 53.6481 30.2495C53.9547 30.2495 54.2 30.4935 54.2 30.7984C54.2 31.1033 53.9547 31.3473 53.6481 31.3473Z" fill="#8D97FF"/>
<path d="M52.0539 31.3473C51.7473 31.3473 51.5021 31.1033 51.5021 30.7984C51.5021 30.4935 51.7473 30.2495 52.0539 30.2495C52.3605 30.2495 52.6057 30.4935 52.6057 30.7984C52.6057 31.1033 52.3605 31.3473 52.0539 31.3473Z" fill="#8D97FF"/>
<path d="M89.3317 31.3473C89.0252 31.3473 88.7799 31.1033 88.7799 30.7984C88.7799 30.4935 89.0252 30.2495 89.3317 30.2495C89.6383 30.2495 89.8835 30.4935 89.8835 30.7984C89.8835 31.1033 89.6383 31.3473 89.3317 31.3473Z" fill="#8D97FF"/>
<path d="M87.7377 31.3473C87.4312 31.3473 87.1859 31.1033 87.1859 30.7984C87.1859 30.4935 87.4312 30.2495 87.7377 30.2495C88.0443 30.2495 88.2896 30.4935 88.2896 30.7984C88.2896 31.1033 88.0443 31.3473 87.7377 31.3473Z" fill="#8D97FF"/>
<path d="M86.1435 31.3473C85.8369 31.3473 85.5917 31.1033 85.5917 30.7984C85.5917 30.4935 85.8369 30.2495 86.1435 30.2495C86.4501 30.2495 86.6953 30.4935 86.6953 30.7984C86.634 31.1033 86.3888 31.3473 86.1435 31.3473Z" fill="#8D97FF"/>
<path d="M84.488 31.3473C84.1814 31.3473 83.9362 31.1033 83.9362 30.7984C83.9362 30.4935 84.1814 30.2495 84.488 30.2495C84.7945 30.2495 85.0398 30.4935 85.0398 30.7984C85.0398 31.1033 84.7945 31.3473 84.488 31.3473Z" fill="#8D97FF"/>
<path d="M82.894 31.3473C82.5874 31.3473 82.3422 31.1033 82.3422 30.7984C82.3422 30.4935 82.5874 30.2495 82.894 30.2495C83.2006 30.2495 83.4458 30.4935 83.4458 30.7984C83.4458 31.1033 83.2006 31.3473 82.894 31.3473Z" fill="#8D97FF"/>
<path d="M81.2998 31.3473C80.9932 31.3473 80.7479 31.1033 80.7479 30.7984C80.7479 30.4935 80.9932 30.2495 81.2998 30.2495C81.6063 30.2495 81.8516 30.4935 81.8516 30.7984C81.7903 31.1033 81.6063 31.3473 81.2998 31.3473Z" fill="#8D97FF"/>
<path d="M79.6445 31.3473C79.3379 31.3473 79.0927 31.1033 79.0927 30.7984C79.0927 30.4935 79.3379 30.2495 79.6445 30.2495C79.951 30.2495 80.1963 30.4935 80.1963 30.7984C80.1963 31.1033 79.951 31.3473 79.6445 31.3473Z" fill="#8D97FF"/>
<path d="M78.0502 31.3473C77.7437 31.3473 77.4984 31.1033 77.4984 30.7984C77.4984 30.4935 77.7437 30.2495 78.0502 30.2495C78.3568 30.2495 78.6021 30.4935 78.6021 30.7984C78.6021 31.1033 78.3568 31.3473 78.0502 31.3473Z" fill="#8D97FF"/>
<path d="M76.4562 31.3473C76.1497 31.3473 75.9044 31.1033 75.9044 30.7984C75.9044 30.4935 76.1497 30.2495 76.4562 30.2495C76.7628 30.2495 77.0081 30.4935 77.0081 30.7984C76.9467 31.1033 76.7628 31.3473 76.4562 31.3473Z" fill="#8D97FF"/>
<path d="M74.8007 31.3473C74.4942 31.3473 74.2489 31.1033 74.2489 30.7984C74.2489 30.4935 74.4942 30.2495 74.8007 30.2495C75.1073 30.2495 75.3525 30.4935 75.3525 30.7984C75.3525 31.1033 75.1073 31.3473 74.8007 31.3473Z" fill="#8D97FF"/>
<path d="M73.2067 31.3473C72.9002 31.3473 72.6549 31.1033 72.6549 30.7984C72.6549 30.4935 72.9002 30.2495 73.2067 30.2495C73.5133 30.2495 73.7585 30.4935 73.7585 30.7984C73.7585 31.1033 73.5133 31.3473 73.2067 31.3473Z" fill="#8D97FF"/>
<path d="M71.6125 31.3473C71.3059 31.3473 71.0607 31.1033 71.0607 30.7984C71.0607 30.4935 71.3059 30.2495 71.6125 30.2495C71.9191 30.2495 72.1643 30.4935 72.1643 30.7984C72.1643 31.1033 71.9191 31.3473 71.6125 31.3473Z" fill="#8D97FF"/>
<path d="M68.9147 21.5284C68.6082 21.5284 68.3629 21.2845 68.3629 20.9795C68.3629 20.6746 68.6082 20.4307 68.9147 20.4307C69.2213 20.4307 69.4666 20.6746 69.4666 20.9795C69.4052 21.2845 69.16 21.5284 68.9147 21.5284Z" fill="#8D97FF"/>
<path d="M67.2592 21.5284C66.9527 21.5284 66.7074 21.2845 66.7074 20.9795C66.7074 20.6746 66.9527 20.4307 67.2592 20.4307C67.5658 20.4307 67.811 20.6746 67.811 20.9795C67.811 21.2845 67.5658 21.5284 67.2592 21.5284Z" fill="#8D97FF"/>
<path d="M65.6652 21.5284C65.3587 21.5284 65.1134 21.2845 65.1134 20.9795C65.1134 20.6746 65.3587 20.4307 65.6652 20.4307C65.9718 20.4307 66.217 20.6746 66.217 20.9795C66.217 21.2845 65.9718 21.5284 65.6652 21.5284Z" fill="#8D97FF"/>
<path d="M64.071 21.5284C63.7644 21.5284 63.5192 21.2845 63.5192 20.9795C63.5192 20.6746 63.7644 20.4307 64.071 20.4307C64.3776 20.4307 64.6228 20.6746 64.6228 20.9795C64.5615 21.2845 64.3162 21.5284 64.071 21.5284Z" fill="#8D97FF"/>
<path d="M62.4157 21.5284C62.1092 21.5284 61.8639 21.2845 61.8639 20.9795C61.8639 20.6746 62.1092 20.4307 62.4157 20.4307C62.7223 20.4307 62.9675 20.6746 62.9675 20.9795C62.9675 21.2845 62.7223 21.5284 62.4157 21.5284Z" fill="#8D97FF"/>
<path d="M60.8215 21.5284C60.5149 21.5284 60.2697 21.2845 60.2697 20.9795C60.2697 20.6746 60.5149 20.4307 60.8215 20.4307C61.128 20.4307 61.3733 20.6746 61.3733 20.9795C61.3733 21.2845 61.128 21.5284 60.8215 21.5284Z" fill="#8D97FF"/>
<path d="M59.2275 21.5284C58.9209 21.5284 58.6757 21.2845 58.6757 20.9795C58.6757 20.6746 58.9209 20.4307 59.2275 20.4307C59.534 20.4307 59.7793 20.6746 59.7793 20.9795C59.718 21.2845 59.4727 21.5284 59.2275 21.5284Z" fill="#8D97FF"/>
<path d="M57.572 21.5284C57.2654 21.5284 57.0202 21.2845 57.0202 20.9795C57.0202 20.6746 57.2654 20.4307 57.572 20.4307C57.8785 20.4307 58.1238 20.6746 58.1238 20.9795C58.1238 21.2845 57.8785 21.5284 57.572 21.5284Z" fill="#8D97FF"/>
<path d="M55.978 21.5284C55.6714 21.5284 55.4262 21.2845 55.4262 20.9795C55.4262 20.6746 55.6714 20.4307 55.978 20.4307C56.2845 20.4307 56.5298 20.6746 56.5298 20.9795C56.5298 21.2845 56.2845 21.5284 55.978 21.5284Z" fill="#8D97FF"/>
<path d="M54.3837 21.5284C54.0772 21.5284 53.8319 21.2845 53.8319 20.9795C53.8319 20.6746 54.0772 20.4307 54.3837 20.4307C54.6903 20.4307 54.9355 20.6746 54.9355 20.9795C54.8742 21.2845 54.629 21.5284 54.3837 21.5284Z" fill="#8D97FF"/>
<path d="M52.7285 21.5284C52.4219 21.5284 52.1767 21.2845 52.1767 20.9795C52.1767 20.6746 52.4219 20.4307 52.7285 20.4307C53.035 20.4307 53.2803 20.6746 53.2803 20.9795C53.2803 21.2845 53.035 21.5284 52.7285 21.5284Z" fill="#8D97FF"/>
<path d="M51.1342 21.5284C50.8277 21.5284 50.5824 21.2845 50.5824 20.9795C50.5824 20.6746 50.8277 20.4307 51.1342 20.4307C51.4408 20.4307 51.686 20.6746 51.686 20.9795C51.686 21.2845 51.4408 21.5284 51.1342 21.5284Z" fill="#8D97FF"/>
<path d="M88.4733 21.5284C88.1668 21.5284 87.9215 21.2845 87.9215 20.9795C87.9215 20.6746 88.1668 20.4307 88.4733 20.4307C88.7799 20.4307 89.0251 20.6746 89.0251 20.9795C88.9638 21.2845 88.7186 21.5284 88.4733 21.5284Z" fill="#8D97FF"/>
<path d="M86.8178 21.5284C86.5113 21.5284 86.266 21.2845 86.266 20.9795C86.266 20.6746 86.5113 20.4307 86.8178 20.4307C87.1244 20.4307 87.3696 20.6746 87.3696 20.9795C87.3696 21.2845 87.1244 21.5284 86.8178 21.5284Z" fill="#8D97FF"/>
<path d="M85.2238 21.5284C84.9173 21.5284 84.672 21.2845 84.672 20.9795C84.672 20.6746 84.9173 20.4307 85.2238 20.4307C85.5304 20.4307 85.7756 20.6746 85.7756 20.9795C85.7756 21.2845 85.5304 21.5284 85.2238 21.5284Z" fill="#8D97FF"/>
<path d="M83.6296 21.5284C83.323 21.5284 83.0778 21.2845 83.0778 20.9795C83.0778 20.6746 83.323 20.4307 83.6296 20.4307C83.9361 20.4307 84.1814 20.6746 84.1814 20.9795C84.1201 21.2845 83.8748 21.5284 83.6296 21.5284Z" fill="#8D97FF"/>
<path d="M81.9743 21.5284C81.6678 21.5284 81.4225 21.2845 81.4225 20.9795C81.4225 20.6746 81.6678 20.4307 81.9743 20.4307C82.2809 20.4307 82.5261 20.6746 82.5261 20.9795C82.5261 21.2845 82.2809 21.5284 81.9743 21.5284Z" fill="#8D97FF"/>
<path d="M80.3801 21.5284C80.0735 21.5284 79.8283 21.2845 79.8283 20.9795C79.8283 20.6746 80.0735 20.4307 80.3801 20.4307C80.6866 20.4307 80.9319 20.6746 80.9319 20.9795C80.9319 21.2845 80.6866 21.5284 80.3801 21.5284Z" fill="#8D97FF"/>
<path d="M78.7861 21.5284C78.4795 21.5284 78.2343 21.2845 78.2343 20.9795C78.2343 20.6746 78.4795 20.4307 78.7861 20.4307C79.0926 20.4307 79.3379 20.6746 79.3379 20.9795C79.2766 21.2845 79.0313 21.5284 78.7861 21.5284Z" fill="#8D97FF"/>
<path d="M77.1306 21.5284C76.824 21.5284 76.5788 21.2845 76.5788 20.9795C76.5788 20.6746 76.824 20.4307 77.1306 20.4307C77.4371 20.4307 77.6824 20.6746 77.6824 20.9795C77.6824 21.2845 77.4371 21.5284 77.1306 21.5284Z" fill="#8D97FF"/>
<path d="M75.5366 21.5284C75.23 21.5284 74.9848 21.2845 74.9848 20.9795C74.9848 20.6746 75.23 20.4307 75.5366 20.4307C75.8431 20.4307 76.0884 20.6746 76.0884 20.9795C76.0884 21.2845 75.8431 21.5284 75.5366 21.5284Z" fill="#8D97FF"/>
<path d="M73.9423 21.5284C73.6358 21.5284 73.3905 21.2845 73.3905 20.9795C73.3905 20.6746 73.6358 20.4307 73.9423 20.4307C74.2489 20.4307 74.4941 20.6746 74.4941 20.9795C74.4328 21.2845 74.1876 21.5284 73.9423 21.5284Z" fill="#8D97FF"/>
<path d="M72.2871 21.5284C71.9805 21.5284 71.7353 21.2845 71.7353 20.9795C71.7353 20.6746 71.9805 20.4307 72.2871 20.4307C72.5936 20.4307 72.8389 20.6746 72.8389 20.9795C72.8389 21.2845 72.5936 21.5284 72.2871 21.5284Z" fill="#8D97FF"/>
<path d="M70.6928 21.5284C70.3863 21.5284 70.141 21.2845 70.141 20.9795C70.141 20.6746 70.3863 20.4307 70.6928 20.4307C70.9994 20.4307 71.2446 20.6746 71.2446 20.9795C71.2446 21.2845 70.9994 21.5284 70.6928 21.5284Z" fill="#8D97FF"/>
<path d="M68.5468 40.9222C68.2403 40.9222 67.995 40.6783 67.995 40.3733C67.995 40.0684 68.2403 39.8245 68.5468 39.8245C68.8534 39.8245 69.0986 40.0684 69.0986 40.3733C69.0373 40.6783 68.7921 40.9222 68.5468 40.9222Z" fill="#8D97FF"/>
<path d="M66.8913 40.9222C66.5847 40.9222 66.3395 40.6783 66.3395 40.3733C66.3395 40.0684 66.5847 39.8245 66.8913 39.8245C67.1979 39.8245 67.4431 40.0684 67.4431 40.3733C67.4431 40.6783 67.1979 40.9222 66.8913 40.9222Z" fill="#8D97FF"/>
<path d="M65.2973 40.9222C64.9908 40.9222 64.7455 40.6783 64.7455 40.3733C64.7455 40.0684 64.9908 39.8245 65.2973 39.8245C65.6039 39.8245 65.8491 40.0684 65.8491 40.3733C65.8491 40.6783 65.6039 40.9222 65.2973 40.9222Z" fill="#8D97FF"/>
<path d="M63.7031 40.9222C63.3965 40.9222 63.1513 40.6783 63.1513 40.3733C63.1513 40.0684 63.3965 39.8245 63.7031 39.8245C64.0096 39.8245 64.2549 40.0684 64.2549 40.3733C64.1936 40.6783 63.9483 40.9222 63.7031 40.9222Z" fill="#8D97FF"/>
<path d="M62.0478 40.9222C61.7412 40.9222 61.496 40.6783 61.496 40.3733C61.496 40.0684 61.7412 39.8245 62.0478 39.8245C62.3544 39.8245 62.5996 40.0684 62.5996 40.3733C62.5996 40.6783 62.3544 40.9222 62.0478 40.9222Z" fill="#8D97FF"/>
<path d="M60.4536 40.9222C60.147 40.9222 59.9017 40.6783 59.9017 40.3733C59.9017 40.0684 60.147 39.8245 60.4536 39.8245C60.7601 39.8245 61.0054 40.0684 61.0054 40.3733C61.0054 40.6783 60.7601 40.9222 60.4536 40.9222Z" fill="#8D97FF"/>
<path d="M58.8596 40.9222C58.553 40.9222 58.3078 40.6783 58.3078 40.3733C58.3078 40.0684 58.553 39.8245 58.8596 39.8245C59.1661 39.8245 59.4114 40.0684 59.4114 40.3733C59.3501 40.6783 59.1048 40.9222 58.8596 40.9222Z" fill="#8D97FF"/>
<path d="M57.204 40.9222C56.8975 40.9222 56.6522 40.6783 56.6522 40.3733C56.6522 40.0684 56.8975 39.8245 57.204 39.8245C57.5106 39.8245 57.7559 40.0684 57.7559 40.3733C57.7559 40.6783 57.5106 40.9222 57.204 40.9222Z" fill="#8D97FF"/>
<path d="M55.6101 40.9222C55.3035 40.9222 55.0582 40.6783 55.0582 40.3733C55.0582 40.0684 55.3035 39.8245 55.6101 39.8245C55.9166 39.8245 56.1619 40.0684 56.1619 40.3733C56.1619 40.6783 55.9166 40.9222 55.6101 40.9222Z" fill="#8D97FF"/>
<path d="M54.0158 40.9222C53.7093 40.9222 53.464 40.6783 53.464 40.3733C53.464 40.0684 53.7093 39.8245 54.0158 39.8245C54.3224 39.8245 54.5676 40.0684 54.5676 40.3733C54.5063 40.6783 54.2611 40.9222 54.0158 40.9222Z" fill="#8D97FF"/>
<path d="M52.3605 40.9222C52.054 40.9222 51.8087 40.6783 51.8087 40.3733C51.8087 40.0684 52.054 39.8245 52.3605 39.8245C52.6671 39.8245 52.9124 40.0684 52.9124 40.3733C52.9124 40.6783 52.6671 40.9222 52.3605 40.9222Z" fill="#8D97FF"/>
<path d="M50.7663 40.9222C50.4597 40.9222 50.2145 40.6783 50.2145 40.3733C50.2145 40.0684 50.4597 39.8245 50.7663 39.8245C51.0729 39.8245 51.3181 40.0684 51.3181 40.3733C51.3181 40.6783 51.0729 40.9222 50.7663 40.9222Z" fill="#8D97FF"/>
<path d="M88.1054 40.9222C87.7989 40.9222 87.5536 40.6783 87.5536 40.3733C87.5536 40.0684 87.7989 39.8245 88.1054 39.8245C88.412 39.8245 88.6572 40.0684 88.6572 40.3733C88.5959 40.6783 88.3507 40.9222 88.1054 40.9222Z" fill="#8D97FF"/>
<path d="M86.4499 40.9222C86.1433 40.9222 85.8981 40.6783 85.8981 40.3733C85.8981 40.0684 86.1433 39.8245 86.4499 39.8245C86.7565 39.8245 87.0017 40.0684 87.0017 40.3733C87.0017 40.6783 86.7565 40.9222 86.4499 40.9222Z" fill="#8D97FF"/>
<path d="M84.8559 40.9222C84.5493 40.9222 84.3041 40.6783 84.3041 40.3733C84.3041 40.0684 84.5493 39.8245 84.8559 39.8245C85.1625 39.8245 85.4077 40.0684 85.4077 40.3733C85.4077 40.6783 85.1625 40.9222 84.8559 40.9222Z" fill="#8D97FF"/>
<path d="M83.2617 40.9222C82.9551 40.9222 82.7099 40.6783 82.7099 40.3733C82.7099 40.0684 82.9551 39.8245 83.2617 39.8245C83.5682 39.8245 83.8135 40.0684 83.8135 40.3733C83.7522 40.6783 83.5069 40.9222 83.2617 40.9222Z" fill="#8D97FF"/>
<path d="M81.6064 40.9222C81.2998 40.9222 81.0546 40.6783 81.0546 40.3733C81.0546 40.0684 81.2998 39.8245 81.6064 39.8245C81.913 39.8245 82.1582 40.0684 82.1582 40.3733C82.1582 40.6783 81.913 40.9222 81.6064 40.9222Z" fill="#8D97FF"/>
<path d="M80.0122 40.9222C79.7056 40.9222 79.4603 40.6783 79.4603 40.3733C79.4603 40.0684 79.7056 39.8245 80.0122 39.8245C80.3187 39.8245 80.564 40.0684 80.564 40.3733C80.564 40.6783 80.3187 40.9222 80.0122 40.9222Z" fill="#8D97FF"/>
<path d="M78.4182 40.9222C78.1116 40.9222 77.8664 40.6783 77.8664 40.3733C77.8664 40.0684 78.1116 39.8245 78.4182 39.8245C78.7247 39.8245 78.97 40.0684 78.97 40.3733C78.9087 40.6783 78.6634 40.9222 78.4182 40.9222Z" fill="#8D97FF"/>
<path d="M76.7626 40.9222C76.4561 40.9222 76.2108 40.6783 76.2108 40.3733C76.2108 40.0684 76.4561 39.8245 76.7626 39.8245C77.0692 39.8245 77.3145 40.0684 77.3145 40.3733C77.3145 40.6783 77.0692 40.9222 76.7626 40.9222Z" fill="#8D97FF"/>
<path d="M75.1686 40.9222C74.8621 40.9222 74.6168 40.6783 74.6168 40.3733C74.6168 40.0684 74.8621 39.8245 75.1686 39.8245C75.4752 39.8245 75.7205 40.0684 75.7205 40.3733C75.7205 40.6783 75.4752 40.9222 75.1686 40.9222Z" fill="#8D97FF"/>
<path d="M73.5744 40.9222C73.2679 40.9222 73.0226 40.6783 73.0226 40.3733C73.0226 40.0684 73.2679 39.8245 73.5744 39.8245C73.881 39.8245 74.1262 40.0684 74.1262 40.3733C74.0649 40.6783 73.8197 40.9222 73.5744 40.9222Z" fill="#8D97FF"/>
<path d="M71.9191 40.9222C71.6126 40.9222 71.3673 40.6783 71.3673 40.3733C71.3673 40.0684 71.6126 39.8245 71.9191 39.8245C72.2257 39.8245 72.4709 40.0684 72.4709 40.3733C72.4709 40.6783 72.2257 40.9222 71.9191 40.9222Z" fill="#8D97FF"/>
<path d="M70.3249 40.9222C70.0183 40.9222 69.7731 40.6783 69.7731 40.3733C69.7731 40.0684 70.0183 39.8245 70.3249 39.8245C70.6315 39.8245 70.8767 40.0684 70.8767 40.3733C70.8767 40.6783 70.6315 40.9222 70.3249 40.9222Z" fill="#8D97FF"/>
<path d="M5.62684e-06 45.8013L6.78648e-06 19.2719C6.78915e-06 19.2109 0.0613242 19.089 0.122634 19.028C0.183944 18.967 0.245254 18.967 0.367881 18.967C8.58369 19.6378 21.9497 20.1867 22.992 18.723C26.3642 14.088 31.6983 12.2584 37.9522 10.1849C43.5929 8.29427 49.9693 6.15972 56.591 1.46372C58.737 -0.0609514 60.2698 -0.121938 61.1281 0.0610226C61.9865 0.243984 62.6609 0.73188 63.0901 1.46372C63.3967 1.95162 63.5193 2.56149 63.5193 3.11037C63.5193 7.80637 54.1999 13.6611 51.3182 15.3078C50.6438 15.7347 50.0307 16.0396 49.4789 16.2836C49.2949 16.3446 49.1723 16.4665 49.0497 16.5275L91.7842 16.5275C94.5432 16.5275 96.7505 18.4181 96.7505 20.7356C96.7505 22.8092 94.9111 24.6388 92.4586 24.8827L56.4071 24.8827C55.9779 24.8827 55.6101 25.2487 55.6101 25.6756C55.6101 26.1025 55.9779 26.4684 56.4071 26.4684L66.8302 26.4684C71.4899 26.4684 77.7437 26.4684 85.2851 26.4684L96.076 26.4684C98.2219 26.4684 100 28.237 100 30.3716C100 32.5061 98.2219 34.2747 96.076 34.2747L57.6947 34.2747C57.1429 34.2747 56.7137 34.7016 56.7137 35.2505C56.7137 35.7994 57.1429 36.2263 57.6947 36.2263C57.9399 36.2263 83.5684 36.2873 93.0717 36.2263C93.6849 36.2263 94.298 36.4703 94.7885 36.9582C95.5242 37.69 95.9534 38.8488 95.9534 39.9465C95.9534 42.0811 94.1754 43.8497 92.0294 43.8497L57.1429 43.8497C56.8976 43.8497 56.7137 44.0327 56.7137 44.2766C56.7137 44.5206 56.8976 44.7035 57.1429 44.7035C57.2655 44.7035 71.8578 44.7645 77.3758 44.7035C77.805 44.7035 78.1729 44.8865 78.5408 45.1914C79.0926 45.7403 79.3991 46.6551 79.3991 47.5699C79.3991 49.2775 77.989 50.6802 76.2722 50.6802C75.9044 50.6802 39.7302 51.0462 35.1318 51.0462C29.1846 50.9852 26.0576 47.143 24.4635 45.0694C24.0343 44.5815 23.6052 43.9717 23.4212 43.9107C20.5395 43.6667 0.551817 45.9842 0.36788 46.0452C0.30657 46.0452 0.183943 46.0452 0.122633 45.9842C1.32509e-05 45.9233 5.62418e-06 45.8623 5.62684e-06 45.8013ZM0.613128 19.6378L0.613127 45.4354C3.37217 45.1304 20.6622 43.1788 23.4212 43.3618C23.8504 43.4228 24.2183 43.8497 24.8927 44.7035C26.4868 46.7161 29.4298 50.4363 35.1318 50.4363C39.7302 50.4363 75.9044 50.0704 76.2722 50.0704C77.6824 50.0704 78.786 48.9726 78.786 47.5699C78.786 46.7771 78.4795 45.9842 78.1116 45.6183C77.9277 45.4354 77.6824 45.3134 77.4372 45.3134C71.9191 45.3744 57.3268 45.3134 57.2042 45.3134C56.6524 45.3134 56.1619 44.8255 56.1619 44.2766C56.1619 43.7277 56.6524 43.2398 57.2042 43.2398L92.0294 43.2398C93.8688 43.2398 95.3403 41.7761 95.3403 39.9465C95.3403 38.9707 94.9724 37.9949 94.3593 37.3851C93.9914 37.0191 93.5009 36.7752 93.0717 36.8362C83.5684 36.8972 57.9399 36.8362 57.6947 36.8362C56.8363 36.8362 56.1006 36.1043 56.1006 35.2505C56.1006 34.3967 56.8363 33.6649 57.6947 33.6649L96.076 33.6649C97.9154 33.6649 99.3869 32.2012 99.3869 30.3716C99.3869 28.542 97.9154 27.0783 96.076 27.0783L85.2851 27.1393C77.7437 27.1393 71.4899 27.1393 66.8302 27.1393L56.4071 27.1393C55.6101 27.1393 54.9969 26.5294 54.9969 25.7366C54.9969 24.9437 55.6101 24.3339 56.4071 24.3339L92.4586 24.3339C94.5432 24.0899 96.1373 22.5652 96.1373 20.7966C96.1373 18.784 94.1754 17.1984 91.7842 17.1984L47.946 17.1984C47.8234 17.1984 47.7008 17.1374 47.6395 17.0154C47.5782 16.8934 47.6395 16.7715 47.7621 16.6495C48.13 16.3446 48.6205 16.1006 49.2336 15.7957C49.7854 15.5517 50.3372 15.2468 51.0117 14.8199C53.832 13.1732 62.9062 7.50144 62.9062 3.11037C62.9062 2.62248 62.7836 2.13458 62.5383 1.76866C62.2318 1.15879 61.68 0.792867 61.0055 0.609906C60.2085 0.426945 58.8596 0.487932 56.9589 1.89063C50.2759 6.64762 43.8381 8.78216 38.1361 10.7337C32.0049 12.8073 26.7321 14.5759 23.4825 19.028C21.9497 21.1625 3.92398 19.8818 0.613128 19.6378Z" fill="#FF5E1E"/>
<path d="M93.3782 32.2621C92.3972 32.2621 91.6001 31.4693 91.6001 30.4935C91.6001 29.5177 92.3972 28.7249 93.3782 28.7249C94.3592 28.7249 95.1562 29.5177 95.1562 30.4935C95.1562 31.4693 94.3592 32.2621 93.3782 32.2621Z" fill="#FF5E1E"/>
<path d="M91.6001 42.142C90.6191 42.142 89.8221 41.3492 89.8221 40.3734C89.8221 39.3976 90.6191 38.6047 91.6001 38.6047C92.5811 38.6047 93.3782 39.3976 93.3782 40.3734C93.3782 41.3492 92.5811 42.142 91.6001 42.142Z" fill="#FF5E1E"/>
<path d="M91.8455 22.7482C90.8645 22.7482 90.0674 21.9554 90.0674 20.9796C90.0674 20.0038 90.8645 19.2109 91.8455 19.2109C92.8265 19.2109 93.6235 20.0038 93.6235 20.9796C93.5622 21.9554 92.7652 22.7482 91.8455 22.7482Z" fill="#FF5E1E"/>
<path d="M33.4152 31.3474C33.4152 23.3581 40.1595 18.2352 40.2821 18.1742L40.4661 17.9912L40.65 18.1742C40.8952 18.4181 47.333 24.8218 47.333 31.6523C47.333 38.4829 41.5697 45.3744 41.3244 45.6793L41.1405 45.8623L40.9565 45.7403C40.8952 45.6793 33.4152 40.7394 33.4152 31.3474ZM40.4047 18.784C39.3011 19.6988 34.0283 24.4558 34.0283 31.2864C34.0283 39.4586 39.7916 44.0937 41.0179 45.0085C41.9989 43.7887 46.7199 37.568 46.7199 31.5913C46.7199 25.6756 41.5084 19.9428 40.4047 18.784Z" fill="#FF5E1E"/>
<path d="M35.745 31.8962C35.745 29.3348 37.8296 27.2612 40.4047 27.2612C42.9798 27.2612 45.0645 29.3348 45.0645 31.8962C45.0645 34.4577 42.9798 36.5922 40.4047 36.5922C37.8296 36.5922 35.745 34.5187 35.745 31.8962ZM44.4513 31.8962C44.4513 29.6397 42.612 27.8711 40.4047 27.8711C38.1362 27.8711 36.3581 29.7007 36.3581 31.8962C36.3581 34.1528 38.1975 35.9214 40.4047 35.9214C42.6733 35.9824 44.4513 34.1528 44.4513 31.8962Z" fill="#FF5E1E"/>
<path d="M44.8193 32.0791L44.8193 31.7742L36.0517 31.7742L36.0517 32.0791L44.8193 32.0791Z" fill="#FF5E1E"/>
<path d="M40.6501 36.2873L40.6501 27.5662L40.3436 27.5662L40.3436 36.2873L40.6501 36.2873Z" fill="#FF5E1E"/>
<path d="M43.8836 29.2372L43.6851 29.0049L37.0041 34.6527L37.2026 34.8851L43.8836 29.2372Z" fill="#FF5E1E"/>
<path d="M43.6516 34.7455L37.4172 28.8772L37.2065 29.0987L43.4409 34.967L43.6516 34.7455Z" fill="#FF5E1E"/>
<path d="M40.5274 33.116C39.853 33.116 39.3012 32.5671 39.3012 31.8963C39.3012 31.2254 39.853 30.6765 40.5274 30.6765C41.2019 30.6765 41.7537 31.2254 41.7537 31.8963C41.7537 32.5671 41.2019 33.116 40.5274 33.116Z" fill="#8D97FF"/>
<path d="M32.6181 17.5643C32.6181 17.5033 32.6181 17.4423 32.6794 17.3813C32.802 17.2593 32.9859 17.2593 33.1086 17.3203L36.4194 20.0038C36.542 20.1257 36.542 20.3087 36.4807 20.4307C36.3581 20.5526 36.1742 20.5526 36.0515 20.4917L32.7407 17.8082C32.6794 17.6863 32.6181 17.6253 32.6181 17.5643Z" fill="#FF5E1E"/>
<path d="M29.4298 20.1868C29.4298 20.1258 29.4298 20.0648 29.4911 20.0648C29.5524 19.9429 29.7364 19.8819 29.9203 19.9429L34.764 22.5653C34.8866 22.6263 34.9479 22.8093 34.8866 22.9922C34.8253 23.1142 34.6413 23.1752 34.4574 23.1142L29.6137 20.4918C29.4298 20.4308 29.4298 20.3088 29.4298 20.1868Z" fill="#FF5E1E"/>
<path d="M25.4446 22.8093C25.4446 22.7483 25.4446 22.7483 25.4446 22.6873C25.5059 22.5043 25.6898 22.4433 25.8125 22.5043L32.4955 25.1268C32.6794 25.1877 32.7407 25.3707 32.6794 25.4927C32.6181 25.6756 32.4342 25.7366 32.3115 25.6756L25.6285 23.0532C25.5672 23.0532 25.4446 22.9312 25.4446 22.8093Z" fill="#FF5E1E"/>
<path d="M22.9309 26.6514L22.9309 26.5904C22.9922 26.4074 23.1148 26.3464 23.2987 26.3464L31.8824 28.298C32.0664 28.359 32.1277 28.481 32.1277 28.6639C32.0664 28.8469 31.9437 28.9079 31.7598 28.9079L23.1761 26.9563C22.9922 26.8953 22.9309 26.7733 22.9309 26.6514Z" fill="#FF5E1E"/>
<path d="M32.6181 46.5942C32.6181 46.5332 32.6794 46.4112 32.7407 46.3503L36.0516 43.6668C36.1742 43.5449 36.3581 43.6058 36.4808 43.7278C36.6034 43.8498 36.5421 44.0328 36.4195 44.1547L33.1086 46.8382C32.986 46.9601 32.802 46.8991 32.6794 46.7772C32.6181 46.7162 32.6181 46.6552 32.6181 46.5942Z" fill="#FF5E1E"/>
<path d="M29.3685 43.9106C29.3685 43.7886 29.4298 43.7276 29.5525 43.6666L34.3961 41.0442C34.5188 40.9832 34.7027 41.0442 34.8253 41.1662C34.8866 41.2881 34.8253 41.4711 34.7027 41.5931L29.859 44.2155C29.7364 44.2765 29.5525 44.2155 29.4298 44.0935C29.3685 44.0326 29.3685 43.9716 29.3685 43.9106Z" fill="#FF5E1E"/>
<path d="M25.4446 41.2881C25.4446 41.1662 25.5059 41.0442 25.6285 40.9832L32.3115 38.3608C32.4955 38.2998 32.6181 38.3608 32.6794 38.5437C32.7407 38.7267 32.6794 38.8487 32.4955 38.9096L25.8125 41.5321C25.6285 41.5931 25.5059 41.5321 25.4446 41.3491L25.4446 41.2881Z" fill="#FF5E1E"/>
<path d="M22.9308 37.446C22.9308 37.324 23.0534 37.202 23.176 37.141L31.7597 35.1894C31.9437 35.1285 32.0663 35.2504 32.1276 35.4334C32.1889 35.6164 32.0663 35.7383 31.8824 35.7993L23.2987 37.7509C23.1147 37.8119 22.9921 37.6899 22.9308 37.507C22.9308 37.507 22.9308 37.507 22.9308 37.446Z" fill="#FF5E1E"/>
<path d="M19.9879 31.8962C19.9879 31.7133 20.1105 31.5913 20.2945 31.5913L31.8211 31.5913C32.0051 31.5913 32.1277 31.7133 32.1277 31.8962C32.1277 32.0792 32.0051 32.2012 31.8211 32.2012L20.2945 32.2012C20.1105 32.2012 19.9879 32.0792 19.9879 31.8962Z" fill="#FF5E1E"/>
<path d="M18.8229 33.9699C17.6579 33.9699 16.7383 33.0551 16.7383 31.8963C16.7383 30.7376 17.6579 29.8228 18.8229 29.8228C19.9878 29.8228 20.9075 30.7376 20.9075 31.8963C20.9075 33.0551 19.9878 33.9699 18.8229 33.9699Z" fill="#8D97FF"/>
</g>
<defs>
<clipPath id="clip0_36_890">
<rect width="60.1942" height="100" fill="white" transform="translate(100) rotate(90)"/>
</clipPath>
</defs>
</svg>
