<svg width="222" height="23" viewBox="0 0 222 23" fill="none" xmlns="http://www.w3.org/2000/svg">
<path d="M1.07739 11.7031H94.0585" stroke="#4E4E4E" stroke-linecap="round" stroke-linejoin="round"/>
<path d="M127.941 11.7031H220.923" stroke="#4E4E4E" stroke-linecap="round" stroke-linejoin="round"/>
<path d="M114.811 7.08203L117.154 4.66379" stroke="#4E4E4E" stroke-miterlimit="10" stroke-linecap="round" stroke-linejoin="round"/>
<path d="M103.697 18.5527L106.038 16.1345" stroke="#4E4E4E" stroke-miterlimit="10" stroke-linecap="round" stroke-linejoin="round"/>
<path d="M106.04 7.08203L103.697 4.6617" stroke="#4E4E4E" stroke-miterlimit="10" stroke-linecap="round" stroke-linejoin="round"/>
<path d="M117.154 18.5527L114.811 16.1345" stroke="#4E4E4E" stroke-miterlimit="10" stroke-linecap="round" stroke-linejoin="round"/>
<path d="M119.502 11.6081C119.502 11.6081 117.056 12.1961 114.775 12.6226C114.093 12.751 113.477 13.0594 112.97 13.4963C113.469 14.1733 113.933 14.8876 114.185 15.488C113.614 15.2313 112.934 14.7633 112.288 14.2582C111.906 14.811 111.658 15.4652 111.587 16.1753C111.379 18.2788 111.026 20.6494 110.426 22.2188C109.826 20.6473 109.471 18.2726 109.264 16.1671C109.19 15.4072 108.909 14.7095 108.482 14.134C107.605 14.7778 106.668 15.488 106.668 15.488C106.893 14.9538 107.449 14.1609 107.916 13.5191C107.403 13.0657 106.775 12.7447 106.077 12.6143C103.818 12.1899 101.352 11.6102 101.352 11.6102C102.722 11.0533 104.327 10.6992 105.864 10.4798C106.596 10.3742 107.26 10.0678 107.808 9.6185C107.338 8.97254 106.907 8.29968 106.668 7.73032C107.218 7.9767 107.868 8.41974 108.492 8.90213C108.923 8.32243 109.208 7.62267 109.286 6.85456C109.497 4.79869 109.848 2.52128 110.428 0.999559C111.01 2.52128 111.361 4.79869 111.569 6.85456C111.65 7.63716 111.943 8.34935 112.388 8.93527C112.99 8.4715 113.698 7.94979 114.187 7.7324C114.187 7.7324 113.543 8.64334 112.934 9.52739C113.501 10.0284 114.209 10.37 114.992 10.4818C116.527 10.6971 118.13 11.0491 119.502 11.6081Z" stroke="#4E4E4E" stroke-miterlimit="10" stroke-linecap="round" stroke-linejoin="round"/>
</svg>
