<svg width="78" height="81" viewBox="0 0 78 81" fill="none" xmlns="http://www.w3.org/2000/svg">
<g clip-path="url(#clip0_36_666)">
<path d="M38.9569 57.7979H38.4048V76.3255H38.9569V57.7979Z" fill="#8D97FF"/>
<path d="M38.9571 66.2639C38.9571 66.2639 38.8957 68.2885 40.6135 69.1474C42.3313 70.0063 43.8037 70.313 43.8037 70.313C43.8037 70.313 42.3313 67.3069 41.411 66.7547C40.4295 66.1412 38.9571 66.2639 38.9571 66.2639Z" fill="#8D97FF"/>
<path d="M38.4663 66.2639C38.4663 66.2639 38.5276 68.2885 36.8098 69.1474C35.092 70.0063 33.6196 70.313 33.6196 70.313C33.6196 70.313 35.092 67.3069 36.0123 66.7547C36.9939 66.1412 38.4663 66.2639 38.4663 66.2639Z" fill="#8D97FF"/>
<path d="M38.8344 70.3744C38.8344 70.3744 38.773 71.6628 39.8773 72.2149C40.9816 72.7671 41.9018 72.9511 41.9018 72.9511C41.9018 72.9511 40.9816 71.0493 40.3681 70.6812C39.7546 70.3131 38.8344 70.3744 38.8344 70.3744Z" fill="#8D97FF"/>
<path d="M38.5277 70.3744C38.5277 70.3744 38.589 71.6628 37.4847 72.2149C36.3804 72.7671 35.4602 72.9511 35.4602 72.9511C35.4602 72.9511 36.3804 71.0493 36.9939 70.6812C37.6074 70.3131 38.5277 70.3744 38.5277 70.3744Z" fill="#8D97FF"/>
<path d="M40.1226 76.9389C40.1226 77.7364 39.5091 78.3499 38.7116 78.3499C37.914 78.3499 37.3005 77.7364 37.3005 76.9389C37.3005 76.1413 37.914 75.5278 38.7116 75.5278C39.5091 75.5278 40.1226 76.1413 40.1226 76.9389Z" fill="#FF5E1E"/>
<path d="M5.39869 59.4543C5.39869 59.6997 5.21464 59.8838 4.96924 59.8838C4.72384 59.8838 4.53979 59.6997 4.53979 59.4543C4.53979 59.2089 4.72384 59.0249 4.96924 59.0249C5.21464 59.0249 5.39869 59.2089 5.39869 59.4543Z" fill="#8D97FF"/>
<path d="M5.39869 60.6814C5.39869 60.9268 5.21464 61.1108 4.96924 61.1108C4.72384 61.1108 4.53979 60.9268 4.53979 60.6814C4.53979 60.436 4.72384 60.252 4.96924 60.252C5.21464 60.252 5.39869 60.436 5.39869 60.6814Z" fill="#8D97FF"/>
<path d="M5.39869 61.9695C5.39869 62.2149 5.21464 62.3989 4.96924 62.3989C4.72384 62.3989 4.53979 62.2149 4.53979 61.9695C4.53979 61.7241 4.72384 61.54 4.96924 61.54C5.21464 61.54 5.39869 61.7241 5.39869 61.9695Z" fill="#8D97FF"/>
<path d="M5.39869 63.1965C5.39869 63.4419 5.21464 63.626 4.96924 63.626C4.72384 63.626 4.53979 63.4419 4.53979 63.1965C4.53979 62.9511 4.72384 62.7671 4.96924 62.7671C5.21464 62.7671 5.39869 63.0125 5.39869 63.1965Z" fill="#8D97FF"/>
<path d="M5.39869 64.4851C5.39869 64.7305 5.21464 64.9146 4.96924 64.9146C4.72384 64.9146 4.53979 64.7305 4.53979 64.4851C4.53979 64.2397 4.72384 64.0557 4.96924 64.0557C5.21464 64.0557 5.39869 64.2397 5.39869 64.4851Z" fill="#8D97FF"/>
<path d="M5.39869 65.7122C5.39869 65.9576 5.21464 66.1416 4.96924 66.1416C4.72384 66.1416 4.53979 65.9576 4.53979 65.7122C4.53979 65.4668 4.72384 65.2827 4.96924 65.2827C5.21464 65.3441 5.39869 65.5281 5.39869 65.7122Z" fill="#8D97FF"/>
<path d="M5.39869 67.0003C5.39869 67.2456 5.21464 67.4297 4.96924 67.4297C4.72384 67.4297 4.53979 67.2456 4.53979 67.0003C4.53979 66.7549 4.72384 66.5708 4.96924 66.5708C5.21464 66.5708 5.39869 66.7549 5.39869 67.0003Z" fill="#8D97FF"/>
<path d="M5.39869 68.2273C5.39869 68.4727 5.21464 68.6568 4.96924 68.6568C4.72384 68.6568 4.53979 68.4727 4.53979 68.2273C4.53979 67.9819 4.72384 67.7979 4.96924 67.7979C5.21464 67.8592 5.39869 68.0433 5.39869 68.2273Z" fill="#8D97FF"/>
<path d="M5.39869 69.5159C5.39869 69.7613 5.21464 69.9453 4.96924 69.9453C4.72384 69.9453 4.53979 69.7613 4.53979 69.5159C4.53979 69.2705 4.72384 69.0864 4.96924 69.0864C5.21464 69.0864 5.39869 69.2705 5.39869 69.5159Z" fill="#8D97FF"/>
<path d="M5.39869 70.7429C5.39869 70.9883 5.21464 71.1724 4.96924 71.1724C4.72384 71.1724 4.53979 70.9883 4.53979 70.7429C4.53979 70.4975 4.72384 70.3135 4.96924 70.3135C5.21464 70.3748 5.39869 70.5589 5.39869 70.7429Z" fill="#8D97FF"/>
<path d="M5.39869 72.031C5.39869 72.2764 5.21464 72.4604 4.96924 72.4604C4.72384 72.4604 4.53979 72.2764 4.53979 72.031C4.53979 71.7856 4.72384 71.6016 4.96924 71.6016C5.21464 71.6016 5.39869 71.7856 5.39869 72.031Z" fill="#8D97FF"/>
<path d="M5.39869 73.2581C5.39869 73.5035 5.21464 73.6875 4.96924 73.6875C4.72384 73.6875 4.53979 73.5035 4.53979 73.2581C4.53979 73.0127 4.72384 72.8286 4.96924 72.8286C5.21464 72.89 5.39869 73.074 5.39869 73.2581Z" fill="#8D97FF"/>
<path d="M8.65029 80.0063H1.28833L4.96931 74.4849L8.65029 80.0063ZM1.84048 79.7609H8.09815L4.96931 75.037L1.84048 79.7609Z" fill="#FF5E1E"/>
<path d="M76.0736 80.2519H68.7117L72.3927 74.7305L76.0736 80.2519ZM69.2638 79.9452H75.5215L72.3927 75.2213L69.2638 79.9452Z" fill="#FF5E1E"/>
<path d="M72.822 59.4543C72.822 59.6997 72.638 59.8838 72.3926 59.8838C72.1472 59.8838 71.9631 59.6997 71.9631 59.4543C71.9631 59.2089 72.1472 59.0249 72.3926 59.0249C72.638 59.0249 72.822 59.2089 72.822 59.4543Z" fill="#8D97FF"/>
<path d="M72.822 60.6814C72.822 60.9268 72.638 61.1108 72.3926 61.1108C72.1472 61.1108 71.9631 60.9268 71.9631 60.6814C71.9631 60.436 72.1472 60.252 72.3926 60.252C72.638 60.252 72.822 60.436 72.822 60.6814Z" fill="#8D97FF"/>
<path d="M72.822 61.9695C72.822 62.2149 72.638 62.3989 72.3926 62.3989C72.1472 62.3989 71.9631 62.2149 71.9631 61.9695C71.9631 61.7241 72.1472 61.54 72.3926 61.54C72.638 61.54 72.822 61.7241 72.822 61.9695Z" fill="#8D97FF"/>
<path d="M72.822 63.1965C72.822 63.4419 72.638 63.626 72.3926 63.626C72.1472 63.626 71.9631 63.4419 71.9631 63.1965C71.9631 62.9511 72.1472 62.7671 72.3926 62.7671C72.638 62.7671 72.822 63.0125 72.822 63.1965Z" fill="#8D97FF"/>
<path d="M72.822 64.4851C72.822 64.7305 72.638 64.9146 72.3926 64.9146C72.1472 64.9146 71.9631 64.7305 71.9631 64.4851C71.9631 64.2397 72.1472 64.0557 72.3926 64.0557C72.638 64.0557 72.822 64.2397 72.822 64.4851Z" fill="#8D97FF"/>
<path d="M72.822 65.7122C72.822 65.9576 72.638 66.1416 72.3926 66.1416C72.1472 66.1416 71.9631 65.9576 71.9631 65.7122C71.9631 65.4668 72.1472 65.2827 72.3926 65.2827C72.638 65.3441 72.822 65.5281 72.822 65.7122Z" fill="#8D97FF"/>
<path d="M72.822 67.0003C72.822 67.2456 72.638 67.4297 72.3926 67.4297C72.1472 67.4297 71.9631 67.2456 71.9631 67.0003C71.9631 66.7549 72.1472 66.5708 72.3926 66.5708C72.638 66.5708 72.822 66.7549 72.822 67.0003Z" fill="#8D97FF"/>
<path d="M72.822 68.2273C72.822 68.4727 72.638 68.6568 72.3926 68.6568C72.1472 68.6568 71.9631 68.4727 71.9631 68.2273C71.9631 67.9819 72.1472 67.7979 72.3926 67.7979C72.638 67.8592 72.822 68.0433 72.822 68.2273Z" fill="#8D97FF"/>
<path d="M72.822 69.5159C72.822 69.7613 72.638 69.9453 72.3926 69.9453C72.1472 69.9453 71.9631 69.7613 71.9631 69.5159C71.9631 69.2705 72.1472 69.0864 72.3926 69.0864C72.638 69.0864 72.822 69.2705 72.822 69.5159Z" fill="#8D97FF"/>
<path d="M72.822 70.7429C72.822 70.9883 72.638 71.1724 72.3926 71.1724C72.1472 71.1724 71.9631 70.9883 71.9631 70.7429C71.9631 70.4975 72.1472 70.3135 72.3926 70.3135C72.638 70.3748 72.822 70.5589 72.822 70.7429Z" fill="#8D97FF"/>
<path d="M72.822 72.031C72.822 72.2764 72.638 72.4604 72.3926 72.4604C72.1472 72.4604 71.9631 72.2764 71.9631 72.031C71.9631 71.7856 72.1472 71.6016 72.3926 71.6016C72.638 71.6016 72.822 71.7856 72.822 72.031Z" fill="#8D97FF"/>
<path d="M72.822 73.2581C72.822 73.5035 72.638 73.6875 72.3926 73.6875C72.1472 73.6875 71.9631 73.5035 71.9631 73.2581C71.9631 73.0127 72.1472 72.8286 72.3926 72.8286C72.638 72.89 72.822 73.074 72.822 73.2581Z" fill="#8D97FF"/>
<path d="M77.362 58.3501H0L38.7117 0.251953L77.362 58.3501ZM2.14724 57.1845H75.2761L38.7117 2.33784L2.14724 57.1845Z" fill="#FF5E1E"/>
<path d="M9.99992 54.7918C8.77292 54.7918 7.72998 53.8102 7.72998 52.5219C7.72998 51.2949 8.71157 50.252 9.99992 50.252C11.2269 50.252 12.2699 51.2335 12.2699 52.5219C12.2085 53.8102 11.2269 54.7918 9.99992 54.7918ZM9.99992 50.8655C9.07967 50.8655 8.34348 51.6016 8.34348 52.5219C8.34348 53.4421 9.07967 54.1783 9.99992 54.1783C10.9202 54.1783 11.6564 53.4421 11.6564 52.5219C11.6564 51.6016 10.9202 50.8655 9.99992 50.8655Z" fill="#FF5E1E"/>
<path d="M67.4233 54.7918C66.1963 54.7918 65.1533 53.8102 65.1533 52.5219C65.1533 51.2949 66.1349 50.252 67.4233 50.252C68.6503 50.252 69.6932 51.2335 69.6932 52.5219C69.6932 53.8102 68.6503 54.7918 67.4233 54.7918ZM67.4233 50.8655C66.503 50.8655 65.7668 51.6016 65.7668 52.5219C65.7668 53.4421 66.503 54.1783 67.4233 54.1783C68.3435 54.1783 69.0797 53.4421 69.0797 52.5219C69.0797 51.6016 68.3435 50.8655 67.4233 50.8655Z" fill="#FF5E1E"/>
<path d="M38.5276 20.7429L35.1533 13.1355L38.6503 7.36865L42.2085 12.9515L38.5276 20.7429Z" fill="#FF5E1E"/>
<path d="M43.3742 53.0126C35.7669 53.0126 29.5706 46.8163 29.5706 39.209C29.5706 31.6016 35.7669 25.4053 43.3742 25.4053C44.6012 25.4053 45.8282 25.5893 47.0552 25.8961L48.0368 26.1415L47.0552 26.4482C41.3497 28.0433 37.362 33.258 37.362 39.209C37.362 45.0985 41.3497 50.3746 47.0552 51.9697L48.0368 52.2764L47.0552 52.5218C45.8282 52.8286 44.6012 53.0126 43.3742 53.0126ZM43.3742 25.9574C36.0736 25.9574 30.1227 31.9083 30.1227 39.209C30.1227 46.5096 36.0736 52.4605 43.3742 52.4605C44.2331 52.4605 45.092 52.3991 45.9509 52.2151C40.4908 50.2519 36.8098 45.0372 36.8098 39.209C36.8098 33.3807 40.4908 28.166 45.9509 26.2028C45.092 26.0188 44.2331 25.9574 43.3742 25.9574Z" fill="#8D97FF"/>
<path d="M22.0245 52.1537L17.9141 43.1353L22.1472 35.2212L26.1963 42.7672L22.0245 52.1537ZM18.5276 43.1353L22.0245 50.7427L25.5214 42.7672L22.1472 36.4482L18.5276 43.1353Z" fill="#8D97FF"/>
<path d="M56.8711 52.399L54.5398 47.3684L56.8711 42.9512L59.141 47.123L56.8711 52.399Z" fill="#8D97FF"/>
<path d="M50.4295 43.5036L47.4233 36.8165L50.5522 30.9883L53.497 36.5098L50.4295 43.5036Z" fill="#8D97FF"/>
<path d="M44.2332 39.8837C44.2332 40.2518 43.9265 40.5586 43.5584 40.5586C43.1903 40.5586 42.8835 40.2518 42.8835 39.8837C42.8835 39.5156 43.1903 39.2089 43.5584 39.2089C43.9265 39.1475 44.2332 39.5156 44.2332 39.8837Z" fill="#FF5E1E"/>
<path d="M52.3314 27.9205C52.3314 28.2886 52.0246 28.5953 51.6565 28.5953C51.2884 28.5953 50.9817 28.2886 50.9817 27.9205C50.9817 27.5524 51.2884 27.2456 51.6565 27.2456C52.0246 27.2456 52.3314 27.5524 52.3314 27.9205Z" fill="#FF5E1E"/>
<path d="M58.2208 38.5342C58.2208 38.9023 57.914 39.2091 57.5459 39.2091C57.1778 39.2091 56.8711 38.9023 56.8711 38.5342C56.8711 38.1661 57.1778 37.8594 57.5459 37.8594C57.914 37.8594 58.2208 38.1661 58.2208 38.5342Z" fill="#FF5E1E"/>
<path d="M51.1656 47.614C51.1656 48.3502 50.6134 48.9024 49.8772 48.9024C49.141 48.9024 48.5889 48.3502 48.5889 47.614C48.5889 46.8778 49.141 46.3257 49.8772 46.3257C50.6134 46.3257 51.1656 46.9392 51.1656 47.614Z" fill="#FF5E1E"/>
<path d="M45.5215 33.6878C45.5215 34.424 44.9694 34.9761 44.2332 34.9761C43.497 34.9761 42.9448 34.424 42.9448 33.6878C42.9448 32.9516 43.497 32.3994 44.2332 32.3994C44.9694 32.3994 45.5215 33.0129 45.5215 33.6878Z" fill="#FF5E1E"/>
<path d="M14.8826 17.0639L14.5879 17.5308L23.8739 23.3927L24.1687 22.9258L14.8826 17.0639Z" fill="#FF5E1E"/>
<path d="M21.8305 10.1491L21.5376 10.6172L29.1305 15.368L29.4234 14.9L21.8305 10.1491Z" fill="#FF5E1E"/>
<path d="M18.0647 13.1603L17.7798 13.6333L26.7137 19.0149L26.9986 18.5419L18.0647 13.1603Z" fill="#FF5E1E"/>
<path d="M12.19 21.078L11.9048 21.5508L21.0971 27.0971L21.3824 26.6244L12.19 21.078Z" fill="#FF5E1E"/>
<path d="M10.3567 25.6239L10.0698 26.0957L18.6672 31.3226L18.9541 30.8508L10.3567 25.6239Z" fill="#FF5E1E"/>
<path d="M62.6287 17.0385L53.3394 22.895L53.6338 23.3621L62.9231 17.5056L62.6287 17.0385Z" fill="#FF5E1E"/>
<path d="M55.5951 10.1417L48.0049 14.897L48.298 15.3649L55.8882 10.6096L55.5951 10.1417Z" fill="#FF5E1E"/>
<path d="M59.3547 13.1955L50.4219 18.5781L50.7068 19.051L59.6397 13.6684L59.3547 13.1955Z" fill="#FF5E1E"/>
<path d="M65.0133 21.2606L56.0999 26.5576L56.3819 27.0323L65.2954 21.7352L65.0133 21.2606Z" fill="#FF5E1E"/>
<path d="M67.0817 25.7902L58.5166 30.832L58.7967 31.3079L67.3618 26.266L67.0817 25.7902Z" fill="#FF5E1E"/>
<path d="M57.4234 58.0433H19.9387L19.8774 57.982C12.7608 52.2765 8.65039 43.7488 8.65039 34.6077C8.65039 18.0433 22.1473 4.54639 38.7117 4.54639C55.2762 4.54639 68.7731 18.0433 68.7731 34.6077C68.7731 43.7488 64.6627 52.2765 57.5461 58.0433H57.4234ZM20.1228 57.4912H57.2394C64.1719 51.847 68.1596 43.5034 68.1596 34.6077C68.1596 18.3501 54.9081 5.15988 38.6504 5.15988C22.3927 5.15988 9.20254 18.4114 9.20254 34.6077C9.20254 43.5034 13.1903 51.847 20.1228 57.4912Z" fill="#FF5E1E"/>
<path d="M36.1349 64.7305H28.7729L32.4539 59.209L36.1349 64.7305ZM29.3251 64.4237H35.5828L32.4539 59.6998L29.3251 64.4237Z" fill="#FF5E1E"/>
<path d="M48.589 64.7305H41.2271L44.908 59.209L48.589 64.7305ZM41.7792 64.4237H48.0369L44.908 59.6998L41.7792 64.4237Z" fill="#FF5E1E"/>
<path d="M15.0307 59.0249H14.4785V71.1721H15.0307V59.0249Z" fill="#FF5E1E"/>
<path d="M18.8957 59.6384C18.8957 59.9451 18.6503 60.2519 18.2822 60.2519C17.9754 60.2519 17.6687 60.0065 17.6687 59.6384C17.6687 59.3317 17.9141 59.0249 18.2822 59.0249C18.5889 59.0249 18.8957 59.2703 18.8957 59.6384Z" fill="#8D97FF"/>
<path d="M18.8957 61.4177C18.8957 61.7244 18.6503 62.0312 18.2822 62.0312C17.9754 62.0312 17.6687 61.7858 17.6687 61.4177C17.6687 61.1109 17.9141 60.8042 18.2822 60.8042C18.5889 60.8655 18.8957 61.1109 18.8957 61.4177Z" fill="#8D97FF"/>
<path d="M18.8957 63.258C18.8957 63.5648 18.6503 63.8715 18.2822 63.8715C17.9754 63.8715 17.6687 63.6261 17.6687 63.258C17.6687 62.9513 17.9141 62.6445 18.2822 62.6445C18.5889 62.6445 18.8957 62.9513 18.8957 63.258Z" fill="#8D97FF"/>
<path d="M18.8957 65.0984C18.8957 65.4051 18.6503 65.7118 18.2822 65.7118C17.9754 65.7118 17.6687 65.4664 17.6687 65.0984C17.6687 64.7916 17.9141 64.4849 18.2822 64.4849C18.5889 64.4849 18.8957 64.7303 18.8957 65.0984Z" fill="#8D97FF"/>
<path d="M18.8957 66.8777C18.8957 67.1844 18.6503 67.4912 18.2822 67.4912C17.9754 67.4912 17.6687 67.2458 17.6687 66.8777C17.6687 66.5709 17.9141 66.2642 18.2822 66.2642C18.5889 66.3255 18.8957 66.5709 18.8957 66.8777Z" fill="#8D97FF"/>
<path d="M18.8957 68.718C18.8957 69.0247 18.6503 69.3315 18.2822 69.3315C17.9754 69.3315 17.6687 69.0861 17.6687 68.718C17.6687 68.4112 17.9141 68.1045 18.2822 68.1045C18.5889 68.1045 18.8957 68.4112 18.8957 68.718Z" fill="#8D97FF"/>
<path d="M18.8957 70.5588C18.8957 70.8656 18.6503 71.1723 18.2822 71.1723C17.9754 71.1723 17.6687 70.9269 17.6687 70.5588C17.6687 70.2521 17.9141 69.9453 18.2822 69.9453C18.5889 69.9453 18.8957 70.1907 18.8957 70.5588Z" fill="#8D97FF"/>
<path d="M22.6381 59.0249H22.0859V71.1721H22.6381V59.0249Z" fill="#FF5E1E"/>
<path d="M26.5031 59.6384C26.5031 59.9451 26.2577 60.2519 25.8896 60.2519C25.5829 60.2519 25.2761 60.0065 25.2761 59.6384C25.2761 59.3317 25.5215 59.0249 25.8896 59.0249C26.2577 59.0249 26.5031 59.2703 26.5031 59.6384Z" fill="#8D97FF"/>
<path d="M26.5031 61.4177C26.5031 61.7244 26.2577 62.0312 25.8896 62.0312C25.5829 62.0312 25.2761 61.7858 25.2761 61.4177C25.2761 61.1109 25.5215 60.8042 25.8896 60.8042C26.2577 60.8655 26.5031 61.1109 26.5031 61.4177Z" fill="#8D97FF"/>
<path d="M26.5031 63.258C26.5031 63.5648 26.2577 63.8715 25.8896 63.8715C25.5829 63.8715 25.2761 63.6261 25.2761 63.258C25.2761 62.9513 25.5215 62.6445 25.8896 62.6445C26.2577 62.6445 26.5031 62.9513 26.5031 63.258Z" fill="#8D97FF"/>
<path d="M26.5031 65.0984C26.5031 65.4051 26.2577 65.7118 25.8896 65.7118C25.5829 65.7118 25.2761 65.4664 25.2761 65.0984C25.2761 64.7916 25.5215 64.4849 25.8896 64.4849C26.2577 64.4849 26.5031 64.7303 26.5031 65.0984Z" fill="#8D97FF"/>
<path d="M26.5031 66.8777C26.5031 67.1844 26.2577 67.4912 25.8896 67.4912C25.5829 67.4912 25.2761 67.2458 25.2761 66.8777C25.2761 66.5709 25.5215 66.2642 25.8896 66.2642C26.2577 66.3255 26.5031 66.5709 26.5031 66.8777Z" fill="#8D97FF"/>
<path d="M26.5031 68.718C26.5031 69.0247 26.2577 69.3315 25.8896 69.3315C25.5829 69.3315 25.2761 69.0861 25.2761 68.718C25.2761 68.4112 25.5215 68.1045 25.8896 68.1045C26.2577 68.1045 26.5031 68.4112 26.5031 68.718Z" fill="#8D97FF"/>
<path d="M26.5031 70.5588C26.5031 70.8656 26.2577 71.1723 25.8896 71.1723C25.5829 71.1723 25.2761 70.9269 25.2761 70.5588C25.2761 70.2521 25.5215 69.9453 25.8896 69.9453C26.2577 69.9453 26.5031 70.1907 26.5031 70.5588Z" fill="#8D97FF"/>
<path d="M58.7731 59.0249H58.2209V71.1721H58.7731V59.0249Z" fill="#FF5E1E"/>
<path d="M62.6381 59.6384C62.6381 59.9451 62.3927 60.2519 62.0246 60.2519C61.7179 60.2519 61.4111 60.0065 61.4111 59.6384C61.4111 59.3317 61.6565 59.0249 62.0246 59.0249C62.3314 59.0249 62.6381 59.2703 62.6381 59.6384Z" fill="#8D97FF"/>
<path d="M62.6381 61.4177C62.6381 61.7244 62.3927 62.0312 62.0246 62.0312C61.7179 62.0312 61.4111 61.7858 61.4111 61.4177C61.4111 61.1109 61.6565 60.8042 62.0246 60.8042C62.3314 60.8655 62.6381 61.1109 62.6381 61.4177Z" fill="#8D97FF"/>
<path d="M62.6381 63.258C62.6381 63.5648 62.3927 63.8715 62.0246 63.8715C61.7179 63.8715 61.4111 63.6261 61.4111 63.258C61.4111 62.9513 61.6565 62.6445 62.0246 62.6445C62.3314 62.6445 62.6381 62.9513 62.6381 63.258Z" fill="#8D97FF"/>
<path d="M62.6381 65.0984C62.6381 65.4051 62.3927 65.7118 62.0246 65.7118C61.7179 65.7118 61.4111 65.4664 61.4111 65.0984C61.4111 64.7916 61.6565 64.4849 62.0246 64.4849C62.3314 64.4849 62.6381 64.7303 62.6381 65.0984Z" fill="#8D97FF"/>
<path d="M62.6381 66.8777C62.6381 67.1844 62.3927 67.4912 62.0246 67.4912C61.7179 67.4912 61.4111 67.2458 61.4111 66.8777C61.4111 66.5709 61.6565 66.2642 62.0246 66.2642C62.3314 66.3255 62.6381 66.5709 62.6381 66.8777Z" fill="#8D97FF"/>
<path d="M62.6381 68.718C62.6381 69.0247 62.3927 69.3315 62.0246 69.3315C61.7179 69.3315 61.4111 69.0861 61.4111 68.718C61.4111 68.4112 61.6565 68.1045 62.0246 68.1045C62.3314 68.1045 62.6381 68.4112 62.6381 68.718Z" fill="#8D97FF"/>
<path d="M62.6381 70.5588C62.6381 70.8656 62.3927 71.1723 62.0246 71.1723C61.7179 71.1723 61.4111 70.9269 61.4111 70.5588C61.4111 70.2521 61.6565 69.9453 62.0246 69.9453C62.3314 69.9453 62.6381 70.1907 62.6381 70.5588Z" fill="#8D97FF"/>
<path d="M50.9203 59.0249H50.3682V71.1721H50.9203V59.0249Z" fill="#FF5E1E"/>
<path d="M54.7241 59.6384C54.7241 59.9451 54.4787 60.2519 54.1106 60.2519C53.8038 60.2519 53.4971 60.0065 53.4971 59.6384C53.4971 59.3317 53.7425 59.0249 54.1106 59.0249C54.4787 59.0249 54.7241 59.2703 54.7241 59.6384Z" fill="#8D97FF"/>
<path d="M54.7241 61.4177C54.7241 61.7244 54.4787 62.0312 54.1106 62.0312C53.8038 62.0312 53.4971 61.7858 53.4971 61.4177C53.4971 61.1109 53.7425 60.8042 54.1106 60.8042C54.4787 60.8655 54.7241 61.1109 54.7241 61.4177Z" fill="#8D97FF"/>
<path d="M54.7241 63.258C54.7241 63.5648 54.4787 63.8715 54.1106 63.8715C53.8038 63.8715 53.4971 63.6261 53.4971 63.258C53.4971 62.9513 53.7425 62.6445 54.1106 62.6445C54.4787 62.6445 54.7241 62.9513 54.7241 63.258Z" fill="#8D97FF"/>
<path d="M54.7241 65.0984C54.7241 65.4051 54.4787 65.7118 54.1106 65.7118C53.8038 65.7118 53.4971 65.4664 53.4971 65.0984C53.4971 64.7916 53.7425 64.4849 54.1106 64.4849C54.4787 64.4849 54.7241 64.7303 54.7241 65.0984Z" fill="#8D97FF"/>
<path d="M54.7241 66.8777C54.7241 67.1844 54.4787 67.4912 54.1106 67.4912C53.8038 67.4912 53.4971 67.2458 53.4971 66.8777C53.4971 66.5709 53.7425 66.2642 54.1106 66.2642C54.4787 66.3255 54.7241 66.5709 54.7241 66.8777Z" fill="#8D97FF"/>
<path d="M54.7241 68.718C54.7241 69.0247 54.4787 69.3315 54.1106 69.3315C53.8038 69.3315 53.4971 69.0861 53.4971 68.718C53.4971 68.4112 53.7425 68.1045 54.1106 68.1045C54.4787 68.1045 54.7241 68.4112 54.7241 68.718Z" fill="#8D97FF"/>
<path d="M54.7241 70.5588C54.7241 70.8656 54.4787 71.1723 54.1106 71.1723C53.8038 71.1723 53.4971 70.9269 53.4971 70.5588C53.4971 70.2521 53.7425 69.9453 54.1106 69.9453C54.4787 69.9453 54.7241 70.1907 54.7241 70.5588Z" fill="#8D97FF"/>
<path d="M14.7854 73.0742C14.2332 73.0742 13.7424 72.5834 13.7424 72.0312C13.7424 71.4791 14.2332 70.9883 14.7854 70.9883C15.3375 70.9883 15.8283 71.4791 15.8283 72.0312C15.8283 72.5834 15.3375 73.0742 14.7854 73.0742ZM14.7854 71.295C14.3559 71.295 14.0492 71.6631 14.0492 72.0312C14.0492 72.3993 14.4173 72.7674 14.7854 72.7674C15.1535 72.7674 15.5216 72.3993 15.5216 72.0312C15.5216 71.6631 15.2148 71.295 14.7854 71.295Z" fill="#FF5E1E"/>
<path d="M50.6135 73.0742C50.0614 73.0742 49.5706 72.5834 49.5706 72.0312C49.5706 71.4791 50.0614 70.9883 50.6135 70.9883C51.1657 70.9883 51.6565 71.4791 51.6565 72.0312C51.6565 72.5834 51.227 73.0742 50.6135 73.0742ZM50.6135 71.295C50.1841 71.295 49.8773 71.6631 49.8773 72.0312C49.8773 72.3993 50.2454 72.7674 50.6135 72.7674C51.043 72.7674 51.3497 72.3993 51.3497 72.0312C51.3497 71.6631 51.043 71.295 50.6135 71.295Z" fill="#FF5E1E"/>
<path d="M22.3928 73.0742C21.8407 73.0742 21.3499 72.5834 21.3499 72.0312C21.3499 71.4791 21.8407 70.9883 22.3928 70.9883C22.9449 70.9883 23.4357 71.4791 23.4357 72.0312C23.4357 72.5834 22.9449 73.0742 22.3928 73.0742ZM22.3928 71.295C21.9634 71.295 21.6566 71.6631 21.6566 72.0312C21.6566 72.3993 22.0247 72.7674 22.3928 72.7674C22.8222 72.7674 23.129 72.3993 23.129 72.0312C23.129 71.6631 22.8222 71.295 22.3928 71.295Z" fill="#FF5E1E"/>
<path d="M58.5278 73.0742C57.9757 73.0742 57.4849 72.5834 57.4849 72.0312C57.4849 71.4791 57.9757 70.9883 58.5278 70.9883C59.0799 70.9883 59.5707 71.4791 59.5707 72.0312C59.5707 72.5834 59.0799 73.0742 58.5278 73.0742ZM58.5278 71.295C58.0984 71.295 57.7916 71.6631 57.7916 72.0312C57.7916 72.3993 58.1597 72.7674 58.5278 72.7674C58.9572 72.7674 59.264 72.3993 59.264 72.0312C59.264 71.6631 58.8959 71.295 58.5278 71.295Z" fill="#FF5E1E"/>
</g>
<defs>
<clipPath id="clip0_36_666">
<rect width="77.362" height="80" fill="white" transform="translate(0 0.251953)"/>
</clipPath>
</defs>
</svg>
