<svg width="119" height="240" viewBox="0 0 119 240" fill="none" xmlns="http://www.w3.org/2000/svg">
<path d="M55.3753 1.30554L45.2438 30.0274L17.7069 16.972L30.696 44.3883L2.12 54.5715L30.696 64.7547L17.7069 92.4321L45.2438 79.3767L55.3753 108.099L65.5068 79.3767L92.7839 92.4321L79.7948 64.7547L108.371 54.5715L79.7948 44.3883L92.7839 16.972L65.5068 30.0274L55.3753 1.30554Z" stroke="#FF5E1E" stroke-miterlimit="10" stroke-linecap="round" stroke-linejoin="round"/>
<path d="M79.4488 171.692L118 167.019" stroke="#FF5E1E" stroke-miterlimit="10" stroke-linecap="round" stroke-linejoin="round" stroke-dasharray="17.27 17.27"/>
<path d="M94.9822 138.299C97.7286 138.786 99.5516 141.349 99.0691 144.092C98.5867 146.834 96.0242 148.651 93.2183 148.267C90.4719 147.779 88.6488 145.216 89.0281 142.414C89.57 139.569 92.2357 137.812 94.9822 138.299Z" stroke="#FF5E1E" stroke-miterlimit="10" stroke-linecap="round" stroke-linejoin="round"/>
<path d="M97.9913 233.285L100.654 232.487L101.505 229.821L103.181 232.162L105.959 232.117L104.282 234.308L105.188 237.028L102.414 236.113L100.236 237.739L100.246 234.861L97.9913 233.285Z" stroke="#FF5E1E" stroke-miterlimit="10" stroke-linecap="round" stroke-linejoin="round"/>
</svg>
