<svg width="88" height="36" viewBox="0 0 88 36" fill="none" xmlns="http://www.w3.org/2000/svg">
<g clip-path="url(#clip0_36_606)">
<path d="M31.3387 19.5776C31.3387 16.7808 33.2032 14.486 35.7132 13.7689C35.2112 13.6254 34.6375 13.5537 34.1355 13.5537C30.8367 13.5537 28.1116 16.2788 28.1116 19.5776C28.1116 22.8764 30.8367 25.6015 34.1355 25.6015C34.7092 25.6015 35.2112 25.5298 35.7132 25.3864C33.2032 24.6692 31.3387 22.3744 31.3387 19.5776Z" fill="#8D97FF"/>
<path d="M73.8645 2.86853L71.9282 0H75.8007L73.8645 2.86853ZM72.5736 0.358566L73.7928 2.22311L75.0119 0.358566H72.5736Z" fill="#FF5E1E"/>
<path d="M74.2231 17.2828C74.2231 17.0677 74.008 16.8525 73.7928 16.8525C73.5777 16.8525 73.3625 17.0677 73.3625 17.2828C73.3625 17.498 73.5777 17.7131 73.7928 17.7131C74.0797 17.7131 74.2231 17.5697 74.2231 17.2828Z" fill="#8D97FF"/>
<path d="M74.2231 16.0636C74.2231 15.8484 74.008 15.6333 73.7928 15.6333C73.5777 15.6333 73.3625 15.8484 73.3625 16.0636C73.3625 16.2787 73.5777 16.4939 73.7928 16.4939C74.0797 16.4939 74.2231 16.2787 74.2231 16.0636Z" fill="#8D97FF"/>
<path d="M74.2231 14.8446C74.2231 14.6294 74.008 14.4143 73.7928 14.4143C73.5777 14.4143 73.3625 14.6294 73.3625 14.8446C73.3625 15.0597 73.5777 15.2749 73.7928 15.2749C74.0797 15.2031 74.2231 15.0597 74.2231 14.8446Z" fill="#8D97FF"/>
<path d="M74.2231 13.5536C74.2231 13.3384 74.008 13.1233 73.7928 13.1233C73.5777 13.1233 73.3625 13.3384 73.3625 13.5536C73.3625 13.7687 73.5777 13.9839 73.7928 13.9839C74.0797 13.9839 74.2231 13.7687 74.2231 13.5536Z" fill="#8D97FF"/>
<path d="M74.2231 12.3346C74.2231 12.1194 74.008 11.9043 73.7928 11.9043C73.5777 11.9043 73.3625 12.1194 73.3625 12.3346C73.3625 12.5497 73.5777 12.7649 73.7928 12.7649C74.0797 12.7649 74.2231 12.5497 74.2231 12.3346Z" fill="#8D97FF"/>
<path d="M74.2231 11.0438C74.2231 10.8287 74.008 10.6135 73.7928 10.6135C73.5777 10.6135 73.3625 10.8287 73.3625 11.0438C73.3625 11.2589 73.5777 11.4741 73.7928 11.4741C74.0797 11.4741 74.2231 11.3307 74.2231 11.0438Z" fill="#8D97FF"/>
<path d="M74.2231 9.82457C74.2231 9.60943 74.008 9.39429 73.7928 9.39429C73.5777 9.39429 73.3625 9.60943 73.3625 9.82457C73.3625 10.0397 73.5777 10.2548 73.7928 10.2548C74.0797 10.2548 74.2231 10.0397 74.2231 9.82457Z" fill="#8D97FF"/>
<path d="M74.2231 8.60557C74.2231 8.39043 74.008 8.17529 73.7928 8.17529C73.5777 8.17529 73.3625 8.39043 73.3625 8.60557C73.3625 8.82071 73.5777 9.03585 73.7928 9.03585C74.0797 8.96414 74.2231 8.82071 74.2231 8.60557Z" fill="#8D97FF"/>
<path d="M74.2231 7.31456C74.2231 7.09942 74.008 6.88428 73.7928 6.88428C73.5777 6.88428 73.3625 7.09942 73.3625 7.31456C73.3625 7.5297 73.5777 7.74483 73.7928 7.74483C74.0797 7.74483 74.2231 7.5297 74.2231 7.31456Z" fill="#8D97FF"/>
<path d="M74.2231 6.09556C74.2231 5.88042 74.008 5.66528 73.7928 5.66528C73.5777 5.66528 73.3625 5.88042 73.3625 6.09556C73.3625 6.3107 73.5777 6.52584 73.7928 6.52584C74.0797 6.52584 74.2231 6.3107 74.2231 6.09556Z" fill="#8D97FF"/>
<path d="M74.2231 4.80479C74.2231 4.58965 74.008 4.37451 73.7928 4.37451C73.5777 4.37451 73.3625 4.58965 73.3625 4.80479C73.3625 5.01993 73.5777 5.23507 73.7928 5.23507C74.0797 5.23507 74.2231 5.09164 74.2231 4.80479Z" fill="#8D97FF"/>
<path d="M74.2231 3.58555C74.2231 3.37041 74.008 3.15527 73.7928 3.15527C73.5777 3.15527 73.3625 3.37041 73.3625 3.58555C73.3625 3.80069 73.5777 4.01583 73.7928 4.01583C74.0797 4.01583 74.2231 3.80069 74.2231 3.58555Z" fill="#8D97FF"/>
<path d="M69.49 2.86853L67.5537 0H71.4262L69.49 2.86853ZM68.1991 0.358566L69.4183 2.22311L70.6374 0.358566H68.1991Z" fill="#FF5E1E"/>
<path d="M69.9201 17.2828C69.9201 17.0677 69.705 16.8525 69.4898 16.8525C69.2747 16.8525 69.0596 17.0677 69.0596 17.2828C69.0596 17.498 69.2747 17.7131 69.4898 17.7131C69.705 17.7131 69.9201 17.5697 69.9201 17.2828Z" fill="#8D97FF"/>
<path d="M69.9201 16.0636C69.9201 15.8484 69.705 15.6333 69.4898 15.6333C69.2747 15.6333 69.0596 15.8484 69.0596 16.0636C69.0596 16.2787 69.2747 16.4939 69.4898 16.4939C69.705 16.4939 69.9201 16.2787 69.9201 16.0636Z" fill="#8D97FF"/>
<path d="M69.9201 14.8446C69.9201 14.6294 69.705 14.4143 69.4898 14.4143C69.2747 14.4143 69.0596 14.6294 69.0596 14.8446C69.0596 15.0597 69.2747 15.2749 69.4898 15.2749C69.705 15.2031 69.9201 15.0597 69.9201 14.8446Z" fill="#8D97FF"/>
<path d="M69.9201 13.5536C69.9201 13.3384 69.705 13.1233 69.4898 13.1233C69.2747 13.1233 69.0596 13.3384 69.0596 13.5536C69.0596 13.7687 69.2747 13.9839 69.4898 13.9839C69.705 13.9839 69.9201 13.7687 69.9201 13.5536Z" fill="#8D97FF"/>
<path d="M69.9201 12.3346C69.9201 12.1194 69.705 11.9043 69.4898 11.9043C69.2747 11.9043 69.0596 12.1194 69.0596 12.3346C69.0596 12.5497 69.2747 12.7649 69.4898 12.7649C69.705 12.7649 69.9201 12.5497 69.9201 12.3346Z" fill="#8D97FF"/>
<path d="M69.9201 11.0438C69.9201 10.8287 69.705 10.6135 69.4898 10.6135C69.2747 10.6135 69.0596 10.8287 69.0596 11.0438C69.0596 11.2589 69.2747 11.4741 69.4898 11.4741C69.705 11.4741 69.9201 11.3307 69.9201 11.0438Z" fill="#8D97FF"/>
<path d="M69.9201 9.82457C69.9201 9.60943 69.705 9.39429 69.4898 9.39429C69.2747 9.39429 69.0596 9.60943 69.0596 9.82457C69.0596 10.0397 69.2747 10.2548 69.4898 10.2548C69.705 10.2548 69.9201 10.0397 69.9201 9.82457Z" fill="#8D97FF"/>
<path d="M69.9201 8.60557C69.9201 8.39043 69.705 8.17529 69.4898 8.17529C69.2747 8.17529 69.0596 8.39043 69.0596 8.60557C69.0596 8.82071 69.2747 9.03585 69.4898 9.03585C69.705 8.96414 69.9201 8.82071 69.9201 8.60557Z" fill="#8D97FF"/>
<path d="M69.9201 7.31456C69.9201 7.09942 69.705 6.88428 69.4898 6.88428C69.2747 6.88428 69.0596 7.09942 69.0596 7.31456C69.0596 7.5297 69.2747 7.74483 69.4898 7.74483C69.705 7.74483 69.9201 7.5297 69.9201 7.31456Z" fill="#8D97FF"/>
<path d="M69.9201 6.09556C69.9201 5.88042 69.705 5.66528 69.4898 5.66528C69.2747 5.66528 69.0596 5.88042 69.0596 6.09556C69.0596 6.3107 69.2747 6.52584 69.4898 6.52584C69.705 6.52584 69.9201 6.3107 69.9201 6.09556Z" fill="#8D97FF"/>
<path d="M69.9201 4.80479C69.9201 4.58965 69.705 4.37451 69.4898 4.37451C69.2747 4.37451 69.0596 4.58965 69.0596 4.80479C69.0596 5.01993 69.2747 5.23507 69.4898 5.23507C69.705 5.23507 69.9201 5.09164 69.9201 4.80479Z" fill="#8D97FF"/>
<path d="M69.9201 3.58555C69.9201 3.37041 69.705 3.15527 69.4898 3.15527C69.2747 3.15527 69.0596 3.37041 69.0596 3.58555C69.0596 3.80069 69.2747 4.01583 69.4898 4.01583C69.705 4.01583 69.9201 3.80069 69.9201 3.58555Z" fill="#8D97FF"/>
<path d="M32.6294 35.1394C25.8884 35.1394 20.3665 28.1832 20.3665 19.5776C20.3665 10.972 25.8884 4.01587 32.6294 4.01587C39.3704 4.01587 44.8923 10.972 44.8923 19.5776C44.8923 28.1832 39.4422 35.1394 32.6294 35.1394ZM32.6294 5.45013C26.6772 5.45013 21.8007 11.7609 21.8007 19.5776C21.8007 27.3944 26.6772 33.7051 32.6294 33.7051C38.5816 33.7051 43.4581 27.3944 43.4581 19.5776C43.4581 11.8326 38.5816 5.45013 32.6294 5.45013Z" fill="#FF5E1E"/>
<path d="M32.6296 30.4064C27.8965 30.4064 24.0957 25.5299 24.0957 19.5777C24.0957 13.6255 27.9682 8.74902 32.6296 8.74902C37.3626 8.74902 41.1634 13.6255 41.1634 19.5777C41.2351 25.5299 37.3626 30.4064 32.6296 30.4064ZM32.6296 9.46615C28.3268 9.46615 24.8128 13.9841 24.8128 19.5777C24.8128 25.1713 28.3268 29.6893 32.6296 29.6893C36.9324 29.6893 40.4463 25.1713 40.4463 19.5777C40.518 14.0558 36.9324 9.46615 32.6296 9.46615Z" fill="#FF5E1E"/>
<path d="M86.2709 22.3744H43.6016V17.6414H86.2709V22.3744ZM45.0358 20.9402H84.8366V19.0756H45.0358V20.9402Z" fill="#FF5E1E"/>
<path d="M37.4343 19.5776C37.4343 20.5099 36.7172 21.227 35.7849 21.227C34.8526 21.227 34.1355 20.5099 34.1355 19.5776C34.1355 18.6454 34.8526 17.9282 35.7849 17.9282C36.7172 17.9282 37.4343 18.6454 37.4343 19.5776Z" fill="#FF5E1E"/>
<path d="M52.7809 26.247C52.7809 27.4662 51.7769 28.4701 50.5578 28.4701C49.3387 28.4701 48.3347 27.4662 48.3347 26.247C48.3347 25.0279 49.3387 24.0239 50.5578 24.0239C51.7769 24.0239 52.7809 25.0279 52.7809 26.247Z" fill="#FF5E1E"/>
<path d="M65.7609 26.247C65.7609 27.4662 64.7569 28.4701 63.5378 28.4701C62.3187 28.4701 61.3147 27.4662 61.3147 26.247C61.3147 25.0279 62.3187 24.0239 63.5378 24.0239C64.7569 24.0239 65.7609 25.0279 65.7609 26.247Z" fill="#FF5E1E"/>
<path d="M57.0836 28.8286C55.6494 28.8286 54.502 27.6812 54.502 26.247C54.502 24.8127 55.6494 23.6653 57.0836 23.6653C58.5179 23.6653 59.6653 24.8127 59.6653 26.247C59.6653 27.6812 58.5179 28.8286 57.0836 28.8286ZM57.0836 24.3824C56.0796 24.3824 55.2191 25.243 55.2191 26.247C55.2191 27.2509 56.0796 28.1115 57.0836 28.1115C58.0876 28.1115 58.9482 27.2509 58.9482 26.247C58.9482 25.243 58.0876 24.3824 57.0836 24.3824Z" fill="#FF5E1E"/>
<path d="M70.3507 28.8286C68.9165 28.8286 67.769 27.6812 67.769 26.247C67.769 24.8127 68.9165 23.6653 70.3507 23.6653C71.785 23.6653 72.9324 24.8127 72.9324 26.247C72.9324 27.6812 71.785 28.8286 70.3507 28.8286ZM70.3507 24.3824C69.3467 24.3824 68.4862 25.243 68.4862 26.247C68.4862 27.2509 69.3467 28.1115 70.3507 28.1115C71.3547 28.1115 72.2153 27.2509 72.2153 26.247C72.2153 25.243 71.3547 24.3824 70.3507 24.3824Z" fill="#FF5E1E"/>
<path d="M83.3307 28.8286C81.8964 28.8286 80.749 27.6812 80.749 26.247C80.749 24.8127 81.8964 23.6653 83.3307 23.6653C84.765 23.6653 85.9124 24.8127 85.9124 26.247C85.9124 27.6812 84.765 28.8286 83.3307 28.8286ZM83.3307 24.3824C82.3267 24.3824 81.4662 25.243 81.4662 26.247C81.4662 27.2509 82.3267 28.1115 83.3307 28.1115C84.3347 28.1115 85.1952 27.2509 85.1952 26.247C85.1952 25.243 84.3347 24.3824 83.3307 24.3824Z" fill="#FF5E1E"/>
<path d="M79.028 26.247C79.028 27.4662 78.024 28.4701 76.8049 28.4701C75.5858 28.4701 74.5818 27.4662 74.5818 26.247C74.5818 25.0279 75.5858 24.0239 76.8049 24.0239C78.024 24.0239 79.028 25.0279 79.028 26.247Z" fill="#FF5E1E"/>
<path d="M82.9005 7.09972C82.9005 7.96028 82.1834 8.67741 81.3228 8.67741C80.4623 8.67741 79.7451 7.96028 79.7451 7.09972C79.7451 6.23917 80.4623 5.52203 81.3228 5.52203C82.1834 5.45032 82.9005 6.16745 82.9005 7.09972Z" fill="#8D97FF"/>
<path d="M82.9005 2.15142C82.9005 3.01198 82.1834 3.72911 81.3228 3.72911C80.4623 3.72911 79.7451 3.01198 79.7451 2.15142C79.7451 1.29086 80.4623 0.57373 81.3228 0.57373C82.1834 0.57373 82.9005 1.29086 82.9005 2.15142Z" fill="#8D97FF"/>
<path d="M81.3227 19.004L75.5139 10.3267H87.0597L81.3227 19.004ZM78.1673 11.7609L81.251 16.4223L84.3346 11.7609H78.1673Z" fill="#FF5E1E"/>
<path d="M17.785 36C17.7132 36 17.5698 35.9283 17.4981 35.8566C17.3547 35.7132 17.4264 35.498 17.5698 35.3546L21.2272 32.4144C21.3706 32.2709 21.5858 32.3426 21.7292 32.4861C21.8726 32.6295 21.8009 32.8446 21.6575 32.9881L18.0001 35.9283C17.9284 36 17.8567 36 17.785 36Z" fill="#FF5E1E"/>
<path d="M14.2708 33.0598C14.1274 33.0598 14.0557 32.9881 13.9839 32.8446C13.9122 32.7012 13.9839 32.4861 14.1274 32.3426L19.5059 29.4024C19.6493 29.3307 19.8644 29.4024 20.0078 29.5458C20.0796 29.6893 20.0078 29.9044 19.8644 30.0478L14.4142 32.9881C14.3425 33.0598 14.3425 33.0598 14.2708 33.0598Z" fill="#FF5E1E"/>
<path d="M9.96822 30.1194C9.8248 30.1194 9.68137 30.0477 9.60966 29.9042C9.53794 29.6891 9.60966 29.5457 9.8248 29.474L17.2112 26.5337C17.4264 26.462 17.5698 26.5337 17.6415 26.7489C17.7132 26.964 17.6415 27.1074 17.4264 27.1791L10.0399 30.1194H9.96822Z" fill="#FF5E1E"/>
<path d="M7.09963 25.9602C6.95621 25.9602 6.81278 25.8167 6.74107 25.6733C6.66935 25.4582 6.81278 25.3148 7.02792 25.243L16.4941 23.0917C16.7092 23.0199 16.8526 23.1634 16.9243 23.3785C16.996 23.5936 16.8526 23.7371 16.6375 23.8088L7.17135 25.9602C7.17135 25.8885 7.17135 25.9602 7.09963 25.9602Z" fill="#FF5E1E"/>
<path d="M21.3705 6.81269C21.2988 6.81269 21.2271 6.81269 21.1553 6.74098L17.498 3.80074C17.3545 3.65732 17.3545 3.44218 17.4263 3.29875C17.5697 3.15532 17.7848 3.15532 17.9282 3.22704L21.5856 6.16728C21.729 6.3107 21.729 6.52584 21.6573 6.66927C21.5856 6.81269 21.5139 6.81269 21.3705 6.81269Z" fill="#FF5E1E"/>
<path d="M19.5777 9.75289C19.506 9.75289 19.4343 9.75289 19.4343 9.68117L14.0558 6.74093C13.9124 6.66922 13.8407 6.45408 13.9124 6.23894C13.9841 6.09552 14.1993 6.0238 14.4144 6.09552L19.7929 9.03576C19.9363 9.10747 20.008 9.32261 19.9363 9.53775C19.8646 9.68117 19.7212 9.75289 19.5777 9.75289Z" fill="#FF5E1E"/>
<path d="M17.2829 12.6214C17.2112 12.6214 17.2112 12.6214 17.1395 12.6214L9.75302 9.75288C9.53788 9.68116 9.46617 9.46602 9.53788 9.3226C9.60959 9.10746 9.82473 9.03575 9.96816 9.10746L17.3546 11.976C17.5698 12.0477 17.6415 12.2628 17.5698 12.4063C17.5698 12.5497 17.4263 12.6214 17.2829 12.6214Z" fill="#FF5E1E"/>
<path d="M16.5657 16.1354H16.494L7.02782 13.984C6.81268 13.9123 6.74097 13.7688 6.74097 13.5537C6.81268 13.3386 6.95611 13.2668 7.17125 13.2668L16.6374 15.4182C16.8525 15.49 16.9242 15.6334 16.9242 15.8485C16.9242 15.9919 16.7808 16.1354 16.5657 16.1354Z" fill="#FF5E1E"/>
<path d="M16.5658 20.0797H3.94426C3.72912 20.0797 3.58569 19.9363 3.58569 19.7211C3.58569 19.506 3.72912 19.3625 3.94426 19.3625H16.6375C16.8526 19.3625 16.9961 19.506 16.9961 19.7211C16.9961 19.9363 16.7809 20.0797 16.5658 20.0797Z" fill="#FF5E1E"/>
<path d="M2.29482 17.4263C1.00398 17.4263 0 18.4303 0 19.7211C0 21.0119 1.00398 22.0159 2.29482 22.0159C3.58566 22.0159 4.58964 21.0119 4.58964 19.7211C4.58964 18.502 3.51394 17.4263 2.29482 17.4263Z" fill="#8D97FF"/>
</g>
<defs>
<clipPath id="clip0_36_606">
<rect width="87.0598" height="36" fill="white"/>
</clipPath>
</defs>
</svg>
