<svg width="302" height="282" viewBox="0 0 302 282" fill="none" xmlns="http://www.w3.org/2000/svg">
<path d="M109.389 1.10974L118.045 25.525L141.573 14.4272L130.475 37.7327L154.89 46.389L130.475 55.0453L141.573 78.5728L118.045 67.4749L109.389 91.8902L100.733 67.4749L77.4273 78.5728L88.5251 55.0453L64.1099 46.389L88.5251 37.7327L77.4273 14.4272L100.733 25.525L109.389 1.10974Z" stroke="#FF5E1E" stroke-miterlimit="10" stroke-linecap="round" stroke-linejoin="round"/>
<path d="M295.223 75.0414L242.556 85.1245" stroke="#FF5E1E" stroke-miterlimit="10" stroke-linecap="round" stroke-linejoin="round" stroke-dasharray="17.27 17.27"/>
<path d="M284.41 262.498L247.382 274.585" stroke="#FF5E1E" stroke-miterlimit="10" stroke-linecap="round" stroke-linejoin="round" stroke-dasharray="17.27 17.27"/>
<path d="M39.5512 156.692L1 152.019" stroke="#FF5E1E" stroke-miterlimit="10" stroke-linecap="round" stroke-linejoin="round" stroke-dasharray="17.27 17.27"/>
<path d="M24.0178 123.299C21.2714 123.786 19.4484 126.349 19.9309 129.092C20.4133 131.834 22.9758 133.651 25.7817 133.267C28.5281 132.779 30.3512 130.216 29.9719 127.414C29.43 124.569 26.7643 122.812 24.0178 123.299Z" stroke="#FF5E1E" stroke-miterlimit="10" stroke-linecap="round" stroke-linejoin="round"/>
<path d="M174.025 69.5658C173.656 69.49 173.287 69.4142 172.962 69.501C168.707 69.242 165.09 72.6466 164.839 76.8959C164.691 81.2047 167.943 84.8677 172.257 85.0237C174.118 85.137 175.864 84.497 177.256 83.5156C173.506 82.8608 170.769 79.4958 171.005 75.5122C171.103 72.9594 172.292 70.8995 174.025 69.5658Z" stroke="#FF5E1E" stroke-miterlimit="10" stroke-linecap="round" stroke-linejoin="round"/>
<path d="M21.0087 218.285L18.3464 217.487L17.4948 214.821L15.8187 217.162L13.0409 217.117L14.7182 219.308L13.8117 222.028L16.5862 221.113L18.7639 222.739L18.7537 219.861L21.0087 218.285Z" stroke="#FF5E1E" stroke-miterlimit="10" stroke-linecap="round" stroke-linejoin="round"/>
<path d="M273.811 10.7078L271.474 9.99716L270.697 7.69893L269.375 9.69851L267.025 9.68162L268.421 11.6223L267.705 13.9581L269.948 13.0752L271.904 14.5554L271.865 12.1056L273.811 10.7078Z" stroke="#FF5E1E" stroke-miterlimit="10" stroke-linecap="round" stroke-linejoin="round"/>
<path d="M298.018 54.8836C296.645 55.1271 295.66 56.5198 295.901 57.891C296.142 59.2623 297.534 60.2437 298.908 60.0002C300.281 59.7567 301.266 58.364 301.025 56.9927C300.783 55.6214 299.391 54.6401 298.018 54.8836Z" stroke="#FF5E1E" stroke-miterlimit="10" stroke-linecap="round" stroke-linejoin="round"/>
<path d="M274.098 101.949L280.992 114.588L293.344 121.482L280.992 128.376L274.098 140.728L267.204 128.376L254.565 121.482L267.204 114.588L274.098 101.949Z" stroke="#FF5E1E" stroke-miterlimit="10" stroke-linecap="round" stroke-linejoin="round"/>
<path d="M90.069 244.69L93.3794 250.759L99.3104 254.069L93.3794 257.379L90.069 263.31L86.7587 257.379L80.6897 254.069L86.7587 250.759L90.069 244.69Z" stroke="#FF5E1E" stroke-miterlimit="10" stroke-linecap="round" stroke-linejoin="round"/>
</svg>
