<svg width="70" height="70" viewBox="0 0 70 70" fill="none" xmlns="http://www.w3.org/2000/svg">
<path d="M63.8603 2.10561H58.9651C58.3905 2.10561 57.9247 2.57141 57.9247 3.14603C57.9247 3.72066 58.3905 4.18646 58.9651 4.18646H63.8603C66.0985 4.18646 67.9195 6.00741 67.9195 8.24563V49.9171C67.9195 52.1554 66.0985 53.9763 63.8603 53.9763H35.1517C32.9134 53.9763 31.0926 52.1554 31.0926 49.9171V8.2455C31.0926 6.00728 32.9135 4.18632 35.1517 4.18632H55.4972C56.0719 4.18632 56.5377 3.72052 56.5377 3.1459C56.5377 2.57127 56.0719 2.10547 55.4972 2.10547H35.1517C31.766 2.10547 29.0117 4.8598 29.0117 8.2455V49.917C29.0117 53.3027 31.766 56.057 35.1517 56.057H63.8603C67.246 56.057 70.0003 53.3027 70.0003 49.917V8.2455C70.0002 4.85994 67.2459 2.10561 63.8603 2.10561Z" fill="#FFFBFB"/>
<path d="M26.6723 13.9424H6.14003C2.75433 13.9424 0 16.6967 0 20.0824V47.4927C0 48.0673 0.4658 48.5331 1.04043 48.5331C1.61506 48.5331 2.08086 48.0673 2.08086 47.4927V20.0824C2.08086 17.8441 3.90181 16.0232 6.14016 16.0232H26.6724C27.247 16.0232 27.7128 15.5574 27.7128 14.9828C27.7128 14.4082 27.2469 13.9424 26.6723 13.9424Z" fill="#FFFBFB"/>
<path d="M39.9482 57.352C39.3736 57.352 38.9078 57.8178 38.9078 58.3924V61.7544C38.9078 63.9928 37.0868 65.8136 34.8486 65.8136H6.14003C3.90167 65.8136 2.08072 63.9925 2.08072 61.7544V50.9613C2.08072 50.3867 1.61492 49.9209 1.04029 49.9209C0.465663 49.9209 0 50.3867 0 50.9613V61.7544C0 65.1401 2.75433 67.8945 6.14003 67.8945H34.8486C38.2343 67.8945 40.9886 65.1401 40.9886 61.7544V58.3924C40.9886 57.8178 40.5228 57.352 39.9482 57.352Z" fill="#FFFBFB"/>
<path d="M58.874 29.0812L62.6573 22.5283C62.8432 22.2065 62.8432 21.8097 62.6573 21.4879C62.4713 21.166 62.128 20.9677 61.7563 20.9677H54.1895L50.4062 14.4147C50.2203 14.0928 49.877 13.8945 49.5052 13.8945C49.1335 13.8945 48.7902 14.0928 48.6043 14.4147L44.821 20.9677H37.2543C36.8826 20.9677 36.5393 21.166 36.3533 21.4879C36.1674 21.8097 36.1674 22.2065 36.3533 22.5283L40.1366 29.0812L36.3533 35.6341C36.1674 35.956 36.1674 36.3527 36.3533 36.6746C36.5393 36.9964 36.8826 37.1948 37.2543 37.1948H44.821L48.6043 43.7477C48.7902 44.0695 49.1335 44.2679 49.5052 44.2679C49.8768 44.2679 50.2204 44.0695 50.4062 43.7477L54.1895 37.1948H61.7563C62.128 37.1948 62.4713 36.9964 62.6573 36.6746C62.8432 36.3527 62.8432 35.956 62.6573 35.6341L58.874 29.0812ZM59.9545 23.0484L57.6728 27.0004L55.3911 23.0484H59.9545ZM49.5054 17.0157L51.7871 20.9677H47.2235L49.5054 17.0157ZM39.0562 23.0484H43.6198L41.3381 27.0004L39.0562 23.0484ZM39.0562 35.1139L41.3379 31.1619L43.6196 35.1139H39.0562ZM49.5054 41.1468L47.2237 37.1948H51.7872L49.5054 41.1468ZM52.9883 35.1139H46.0222L42.5391 29.0812L46.0222 23.0485H52.9883L56.4713 29.0812L52.9883 35.1139ZM55.391 35.1139L57.6727 31.1619L59.9544 35.1139H55.391Z" fill="#FFFBFB"/>
<path d="M41.9453 9.52242H40.4889V8.06582C40.4889 7.49133 40.0231 7.02539 39.4485 7.02539C38.8738 7.02539 38.408 7.49119 38.408 8.06582V9.52228H36.9516C36.3771 9.52228 35.9111 9.98808 35.9111 10.5627C35.9111 11.1373 36.3769 11.6031 36.9516 11.6031H38.408V13.0596C38.408 13.6342 38.8738 14.1 39.4485 14.1C40.0231 14.1 40.4889 13.6342 40.4889 13.0596V11.6031H41.9453C42.52 11.6031 42.9858 11.1373 42.9858 10.5627C42.9858 9.98808 42.52 9.52242 41.9453 9.52242Z" fill="#FFFBFB"/>
<path d="M62.0596 46.5594H60.6031V45.1029C60.6031 44.5283 60.1373 44.0625 59.5627 44.0625C58.9881 44.0625 58.5223 44.5283 58.5223 45.1029V46.5594H57.0658C56.4912 46.5594 56.0254 47.0252 56.0254 47.5998C56.0254 48.1743 56.4912 48.6402 57.0658 48.6402H58.5223V50.0967C58.5223 50.6713 58.9881 51.1371 59.5627 51.1371C60.1373 51.1371 60.6031 50.6713 60.6031 50.0967V48.6402H62.0596C62.6342 48.6402 63.1 48.1744 63.1 47.5998C63.0999 47.0252 62.6341 46.5594 62.0596 46.5594Z" fill="#FFFBFB"/>
<path d="M12.9346 21.3592H11.4781V19.9027C11.4781 19.3281 11.0123 18.8623 10.4377 18.8623C9.86308 18.8623 9.39728 19.3281 9.39728 19.9027V21.3592H7.94082C7.36619 21.3592 6.90039 21.825 6.90039 22.3996C6.90039 22.9742 7.36619 23.44 7.94082 23.44H9.39728V24.8965C9.39728 25.4711 9.86308 25.9369 10.4377 25.9369C11.0123 25.9369 11.4781 25.4711 11.4781 24.8965V23.44H12.9346C13.5092 23.44 13.975 22.9742 13.975 22.3996C13.975 21.825 13.5092 21.3592 12.9346 21.3592Z" fill="#FFFBFB"/>
<path d="M33.0479 58.3973H31.5914V56.9408C31.5914 56.3661 31.1256 55.9004 30.551 55.9004C29.9764 55.9004 29.5106 56.3662 29.5106 56.9408V58.3973H28.0541C27.4795 58.3973 27.0137 58.8631 27.0137 59.4377C27.0137 60.0123 27.4795 60.4781 28.0541 60.4781H29.5106V61.9346C29.5106 62.5092 29.9764 62.975 30.551 62.975C31.1255 62.975 31.5914 62.5092 31.5914 61.9346V60.4781H33.0479C33.6225 60.4781 34.0883 60.0123 34.0883 59.4377C34.0883 58.8631 33.6225 58.3973 33.0479 58.3973Z" fill="#FFFBFB"/>
<path d="M26.4945 50.0277C22.1971 52.865 16.4309 52.2769 12.7837 48.6295C8.53172 44.3775 8.53172 37.4592 12.7837 33.2071C14.0598 31.931 15.5942 31.0129 17.2591 30.4971C17.2195 30.5353 17.1803 30.5739 17.1413 30.6129C13.3755 34.3786 13.3755 40.5059 17.1413 44.2717C19.8922 47.0226 23.9994 47.8552 27.6046 46.3932C28.1371 46.1772 28.3936 45.5705 28.1778 45.038C27.9617 44.5058 27.3548 44.2492 26.8226 44.4652C23.9935 45.6124 20.771 44.959 18.6124 42.8006C15.6579 39.8461 15.6579 35.0388 18.6124 32.0842C19.6029 31.0937 20.8434 30.3988 22.1999 30.0742C22.6895 29.9572 23.025 29.5063 22.9967 29.0037C22.9682 28.5011 22.5843 28.0909 22.0846 28.0296C18.0849 27.5389 14.1582 28.8897 11.3123 31.7356C8.85957 34.1883 7.50879 37.4493 7.50879 40.918C7.50879 44.3867 8.85957 47.6478 11.3123 50.1004C13.8148 52.6029 17.1548 53.8957 20.5158 53.8957C22.9879 53.8957 25.4717 53.196 27.6409 51.7638C28.1205 51.4472 28.2524 50.8018 27.9358 50.3223C27.6193 49.8429 26.9738 49.7109 26.4945 50.0277Z" fill="#FFFBFB"/>
</svg>
