<svg width="61" height="61" viewBox="0 0 61 61" fill="none" xmlns="http://www.w3.org/2000/svg">
<path d="M59.749 35.4948C60.2425 35.4948 60.6426 35.0949 60.6426 34.6013V7.55896C60.6426 6.0087 58.8961 4.97647 57.5354 5.74171L56.9282 6.08316L54.0615 3.17017C53.8438 2.94917 53.527 2.85684 53.225 2.92594C53.1084 2.95262 51.1864 3.40071 48.4023 4.46261V0.893398C48.4023 0.598167 48.2565 0.321999 48.0127 0.15556C47.769 -0.0107605 47.4586 -0.0460261 47.1837 0.0610813C38.8309 3.32363 34.4545 8.46514 32.2541 12.2038C31.3609 13.7215 30.7445 15.13 30.3213 16.3082C29.8981 15.13 29.2817 13.7215 28.3885 12.2038C26.1881 8.46514 21.8117 3.32363 13.4588 0.0610813C13.184 -0.0460261 12.8736 -0.0108796 12.6299 0.15556C12.3861 0.321999 12.2403 0.598286 12.2403 0.893398V4.46214C9.46227 3.40286 7.54101 2.95429 7.41746 2.92606C7.11496 2.85695 6.79852 2.94917 6.58097 3.17029L3.71421 6.08328L3.10707 5.74171C1.75589 4.98195 0 5.99786 0 7.55896V45.1126C0 45.8647 0.407223 46.5608 1.06273 46.9298L24.0965 59.8864C24.5984 60.1111 25.2281 60.2272 25.7577 60.0543C26.1305 60.6229 26.7724 60.9998 27.5016 60.9998H33.1409C33.87 60.9998 34.5119 60.6229 34.8847 60.0543C35.4502 60.2341 36.0038 60.1781 36.5459 59.8864L59.5798 46.9297C60.2352 46.5608 60.6425 45.8647 60.6425 45.1126V40.3199C60.6425 39.1646 58.8554 39.1646 58.8554 40.3199V45.1126C58.8554 45.22 58.7971 45.3195 58.7036 45.3722L35.6696 58.3287C35.4224 58.412 35.2744 58.3254 35.2257 58.0691V21.0102C35.1928 20.8319 35.1864 20.3636 35.3775 20.256L58.4113 7.29947C58.6586 7.21631 58.8066 7.30281 58.8554 7.55908V34.6014C58.8555 35.0947 59.2554 35.4948 59.749 35.4948ZM46.6152 2.22813V5.18377C45.7711 5.54334 44.8772 5.95127 43.952 6.41211C40.689 8.03743 36.6079 10.5606 33.2009 14.1821C33.3824 13.833 33.5793 13.4751 33.7942 13.1102C35.7427 9.79975 39.5288 5.3078 46.6152 2.22813ZM33.4387 27.0525H27.2037V24.8683H33.4387V27.0525ZM27.2037 28.8396H33.4387V51.0853H27.2037V28.8396ZM27.2037 52.8724H33.4387V55.0567H27.2037V52.8724ZM33.4387 23.0812H27.2037V21.0101C27.2037 20.8458 27.3374 20.7122 27.5016 20.7122H33.1409C33.305 20.7122 33.4387 20.8458 33.4387 21.0101V23.0812ZM7.49502 4.78918C8.79436 5.136 12.583 6.25318 16.8156 8.4842C17.8018 9.00389 18.6686 7.44077 17.6489 6.90321C16.3822 6.23554 15.1603 5.66629 14.0273 5.18353V2.22813C21.0734 5.29004 24.8519 9.74757 26.8022 13.0324C27.0301 13.4163 27.2379 13.7926 27.429 14.1599C26.026 12.6671 24.4193 11.2642 22.6128 9.96286C21.6756 9.28733 20.6307 10.7375 21.5681 11.4128C24.6535 13.6355 27.1209 16.1578 28.9241 18.9253C27.887 18.8404 26.9999 19.1817 26.1408 18.6985L5.32821 6.99113L7.49502 4.78918ZM25.2691 58.3263C25.1704 58.328 25.0716 58.3288 24.9727 58.3288L1.93889 45.3723C1.84525 45.3196 1.78699 45.2201 1.78699 45.1126V7.55896C1.78699 7.32091 2.05005 7.19784 2.23091 7.29935L25.2647 20.2558C25.4559 20.3636 25.4495 20.8316 25.4166 21.0101V58.0691C25.4166 58.2178 25.3242 58.294 25.2691 58.3263ZM33.4387 58.9149C33.4387 59.0792 33.305 59.2127 33.1409 59.2127H27.5016C27.3374 59.2127 27.2037 59.0792 27.2037 58.9149V56.8439H33.4387V58.9149ZM34.5015 18.6982C33.6266 19.1904 32.7762 18.8522 31.7195 18.9251C35.2186 13.5652 40.6329 10.0669 44.7087 8.03171C48.5678 6.10473 51.9373 5.11288 53.1476 4.7893L55.3143 6.99101L34.5015 18.6982Z" fill="white"/>
</svg>
