<svg width="64" height="64" viewBox="0 0 64 64" fill="none" xmlns="http://www.w3.org/2000/svg">
<path d="M56.375 0H18.875C16.2902 0 14.1875 2.10275 14.1875 4.6875V7.5H7.625C5.04025 7.5 2.9375 9.60275 2.9375 12.1875V59.3125C2.9375 61.8973 5.04025 64 7.625 64H37.625C40.2098 64 42.3125 61.8973 42.3125 59.3125V56.5H56.375C58.9598 56.5 61.0625 54.3973 61.0625 51.8125V4.6875C61.0625 2.10275 58.9598 0 56.375 0ZM40.4375 59.3125C40.4375 60.8634 39.1759 62.125 37.625 62.125H7.625C6.07413 62.125 4.8125 60.8634 4.8125 59.3125V12.1875C4.8125 10.6366 6.07413 9.375 7.625 9.375H37.625C39.1759 9.375 40.4375 10.6366 40.4375 12.1875V59.3125ZM37.625 7.5H19.8125V5.625H47.9375V50.875H42.3125V12.1875C42.3125 9.60275 40.2098 7.5 37.625 7.5ZM42.3125 54.625V52.75H48.875C49.3927 52.75 49.8125 52.3302 49.8125 51.8125V4.6875C49.8125 4.16975 49.3927 3.75 48.875 3.75H18.875C18.3573 3.75 17.9375 4.16975 17.9375 4.6875V7.5H16.0625V4.6875C16.0625 3.13663 17.3241 1.875 18.875 1.875H48.875C50.4259 1.875 51.6875 3.13663 51.6875 4.6875V51.8125C51.6875 53.3634 50.4259 54.625 48.875 54.625H42.3125ZM52.6225 54.625C53.2124 53.841 53.5625 52.867 53.5625 51.8125V4.6875C53.5625 3.633 53.2124 2.659 52.6225 1.875C54.1759 1.875 55.4375 3.13663 55.4375 4.6875V51.8125C55.4375 53.3634 54.1759 54.625 52.6225 54.625ZM59.1875 51.8125C59.1875 53.3634 57.9259 54.625 56.375 54.625C56.9624 53.841 57.3125 52.867 57.3125 51.8125V4.6875C57.3125 3.633 56.9624 2.659 56.3725 1.875C57.9259 1.875 59.1875 3.13663 59.1875 4.6875V51.8125Z" fill="white"/>
<path d="M22.625 43.125C27.2775 43.125 31.0625 39.34 31.0625 34.6875C31.0625 30.035 27.2775 26.25 22.625 26.25C17.9725 26.25 14.1875 30.035 14.1875 34.6875C14.1875 39.34 17.9725 43.125 22.625 43.125ZM22.625 28.125C26.2436 28.125 29.1875 31.0689 29.1875 34.6875C29.1875 38.3061 26.2436 41.25 22.625 41.25C19.0064 41.25 16.0625 38.3061 16.0625 34.6875C16.0625 31.0689 19.0064 28.125 22.625 28.125Z" fill="white"/>
<path d="M33.875 15H11.375C10.8572 15 10.4375 15.4197 10.4375 15.9375V42.1875C10.4375 42.7052 10.8572 43.125 11.375 43.125C11.8928 43.125 12.3125 42.7052 12.3125 42.1875V16.875H32.9375V45H11.375C10.8572 45 10.4375 45.4198 10.4375 45.9375V55.5625C10.4375 56.0802 10.8572 56.5 11.375 56.5H33.875C34.3927 56.5 34.8125 56.0802 34.8125 55.5625V15.9375C34.8125 15.4197 34.3927 15 33.875 15ZM32.9375 50.875H31.0625V46.875H32.9375V50.875ZM16.0625 50.875V46.875H29.1875V50.875H16.0625ZM14.1875 46.875V50.875H12.3125V46.875H14.1875ZM12.3125 54.625V52.75H32.9375V54.625H12.3125Z" fill="white"/>
<path d="M30.125 24.375C30.6427 24.375 31.0625 23.9552 31.0625 23.4375V19.6875C31.0625 19.1697 30.6427 18.75 30.125 18.75H15.125C14.6072 18.75 14.1875 19.1697 14.1875 19.6875V23.4375C14.1875 23.9552 14.6072 24.375 15.125 24.375H30.125ZM16.0625 20.625H29.1875V22.5H16.0625V20.625Z" fill="white"/>
<path d="M22.625 39.375C24.45 39.375 26.1221 38.3026 26.885 36.643C26.9993 36.3946 26.9992 36.1086 26.8851 35.8601C26.5556 35.1426 26.0605 34.5297 25.4375 34.063V32.8125C25.4375 31.2616 24.1759 30 22.625 30C21.0741 30 19.8125 31.2616 19.8125 32.8125V34.063C19.1895 34.5297 18.6944 35.1426 18.3649 35.8601C18.2508 36.1086 18.2507 36.3945 18.365 36.643C19.1279 38.3026 20.8 39.375 22.625 39.375ZM21.2196 35.3769C21.5091 35.2093 21.6875 34.9001 21.6875 34.5655V32.8125C21.6875 32.2955 22.108 31.875 22.625 31.875C23.142 31.875 23.5625 32.2955 23.5625 32.8125V34.5654C23.5625 34.9 23.7409 35.2091 24.0304 35.3768C24.4014 35.5915 24.7221 35.8942 24.9617 36.2515C24.4446 37.0216 23.5689 37.5 22.625 37.5C21.6811 37.5 20.8054 37.0216 20.2882 36.2515C20.5279 35.8944 20.8486 35.5915 21.2196 35.3769Z" fill="white"/>
</svg>
