<svg width="49" height="60" viewBox="0 0 49 60" fill="none" xmlns="http://www.w3.org/2000/svg">
<path d="M44.9885 24.9838L46.9967 8.29191C47.0534 7.81538 46.7033 7.36952 46.2272 7.3123L42.6965 6.8875L42.2739 3.58703C42.2131 3.11187 41.764 2.76351 41.2884 2.82531L39.3346 3.07571V0.880736C39.3346 0.394134 38.9405 0 38.4539 0H0.880736C0.394134 0 0 0.394134 0 0.880736V7.45604C0 7.94218 0.394134 8.33678 0.880736 8.33678C1.36688 8.33678 1.76147 7.94218 1.76147 7.45604V1.76147H37.5732V50.7242H1.76147V11.683C1.76147 11.1969 1.36688 10.8023 0.880736 10.8023C0.394134 10.8023 0 11.1969 0 11.683V51.6045C0 52.0911 0.394134 52.4852 0.880736 52.4852H2.06176L1.88507 53.9542C1.82693 54.4371 2.17117 54.8757 2.65411 54.9338L9.29945 55.7335L9.70503 58.899C9.76591 59.3737 10.215 59.7216 10.6906 59.6602C10.6906 59.6602 25.7359 57.728 25.7785 57.7156L39.9586 59.4217C40.4346 59.4794 40.881 59.1283 40.9382 58.6527L41.2888 55.7399L47.9594 54.8848C48.4418 54.823 48.7829 54.3818 48.7211 53.8997C48.7206 53.8993 45.0141 25.0492 44.9885 24.9838ZM40.6388 4.68429L40.8933 6.67052L39.3346 6.48284V4.85137L40.6388 4.68429ZM11.103 55.9505L18.6763 56.8615L11.3402 57.8017L11.103 55.9505ZM39.2944 57.5678L3.73901 53.2905L3.83559 52.4852H38.4539C38.9405 52.4852 39.3346 52.0911 39.3346 51.6045V8.25712L45.1427 8.95567L39.2944 57.5678ZM41.5054 53.9364L44.1416 32.0214L46.8621 53.2497L41.5054 53.9364Z" fill="white"/>
</svg>
