<svg width="202" height="202" viewBox="0 0 202 202" fill="none" xmlns="http://www.w3.org/2000/svg">
<path d="M132.253 88.3201L137.487 44.6792C137.635 43.4333 136.722 42.2676 135.481 42.118L126.279 41.0074L125.178 32.3783C125.019 31.136 123.849 30.2252 122.609 30.3868L117.517 31.0414V25.3027C117.517 24.0305 116.49 23 115.222 23H17.2955C16.0272 23 15 24.0305 15 25.3027V42.4938C15 43.7648 16.0272 44.7965 17.2955 44.7965C18.5625 44.7965 19.5909 43.7648 19.5909 42.4938V27.6054H112.927V155.619H19.5909V53.5453C19.5909 52.2742 18.5625 51.2426 17.2955 51.2426C16.0272 51.2426 15 52.2742 15 53.5453V157.92C15 159.192 16.0272 160.223 17.2955 160.223H20.3736L19.913 164.063C19.7615 165.326 20.6587 166.472 21.9174 166.624L39.2371 168.715L40.2941 176.991C40.4528 178.232 41.6232 179.142 42.8628 178.982C42.8628 178.982 82.0751 173.93 82.1861 173.898L119.144 178.358C120.384 178.509 121.548 177.591 121.697 176.347L122.611 168.732L139.996 166.496C141.253 166.335 142.142 165.181 141.981 163.921C141.98 163.92 132.32 88.4912 132.253 88.3201ZM120.916 35.2471L121.58 40.4401L117.517 39.9494V35.6839L120.916 35.2471ZM43.9377 169.283L63.6757 171.664L44.5557 174.123L43.9377 169.283ZM117.412 173.511L24.7449 162.328L24.9967 160.223H115.222C116.49 160.223 117.517 159.192 117.517 157.92V44.5883L132.655 46.4146L117.412 173.511ZM123.175 164.017L130.046 106.72L137.136 162.221L123.175 164.017Z" fill="white"/>
<path d="M56.8266 103.647V106.539H56.6734C55.4008 106.539 54.37 107.577 54.37 108.856V116.269C54.37 121.634 58.7098 126 64.0433 126H68.9567C74.2902 126 78.63 121.634 78.63 116.269V108.856C78.63 107.577 77.5992 106.539 76.3266 106.539H76.1734V103.647C82.1869 100.179 86 93.6483 86 86.6153C86 75.7997 77.2521 67 66.5 67C55.7479 67 47 75.7997 47 86.6153C47 93.6483 50.8131 100.179 56.8266 103.647ZM74.0232 116.269C74.0232 119.08 71.7509 121.366 68.9567 121.366H64.0433C61.2491 121.366 58.9768 119.08 58.9768 116.269V111.173H74.0232V116.269ZM66.5 71.6341C74.7128 71.6341 81.3932 78.3539 81.3932 86.6153C81.3932 92.3681 78.0518 97.6826 72.8811 100.154C72.079 100.538 71.5666 101.352 71.5666 102.247V106.539H68.795C68.7986 106.488 68.8034 106.436 68.8034 106.385V91.4035H73.87C75.1426 91.4035 76.1734 90.3654 76.1734 89.0865C76.1734 87.8063 75.1426 86.7694 73.87 86.7694H59.13C57.8574 86.7694 56.8266 87.8063 56.8266 89.0865C56.8266 90.3654 57.8574 91.4035 59.13 91.4035H64.1966V106.385C64.1966 106.436 64.2014 106.488 64.205 106.539H61.4334V102.247C61.4334 101.352 60.921 100.538 60.1189 100.155C54.947 97.6838 51.6068 92.3693 51.6068 86.6153C51.6068 78.3539 58.2872 71.6341 66.5 71.6341Z" fill="white"/>
<path d="M69 61.8224V57.1776C69 55.9756 67.8812 55 66.5 55C65.1188 55 64 55.9756 64 57.1776V61.8224C64 63.0244 65.1188 64 66.5 64C67.8812 64 69 63.0244 69 61.8224Z" fill="white"/>
<path d="M53.7197 68C54.1065 68 54.4992 67.8991 54.8587 67.6863C55.9502 67.0407 56.3239 65.6108 55.6939 64.4921L53.2593 60.1696C52.6293 59.051 51.2329 58.668 50.1413 59.3137C49.0498 59.9605 48.6761 61.3904 49.3061 62.509L51.7407 66.8303C52.163 67.5805 52.9307 68 53.7197 68Z" fill="white"/>
<path d="M45.9603 72.7432L42.1191 70.3063C41.1237 69.6758 39.8527 70.0498 39.2788 71.1424C38.7049 72.2349 39.0454 73.6327 40.0397 74.2633L43.8809 76.7002C44.8633 77.3236 46.1549 76.9412 46.7212 75.8641C47.2951 74.7716 46.9546 73.3738 45.9603 72.7432Z" fill="white"/>
<path d="M35 86.5C35 87.8812 35.9745 89 37.1776 89H41.8224C43.0255 89 44 87.8812 44 86.5C44 85.1201 43.0255 84 41.8224 84H37.1776C35.9745 84 35 85.1201 35 86.5Z" fill="white"/>
<path d="M43.8809 97.3063L40.0397 99.7432C39.0454 100.374 38.7049 101.772 39.2788 102.864C39.8441 103.941 41.1367 104.324 42.1191 103.7L45.9603 101.263C46.9546 100.633 47.2951 99.2349 46.7212 98.1424C46.1473 97.0498 44.8752 96.6758 43.8809 97.3063Z" fill="white"/>
<path d="M88.509 97.3063C87.3892 96.6758 85.9593 97.0498 85.3137 98.1423C84.668 99.2349 85.051 100.633 86.1697 101.263L90.491 103.7C91.5962 104.323 93.0492 103.942 93.6863 102.864C94.332 101.771 93.949 100.374 92.8303 99.7431L88.509 97.3063Z" fill="white"/>
<path d="M98 86.5C98 85.1201 97.0255 84 95.8224 84H91.1776C89.9745 84 89 85.1201 89 86.5C89 87.8812 89.9745 89 91.1776 89H95.8224C97.0255 89 98 87.8812 98 86.5Z" fill="white"/>
<path d="M90.491 70.3063L86.1697 72.7432C85.051 73.3738 84.668 74.7716 85.3137 75.8641C85.9508 76.9412 87.4038 77.3236 88.509 76.7002L92.8303 74.2633C93.949 73.6327 94.332 72.2349 93.6863 71.1424C93.0407 70.0498 91.6096 69.6758 90.491 70.3063Z" fill="white"/>
<path d="M78.2803 68C79.0693 68 79.837 67.5805 80.2593 66.8303L82.6939 62.509C83.3239 61.3904 82.9502 59.9605 81.8587 59.3137C80.7659 58.668 79.3707 59.051 78.7407 60.1696L76.3061 64.4921C75.6761 65.6108 76.0498 67.0407 77.1413 67.6863C77.5008 67.8991 77.8935 68 78.2803 68Z" fill="white"/>
<path d="M171.985 61.6084C171.964 61.4225 171.917 61.2317 171.849 61.0577L164.23 41.4889C163.881 40.5936 162.992 40 161.999 40C161.008 40 160.119 40.5936 159.77 41.4889L152.151 61.0577C152.052 61.3116 152 61.5906 152 61.8623V154.814C152 158.777 155.347 162 159.46 162H164.539C168.653 162 172 158.777 172 154.814V61.8623C172 61.7765 171.994 61.6919 171.985 61.6084ZM156.761 64.1559H167.237V145.184H156.761V64.1559ZM161.999 48.8248L166.183 59.5688H157.816L161.999 48.8248ZM167.237 154.814C167.237 156.248 166.027 157.414 164.539 157.414H159.46C157.972 157.414 156.761 156.248 156.761 154.814V149.769H167.237V154.814Z" fill="white"/>
</svg>
