<svg width="60" height="60" viewBox="0 0 60 60" fill="none" xmlns="http://www.w3.org/2000/svg">
<g clip-path="url(#clip0_667_124)">
<path d="M56.7353 20.347C55.6817 20.1305 53.4291 20.4051 52.3205 22.9855C52.313 23.003 52.3058 23.0207 52.299 23.0387L48.874 32.2238C48.2882 31.8796 47.6193 31.6961 46.9225 31.6961C46.1814 31.6961 45.4601 31.9084 44.8381 32.3088L36.054 37.947C32.7212 39.9767 30.9456 42.6419 30 44.8948C29.0544 42.6419 27.2788 39.9767 23.946 37.947L15.1634 32.3097C14.54 31.9084 13.8186 31.6963 13.0775 31.6963C12.3809 31.6963 11.712 31.8798 11.126 32.2239C11.126 32.2239 7.68704 23.0032 7.67954 22.9856C6.57095 20.4054 4.31872 20.1309 3.26473 20.3471C1.12489 20.7461 -0.233312 22.5895 0.0332896 24.736C0.0391489 24.7827 3.77005 39.7923 3.77005 39.7923C4.75489 43.73 7.43099 47.7022 10.9287 50.4179C10.9409 50.4274 10.9531 50.4364 10.9655 50.4453L16.8866 54.6818V56.7842C16.8866 58.0766 17.938 59.128 19.2304 59.128H40.7697C42.062 59.128 43.1134 58.0766 43.1134 56.7842V54.6818L49.0345 50.4453C49.047 50.4364 49.0593 50.4273 49.0713 50.4179C52.569 47.7022 55.245 43.73 56.2303 39.7909C56.2303 39.7909 59.9609 24.7827 59.9667 24.736C60.2332 22.5893 58.8751 20.746 56.7353 20.347ZM28.815 51.0509C28.8118 51.086 28.8102 56.7841 28.8102 56.7841H19.2304V54.0792C19.2304 53.701 19.0479 53.3462 18.7403 53.1261L12.3481 48.5526C9.30563 46.1838 6.89087 42.611 6.04395 39.2248L2.35231 24.3846C2.26888 23.4935 2.79294 22.8159 3.70208 22.6496C3.72516 22.6454 3.71427 22.6484 3.72751 22.645C3.95216 22.6104 4.92774 22.5455 5.51567 23.8862L9.40946 34.3284C8.96462 35.6409 9.25196 37.1382 10.2788 38.2175C10.3171 38.2579 16.3255 43.0017 16.3255 43.0017C16.8334 43.4025 17.5705 43.3153 17.9713 42.8071C18.3721 42.299 18.2851 41.5621 17.7769 41.1614L11.9286 36.5491C11.4164 35.9561 11.444 35.0451 12.0026 34.4858C12.2903 34.1982 12.6721 34.0398 13.0777 34.0398C13.3679 34.0398 13.6505 34.1229 13.8961 34.2811C13.8961 34.2811 22.7081 39.9371 22.7163 39.9422C25.4833 41.6239 27.3493 43.9892 28.2629 46.9722C28.9569 49.2383 28.8161 51.0368 28.815 51.0509ZM57.6477 24.3846L53.9563 39.2234C53.1091 42.6111 50.6943 46.1838 47.6518 48.5526L41.2596 53.1261C40.952 53.3461 40.7695 53.701 40.7695 54.0792V56.7841H31.1897C31.1897 56.7841 31.1881 51.086 31.1849 51.0509C31.1786 50.9807 30.6271 43.9879 37.2836 39.9422C37.2918 39.9372 46.1052 34.2802 46.1052 34.2802C46.3495 34.123 46.6321 34.0398 46.9224 34.0398C47.3279 34.0398 47.7097 34.1982 47.9968 34.4852C48.5559 35.0451 48.5836 35.9561 48.0714 36.5491L42.2231 41.1614C41.7149 41.5621 41.6279 42.299 42.0287 42.8071C42.4294 43.3154 43.1664 43.4023 43.6745 43.0017C43.6745 43.0017 49.6829 38.2579 49.7213 38.2175C50.7479 37.1383 51.0353 35.6413 50.5904 34.3285L54.4843 23.8861C55.0725 22.5454 56.0486 22.6101 56.2725 22.6449C56.2856 22.6482 56.2749 22.6452 56.2979 22.6495C57.2071 22.8159 57.7311 23.4936 57.6477 24.3846Z" fill="white"/>
<path d="M14.0234 26.1418H20.8428V31.2037C20.8428 32.4961 21.8942 33.5475 23.1865 33.5475H24.67C25.3171 33.5475 25.8419 33.0228 25.8419 32.3756C25.8419 31.7284 25.3171 31.2037 24.67 31.2037H23.1865C23.1865 31.2037 23.1911 24.8993 23.1879 24.8645C23.2182 22.998 24.7449 21.4888 26.6184 21.4888H33.3807C35.2541 21.4888 36.7809 22.998 36.8111 24.8645C36.8081 24.8993 36.8125 31.2037 36.8125 31.2037H35.3481C34.701 31.2037 34.1763 31.7284 34.1763 32.3756C34.1763 33.0228 34.701 33.5475 35.3481 33.5475H36.8125C38.1048 33.5475 39.1563 32.4961 39.1563 31.2037V26.1418H45.9756C47.3105 26.1418 48.3964 25.0558 48.3964 23.7211V17.5154C48.3964 14.8456 46.575 12.594 44.1099 11.9355C45.1871 10.7596 45.8457 9.19426 45.8457 7.4777C45.8457 3.83527 42.8823 0.87207 39.24 0.87207C35.5976 0.87207 32.6343 3.83539 32.6343 7.4777C32.6343 7.9652 32.6889 8.43992 32.7897 8.89766C31.9415 8.50063 30.9963 8.2775 29.9995 8.2775C29.0027 8.2775 28.0575 8.50074 27.2092 8.89766C27.3099 8.43992 27.3646 7.9652 27.3646 7.4777C27.3646 3.83527 24.4013 0.87207 20.7589 0.87207C17.1166 0.87207 14.1532 3.83539 14.1532 7.4777C14.1532 9.19426 14.8118 10.7596 15.889 11.9355C13.4239 12.594 11.6025 14.8456 11.6025 17.5154V23.7211C11.6027 25.0559 12.6886 26.1418 14.0234 26.1418ZM46.0527 17.5154V23.7211C46.0527 23.7635 46.0182 23.798 45.9757 23.798H39.046C38.6182 21.6359 36.9803 19.9044 34.8698 19.3406C35.9468 18.1648 36.6053 16.5996 36.6053 14.883C36.6053 14.6122 36.587 14.3458 36.5552 14.0834H42.6208C44.5131 14.0836 46.0527 15.623 46.0527 17.5154ZM39.2402 3.2157C41.5902 3.2157 43.502 5.12762 43.502 7.4777C43.502 9.82777 41.5902 11.7397 39.2402 11.7397C36.8901 11.7397 34.9782 9.82777 34.9782 7.4777C34.9782 5.12762 36.8902 3.2157 39.2402 3.2157ZM34.2616 14.8831C34.2616 17.2332 32.3497 19.1451 29.9996 19.1451C27.6495 19.1451 25.7376 17.2332 25.7376 14.8831C25.7376 12.533 27.6495 10.6211 29.9996 10.6211C32.3497 10.6211 34.2616 12.533 34.2616 14.8831ZM20.759 3.2157C23.1091 3.2157 25.021 5.12762 25.021 7.4777C25.021 9.82777 23.1091 11.7397 20.759 11.7397C18.4089 11.7397 16.4971 9.82777 16.4971 7.4777C16.4971 5.12762 18.4089 3.2157 20.759 3.2157ZM13.9464 17.5154C13.9464 15.623 15.486 14.0836 17.3782 14.0836H23.4439C23.4121 14.3459 23.3937 14.6123 23.3937 14.8831C23.3937 16.5996 24.0522 18.1648 25.1293 19.3407C23.0187 19.9045 21.3808 21.6359 20.953 23.7982H14.0234C13.981 23.7982 13.9464 23.7636 13.9464 23.7212V17.5154Z" fill="white"/>
<path d="M30 33.5469C30.6472 33.5469 31.1719 33.0222 31.1719 32.375C31.1719 31.7278 30.6472 31.2031 30 31.2031C29.3528 31.2031 28.8281 31.7278 28.8281 32.375C28.8281 33.0222 29.3528 33.5469 30 33.5469Z" fill="white"/>
</g>
<defs>
<clipPath id="clip0_667_124">
<rect width="60" height="60" fill="white"/>
</clipPath>
</defs>
</svg>
