<svg width="23" height="22" viewBox="0 0 23 22" fill="none" xmlns="http://www.w3.org/2000/svg">
<path d="M7.67 21.56H5.356L15.99 0.239999H18.304L7.67 21.56ZM8.476 2.606C9.34267 3.35133 9.776 4.39133 9.776 5.726C9.776 7.06067 9.34267 8.10933 8.476 8.872C7.62667 9.61733 6.578 9.99 5.33 9.99C4.06467 9.99 2.99867 9.61733 2.132 8.872C1.26533 8.10933 0.832 7.06067 0.832 5.726C0.832 4.39133 1.26533 3.35133 2.132 2.606C2.99867 1.84333 4.06467 1.462 5.33 1.462C6.578 1.462 7.62667 1.84333 8.476 2.606ZM3.744 4.27C3.39733 4.65133 3.224 5.13667 3.224 5.726C3.224 6.31533 3.39733 6.80933 3.744 7.208C4.108 7.58933 4.628 7.78 5.304 7.78C5.96267 7.78 6.46533 7.58933 6.812 7.208C7.15867 6.80933 7.332 6.31533 7.332 5.726C7.332 5.13667 7.15867 4.65133 6.812 4.27C6.46533 3.87133 5.96267 3.672 5.304 3.672C4.628 3.672 4.108 3.87133 3.744 4.27ZM21.502 12.954C22.3687 13.6993 22.802 14.7393 22.802 16.074C22.802 17.4087 22.3687 18.4573 21.502 19.22C20.6527 19.9653 19.604 20.338 18.356 20.338C17.0907 20.338 16.0247 19.9653 15.158 19.22C14.2913 18.4573 13.858 17.4087 13.858 16.074C13.858 14.7393 14.2913 13.6993 15.158 12.954C16.0247 12.1913 17.0907 11.81 18.356 11.81C19.604 11.81 20.6527 12.1913 21.502 12.954ZM16.796 14.618C16.4493 14.9993 16.276 15.4847 16.276 16.074C16.276 16.6633 16.4493 17.1573 16.796 17.556C17.16 17.9373 17.68 18.128 18.356 18.128C19.0147 18.128 19.5173 17.9373 19.864 17.556C20.2107 17.1573 20.384 16.6633 20.384 16.074C20.384 15.4847 20.2107 14.9993 19.864 14.618C19.5173 14.2193 19.0147 14.02 18.356 14.02C17.68 14.02 17.16 14.2193 16.796 14.618Z" fill="#7078CB"/>
</svg>
