<svg width="64" height="64" viewBox="0 0 64 64" fill="none" xmlns="http://www.w3.org/2000/svg">
<path d="M60.1491 17.0427L63.0033 14.9123L54.8485 9.93155L54.32 9.6015L54.2143 9.30145L51.0127 0L46.4823 3.8406C42.1331 1.65026 37.2402 0.420066 32.0302 0.420066C26.8202 0.420066 21.9122 1.65026 17.5781 3.8406L13.0477 0L9.84615 9.28645L9.74044 9.6015L9.18169 9.94655L1.0118 14.9123L3.86597 17.0427C1.38933 21.5434 0 26.7042 0 32.21C0 49.7778 14.3313 64 32 64C49.6687 64 64 49.7628 64 32.21C64 26.7192 62.5956 21.5584 60.134 17.0427H60.1491Z" fill="#EB0045"/>
<path opacity="0.4" d="M51.9941 32.21C51.9941 38.2859 49.2456 43.7168 44.9266 47.3473C42.3744 42.8766 37.542 39.8612 31.9997 39.8612C26.4575 39.8612 21.625 42.8916 19.0729 47.3473C14.7539 43.7168 12.0205 38.2709 12.0205 32.21H51.9941Z" fill="black"/>
<path opacity="0.2" d="M44.9269 47.3475C41.4536 50.288 36.9383 52.0582 32.0001 52.0582C27.0619 52.0582 22.5617 50.288 19.0732 47.3475C21.6254 42.8768 26.4579 39.8613 32.0001 39.8613C37.5423 39.8613 42.3748 42.8918 44.9269 47.3475Z" fill="black"/>
<path opacity="0.2" d="M27.1221 16.1275L30.1273 25.819L19.9339 25.0389L11.5827 30.8748L9.18161 21.0033L3.86589 17.0427L1.01172 14.9123L9.16651 9.94655L9.71016 9.6015L9.83097 9.28645L13.0325 0L17.5629 3.8406L20.8097 6.58603L31.0183 6.73605L27.1221 16.1275Z" fill="black"/>
<path opacity="0.2" d="M63.0037 14.9123L60.1495 17.0427L54.8338 21.0033L52.4327 30.8748L44.0664 25.0389L33.8881 25.819L36.8932 16.1275L32.9971 6.73605L43.2057 6.58603L46.4525 3.8406L50.9829 0L54.1844 9.28645L54.1995 9.30145L54.3052 9.6015L54.8338 9.91655L54.8489 9.93155L63.0037 14.9123Z" fill="black"/>
</svg>
