<svg width="56" height="64" viewBox="0 0 56 64" fill="none" xmlns="http://www.w3.org/2000/svg">
<path d="M53.684 3.29401C54.4438 2.23143 55.2035 1.15704 56 0.0354194C55.7794 0.0354194 55.6324 0.0118065 55.4731 0.0118065C49.579 0.0118065 43.6726 0.0118065 37.7786 0.0118065C37.4477 0.0118065 37.2516 0.106258 37.0678 0.377807C35.6586 2.3731 34.2372 4.3684 32.828 6.36369C31.2473 8.59512 29.6788 10.8265 28.1103 13.058C27.951 12.9281 27.7549 12.8218 27.6324 12.6566C24.7405 8.59512 21.8486 4.52188 18.9689 0.448646C18.7606 0.153484 18.5646 0 18.1847 0C12.2783 0.0118065 6.38424 0 0.490153 0C0.343107 0 0.196061 0.0118065 0 0.023613C0.122538 0.20071 0.196061 0.330582 0.281838 0.448646C3.87221 5.50182 7.46258 10.5668 11.053 15.62C12.891 18.2174 14.7414 20.8148 16.5917 23.4123C16.4691 23.5303 16.3711 23.6602 16.2363 23.7428C14.435 24.9235 12.8298 26.3048 11.4573 27.9223C8.89628 30.9448 7.22976 34.3687 6.54355 38.2412C6.05339 40.9803 6.10241 43.7194 6.66608 46.4231C7.14398 48.749 8.02626 50.9568 9.26389 53.0229C11.4206 56.6003 14.3737 59.3866 18.1357 61.3465C22.4858 63.6015 27.1545 64.4162 32.0683 63.8022C34.1392 63.5425 36.1365 63.0348 38.0481 62.232C41.1238 60.9451 43.8074 59.1033 46.0621 56.6711C47.7777 54.8293 49.1379 52.775 50.1059 50.4963C51.4661 47.2968 52.042 43.9673 51.7847 40.4962C51.5886 37.8752 50.9637 35.3722 49.8608 32.9873C48.709 30.4725 47.1037 28.2647 45.0696 26.3403C43.6726 25.0179 42.1287 23.8609 40.4131 22.94C40.2538 22.8574 39.4083 22.3733 39.972 22.5976C44.5427 16.1631 49.1011 9.72854 53.6718 3.29401H53.684Z" fill="#EB0045"/>
<path opacity="0.2" d="M33.0853 20.3662C31.6271 20.2481 30.1812 20.012 28.723 20.0356C24.5689 20.0946 20.6722 21.1218 17.1063 23.247C16.947 23.3414 16.7632 23.365 16.5794 23.4241C14.7291 20.8266 12.891 18.2292 11.0407 15.6318C7.46258 10.5786 3.87221 5.52543 0.281838 0.460453C0.196061 0.342388 0.122538 0.212517 0 0.0354194C0.196061 0.023613 0.343107 0 0.490153 0C6.38424 0 12.2783 0.0118065 18.1847 0C18.5768 0 18.7729 0.153484 18.9689 0.43684C21.8486 4.51008 24.7405 8.58331 27.6324 12.6447C27.7427 12.81 27.951 12.9163 28.1103 13.0462C28.1348 13.176 28.1103 13.3295 28.1838 13.424C28.9313 14.4984 29.691 15.5491 30.4385 16.6117C31.3208 17.8632 32.2031 19.1147 33.0976 20.3662H33.0853Z" fill="black"/>
<path opacity="0.4" d="M33.085 20.3662C32.2027 19.1147 31.3204 17.8632 30.4259 16.6117C29.6784 15.5491 28.9187 14.4866 28.1712 13.424C28.0977 13.3295 28.1222 13.176 28.0977 13.0462C29.6661 10.8147 31.2469 8.58331 32.8154 6.35189C34.2246 4.35659 35.646 2.3731 37.0552 0.366001C37.239 0.106258 37.4351 0 37.7659 0C43.66 0 49.5664 0 55.4605 0C55.6075 0 55.7545 0.0118065 55.9874 0.023613C55.1909 1.14523 54.4311 2.21962 53.6714 3.2822C49.1007 9.71673 44.5423 16.1513 39.9716 22.5858C39.4079 22.3497 38.8443 22.1253 38.2806 21.8892C36.6141 21.1808 34.874 20.6613 33.0727 20.3544L33.085 20.3662Z" fill="black"/>
<path opacity="0.2" d="M45.6331 42.0423C45.5596 50.8264 38.195 58.0637 28.8821 58.0047C19.8878 57.9457 12.3394 50.8736 12.4375 41.8062C12.5355 33.1993 19.8265 25.9029 29.311 26.0209C38.2195 26.139 45.5841 33.1284 45.6453 42.0423H45.6331ZM16.567 42.0069C16.616 48.6658 22.1302 53.8842 28.7718 54.0023C35.9036 54.1204 41.381 48.6067 41.4668 42.1958C41.5526 35.3835 35.8668 30.0824 29.1394 30.0233C22.1548 29.9643 16.6038 35.4189 16.567 42.0069Z" fill="black"/>
</svg>
