<svg width="25" height="30" viewBox="0 0 25 30" fill="none" xmlns="http://www.w3.org/2000/svg">
<path d="M2 13C0.895431 13 0 13.8954 0 15C0 16.1046 0.895431 17 2 17V13ZM24.4142 16.4142C25.1953 15.6332 25.1953 14.3668 24.4142 13.5858L11.6863 0.857864C10.9052 0.0768158 9.63891 0.0768158 8.85786 0.857864C8.07682 1.63891 8.07682 2.90524 8.85786 3.68629L20.1716 15L8.85786 26.3137C8.07682 27.0948 8.07682 28.3611 8.85786 29.1421C9.63891 29.9232 10.9052 29.9232 11.6863 29.1421L24.4142 16.4142ZM2 17H23V13H2V17Z" fill="#945099"/>
</svg>
