<svg width="106" height="11" viewBox="0 0 106 11" fill="none" xmlns="http://www.w3.org/2000/svg">
<path fill-rule="evenodd" clip-rule="evenodd" d="M5.97487 9.93434L7.76531 10.5818V10.804C5.9357 10.804 4.1061 10.804 2.27643 10.804V10.5818L4.08188 9.9289V1.04862H1.54305L0.318871 3.54296H0V0.190186C3.35229 0.190186 6.70446 0.190186 10.0567 0.190186V3.54296H9.73788L8.5137 1.04862H5.97487V9.93434Z" fill="white"/>
<path fill-rule="evenodd" clip-rule="evenodd" d="M22.2403 10.8041V10.5819L21.1511 10.0325L16.9693 0.114258H15.817L11.6596 10.0423L10.5898 10.582V10.8041C11.7697 10.8041 12.9497 10.8041 14.1296 10.8041V10.582L12.6929 10.0624L13.8839 7.2136H17.8566L19.0481 10.058L17.5994 10.582V10.8041C19.1464 10.8041 20.6934 10.8041 22.2403 10.8041V10.8041ZM14.2639 6.30468L15.8683 2.46697L17.4759 6.30468H14.2639Z" fill="white"/>
<path fill-rule="evenodd" clip-rule="evenodd" d="M23.4805 0.208252V0.430425L24.8879 1.04249V9.89819L23.5323 10.582V10.8041C25.0758 10.8041 26.6192 10.8041 28.1626 10.8041V10.582L26.9381 9.95974V5.8973H28.0982L31.1768 10.8041C32.1954 10.8041 33.214 10.8041 34.2327 10.8041V10.582L33.1213 10.0173L30.0247 5.37973C30.9859 5.04986 32.2468 4.33133 32.2468 2.83137C32.2468 0.407689 29.4895 0.208313 29.4895 0.208313C27.4865 0.208313 25.4835 0.208313 23.4805 0.208313L23.4805 0.208252ZM26.9381 5.11355V1.09426H28.5225C28.5225 1.09426 30.1275 1.2962 30.1686 3.05342C30.2097 4.81064 28.3167 5.11355 28.3167 5.11355H26.9382H26.9381Z" fill="white"/>
<path fill-rule="evenodd" clip-rule="evenodd" d="M70.249 10.8041V10.582L71.5892 9.90088C71.5892 6.97107 71.5892 4.04131 71.5892 1.11149L70.249 0.430425V0.208252C73.0826 0.208252 75.9162 0.208252 78.7498 0.208252V1.01388V2.95287H78.5235L77.3613 1.01388H73.5238V4.91424H76.2713L77.1187 3.50045H77.345C77.345 4.70832 77.345 5.91619 77.345 7.12405H77.1187L76.2771 5.71987H73.5238V9.99843H77.7805L78.9556 7.67909H79.182V9.99843V10.8041C76.2043 10.8041 73.2267 10.8041 70.249 10.8041V10.8041Z" fill="white"/>
<path fill-rule="evenodd" clip-rule="evenodd" d="M81.0723 10.8041V10.582L82.4125 9.90088V1.11149L81.0723 0.430425V0.208252C82.0402 0.208252 83.0081 0.208252 83.976 0.208252L90.3342 7.62781V1.12139L88.4209 0.430548V0.208374C89.8414 0.208374 91.2621 0.208374 92.6826 0.208374V0.430548L91.3424 1.11161V10.8042H90.4586L83.6472 3.00904V9.97288L85.334 10.582V10.8042C83.9134 10.8042 82.4928 10.8042 81.0723 10.8042V10.8041Z" fill="white"/>
<path fill-rule="evenodd" clip-rule="evenodd" d="M55.417 0.208252H53.4824V0.208313H52.042V0.430487L53.4824 1.16247V9.84991L52.042 10.5819V10.8041H53.4824H53.7092H55.1902H55.417H56.8574V10.5819L55.417 9.84991V1.16247L56.8574 0.430487V0.208313H55.417V0.208252Z" fill="white"/>
<path fill-rule="evenodd" clip-rule="evenodd" d="M105.227 10.8041V10.5819L104.137 10.0325L99.9556 0.114258H98.8033L94.6459 10.0423L93.5762 10.582V10.8041C94.7561 10.8041 95.936 10.8041 97.1159 10.8041V10.582L95.6793 10.0624L96.8702 7.2136H100.843L102.034 10.058L100.586 10.582V10.8041C102.133 10.8041 103.68 10.8041 105.227 10.8041V10.8041ZM97.2503 6.30468L98.8546 2.46697L100.462 6.30468H97.2503Z" fill="white"/>
<path fill-rule="evenodd" clip-rule="evenodd" d="M58.6661 0.208252V0.430425L60.0734 1.04249V9.89819L58.7179 10.582V10.8041C60.2613 10.8041 61.8047 10.8041 63.3481 10.8041V10.582L62.1237 9.95974V5.8973H63.2838L66.3623 10.8041C67.381 10.8041 68.3995 10.8041 69.4182 10.8041V10.582L68.3069 10.0173L65.2103 5.37973C66.1714 5.04986 67.4323 4.33133 67.4323 2.83137C67.4323 0.407689 64.6751 0.208313 64.6751 0.208313C62.6721 0.208313 60.669 0.208313 58.666 0.208313L58.6661 0.208252ZM62.1237 5.11355V1.09426H63.7081C63.7081 1.09426 65.313 1.2962 65.3542 3.05342C65.3953 4.81064 63.5023 5.11355 63.5023 5.11355H62.1237H62.1237Z" fill="white"/>
<path fill-rule="evenodd" clip-rule="evenodd" d="M40.5558 0C43.6522 0 46.1624 2.46243 46.1624 5.5C46.1624 8.53757 43.6522 11 40.5558 11C37.4594 11 34.9492 8.53757 34.9492 5.5C34.9492 2.46243 37.4594 0 40.5558 0ZM40.1649 0.791634C44.3461 0.314771 45.8626 9.98619 40.9294 10.2084C36.7245 10.3977 35.5609 1.31678 40.1649 0.791634V0.791634Z" fill="white"/>
</svg>
