<svg width="64" height="44" viewBox="0 0 64 44" fill="none" xmlns="http://www.w3.org/2000/svg">
<path d="M59.6558 0H4.3442C1.94143 0 0 1.9024 0 4.25685V39.7432C0 42.0976 1.94143 44 4.3442 44H59.6654C62.0586 44 64 42.0976 64 39.7432V4.25685C64 1.9024 62.0586 0 59.6654 0H59.6558Z" fill="#773DBD"/>
<path opacity="0.4" d="M5.97754 22.0275C5.97754 15.03 8.31303 12.459 12.7437 12.459C17.5781 12.459 19.6156 15.1148 19.6156 22.0275C19.6156 28.9401 17.2321 31.5395 12.8302 31.5395C8.42836 31.5395 5.98715 28.9401 5.98715 22.0275H5.97754ZM14.243 22.1028C14.243 17.8931 13.9163 16.8948 12.7437 16.8948C11.6673 16.8948 11.3501 17.9496 11.3501 22.1028C11.3501 26.2561 11.6769 27.0943 12.8494 27.0943C13.8105 27.0943 14.243 26.2278 14.243 22.1028Z" fill="black"/>
<path opacity="0.4" d="M20.5488 22.0275C20.5488 15.03 22.8843 12.459 27.315 12.459C32.1494 12.459 34.1869 15.1148 34.1869 22.0275C34.1869 28.9401 31.8034 31.5395 27.4015 31.5395C22.9996 31.5395 20.5584 28.9401 20.5584 22.0275H20.5488ZM28.8143 22.1028C28.8143 17.8931 28.4876 16.8948 27.315 16.8948C26.2386 16.8948 25.9214 17.9496 25.9214 22.1028C25.9214 26.2561 26.2482 27.0943 27.4207 27.0943C28.3818 27.0943 28.8143 26.2278 28.8143 22.1028Z" fill="black"/>
<path opacity="0.4" d="M44.7872 31.2009H39.6357V18.4209L36.8677 20.3892L34.7725 16.7634L40.4334 12.7891H44.7776V31.1915L44.7872 31.2009Z" fill="black"/>
<path opacity="0.4" d="M57.9933 31.2017H46.4023V26.4928L48.1227 24.9388C51.2079 22.4149 52.3324 21.0964 52.3324 19.3352C52.3324 18.1486 51.8806 17.1503 49.9488 17.1503C48.9012 17.1503 47.7479 17.414 46.6715 17.9602V13.2325C48.4976 12.6298 50.0834 12.4414 51.8999 12.4414C57.0514 12.4414 58.0125 15.6246 58.0125 18.045C58.0125 21.3789 56.321 23.6957 53.5337 25.9277L52.7552 26.5304V26.587H57.9837V31.1828L57.9933 31.2017Z" fill="black"/>
<path opacity="0.4" d="M59.6558 0H4.3442C1.94143 0 0 1.9024 0 4.25685V8.20291H64V4.25685C64 1.9024 62.0586 0 59.6654 0L59.6558 0ZM4.58447 6.35702C3.85403 6.35702 3.25815 5.77312 3.25815 5.05736C3.25815 4.34161 3.85403 3.75771 4.58447 3.75771C5.31491 3.75771 5.9108 4.34161 5.9108 5.05736C5.9108 5.77312 5.31491 6.35702 4.58447 6.35702ZM59.281 6.35702C58.5505 6.35702 57.9547 5.77312 57.9547 5.05736C57.9547 4.34161 58.5505 3.75771 59.281 3.75771C60.0114 3.75771 60.6073 4.34161 60.6073 5.05736C60.6073 5.77312 60.0114 6.35702 59.281 6.35702Z" fill="black"/>
<path opacity="0.4" d="M0 34.4512V39.744C0 42.0984 1.94143 44.0008 4.3442 44.0008H59.6654C62.0586 44.0008 64 42.0984 64 39.744V34.4512H0ZM4.65175 40.8459C3.92131 40.8459 3.32542 40.262 3.32542 39.5462C3.32542 38.8305 3.92131 38.2465 4.65175 38.2465C5.38219 38.2465 5.97808 38.8305 5.97808 39.5462C5.97808 40.262 5.38219 40.8459 4.65175 40.8459ZM40.7989 40.9871H23.2011C22.3938 40.9871 21.7306 40.3467 21.7306 39.5462C21.7306 38.7457 22.3841 38.1053 23.2011 38.1053H40.7989C41.6063 38.1053 42.2694 38.7457 42.2694 39.5462C42.2694 40.3467 41.6159 40.9871 40.7989 40.9871ZM59.3483 40.8459C58.6178 40.8459 58.0219 40.262 58.0219 39.5462C58.0219 38.8305 58.6178 38.2465 59.3483 38.2465C60.0787 38.2465 60.6746 38.8305 60.6746 39.5462C60.6746 40.262 60.0787 40.8459 59.3483 40.8459Z" fill="black"/>
<path opacity="0.2" d="M4.65152 38.2461C3.92108 38.2461 3.3252 38.83 3.3252 39.5458C3.3252 40.2615 3.92108 40.8454 4.65152 40.8454C5.38196 40.8454 5.97785 40.2615 5.97785 39.5458C5.97785 38.83 5.38196 38.2461 4.65152 38.2461Z" fill="black"/>
<path opacity="0.2" d="M59.3488 38.2461C58.6183 38.2461 58.0225 38.83 58.0225 39.5458C58.0225 40.2615 58.6183 40.8454 59.3488 40.8454C60.0792 40.8454 60.6751 40.2615 60.6751 39.5458C60.6751 38.83 60.0792 38.2461 59.3488 38.2461Z" fill="black"/>
<path opacity="0.2" d="M4.58511 3.75781C3.85467 3.75781 3.25879 4.34172 3.25879 5.05747C3.25879 5.77322 3.85467 6.35713 4.58511 6.35713C5.31555 6.35713 5.91144 5.77322 5.91144 5.05747C5.91144 4.34172 5.31555 3.75781 4.58511 3.75781Z" fill="black"/>
<path opacity="0.2" d="M59.2804 3.75781C58.55 3.75781 57.9541 4.34172 57.9541 5.05747C57.9541 5.77322 58.55 6.35713 59.2804 6.35713C60.0109 6.35713 60.6068 5.77322 60.6068 5.05747C60.6068 4.34172 60.0109 3.75781 59.2804 3.75781Z" fill="black"/>
</svg>
