<svg width="64" height="48" viewBox="0 0 64 48" fill="none" xmlns="http://www.w3.org/2000/svg">
<path d="M61.131 17.2525V12.0309C61.131 9.62257 59.0947 7.6606 56.571 7.6606H35.1465L15.1626 0.290218C12.8122 -0.571389 10.1802 0.549739 9.27033 2.80238L7.30985 7.67098C4.82946 7.7125 2.83649 9.64333 2.83649 12.0309V18.8096L0.301943 25.1419C-0.586231 27.3634 0.551065 29.8548 2.84732 30.7475V35.9691C2.84732 38.3774 4.88362 40.3394 7.40733 40.3394H28.8318L48.8266 47.7098C51.177 48.5714 53.809 47.4503 54.7188 45.1976L56.6793 40.329C59.1597 40.2875 61.1527 38.3567 61.1527 35.9691V29.1904L63.6981 22.8581C64.5862 20.6366 63.4489 18.1452 61.1527 17.2525H61.131Z" fill="#773DBD"/>
<path opacity="0.4" d="M28.8203 40.3385L48.8151 47.7089C51.1655 48.5705 53.7975 47.4494 54.7073 45.1967L56.6678 40.3281C56.6678 40.3281 56.6137 40.3281 56.5812 40.3281H28.8311L28.8203 40.3385Z" fill="black"/>
<path opacity="0.4" d="M2.84732 30.7583V25.4848V22.5263V18.8203L0.301943 25.1422C-0.586231 27.3637 0.551065 29.8551 2.84732 30.7479V30.7583Z" fill="black"/>
<path opacity="0.4" d="M61.1299 17.252V29.1899L63.6753 22.8576C64.5634 20.6361 63.4261 18.1447 61.1299 17.252Z" fill="black"/>
<path opacity="0.4" d="M15.1623 0.290218C12.8119 -0.571389 10.1799 0.549739 9.27005 2.80238L7.30957 7.67098C7.30957 7.67098 7.36373 7.67098 7.39622 7.67098H35.1462L15.1623 0.290218Z" fill="black"/>
<path opacity="0.2" d="M61.1313 22.5262H25.3444C27.9007 21.5712 30.3161 20.2217 31.1284 18.3635C31.5183 17.4707 31.7458 16.059 30.5435 14.4188C29.0488 12.3738 27.3483 12.052 26.1676 12.1558C23.5681 12.3738 21.131 14.8963 19.3222 17.3981V7.68164H16.2353V14.6264C15.1413 12.6956 13.7657 11.045 12.0868 10.4948C11.1228 10.1834 9.63894 10.0692 8.02506 11.3253C5.99959 12.8928 5.78296 14.5537 5.9671 15.6645C6.43285 18.5192 10.083 20.9483 13.1483 22.5158H2.84766V25.4744H14.5131L10.6896 31.8897C10.2997 32.5437 10.4946 33.3638 11.1228 33.8101C11.1662 33.8413 11.2203 33.8828 11.2636 33.914C11.4478 34.0178 11.6536 34.0697 11.8594 34.0904C11.9135 34.0904 11.9677 34.1112 12.0218 34.1112C12.5526 34.1112 13.0725 33.8413 13.3649 33.3638L16.2461 28.5159V40.3501H19.333V28.1734L22.03 32.388C22.4741 33.0835 23.4273 33.3015 24.153 32.8759C24.8787 32.4503 25.1062 31.5367 24.6621 30.8412L21.2285 25.4847H61.1422V22.5262H61.1313ZM9.03238 15.2181C8.99988 15.0105 8.91323 14.4603 9.98554 13.6298C10.3755 13.3184 10.6571 13.2458 10.8521 13.2458C10.9712 13.2458 11.0578 13.2769 11.1228 13.2977C12.6284 13.7959 14.2856 17.1282 15.4012 20.2943C12.3468 18.8099 9.30316 16.8064 9.04321 15.2181H9.03238ZM20.7194 20.8341C22.4741 18.0209 24.7704 15.2389 26.4492 15.1039C26.4817 15.1039 26.5251 15.1039 26.5684 15.1039C26.8392 15.1039 27.3591 15.2077 28.0306 16.1316C28.5072 16.7752 28.3664 17.0867 28.3014 17.2424C27.684 18.6542 24.0988 20.0037 20.7303 20.8549L20.7194 20.8341Z" fill="black"/>
</svg>
