<svg width="216" height="144" viewBox="0 0 216 144" fill="none" xmlns="http://www.w3.org/2000/svg">
<rect x="0.666687" width="215.333" height="144" rx="8" fill="white"/>
<g clip-path="url(#clip0_175_4170)">
<path fill-rule="evenodd" clip-rule="evenodd" d="M74.7344 70.2038V58.2518H74.7322C74.7322 53.1051 72.0135 50.9709 68.0415 50.9709C64.0696 50.9709 61.3304 53.1438 61.3304 58.1176V70.2538C61.3304 75.264 63.3039 77.5096 67.8137 77.5096C72.3235 77.5096 74.7344 75.3163 74.7344 70.2038ZM66.3507 70.8636V57.6944V57.6921C66.3507 55.9834 66.9363 55.2211 67.9937 55.2211C69.2425 55.2211 69.6891 56.0448 69.6891 57.6534V70.8386C69.6891 72.5314 69.1172 73.2845 68.0074 73.2845C66.8976 73.2845 66.3507 72.4563 66.3507 70.8636ZM43.4965 51.3578V77.1229H38.5423V51.3578H43.4965ZM127.202 51.3578H122.25H122.248V77.1229H133.004L133.469 72.7954H127.202V51.3578ZM139.916 77.1229L140.535 70.982H140.538H143.748L144.485 77.1229H149.63L145.877 51.3578H138.487L134.847 77.1229H139.916ZM142.772 61.3367L142.772 61.3383C142.962 63.1867 143.158 65.0905 143.32 66.618H140.962C141.308 63.4122 141.928 57.6171 142.005 55.8401H142.199C142.342 57.1596 142.553 59.2044 142.771 61.3236L142.772 61.3342L142.772 61.3367ZM151.105 51.3578H157.216C162.517 51.3578 164.335 53.7537 164.335 59.0846V68.7795C164.335 73.2209 163.408 77.1229 157.526 77.1229H151.105V51.3578ZM156.056 73.1435H157.023C158.996 73.1435 159.306 71.8694 159.306 69.8603V58.311C159.306 56.418 158.88 55.376 156.984 55.376H156.056V73.1435ZM169.442 68.8569V77.1229L169.444 77.1207H174.396V69.048C174.396 68.5088 174.435 68.2767 174.513 67.9286L179.155 51.3578H174.048L173.954 51.8687L173.954 51.8689C173.279 55.5317 172.52 59.6482 172.113 62.5999H171.958C171.653 59.4082 170.864 55.2117 170.175 51.5471L170.14 51.3578H164.723L169.249 67.5441C169.365 67.9696 169.442 68.4314 169.442 68.8569ZM77.3666 77.1229V51.3578H82.8586C83.6789 54.5023 86.2631 66.1721 86.4682 67.3029H86.589C86.3133 63.8741 86.1378 59.187 86.1378 55.5921V51.3578H90.7456V77.1229H85.2035C84.668 74.6725 81.8468 61.3394 81.6804 60.5158H81.546C81.7397 63.5487 81.8901 68.6726 81.8901 72.7226V77.1229H77.3666ZM59.0426 57.7604V58.6865H59.0403C59.0403 62.3587 57.5727 63.4509 56.4652 63.9719C58.0695 64.7455 58.8238 65.9241 58.8238 69.519L58.817 69.8876V77.1229H53.9129C53.9129 77.1229 53.9038 72.602 53.9038 69.3142C53.9038 66.4155 53.5711 65.9218 51.682 65.9218H51.0963V77.1229H46.1399V51.3578H52.5798C56.905 51.3578 59.0426 53.2554 59.0426 57.7604ZM51.11 62.0175H51.7253C53.382 62.0175 54.0588 61.4941 54.0588 59.096V57.8514C54.0588 56.1222 53.7101 55.2622 51.8848 55.2622H51.11V62.0175Z" fill="black"/>
<path d="M102.942 105.5L102.985 74.2674L90.6451 99.2772L87.6736 87.266L36.6667 87.2091L38.5422 82.9862L89.8886 83.0317L91.0166 85.9532L108.463 50.5L108.573 83.4823L114.883 70.9546L119.639 83.009H180L178.309 87.2296H116.323L114.511 82.6495L102.942 105.5Z" fill="#EB0045"/>
</g>
<defs>
<clipPath id="clip0_175_4170">
<rect width="143.333" height="60" fill="white" transform="translate(36.6667 48)"/>
</clipPath>
</defs>
</svg>
