<svg width="216" height="144" viewBox="0 0 216 144" fill="none" xmlns="http://www.w3.org/2000/svg">
<rect width="215.333" height="144" rx="8" fill="white"/>
<path d="M106.148 105.5L106.192 73.7942L93.6844 99.1828L90.6725 86.9897L36 86.932L37.9009 82.6451L92.9153 82.6913L94.0586 85.657L111.745 49.6666L111.855 83.1486L118.251 70.4312L123.072 82.6682H179.333L177.619 86.9527H119.711L117.875 82.3032L106.148 105.5Z" fill="#773DBD"/>
<path fill-rule="evenodd" clip-rule="evenodd" d="M171.226 68.7659V68.7636L171.231 68.7659H171.226ZM171.226 68.7659V70.6021C171.226 72.2859 171.656 73.1082 172.792 73.1082C173.928 73.1082 174.24 71.9349 174.24 70.6807C174.24 68.2139 173.771 67.5094 171.108 65.2805C168.133 62.7744 166.646 61.2893 166.646 57.4528C166.646 53.6163 167.858 50.2903 172.831 50.2903C178.077 50.2903 178.86 53.8912 178.86 56.8661V58.3536H174.125V56.7876C174.125 55.2216 173.85 54.4386 172.873 54.4386C171.896 54.4386 171.621 55.2216 171.621 56.709C171.621 58.2751 171.935 59.0581 174.088 60.7395C177.924 63.7538 179.294 65.4745 179.294 69.7429C179.294 74.0113 177.885 77.2195 172.718 77.2195C167.551 77.2195 166.299 74.2053 166.299 70.3319V68.7659H171.226ZM130.749 50.7222H125.899V76.8269H130.752V69.1562L132.239 65.8302L134.822 76.8292H140.261L135.72 60.8204L140.104 50.7222H134.547C134.054 52.2144 133.466 54.0225 132.888 55.7983L132.888 55.7993L132.887 55.8011L132.885 55.8082C132.085 58.2675 131.305 60.6637 130.828 62.0723H130.749V50.7222ZM147.74 76.8269V50.7222H142.73V76.8269H147.74ZM150.782 50.7222H156.965C162.329 50.7222 164.167 53.1497 164.167 58.5499V68.3732C164.167 72.8749 163.227 76.8269 157.277 76.8269H150.78V50.7222H150.782ZM155.792 72.7964H156.771C158.767 72.7964 159.081 71.5052 159.081 69.4704V57.7669C159.081 55.8498 158.652 54.792 156.732 54.792H155.792V72.7964ZM93.7052 58.1041V57.1687C93.7052 52.6208 91.5433 50.706 87.1732 50.706H80.6642V76.7137H85.6741V65.4075H86.2654C88.1756 65.4075 88.5128 65.9064 88.5128 68.8329C88.5128 72.152 88.5221 76.7137 88.5221 76.7137H93.4812V69.4103L93.4881 69.0384C93.4881 65.4098 92.7259 64.2203 91.1044 63.4396C92.2223 62.913 93.7075 61.8113 93.7075 58.1041H93.7052ZM86.3093 61.4671H85.688V54.6465H86.471C88.3165 54.6465 88.6676 55.5149 88.6676 57.2588V58.5153C88.6676 60.9359 87.9839 61.4625 86.3093 61.4625V61.4671ZM43.0009 56.6837C43.0009 58.2497 43.2874 59.0234 45.4447 60.7003C49.2812 63.7053 50.6579 65.3937 50.6579 69.6759C50.6579 73.7503 49.0549 77.1041 44.0796 77.1041C39.1043 77.1041 37.6838 74.1129 37.6838 70.258V68.3409H42.5921V70.5005C42.5921 72.2097 43.0056 73.0043 44.1628 73.0043C45.32 73.0043 45.5902 71.8263 45.5902 70.5998C45.5902 68.1469 45.1282 67.4355 42.4651 65.2135C39.527 62.7329 38.0164 61.1484 38.0164 57.432C38.0164 53.7156 39.2522 50.2926 44.1928 50.2926C49.4406 50.2926 50.2144 53.8588 50.2144 56.8361V58.6908H45.477V56.776C45.477 55.1985 45.2183 54.4178 44.2251 54.4178C43.2989 54.4178 43.0009 55.21 43.0009 56.6837ZM74.7743 50.706H67.2929L63.6042 76.7137H68.7203L69.3624 70.5236H72.6123L73.3306 76.7137H78.5507L74.7743 50.706ZM69.799 66.112C70.1455 62.8968 70.7645 57.044 70.8546 55.2308H71.0532C71.298 57.7207 71.8177 62.7837 72.1873 66.112H69.8013H69.799ZM64.8538 50.706L64.1354 55.4318H60.3381V76.7137H55.3282V55.4318H51.889V55.1292V50.706H64.5212H64.8538Z" fill="black"/>
</svg>
