<svg width="216" height="144" viewBox="0 0 216 144" fill="none" xmlns="http://www.w3.org/2000/svg">
<rect x="0.333374" width="215.333" height="144" rx="8" fill="white"/>
<g clip-path="url(#clip0_175_4198)">
<path d="M114.508 102.167L114.547 74.7211L103.843 96.6983L101.264 86.1445L36.3334 86.0953L37.9604 82.3841L103.185 82.4229L104.163 84.9902L119.297 53.8334L119.392 82.8189L124.864 71.8096L128.99 82.4022H179.506L178.04 86.1134H126.112L124.542 82.0865L114.508 102.167Z" fill="#EE7029"/>
<path fill-rule="evenodd" clip-rule="evenodd" d="M134.488 60.0704C134.488 61.4032 134.744 62.0606 136.683 63.4892L136.686 63.4943C140.131 66.0487 141.37 67.485 141.37 71.1289C141.37 74.5917 139.929 77.4462 135.458 77.4462C130.986 77.4462 129.709 74.8996 129.709 71.6206V69.9902H134.125V71.8277C134.125 73.2821 134.498 73.9576 135.537 73.9576C136.576 73.9576 136.819 72.9535 136.819 71.9105C136.819 69.822 136.404 69.2164 134.01 67.3272C131.37 65.2154 130.011 63.8696 130.011 60.7071C130.011 57.5445 131.119 54.6331 135.56 54.6331C140.275 54.6331 140.971 57.6688 140.971 60.1998V61.7785H136.714V60.1481C136.714 58.8075 136.478 58.1424 135.588 58.1424C134.757 58.1424 134.488 58.8178 134.488 60.0704ZM179.667 60.4819V61.279C179.667 64.4338 178.334 65.3706 177.328 65.8184C178.787 66.4835 179.472 67.4954 179.472 70.5829L179.467 70.8986V77.1124H175.011C175.011 77.1124 175 73.2304 175 70.4069C175 67.9172 174.698 67.4928 172.982 67.4928H172.45V77.1098H167.947V54.985H173.795C177.725 54.985 179.667 56.6129 179.667 60.4819ZM172.463 64.1388H173.02C174.527 64.1388 175.141 63.691 175.141 61.631V60.5621C175.141 59.0766 174.824 58.3391 173.166 58.3391H172.463V64.1388ZM162.652 54.9876H155.931L152.616 77.1124H157.213L157.791 71.8458H160.713L161.357 77.1124H166.047L162.652 54.9876ZM158.185 68.0932C158.495 65.3577 159.052 60.381 159.132 58.836H159.308C159.528 60.9555 159.994 65.2619 160.329 68.0932H158.185ZM153.931 54.9876L153.286 59.0068H149.873V77.1098H145.371V59.0068H142.28V58.748V54.9876H153.631H153.931ZM44.3585 71.6258C44.3585 74.8789 43.9415 77.2883 39.7588 77.2883C39.1474 77.2883 38.3748 77.2236 37.8938 77.1252V73.6755C37.9936 73.6755 38.1185 73.6821 38.2575 73.6894H38.2576C38.4324 73.6987 38.6296 73.7091 38.8276 73.7091C39.92 73.7091 40.2116 73.352 40.2116 72.0812V55.2929H44.3585V71.6258ZM50.8872 71.8225V55.2929H50.8846H46.7351V71.4964C46.7351 75.4663 48.3417 77.2883 52.1381 77.2883C55.9346 77.2883 57.6716 75.4016 57.6716 71.5611V55.2929H53.4914V71.8225C53.4914 72.9922 53.2024 73.7738 52.2046 73.7738C51.2734 73.7738 50.8872 73.0906 50.8872 71.8225ZM60.1506 76.9958V55.2929H64.717L66.9376 64.8271C67.2599 66.1289 67.549 67.7567 67.7102 68.7324H67.8074C67.5823 65.8364 67.4543 61.9001 67.4543 58.8411V55.2929H71.2815V76.9958H66.6511L64.3358 66.1936C64.2289 65.6833 64.1219 65.0925 64.0218 64.5395L64.0218 64.5394L64.0218 64.5392C63.9112 63.9283 63.809 63.3637 63.7244 63.0052H63.6272C63.7884 65.544 63.9163 69.8711 63.9163 73.2873V76.9958H60.1531H60.1506ZM77.9687 76.9958V55.2929H73.8525V76.9958H77.9687ZM91.3816 61.0849V71.1729C91.3816 75.4689 89.3862 77.3219 85.623 77.3219C81.8598 77.3219 80.22 75.4353 80.22 71.2039V60.9865C80.22 56.7888 82.5045 54.9669 85.8174 54.9669C89.1303 54.9669 91.3816 56.7577 91.3816 61.0849ZM84.4027 60.6294V71.7241C84.4027 73.0569 84.853 73.7738 85.7867 73.7738C86.7205 73.7738 87.1707 73.1242 87.1707 71.6905V60.5957C87.1707 59.2293 86.8177 58.5461 85.7867 58.5461C84.8862 58.5461 84.4027 59.1646 84.4027 60.6294ZM98.9412 55.2929H93.6022V76.9958H97.7184V67.56H98.2019C99.7778 67.56 100.067 67.9819 100.067 70.4223C100.067 70.7069 100.066 70.9922 100.066 71.2761C100.063 73.7518 100.06 76.1205 100.292 76.9958H104.28C104.142 76.0166 104.147 73.5213 104.151 71.5167C104.152 71.1904 104.152 70.8771 104.152 70.5854C104.152 67.56 103.508 66.5507 102.19 65.9011C103.091 65.4767 104.314 64.5657 104.314 61.442V60.6604C104.314 56.8871 102.543 55.2929 98.9412 55.2929ZM98.2326 64.2733H97.7184V58.5797H98.3605C99.9057 58.5797 100.195 59.294 100.195 60.7588V61.7992C100.195 63.8178 99.6166 64.2733 98.2326 64.2733Z" fill="black"/>
</g>
<defs>
<clipPath id="clip0_175_4198">
<rect width="143.333" height="60" fill="white" transform="translate(36.3334 48)"/>
</clipPath>
</defs>
</svg>
