<svg width="884" height="58" viewBox="0 0 884 58" fill="none" xmlns="http://www.w3.org/2000/svg">
<path d="M12.5727 27.1738C11.9725 26.3439 11.4384 25.6114 10.9106 24.8723C10.6616 24.5226 10.3679 24.1884 10.1934 23.8012C9.82524 22.9846 10.0679 22.1193 10.7829 21.5661C11.947 20.6654 13.1281 19.7846 14.2943 18.8861C14.4391 18.7755 14.5476 18.6139 14.6732 18.4767C14.5199 18.3816 14.3752 18.2709 14.2135 18.1957C13.9092 18.054 13.5857 17.9544 13.2899 17.7973C12.4876 17.3702 11.7087 17.6026 10.9255 17.846C10.37 18.0186 9.81887 18.2112 9.26129 18.3705C8.83779 18.49 8.20361 18.1094 8.05676 17.6756C7.88226 17.1666 8.12486 16.4164 8.58241 16.2704C9.80822 15.8764 11.034 15.4626 12.2875 15.2059C12.7302 15.1152 13.2643 15.4272 13.7432 15.5976C15.003 16.0491 16.2373 16.5802 17.5121 16.9763C18.5974 17.3127 18.9763 18.178 19.3104 19.1406C19.6679 20.1674 20.0339 21.1921 20.4319 22.2012C20.4851 22.3384 20.7703 22.48 20.9193 22.4513C21.4002 22.3649 21.879 22.2277 22.343 22.0596C23.3219 21.7055 24.1413 22.2543 23.9795 23.2413C23.9284 23.5555 23.6199 23.9649 23.3411 24.0689C22.2855 24.4606 21.2023 24.7837 20.1127 25.0537C19.4593 25.2153 18.9869 24.6997 18.6826 23.7414C18.4187 22.9116 18.1165 22.095 17.7909 21.2894C17.7483 21.1854 17.3993 21.0858 17.3057 21.1522C16.2437 21.9268 15.2073 22.7367 14.1603 23.5312C13.8836 23.7414 14.0113 23.914 14.1603 24.1221C14.8583 25.0803 15.5372 26.054 16.248 27.0012C16.6247 27.5057 16.6928 28.0634 16.4799 28.6056C16.248 29.2009 15.784 29.4952 15.1179 29.5527C13.375 29.7032 11.6363 29.9201 9.89974 30.1281C9.28045 30.2012 8.72712 30.1281 8.34406 29.5594C8.09294 29.1854 7.96525 28.8025 8.19296 28.3312C8.42067 27.862 8.73776 27.5655 9.22937 27.5168C10.1615 27.4216 11.0979 27.3552 12.0321 27.2734C12.1768 27.2601 12.3194 27.2202 12.5706 27.1716L12.5727 27.1738Z" fill="#EB0045"/>
<path d="M19.7935 17.3769C18.6826 17.3702 17.8249 16.4651 17.842 15.3143C17.859 14.199 18.7209 13.3559 19.819 13.3337C21.0831 13.3094 21.8216 14.3805 21.8046 15.3697C21.7875 16.4208 21.0363 17.4278 19.7956 17.3746L19.7935 17.3769Z" fill="#EB0045"/>
<path d="M13.4452 30.792C13.1111 31.2899 12.7812 31.7901 12.4386 32.2836C12.0385 32.859 11.6193 33.4211 11.2192 33.9942C10.7552 34.6581 9.94442 34.8661 9.37621 34.4567C8.75692 34.0097 8.66116 33.1865 9.14637 32.4673C9.15701 32.4518 9.16978 32.4385 9.17829 32.423C9.79971 31.2523 10.668 30.5995 12.0343 30.8031C12.4514 30.865 12.8983 30.7057 13.3303 30.6482L13.4473 30.7942L13.4452 30.792Z" fill="#EB0045"/>
<line x1="36" y1="22" x2="848" y2="22" stroke="url(#paint0_linear_3307_2558)" stroke-width="4" stroke-dasharray="6 6"/>
<path d="M427.941 45.73V43.228C428.427 43.462 429.075 43.624 429.885 43.624C431.181 43.624 431.757 43.102 431.757 41.824C431.757 40.6 431.289 40.06 430.011 40.06C429.291 40.06 428.553 40.204 428.049 40.366L428.319 33.4H434.277V35.902H430.443L430.353 38.008C430.695 37.918 431.055 37.9 431.469 37.9C433.971 37.9 434.763 39.646 434.763 41.752C434.763 44.128 433.773 46.198 430.443 46.198C429.651 46.198 428.787 46.072 427.941 45.73ZM441.979 36.82V41.176L443.725 36.82H446.515L444.517 41.176L446.839 46H443.923L441.979 41.518V46H439.423V36.82H441.979ZM453.162 36.82H456.276V46H453.918V41.518L453.936 40.168L453.63 41.428L452.712 44.488H451.2L450.282 41.428L449.958 40.24L449.994 41.5V46H447.636V36.82H450.75L451.956 41.374L453.162 36.82Z" fill="black"/>
<path fill-rule="evenodd" clip-rule="evenodd" d="M878.201 31.587V15.0797H857.784V15.0798H861.688V19.2066H857.784V23.3334H861.688V27.4602H857.784V31.587H861.688V27.4602H865.815V23.3334H861.688V19.2066H865.815V15.0798H869.941V19.2066H865.815V23.3334H869.941V27.4602H865.815V31.587H869.942V27.4602H874.069V31.587H878.201ZM857.456 12H878.528H878.544C880.087 12 881.333 13.2319 881.333 14.7563V31.9103C881.333 33.4348 880.087 34.6667 878.544 34.6667H857.456C855.914 34.6667 854.667 33.4348 854.667 31.9103V14.7563C854.667 13.2319 855.914 12 857.456 12ZM874.069 15.0798H878.196V19.2066H874.069V15.0798ZM878.196 23.3334H874.069V27.4602H878.196V23.3334ZM874.069 19.2066H869.942V23.3334H874.069V19.2066Z" fill="black"/>
<defs>
<linearGradient id="paint0_linear_3307_2558" x1="36" y1="24" x2="849.184" y2="24" gradientUnits="userSpaceOnUse">
<stop stop-color="#EB0045"/>
<stop offset="1"/>
</linearGradient>
</defs>
</svg>
