<svg width="311" height="64" viewBox="0 0 311 64" fill="none" xmlns="http://www.w3.org/2000/svg">
<path d="M133.529 4.2V14H131.317V6.748L130.029 7.7L129.077 6.118L131.667 4.2H133.529ZM140.095 4.2V14H137.883V6.748L136.595 7.7L135.643 6.118L138.233 4.2H140.095ZM148.075 9.198V10.738H142.153V9.198H148.075ZM153.582 4.2V14H151.37V6.748L150.082 7.7L149.13 6.118L151.72 4.2H153.582ZM161.156 11.97V14H155.64V11.928L156.648 10.822C158.132 9.38 158.734 8.526 158.734 7.49C158.734 6.636 158.412 6.118 157.46 6.118C156.9 6.118 156.326 6.286 155.808 6.58V4.466C156.648 4.144 157.446 4.046 158.244 4.046C160.526 4.046 161.142 5.474 161.142 6.944C161.142 8.778 160.162 10.15 158.664 11.606L158.286 11.942V11.97H161.156ZM165.187 14.14C164.921 14.14 164.669 14.084 164.515 14.028L164.501 12.166C164.571 12.194 164.641 12.208 164.725 12.208C165.215 12.208 165.397 11.648 165.397 8.232V6.86H170.199V14H168.225V8.694H167.217L167.203 9.184C167.133 13.09 166.657 14.14 165.187 14.14ZM176.276 12.054V13.608C175.982 13.874 175.226 14.14 174.232 14.14C172.118 14.14 171.082 13.006 171.082 10.332C171.082 7.854 172.202 6.72 173.938 6.72C175.884 6.72 176.584 7.938 176.584 10.066V10.892H173.028C173.098 11.998 173.532 12.488 174.54 12.488C175.31 12.488 175.898 12.32 176.276 12.054ZM173.028 9.702H174.722C174.722 8.652 174.47 8.302 173.924 8.302C173.378 8.302 173.084 8.736 173.028 9.702ZM180.694 8.694V14H178.72V8.694H177.096V6.86H182.332V8.694H180.694Z" fill="#868686"/>
<path d="M12.9439 38.5599C13.2245 38.3594 13.3866 38.218 13.5715 38.1146C14.4112 37.646 15.255 37.188 16.0988 36.7278C16.3897 36.5695 16.4749 36.407 16.2775 36.065C15.7683 35.1827 15.2799 34.2836 14.8435 33.3612C14.4486 32.5295 14.6481 31.4531 15.8078 31.2293C17.8341 30.8367 19.8542 30.4061 21.8847 30.0389C22.3025 29.9629 22.795 29.9966 23.1858 30.155C23.803 30.404 23.9963 30.9908 23.8633 31.738C23.7739 32.2446 23.2731 32.6414 22.6911 32.7491C21.2218 33.0256 19.7586 33.3295 18.1875 33.644C18.4597 34.1801 18.7008 34.6825 18.9647 35.1722C20.1265 37.3315 21.2841 39.4929 22.4667 41.6395C22.6891 42.0427 22.581 42.1693 22.1861 42.2221C20.5775 42.4395 19.1788 42.0575 17.9609 40.9008C16.6017 39.609 14.9474 38.8808 12.9439 38.5578V38.5599Z" fill="#EE7029"/>
<path d="M11.6117 40.105C13.5695 40.1789 15.4129 40.8374 16.9446 42.2664C18.8026 43.9993 21.3901 44.432 23.7012 43.4168C24.7964 42.9355 25.9187 42.4859 27.068 42.1651C27.4837 42.049 27.9264 42.0363 28.3732 42.0406C28.8616 42.0448 29.271 42.4142 29.3271 42.906C29.3916 43.4864 28.9447 43.9888 28.3711 43.993C28.3192 43.993 28.2672 43.993 28.2194 43.9972C27.0265 44.0732 25.9541 44.5122 24.8983 45.0442C23.5682 45.7154 22.1445 46.1101 20.6606 45.9729C18.7756 45.7998 17.0589 45.1434 15.6519 43.7862C14.5296 42.7033 13.1621 42.1651 11.6387 42.1123C10.3232 42.068 9.11151 42.5324 7.95389 43.1487C7.06854 43.6215 6.12707 43.879 5.15234 44.0099C4.66394 44.0753 4.20256 43.7629 4.0841 43.2754L4.02798 43.0432C3.90121 42.5176 4.21711 41.9878 4.73461 41.8612C5.67608 41.629 7.06438 41.3482 7.59435 41.0992C8.84549 40.5124 10.1257 40.1282 11.6138 40.1008L11.6117 40.105Z" fill="#EE7029"/>
<path d="M25.7691 36.9262C25.9042 38.408 24.4577 39.5246 23.2564 39.5203C21.9346 39.5161 20.696 38.332 20.7001 36.9347C20.7043 35.5521 21.7725 34.3131 23.2772 34.3195C24.6614 34.3237 25.8979 35.5099 25.7691 36.9262Z" fill="#EE7029"/>
<line x1="36" y1="36" x2="135.5" y2="36" stroke="url(#paint0_linear_3307_6497)" stroke-width="4" stroke-dasharray="6 6"/>
<path d="M68.6903 57.66C69.4823 57.66 69.8423 56.958 69.8423 53.736C69.8423 50.496 69.5183 49.74 68.6363 49.74C67.8083 49.74 67.4843 50.514 67.4843 53.736C67.4843 56.904 67.8083 57.66 68.6903 57.66ZM68.6723 60.198C65.8823 60.198 64.5143 58.542 64.5143 53.7C64.5143 48.822 65.9363 47.202 68.6363 47.202C71.5343 47.202 72.7943 48.858 72.7943 53.7C72.7943 58.578 71.3723 60.198 68.6723 60.198ZM76.628 58.56C76.628 59.586 76.034 60.198 75.008 60.198C74.054 60.198 73.424 59.568 73.424 58.56C73.424 57.534 73.982 56.94 75.008 56.94C75.998 56.94 76.628 57.57 76.628 58.56ZM77.8956 59.712V57.12C78.8316 57.498 79.5696 57.606 80.1996 57.606C81.4236 57.606 81.8916 57.084 81.8916 56.166C81.8916 55.14 81.4236 54.744 80.3976 54.744H78.9396V52.386H80.1996C81.2256 52.386 81.6756 52.026 81.6756 51.036C81.6756 50.208 81.2076 49.794 80.2536 49.794C79.4616 49.794 78.6696 49.956 78.0756 50.226V47.688C79.0836 47.328 80.1096 47.202 81.1176 47.202C83.9256 47.202 84.6996 48.876 84.6996 50.55C84.6996 52.152 84.0696 53.034 82.8636 53.448V53.484C84.3756 53.826 84.9156 54.834 84.9156 56.364C84.9156 58.434 83.9076 60.198 80.6496 60.198C80.0556 60.198 78.9036 60.09 77.8956 59.712ZM92.1319 50.82V55.176L93.8779 50.82H96.6679L94.6699 55.176L96.9919 60H94.0759L92.1319 55.518V60H89.5759V50.82H92.1319ZM103.315 50.82H106.429V60H104.071V55.518L104.089 54.168L103.783 55.428L102.865 58.488H101.353L100.435 55.428L100.111 54.24L100.147 55.5V60H97.7891V50.82H100.903L102.109 55.374L103.315 50.82Z" fill="black"/>
<path d="M152.073 41.1737C151.473 40.3438 150.938 39.6113 150.411 38.8722C150.162 38.5225 149.868 38.1884 149.693 37.8011C149.325 36.9845 149.568 36.1192 150.283 35.566C151.447 34.6653 152.628 33.7845 153.794 32.8861C153.939 32.7754 154.048 32.6139 154.173 32.4767C154.02 32.3815 153.875 32.2708 153.713 32.1956C153.409 32.054 153.086 31.9544 152.79 31.7973C151.988 31.3702 151.209 31.6025 150.425 31.846C149.87 32.0186 149.319 32.2111 148.761 32.3704C148.338 32.4899 147.704 32.1093 147.557 31.6756C147.382 31.1666 147.625 30.4164 148.082 30.2703C149.308 29.8764 150.534 29.4626 151.788 29.2059C152.23 29.1151 152.764 29.4272 153.243 29.5976C154.503 30.049 155.737 30.5801 157.012 30.9762C158.097 31.3126 158.476 32.1779 158.81 33.1406C159.168 34.1674 159.534 35.192 159.932 36.2011C159.985 36.3383 160.27 36.48 160.419 36.4512C160.9 36.3649 161.379 36.2277 161.843 36.0595C162.822 35.7054 163.641 36.2542 163.48 37.2412C163.428 37.5555 163.12 37.9649 162.841 38.0689C161.786 38.4606 160.702 38.7837 159.613 39.0537C158.959 39.2152 158.487 38.6996 158.183 37.7414C157.919 36.9115 157.616 36.0949 157.291 35.2894C157.248 35.1854 156.899 35.0858 156.806 35.1522C155.744 35.9267 154.707 36.7367 153.66 37.5311C153.384 37.7414 153.511 37.914 153.66 38.122C154.358 39.0802 155.037 40.0539 155.748 41.0011C156.125 41.5057 156.193 42.0633 155.98 42.6055C155.748 43.2008 155.284 43.4951 154.618 43.5527C152.875 43.7032 151.136 43.92 149.4 44.1281C148.78 44.2011 148.227 44.1281 147.844 43.5593C147.593 43.1853 147.465 42.8025 147.693 42.3311C147.921 41.862 148.238 41.5654 148.729 41.5167C149.661 41.4216 150.598 41.3552 151.532 41.2733C151.677 41.26 151.819 41.2202 152.071 41.1715L152.073 41.1737Z" fill="#868686"/>
<path d="M159.293 31.3768C158.183 31.3702 157.325 30.465 157.342 29.3143C157.359 28.1989 158.221 27.3558 159.319 27.3337C160.583 27.3093 161.322 28.3804 161.305 29.3696C161.288 30.4208 160.536 31.4277 159.296 31.3746L159.293 31.3768Z" fill="#868686"/>
<path d="M152.945 44.792C152.611 45.2899 152.281 45.79 151.939 46.2835C151.539 46.8589 151.119 47.421 150.719 47.9942C150.255 48.6581 149.444 48.8661 148.876 48.4567C148.257 48.0096 148.161 47.1864 148.646 46.4672C148.657 46.4517 148.67 46.4384 148.678 46.4229C149.3 45.2523 150.168 44.5994 151.534 44.803C151.951 44.865 152.398 44.7057 152.83 44.6481L152.947 44.7942L152.945 44.792Z" fill="#868686"/>
<line x1="175.5" y1="36" x2="275" y2="36" stroke="url(#paint1_linear_3307_6497)" stroke-width="4" stroke-dasharray="6 6"/>
<path d="M218.049 57.39V60H210.957V57.336L212.253 55.914C214.161 54.06 214.935 52.962 214.935 51.63C214.935 50.532 214.521 49.866 213.297 49.866C212.577 49.866 211.839 50.082 211.173 50.46V47.742C212.253 47.328 213.279 47.202 214.305 47.202C217.239 47.202 218.031 49.038 218.031 50.928C218.031 53.286 216.771 55.05 214.845 56.922L214.359 57.354V57.39H218.049ZM225.229 50.82V55.176L226.975 50.82H229.765L227.767 55.176L230.089 60H227.173L225.229 55.518V60H222.673V50.82H225.229ZM236.412 50.82H239.526V60H237.168V55.518L237.186 54.168L236.88 55.428L235.962 58.488H234.45L233.532 55.428L233.208 54.24L233.244 55.5V60H230.886V50.82H234L235.206 55.374L236.412 50.82Z" fill="black"/>
<path fill-rule="evenodd" clip-rule="evenodd" d="M305.201 45.587V29.0797H284.784V29.0798H288.688V33.2066H284.784V37.3334H288.688V41.4602H284.784V45.587H288.688V41.4602H292.815V37.3334H288.688V33.2066H292.815V29.0798H296.942V33.2066H292.815V37.3334H296.942V41.4602H292.815V45.587H296.942V41.4602H301.069V45.587H305.201ZM284.457 26H305.528H305.544C307.087 26 308.333 27.2319 308.333 28.7563V45.9103C308.333 47.4348 307.087 48.6667 305.544 48.6667H284.457C282.914 48.6667 281.667 47.4348 281.667 45.9103V28.7563C281.667 27.2319 282.914 26 284.457 26ZM301.069 29.0798H305.196V33.2066H301.069V29.0798ZM305.196 37.3334H301.069V41.4602H305.196V37.3334ZM301.069 33.2066H296.942V37.3334H301.069V33.2066Z" fill="black"/>
<defs>
<linearGradient id="paint0_linear_3307_6497" x1="36" y1="38" x2="135.645" y2="38" gradientUnits="userSpaceOnUse">
<stop stop-color="#EE7029"/>
<stop offset="1" stop-color="#9F9F9F"/>
</linearGradient>
<linearGradient id="paint1_linear_3307_6497" x1="175.5" y1="38" x2="275.145" y2="38" gradientUnits="userSpaceOnUse">
<stop stop-color="#9F9F9F"/>
<stop offset="1"/>
</linearGradient>
</defs>
</svg>
