<svg width="20" height="20" viewBox="0 0 20 20" fill="none" xmlns="http://www.w3.org/2000/svg">
<g clip-path="url(#clip0_538_67)">
<path d="M16.6666 7.24186V3.33353H12.7583L9.99995 0.575195L7.24162 3.33353H3.33328V7.24186L0.574951 10.0002L3.33328 12.7585V16.6669H7.24162L9.99995 19.4252L12.7583 16.6669H16.6666V12.7585L19.4249 10.0002L16.6666 7.24186ZM9.99995 15.0002C7.24162 15.0002 4.99995 12.7585 4.99995 10.0002C4.99995 7.24186 7.24162 5.0002 9.99995 5.0002C12.7583 5.0002 15 7.24186 15 10.0002C15 12.7585 12.7583 15.0002 9.99995 15.0002ZM9.99995 6.66686C8.15828 6.66686 6.66662 8.15853 6.66662 10.0002C6.66662 11.8419 8.15828 13.3335 9.99995 13.3335C11.8416 13.3335 13.3333 11.8419 13.3333 10.0002C13.3333 8.15853 11.8416 6.66686 9.99995 6.66686Z" fill="#8D2A00"/>
</g>
<defs>
<clipPath id="clip0_538_67">
<rect width="20" height="20" fill="white"/>
</clipPath>
</defs>
</svg>
