<svg width="32" height="56" viewBox="0 0 32 56" fill="none" xmlns="http://www.w3.org/2000/svg">
<rect width="32" height="56" fill="black"/>
<path fill-rule="evenodd" clip-rule="evenodd" d="M13.4324 16.0342C15.1537 15.8739 17.0412 16.2632 18.2619 17.4838C18.6447 17.8667 18.6447 18.4875 18.2619 18.8703C17.879 19.2532 17.2583 19.2532 16.8754 18.8703C16.2137 18.2086 14.9983 17.8577 13.6142 17.9866C12.2437 18.1142 10.957 18.6935 10.2189 19.5654C9.43898 20.4867 8.86802 21.6977 8.49283 22.9085C8.25945 23.6616 8.11056 24.3861 8.03135 25.0006H23.8864C23.657 24.2605 23.1831 23.5593 22.5613 22.9188L22.5592 22.9167C21.0373 21.3396 18.5047 21.2279 16.7872 22.6632C16.7868 22.6636 16.7863 22.664 16.7859 22.6644L16.2888 23.0835C15.8749 23.4325 15.2564 23.3799 14.9073 22.9659C14.5583 22.5519 14.611 21.9334 15.0249 21.5844L15.5278 21.1604C18.0061 19.0874 21.7071 19.2111 23.9692 21.5541C25.0388 22.6561 26 24.1626 26 25.981C26 26.5225 25.5611 26.9614 25.0196 26.9614H6.98039C6.43894 26.9614 6 26.5225 6 25.981C6 25.0292 6.19615 23.6956 6.61991 22.3281C7.04374 20.9604 7.71789 19.4851 8.7223 18.2985C9.87636 16.9352 11.6974 16.1958 13.4324 16.0342Z" fill="#E2E000"/>
</svg>
