<svg width="18" height="18" viewBox="0 0 18 18" fill="none" xmlns="http://www.w3.org/2000/svg">
<path fill-rule="evenodd" clip-rule="evenodd" d="M4.39032 8.39251C3.24681 8.63251 1.82211 8.70751 0 8.73001C0.138721 3.97125 3.97041 0.13875 8.7319 0C8.72815 0.29625 8.7244 0.5775 8.7169 0.855001C8.63817 3.97125 8.32323 5.80875 7.06725 7.06501C6.38489 7.74751 5.53008 8.15251 4.39032 8.39251ZM18 8.73001C14.352 8.68126 12.3012 8.43376 10.9327 7.06501C10.764 6.89251 10.6103 6.7125 10.4716 6.5175C9.50427 5.16375 9.30931 3.19125 9.26807 0C14.0258 0.13875 17.8575 3.97125 18 8.73001ZM7.0635 10.935C5.69504 9.56625 3.64423 9.31874 0 9.26999C0.138721 14.0287 3.97041 17.8613 8.72815 18C8.68691 14.8087 8.49195 12.8362 7.52465 11.4825C7.38593 11.2875 7.23222 11.1075 7.0635 10.935ZM9.26807 17.9963C9.31681 14.3513 9.56426 12.3038 10.9327 10.935V10.9313C11.6151 10.2488 12.4699 9.84377 13.6097 9.60376C14.7494 9.36376 16.1741 9.28876 17.9962 9.26626C17.8575 14.025 14.0258 17.8575 9.26807 17.9963Z" fill="white"/>
</svg>
