<svg width="32" height="56" viewBox="0 0 32 56" fill="none" xmlns="http://www.w3.org/2000/svg">
<rect width="32" height="56" fill="black"/>
<path fill-rule="evenodd" clip-rule="evenodd" d="M19.2176 16.7213C18.393 16.9365 17.4578 17.1198 16.402 17.1198C15.3572 17.1198 14.3719 16.9492 13.4755 16.7505C13.0626 16.659 12.6961 16.569 12.3492 16.4838C11.8908 16.3712 11.4666 16.267 11.0145 16.1789C9.5386 15.891 8.55109 15.9552 7.67363 16.8326C7.29077 17.2155 6.67002 17.2155 6.28715 16.8326C5.90428 16.4498 5.90428 15.829 6.28715 15.4461C7.87048 13.8628 9.7114 13.927 11.3899 14.2543C11.8587 14.3458 12.3877 14.4746 12.9033 14.6003C13.2488 14.6844 13.5883 14.7671 13.8998 14.8362C14.7384 15.022 15.5644 15.159 16.402 15.159C17.2285 15.159 17.9857 15.0163 18.7224 14.824C19.0648 14.7347 19.3947 14.6369 19.7311 14.5372C19.7597 14.5287 19.7884 14.5202 19.8171 14.5117C20.1765 14.4053 20.548 14.2964 20.9157 14.2081C21.6493 14.032 22.451 13.9157 23.2874 14.0764C24.1455 14.2414 24.9452 14.6785 25.7129 15.4461C26.0957 15.829 26.0957 16.4498 25.7129 16.8326C25.33 17.2155 24.7092 17.2155 24.3264 16.8326C23.7901 16.2964 23.3312 16.0815 22.9173 16.002C22.4816 15.9182 21.9978 15.9649 21.3735 16.1148C21.0623 16.1895 20.7368 16.2843 20.3738 16.3918C20.3442 16.4006 20.3144 16.4094 20.2843 16.4183C19.9526 16.5167 19.5927 16.6234 19.2176 16.7213Z" fill="#E2E000"/>
<path fill-rule="evenodd" clip-rule="evenodd" d="M19.2176 21.5742C18.393 21.7894 17.4578 21.9727 16.402 21.9727C15.3572 21.9727 14.3719 21.8021 13.4755 21.6034C13.0626 21.5119 12.6961 21.4219 12.3492 21.3367C11.8908 21.2241 11.4666 21.12 11.0145 21.0318C9.5386 20.7439 8.55109 20.8081 7.67363 21.6856C7.29077 22.0684 6.67002 22.0684 6.28715 21.6856C5.90428 21.3027 5.90428 20.6819 6.28715 20.2991C7.87048 18.7158 9.7114 18.7799 11.3899 19.1073C11.8587 19.1987 12.3877 19.3276 12.9033 19.4532C13.2488 19.5374 13.5883 19.6201 13.8998 19.6891C14.7384 19.875 15.5644 20.0119 16.402 20.0119C17.2285 20.0119 17.9857 19.8693 18.7224 19.677C19.0648 19.5876 19.3947 19.4898 19.7311 19.3901C19.7597 19.3817 19.7884 19.3732 19.8171 19.3647C20.1765 19.2582 20.548 19.1494 20.9157 19.0611C21.6493 18.885 22.451 18.7686 23.2874 18.9294C24.1455 19.0943 24.9452 19.5314 25.7129 20.2991C26.0957 20.6819 26.0957 21.3027 25.7129 21.6856C25.33 22.0684 24.7092 22.0684 24.3264 21.6856C23.7901 21.1493 23.3312 20.9345 22.9173 20.8549C22.4816 20.7712 21.9978 20.8178 21.3735 20.9677C21.0623 21.0424 20.7368 21.1373 20.3738 21.2448C20.3442 21.2535 20.3144 21.2624 20.2843 21.2713C19.9526 21.3696 19.5927 21.4763 19.2176 21.5742Z" fill="#E2E000"/>
<path fill-rule="evenodd" clip-rule="evenodd" d="M19.2176 26.4271C18.393 26.6423 17.4578 26.8256 16.402 26.8256C15.3572 26.8256 14.3719 26.655 13.4755 26.4564C13.0626 26.3649 12.6961 26.2749 12.3492 26.1897C11.8908 26.0771 11.4666 25.9729 11.0145 25.8847C9.5386 25.5969 8.55109 25.661 7.67363 26.5385C7.29077 26.9214 6.67002 26.9214 6.28715 26.5385C5.90428 26.1556 5.90428 25.5349 6.28715 25.152C7.87048 23.5687 9.7114 23.6329 11.3899 23.9602C11.8587 24.0516 12.3877 24.1805 12.9033 24.3061C13.2488 24.3903 13.5883 24.473 13.8998 24.542C14.7384 24.7279 15.5644 24.8649 16.402 24.8649C17.2285 24.8649 17.9857 24.7222 18.7224 24.5299C19.0648 24.4406 19.3947 24.3428 19.7311 24.2431C19.7597 24.2346 19.7884 24.2261 19.8171 24.2176C20.1765 24.1112 20.548 24.0023 20.9157 23.914C21.6493 23.7379 22.451 23.6215 23.2874 23.7823C24.1455 23.9472 24.9452 24.3844 25.7129 25.152C26.0957 25.5349 26.0957 26.1556 25.7129 26.5385C25.33 26.9214 24.7092 26.9214 24.3264 26.5385C23.7901 26.0022 23.3312 25.7874 22.9173 25.7078C22.4816 25.6241 21.9978 25.6707 21.3735 25.8206C21.0623 25.8953 20.7368 25.9902 20.3738 26.0977C20.3442 26.1065 20.3144 26.1153 20.2843 26.1242C19.9526 26.2225 19.5927 26.3292 19.2176 26.4271Z" fill="#E2E000"/>
</svg>
