<svg preserveAspectRatio="none" width="100%" height="100%" overflow="visible" style="display: block;" viewBox="0 0 46 46" fill="none" xmlns="http://www.w3.org/2000/svg">
<g id="document-validation">
<path id="Vector" d="M28.7126 13.4465C28.7126 13.4465 29.6709 14.4048 30.6292 16.3215C30.6292 16.3215 33.6733 11.5298 36.3792 10.5715" stroke="var(--stroke-0, #BC4400)" stroke-width="2.875" stroke-linecap="round" stroke-linejoin="round"/>
<path id="Vector_2" d="M19.1568 3.87424C14.3681 3.67149 10.6684 4.22315 10.6684 4.22315C8.33227 4.39019 3.8553 5.69988 3.85534 13.3487C3.85537 20.9325 3.80581 30.282 3.85534 34.0091C3.85534 36.2863 5.26528 41.598 10.1454 41.8826C16.0772 42.2288 26.7619 42.3024 31.6642 41.8826C32.9765 41.8086 37.3456 40.7784 37.8985 36.0249C38.4714 31.1004 38.3574 27.678 38.3574 26.8634" stroke="var(--stroke-0, #BC4400)" stroke-width="2.875" stroke-linecap="round" stroke-linejoin="round"/>
<path id="Vector_3" d="M42.1664 13.4465C42.1664 18.7392 37.8717 23.0299 32.5738 23.0299C27.276 23.0299 22.9813 18.7392 22.9813 13.4465C22.9813 8.15378 27.276 3.86316 32.5738 3.86316C37.8717 3.86316 42.1664 8.15378 42.1664 13.4465Z" stroke="var(--stroke-0, #BC4400)" stroke-width="2.875" stroke-linecap="round"/>
<path id="Vector_4" d="M13.3792 24.9466H21.0458" stroke="var(--stroke-0, #BC4400)" stroke-width="2.875" stroke-linecap="round"/>
<path id="Vector_5" d="M13.3792 32.6133H28.7125" stroke="var(--stroke-0, #BC4400)" stroke-width="2.875" stroke-linecap="round"/>
</g>
</svg>
