<svg width="146" height="147" viewBox="0 0 146 147" fill="none" xmlns="http://www.w3.org/2000/svg">
<g clip-path="url(#clip0_4_12803)">
<path d="M21.48 125.279C-7.04005 96.7075 -7.18005 50.5037 21.18 22.0922C49.54 -6.31929 95.66 -6.18906 124.18 22.3928L21.48 125.279Z" fill="#286DAC"/>
<path d="M52.5499 94.1529C41.2899 82.8724 41.2299 64.6193 52.4299 53.399C63.6299 42.1786 81.8399 42.2287 93.1099 53.5192L52.5499 94.1529Z" fill="#F2A436"/>
<path d="M123.96 22.1724C152.48 50.7442 152.62 96.9479 124.26 125.359C95.9 153.771 49.78 153.641 21.26 125.059L123.96 22.1724Z" fill="#286DAC"/>
<path d="M92.89 53.2988C104.15 64.5793 104.21 82.8323 93.01 94.0527C81.81 105.273 63.6 105.223 52.33 93.9325L92.89 53.2988Z" fill="#F2A436"/>
</g>
<defs>
<clipPath id="clip0_4_12803">
<rect width="145.44" height="145.704" fill="white" transform="translate(0 0.873749)"/>
</clipPath>
</defs>
</svg>
