<svg width="132" height="42" viewBox="0 0 132 42" fill="none" xmlns="http://www.w3.org/2000/svg">
<g clip-path="url(#clip0_68_84740)">
<path d="M55.1101 40.7201H49.7901C49.7901 39.9901 49.29 37.9201 48.28 34.5101H40.6101C39.5701 37.8701 39.05 39.9401 39.05 40.7201H34.05C34.05 40.2901 35.34 36.7401 37.93 30.0901C40.5201 23.4301 41.8101 19.7701 41.8101 19.0901H48.09C48.09 19.7201 49.26 23.3301 51.6 29.9301C53.94 36.5201 55.1101 40.1201 55.1101 40.7201ZM47.44 31.3401C45.55 25.6301 44.6 22.5401 44.6 22.0701H44.3301C44.3301 22.5001 43.35 25.5901 41.39 31.3401H47.44Z" fill="#022A53"/>
<path d="M75.9599 29.16C75.9599 32.31 74.9499 35.05 72.9399 37.4C70.9199 39.75 68.0999 40.92 64.4699 40.92C62.8299 40.92 60.5699 40.85 57.6899 40.72C57.8299 37.38 57.9099 33.61 57.9099 29.41C57.9099 25.21 57.8399 21.94 57.6899 19.09H60.5999C61.0799 19.09 61.7799 19.07 62.7299 19.04C63.6699 19.01 64.2899 18.99 64.5699 18.99C68.5699 18.99 71.4699 19.99 73.2699 21.98C75.0699 23.97 75.9699 26.37 75.9699 29.16H75.9599ZM71.4299 29.87C71.4299 27.74 70.8099 25.95 69.5699 24.5C68.3299 23.04 66.4399 22.32 63.8899 22.32C63.4099 22.32 62.7599 22.37 61.9299 22.47C62.0399 24.68 62.0999 27 62.0999 29.41C62.0999 32.06 62.1599 34.68 62.2699 37.28C62.9899 37.42 63.7099 37.5 64.4299 37.5C66.8099 37.5 68.5699 36.76 69.7199 35.28C70.8699 33.8 71.4399 32 71.4399 29.87H71.4299Z" fill="#022A53"/>
<path d="M97.1301 40.72H92.2101C90.9301 36.8 89.9401 34.38 89.2501 33.46C88.5601 32.54 87.4601 32.08 85.9301 32.08C85.2901 32.08 84.6701 32.08 84.0901 32.1C84.0901 34.95 84.1401 37.82 84.2401 40.72H79.6201C79.7601 37.38 79.8401 33.61 79.8401 29.41C79.8401 25.21 79.7701 21.94 79.6201 19.09H82.4901C82.8201 19.09 83.5201 19.07 84.5701 19.04C85.6301 19.01 86.6001 18.99 87.5001 18.99C92.5801 18.99 95.1201 20.73 95.1201 24.21C95.1201 26.97 93.6701 28.89 90.7701 29.97V30.22C91.8901 30.53 92.8701 31.4 93.7101 32.84C94.5501 34.27 95.6901 36.9 97.1201 40.72H97.1301ZM90.9001 25.44C90.9001 23.24 89.4801 22.13 86.6501 22.13C85.6101 22.13 84.6901 22.21 83.8901 22.36C84.0101 24.08 84.0701 26.31 84.0701 29.07C84.6801 29.09 85.1901 29.1 85.6101 29.1C89.1301 29.1 90.8901 27.88 90.8901 25.43L90.9001 25.44Z" fill="#022A53"/>
<path d="M114.16 37.0601L114.03 40.7101H99.8901C100.03 37.3701 100.11 33.6001 100.11 29.4001C100.11 25.2001 100.04 21.9301 99.8901 19.0801H113.38L113.2 22.7201C109.88 22.5401 106.87 22.4501 104.16 22.4501C104.27 23.9901 104.33 25.8101 104.33 27.9001C106.64 27.9001 109.12 27.8401 111.75 27.7201V31.1901C109.16 31.0801 106.68 31.0201 104.33 31.0201C104.33 33.2701 104.37 35.3701 104.46 37.3301C107.49 37.3301 110.73 37.2401 114.16 37.0501V37.0601Z" fill="#022A53"/>
<path d="M131.95 34.82C131.95 39.15 128.84 41.31 122.61 41.31C120.49 41.31 118.53 41.05 116.71 40.55L117.52 36.85C119.31 37.47 121.01 37.78 122.6 37.78C124.37 37.78 125.65 37.61 126.42 37.27C127.2 36.93 127.58 36.35 127.58 35.54C127.58 34.73 127.21 33.99 126.48 33.41C125.85 32.9 124.57 32.24 122.64 31.42C120.89 30.67 119.59 29.85 118.74 28.96C117.67 27.84 117.13 26.46 117.13 24.82C117.13 22.92 117.84 21.43 119.25 20.35C120.66 19.28 122.69 18.74 125.34 18.74C127.51 18.74 129.33 18.92 130.8 19.29L130.19 22.98C128.69 22.44 127.08 22.17 125.34 22.17C122.73 22.17 121.42 22.87 121.42 24.26C121.42 25 121.72 25.61 122.33 26.07C122.86 26.47 124.02 27.03 125.8 27.75C127.69 28.51 129.11 29.36 130.05 30.27C131.3 31.5 131.93 33.02 131.93 34.82H131.95Z" fill="#022A53"/>
<path d="M28.5301 17.54C28.5301 23.94 23.3401 29.1399 16.9301 29.1399C14.0801 29.1399 11.4601 28.11 9.44008 26.4C6.93008 24.27 5.33008 21.1 5.33008 17.55C5.33008 11.15 10.5201 5.94995 16.9301 5.94995C23.3401 5.94995 28.5301 11.14 28.5301 17.55" fill="#C6C7C5"/>
<path d="M31.1 7.65C30.51 6.68 29.88 5.84 29.25 5.15C26.3 1.88 22.6 0.58 19.29 0.17C18.52 0.06 17.73 0 16.93 0C16.9 0 16.87 0 16.84 0C15.96 0 15.13 0.04 14.39 0.11C12.73 0.27 11.13 0.86 9.73 1.61C3.98 4.31 0 10.16 0 16.93C0 21.91 2.5 25.79 5.56 29.48C9.46 34.14 16.51 41.56 16.51 41.56C16.51 41.56 24.95 33.38 29.12 28.68C29.63 28.15 30.1 27.6 30.54 27.01L30.58 26.97C30.88 26.58 31.24 26.04 31.59 25.43C31.62 25.38 31.64 25.34 31.67 25.29C32.4 24 33.12 22.45 33.37 21.46C33.74 19.98 33.89 18.53 33.87 17.14C33.87 17.07 33.87 17 33.87 16.93C33.87 13.5 32.85 10.31 31.1 7.65Z" fill="#286DAC"/>
<path d="M28.5301 17.59C28.5301 23.99 23.3401 29.19 16.9301 29.19C14.0801 29.19 11.4601 28.16 9.44008 26.45C6.93008 24.32 5.33008 21.15 5.33008 17.6C5.33008 11.2 10.5201 6 16.9301 6C23.3401 6 28.5301 11.19 28.5301 17.6" fill="#F2A436"/>
<path d="M31.1 7.65C30.51 6.68 29.88 5.84 29.25 5.15C26.3 1.88 22.6 0.58 19.29 0.16C18.52 0.05 17.73 0 16.93 0C16.9 0 16.87 0 16.84 0C15.96 0 15.13 0.04 14.39 0.11C12.73 0.27 11.13 0.86 9.73 1.61C3.98 4.31 0 10.16 0 16.93C0 21.91 2.5 25.78 5.56 29.48C9.46 34.14 16.51 41.56 16.51 41.56C16.51 41.56 24.95 33.38 29.12 28.68C29.63 28.15 30.1 27.6 30.54 27.01L30.58 26.97C30.88 26.58 31.24 26.04 31.59 25.43L31.67 25.29C32.4 24 33.12 22.45 33.37 21.46C33.74 19.98 33.89 18.53 33.87 17.14C33.87 17.07 33.87 17 33.87 16.93C33.87 13.5 32.85 10.31 31.1 7.65ZM30.88 21.36C30.67 22.2 30.06 23.51 29.44 24.61L29.37 24.73C29.07 25.25 28.49 26.06 28.48 26.08C28.11 26.58 27.71 27.05 27.28 27.5C23.74 31.48 16.58 38.43 16.58 38.43C16.58 38.43 10.59 32.13 7.28 28.18C4.68 25.04 2.56 21.75 2.56 17.53C2.56 11.78 5.94 6.81 10.82 4.52C12.01 3.88 13.36 3.38 14.77 3.25C15.4 3.19 16.1 3.15 16.85 3.16C16.88 3.16 16.9 3.16 16.93 3.16C17.61 3.16 18.28 3.21 18.93 3.3C21.73 3.65 24.87 4.76 27.38 7.53C27.91 8.12 28.45 8.83 28.95 9.66C30.44 11.92 31.3 14.63 31.3 17.54C31.3 17.6 31.18 20.13 30.87 21.39" fill="#022A53"/>
<path d="M13.86 18.98C13.67 18.81 13.44 18.49 13.35 18.12C13.22 17.62 13.35 17.03 14.16 16.62C15.55 15.94 22.98 14.86 19.27 13.11C18.94 12.95 17.88 12.61 17.88 12.61C17.88 12.61 19.13 12.53 19.54 12.61C21.3 12.97 23 14.46 20.24 15.69C15.73 17.71 18.52 18.41 20.24 19.07C22.1 19.79 28.77 20.11 27.93 21.92C23.75 30.96 14.67 30.18 12.68 28.59C12.65 28.57 20.47 24.81 13.87 18.97" fill="#286DAC"/>
</g>
<defs>
<clipPath id="clip0_68_84740">
<rect width="131.95" height="41.56" fill="white"/>
</clipPath>
</defs>
</svg>
