<svg width="19" height="19" viewBox="0 0 19 19" fill="none" xmlns="http://www.w3.org/2000/svg">
<g clip-path="url(#clip0_5_12908)">
<path d="M9.5 19C14.7467 19 19 14.7467 19 9.5C19 4.25329 14.7467 0 9.5 0C4.25329 0 0 4.25329 0 9.5C0 14.7467 4.25329 19 9.5 19Z" fill="#F2A436"/>
<path d="M12 14C11.45 14 11 13.55 11 13V6C11 5.45 11.45 5 12 5C12.55 5 13 5.45 13 6V13C13 13.55 12.55 14 12 14Z" fill="white"/>
<path d="M7 14C6.45 14 6 13.55 6 13V6C6 5.45 6.45 5 7 5C7.55 5 8 5.45 8 6V13C8 13.55 7.55 14 7 14Z" fill="white"/>
</g>
<defs>
<clipPath id="clip0_5_12908">
<rect width="19" height="19" fill="white"/>
</clipPath>
</defs>
</svg>
