<svg width="94" height="126" viewBox="0 0 94 126" fill="none" xmlns="http://www.w3.org/2000/svg">
<rect x="0.0664062" y="12.947" width="74.8985" height="114.459" rx="15" transform="rotate(-9.65171 0.0664062 12.947)" fill="white"/>
<path d="M28 30.1628L62.6171 24.9997" stroke="#EFEFEF" stroke-width="4" stroke-linecap="round"/>
<path d="M30.2129 44.9988L58.8956 40.7208" stroke="#EFEFEF" stroke-width="4" stroke-linecap="round"/>
<path d="M32.2783 58.8464L66.8954 53.6833" stroke="#EFEFEF" stroke-width="4" stroke-linecap="round"/>
<path d="M34.3438 72.6931L61.0484 68.7101" stroke="#EFEFEF" stroke-width="4" stroke-linecap="round"/>
<rect x="14.8066" y="26.9998" width="8.12265" height="8.12265" rx="4.06132" transform="rotate(20.2142 14.8066 26.9998)" fill="#2D2D2D"/>
<rect x="16.8066" y="40.9998" width="8.12265" height="8.12265" rx="4.06132" transform="rotate(20.2142 16.8066 40.9998)" fill="#2D2D2D"/>
<rect x="18.8066" y="54.9998" width="8.12265" height="8.12265" rx="4.06132" transform="rotate(20.2142 18.8066 54.9998)" fill="#2D2D2D"/>
<rect x="20.8066" y="68.9998" width="8.12265" height="8.12265" rx="4.06132" transform="rotate(20.2142 20.8066 68.9998)" fill="#2D2D2D"/>
<path d="M16 31.4998L17 32.9998L18.5 30.9998" stroke="white" stroke-linecap="round" stroke-linejoin="round"/>
<path d="M18 45.4998L19 46.9998L20.5 44.9998" stroke="white" stroke-linecap="round" stroke-linejoin="round"/>
<path d="M20 59.4998L21 60.9998L22.5 58.9998" stroke="white" stroke-linecap="round" stroke-linejoin="round"/>
<path d="M22 73.4998L23 74.9998L24.5 72.9998" stroke="white" stroke-linecap="round" stroke-linejoin="round"/>
</svg>
