<svg width="77" height="142" viewBox="0 0 77 142" fill="none" xmlns="http://www.w3.org/2000/svg">
<path d="M1.39232 0.559451C0.573666 0.686302 0.0128467 1.45279 0.139698 2.27145C0.266549 3.0901 1.03304 3.65092 1.85169 3.52407L1.39232 0.559451ZM72.0064 51.4239L70.5617 51.8276L72.0064 51.4239ZM39.7715 135.952C39.5576 136.753 40.0329 137.575 40.8332 137.789L53.8751 141.276C54.6754 141.49 55.4976 141.015 55.7116 140.214C55.9256 139.414 55.4503 138.592 54.65 138.378L43.0572 135.278L46.1568 123.685C46.3708 122.885 45.8954 122.063 45.0951 121.849C44.2948 121.635 43.4726 122.11 43.2586 122.91L39.7715 135.952ZM1.62201 2.04176C1.85169 3.52407 1.85111 3.52416 1.85074 3.52422C1.85089 3.5242 1.85072 3.52422 1.85102 3.52418C1.85161 3.52409 1.85302 3.52387 1.85525 3.52354C1.8597 3.52287 1.8674 3.52172 1.8783 3.52012C1.90011 3.51694 1.93475 3.51197 1.98185 3.50551C2.07606 3.49259 2.22013 3.47371 2.41125 3.4511C2.79353 3.40589 3.36379 3.34586 4.09961 3.28905C5.57166 3.17539 7.70374 3.07483 10.3169 3.13114C15.5479 3.24385 22.6783 3.9846 30.2913 6.48782C45.4462 11.4709 62.638 23.467 70.5617 51.8276L73.4511 51.0203C65.2297 21.5943 47.2293 8.89925 31.2284 3.63793C23.2633 1.01893 15.8248 0.249124 10.3815 0.131836C7.6574 0.0731397 5.4259 0.177719 3.86867 0.29795C3.08985 0.358082 2.47904 0.42218 2.05891 0.471866C1.84883 0.49671 1.68636 0.51796 1.57434 0.533319C1.51832 0.540999 1.47491 0.547208 1.44446 0.551658C1.42924 0.553884 1.41725 0.555669 1.40854 0.55698C1.40419 0.557635 1.40066 0.558172 1.39795 0.558586C1.3966 0.558792 1.3952 0.559008 1.39452 0.559112C1.39332 0.559298 1.39232 0.559451 1.62201 2.04176ZM70.5617 51.8276C78.4968 80.2289 70.9344 101.002 61.4354 114.697C56.6728 121.563 51.412 126.663 47.3427 130.044C45.3093 131.734 43.5773 132.991 42.3598 133.822C41.7512 134.238 41.2716 134.547 40.9476 134.75C40.7856 134.851 40.6626 134.926 40.5818 134.975C40.5415 134.999 40.5117 135.017 40.4929 135.028C40.4835 135.033 40.4769 135.037 40.473 135.039C40.4711 135.04 40.4699 135.041 40.4694 135.041C40.4691 135.042 40.4692 135.042 40.4691 135.042C40.4694 135.041 40.4699 135.041 41.2206 136.34C41.9713 137.638 41.9722 137.638 41.9732 137.637C41.9738 137.637 41.975 137.636 41.9762 137.636C41.9785 137.634 41.9816 137.632 41.9853 137.63C41.9929 137.626 42.0032 137.62 42.0163 137.612C42.0425 137.597 42.0798 137.574 42.1277 137.546C42.2236 137.488 42.3621 137.404 42.5399 137.292C42.8955 137.07 43.4084 136.739 44.0515 136.3C45.3374 135.422 47.1458 134.108 49.26 132.352C53.4856 128.84 58.9485 123.546 63.9004 116.407C73.8306 102.09 81.6611 80.4056 73.4511 51.0203L70.5617 51.8276Z" fill="#975C28"/>
</svg>
