<svg width="59" height="66" viewBox="0 0 59 66" fill="none" xmlns="http://www.w3.org/2000/svg">
<path d="M15.7302 28.8923C15.3366 29.5047 14.4413 29.5047 14.0477 28.8923L2.98516 11.6797C2.55743 11.0142 3.03528 10.139 3.8264 10.139L25.9515 10.139C26.7426 10.139 27.2205 11.0142 26.7928 11.6797L15.7302 28.8923Z" fill="#975C28"/>
<path d="M35.6603 10.6701C35.8462 10.3813 36.1686 10.206 36.5141 10.206L57.0429 10.206C57.8343 10.206 58.3109 11.0671 57.8857 11.729L24.2523 64.0943C23.8544 64.7137 22.9408 64.7142 22.5495 64.0952L12.3432 47.951C12.1385 47.6272 12.1409 47.215 12.3493 46.8912L35.6603 10.6701Z" fill="#975C28"/>
</svg>
