<svg width="133" height="133" viewBox="0 0 133 133" fill="none" xmlns="http://www.w3.org/2000/svg">
<circle cx="66.5" cy="66.5" r="66.5" fill="#C89C6D"/>
<path d="M66.5124 42.347C74.3593 42.347 75.3314 42.347 78.4563 42.4858C81.3034 42.6247 82.9005 43.1108 83.9421 43.5275C85.3309 44.083 86.3031 44.708 87.3447 45.7496C88.3863 46.7912 89.0113 47.7634 89.5668 49.1522C89.9835 50.1938 90.4696 51.7215 90.6085 54.638C90.7473 57.7629 90.7473 58.6656 90.7473 66.5819C90.7473 74.4287 90.7473 75.4009 90.6085 78.5257C90.4696 81.3728 89.9835 82.9699 89.5668 84.0116C89.0113 85.4004 88.3863 86.3726 87.3447 87.4142C86.3031 88.4558 85.3309 89.0808 83.9421 89.6363C82.9005 90.0529 81.3728 90.539 78.4563 90.6779C75.3314 90.8168 74.4287 90.8168 66.5124 90.8168C58.6656 90.8168 57.6934 90.8168 54.5686 90.6779C51.7215 90.539 50.1244 90.0529 49.0828 89.6363C47.6939 89.0808 46.7217 88.4558 45.6801 87.4142C44.6385 86.3726 44.0135 85.4004 43.458 84.0116C43.0414 82.9699 42.5553 81.4422 42.4164 78.5257C42.2775 75.4009 42.2775 74.4981 42.2775 66.5819C42.2775 58.735 42.2775 57.7629 42.4164 54.638C42.5553 51.7909 43.0414 50.1938 43.458 49.1522C44.0135 47.7634 44.6385 46.7912 45.6801 45.7496C46.7217 44.708 47.6939 44.083 49.0828 43.5275C50.1244 43.1108 51.652 42.6247 54.5686 42.4858C57.6934 42.347 58.6656 42.347 66.5124 42.347ZM66.5124 37C58.5267 37 57.4851 37 54.3602 37.2083C51.2354 37.3472 49.0827 37.8333 47.2078 38.5971C45.2635 39.361 43.5969 40.3332 41.9998 41.9998C40.3332 43.6663 39.361 45.2635 38.5971 47.2078C37.8333 49.0827 37.3472 51.2354 37.2083 54.3602C37.0694 57.4851 37 58.5267 37 66.5124C37 74.4981 37 75.5398 37.2083 78.6646C37.3472 81.7894 37.8333 83.9421 38.5971 85.817C39.361 87.7614 40.3332 89.428 41.9998 91.0251C43.6663 92.6917 45.2635 93.6639 47.2078 94.4277C49.0827 95.1916 51.2354 95.6777 54.3602 95.8165C57.4851 95.9554 58.5267 96.0248 66.5124 96.0248C74.4981 96.0248 75.5398 96.0249 78.6646 95.8165C81.7894 95.6777 83.9421 95.1916 85.817 94.4277C87.7614 93.6639 89.4279 92.6917 91.0251 91.0251C92.6917 89.3585 93.6639 87.7614 94.4277 85.817C95.1916 83.9421 95.6777 81.7894 95.8165 78.6646C95.9554 75.5398 96.0248 74.4981 96.0248 66.5124C96.0248 58.5267 96.0249 57.4851 95.8165 54.3602C95.6777 51.2354 95.1916 49.0827 94.4277 47.2078C93.6639 45.2635 92.6917 43.5969 91.0251 41.9998C89.3585 40.3332 87.7614 39.361 85.817 38.5971C83.9421 37.8333 81.7894 37.3472 78.6646 37.2083C75.5398 37.0694 74.4981 37 66.5124 37Z" fill="white"/>
<path d="M66.5124 51.374C58.11 51.374 51.3743 58.1792 51.3743 66.5122C51.3743 74.9145 58.1795 81.6503 66.5124 81.6503C74.9147 81.6503 81.6505 74.8451 81.6505 66.5122C81.6505 58.1792 74.9147 51.374 66.5124 51.374ZM66.5124 76.3728C61.096 76.3728 56.6518 71.998 56.6518 66.5122C56.6518 61.0263 61.0265 56.6515 66.5124 56.6515C71.9982 56.6515 76.373 61.0263 76.373 66.5122C76.373 71.998 71.9288 76.3728 66.5124 76.3728Z" fill="white"/>
<path d="M82.2758 54.3603C84.2317 54.3603 85.8173 52.7748 85.8173 50.8188C85.8173 48.8629 84.2317 47.2773 82.2758 47.2773C80.3199 47.2773 78.7343 48.8629 78.7343 50.8188C78.7343 52.7748 80.3199 54.3603 82.2758 54.3603Z" fill="white"/>
</svg>
