<svg width="46" height="31" viewBox="0 0 46 31" fill="none" xmlns="http://www.w3.org/2000/svg">
<path fill-rule="evenodd" clip-rule="evenodd" d="M17.095 12.0232C17.0762 12.3676 17.2443 12.549 17.4381 12.7392C17.8255 13.1294 17.6365 13.2221 17.708 13.5014C17.996 13.4272 18.2836 13.073 18.4809 12.9899L18.6738 12.8479C19.292 12.5314 19.6907 13.2558 19.8445 13.6904C20.4632 15.4557 20.2874 18.1144 19.1709 20.6434C19.6234 21.4298 20.6413 21.5919 21.6616 21.1305C22.5929 19.1668 23.9348 17.4577 25.3921 16.1901C26.1222 15.5545 28.0032 14.0221 28.5531 14.6247C28.7734 14.8658 28.6333 15.4095 28.881 15.5898C28.9388 15.5466 28.9072 15.5727 28.9732 15.511C29.009 15.4757 29.04 15.4415 29.0779 15.4046C29.1678 15.3154 29.205 15.2863 29.2902 15.2323C29.7894 14.9195 29.6327 15.2502 30.6185 14.6024C30.8458 14.141 31.2147 12.8921 31.3204 12.3619C31.3503 12.2115 31.3537 12.1822 31.3403 12.0837C30.3562 11.7999 28.4348 11.7291 27.2874 11.9188C24.7389 12.3368 24.1606 13.8985 23.6258 13.7746C23.0623 13.6454 24.0144 11.8575 21.3718 10.5382C21.0835 10.3944 20.7605 10.3241 20.4755 10.1949C20.0674 10.0067 19.0465 9.72007 18.5112 9.6941C18.2433 10.108 17.2191 11.5305 17.095 12.0232Z" fill="white"/>
<path fill-rule="evenodd" clip-rule="evenodd" d="M20.2145 23.6536C21.4843 23.8897 23.0313 23.6686 24.3657 22.935C24.6519 22.777 24.9775 22.6798 24.9917 22.1873C25.0106 21.5001 25.0343 21.1411 25.2047 20.3086C24.9317 20.1311 24.1164 20.9106 23.5145 20.6469C23.1336 20.4786 23.6676 19.945 22.921 20.3381C22.7628 20.4226 22.6747 20.4568 22.4983 20.5061C22.1496 20.6053 21.9344 20.6386 21.6031 20.5774C20.6856 20.4086 20.6245 19.6552 20.4828 19.6473C20.4033 19.6427 19.7183 20.4259 19.117 19.4035C19.0232 19.2432 18.9906 19.0818 18.805 19.0591C18.6242 19.2499 18.3301 19.6592 18.1299 19.8995C17.2918 20.9106 16.9317 21.0055 17.2585 21.5674C17.9164 22.7175 18.8249 23.3904 20.2145 23.6536Z" fill="white"/>
<path fill-rule="evenodd" clip-rule="evenodd" d="M17.7902 10.0864C18.6256 9.07786 20.7393 10.8361 21.1983 11.2414C21.7591 11.7397 22.258 12.7258 22.381 13.6437C22.6084 15.3507 22.4168 14.5533 24.4778 13.205C26.1437 12.1166 28.222 11.831 29.6506 12.016C30.1516 12.0796 30.2466 12.0735 30.3076 12.5926L30.5676 12.6445L31.1462 11.396C29.0852 10.7007 26.2357 11.0779 23.7348 13.3614C23.4882 13.585 23.0161 14.1409 22.7736 14.1607C22.6471 14.1128 22.6844 12.8745 22.4791 12.1357C21.8746 9.97377 20.1182 9.02782 18.0541 8.77744C17.915 9.03612 17.8104 9.31076 17.6898 9.57993C17.4633 10.0917 17.4629 10.037 17.7902 10.0864Z" fill="white"/>
<path fill-rule="evenodd" clip-rule="evenodd" d="M25.6359 21.3502C25.5237 21.6411 25.389 22.8708 25.4111 23.0835C25.738 23.1252 27.3589 21.6473 27.7183 21.3063C28.2186 20.8322 29.4798 19.3331 29.8619 18.6127C29.7912 18.6095 28.809 18.9601 29.3917 17.8796C29.1942 17.6446 29.3055 17.5781 29.3343 17.2996C29.1938 17.4598 29.0584 17.7461 28.9168 17.9622C28.7443 18.2229 28.6439 18.3622 28.4805 18.5903C28.1745 19.0199 27.895 19.3425 27.5562 19.7167C26.9998 20.3334 26.1832 21.0304 25.6359 21.3502Z" fill="white"/>
<path fill-rule="evenodd" clip-rule="evenodd" d="M16.5303 14.5325C16.2236 15.4032 15.9113 15.1598 15.5713 15.0067C15.2759 15.8453 15.222 17.4361 15.2467 18.078C15.2664 18.5941 15.5411 20.3086 15.7864 20.383C15.9854 20.164 16.8409 19.0864 16.9672 18.8184C16.5226 17.8591 16.5526 16.296 16.855 14.8255C16.8956 14.6291 17.0127 14.2254 17.0235 14.0792C16.9317 14.1875 16.9228 14.2618 16.7951 14.3756C16.6835 14.4799 16.6315 14.4695 16.5303 14.5325Z" fill="white"/>
<path fill-rule="evenodd" clip-rule="evenodd" d="M18.7653 9.01238C19.2647 9.16546 19.0534 8.79875 19.7615 9.09668C21.3283 9.75302 22.5908 11.2107 22.6294 13.5709C22.6388 14.2168 22.6783 14.2201 23.1619 13.7349C23.5794 13.3164 24.0582 12.91 24.4755 12.611C25.1491 12.1253 25.6052 11.8959 26.314 11.5764C26.8461 11.3397 27.6958 11.0855 28.2313 11.0354C30.5676 10.8109 29.4658 11.215 30.2009 11.2416L30.4951 10.5821C29.5049 10.2289 27.7508 10.6049 26.5039 11.171C25.6995 11.5381 24.09 12.5598 23.3217 13.3324C23.142 13.5141 23.047 13.6726 22.8582 13.7352C22.8153 13.6339 22.8267 13.1116 22.78 12.7705C22.7387 12.4547 22.6505 12.1011 22.5938 11.8642C22.1404 10.0425 20.7844 8.5289 19.0704 8.3351L18.7653 9.01238Z" fill="white"/>
<path fill-rule="evenodd" clip-rule="evenodd" d="M29.8818 17.1246C29.719 17.3059 29.5496 17.323 29.3812 17.634C29.108 18.1347 29.4251 18.0388 29.415 18.2318C29.403 18.4102 28.9969 18.7851 29.3042 18.8984C29.4852 18.9643 29.7462 18.864 29.9328 18.7143C30.2874 18.4291 30.2215 18.138 30.3726 17.9041C30.4576 17.7729 30.5243 17.7383 30.6351 17.5426C30.7679 17.3085 30.7668 17.2474 30.8319 17.028C30.9315 16.6904 31.1687 16.6192 31.2857 16.1347C31.4034 15.654 31.038 16.048 30.8457 16.1392C30.6104 16.2501 30.2008 16.2984 29.972 16.6901C29.8142 16.962 29.9055 16.9432 29.8818 17.1246Z" fill="white"/>
<path fill-rule="evenodd" clip-rule="evenodd" d="M15.7072 14.2285C16.0383 13.5512 15.7923 13.6595 15.8157 13.2996C15.9269 13.1437 15.9254 13.2274 16.0134 13.0579C16.2794 12.5477 15.8235 12.2497 15.7305 12.0607C15.6534 11.8999 15.708 11.7413 15.5557 11.7278C15.4655 11.8719 15.3833 11.939 15.2869 12.1783C15.1751 12.4575 15.224 12.5391 15.1678 12.7099C15.1084 12.8907 14.9851 13.0012 14.8906 13.2911C14.8197 13.5053 14.8461 13.6162 14.7966 13.7902C14.6672 14.2356 14.4105 14.3614 14.6131 14.7662C14.7418 15.0217 14.8992 15.1007 15.1946 14.8791C15.2901 14.6753 15.2897 14.491 15.3894 14.3846C15.5114 14.2775 15.4365 14.3604 15.5596 14.3196C15.6982 14.2749 15.6189 14.2907 15.7072 14.2285Z" fill="white"/>
<path fill-rule="evenodd" clip-rule="evenodd" d="M36.0386 13.2306C36.0859 13.0065 36.6847 11.1037 36.8996 10.7196C36.9802 10.5756 37.1145 10.4266 37.1633 10.3314C37.5103 9.64076 35.7034 10.0966 34.4005 11.8267C33.5545 12.9497 33.1569 14.3799 32.4474 15.8508C30.3329 20.2378 27.9111 23.2753 24.7359 24.8156L23.5028 25.3351C23.4115 25.6179 23.6043 26.5865 23.6481 26.7653C23.7184 27.0459 23.978 27.8069 24.1507 27.9409C24.2577 28.0203 25.2727 27.4181 25.4743 27.2866C26.272 26.768 27.3558 26.039 28.1051 25.6836C28.9506 25.282 29.9123 24.5402 30.6334 23.4967C30.8007 23.2546 31.083 22.8381 31.1478 22.4836C31.2306 22.0115 30.8968 22.2566 30.7894 22.054C30.8839 21.7468 31.1179 21.5292 31.2926 21.3797C31.9764 20.7874 32.2056 20.6117 32.887 19.5725C33.2317 19.0475 33.5375 18.5054 33.8425 17.8883C34.6287 16.2993 34.0546 16.5178 34.0566 16.3308C34.1601 15.9468 34.3929 15.8343 34.5826 15.6736C35.0967 15.2462 35.2224 14.933 35.5004 14.4745C35.5931 14.3151 35.9886 13.4667 36.0386 13.2306ZM23.9361 25.6124C23.9452 25.6071 23.957 25.5953 23.9605 25.5924C23.9667 25.5884 23.9789 25.5784 23.9852 25.5743L25.2619 24.9639C25.6677 24.7498 26.133 24.4783 26.533 24.1791C27.2954 23.6103 28.1889 22.8061 28.9755 21.928C30.3932 20.3467 31.3721 19.012 32.3712 16.9636C32.5906 16.5162 33.195 15.1271 33.4021 14.8664C33.6276 14.8846 33.3767 15.5291 33.2767 15.7941C32.7104 17.2822 31.9488 18.7101 31.0428 19.9635C29.8106 21.6671 28.0958 23.3583 26.6664 24.3496C26.0291 24.7943 24.45 25.6903 23.9361 25.6124ZM28.5525 24.5173C27.6628 25.2901 26.2392 26.0469 25.3627 26.3795C25.1717 26.4524 24.159 26.7926 24.075 26.6966C24.156 26.5652 24.077 26.6613 24.2184 26.6138L24.7223 26.4593C25.8957 26.031 26.7428 25.5923 27.9267 24.6751C28.3227 24.3661 28.9694 23.7358 29.1496 23.791C29.0311 24.1504 28.7421 24.3512 28.5525 24.5173ZM30.0405 23.8292C29.7877 24.1251 29.2365 24.7216 28.9807 24.7239C29.1536 24.358 29.9217 23.7064 29.8943 23.215C29.8859 23.0614 29.585 22.9294 30.0025 22.6266C30.1705 22.5043 30.4024 22.4077 30.5569 22.4969C30.9256 22.7144 30.3016 23.5244 30.0405 23.8292ZM29.979 22.3521C28.7046 23.6881 27.405 24.7813 26.0582 25.4915C25.5926 25.7361 24.4196 26.2573 23.9773 26.2085C24.2611 26.0119 24.6965 25.92 25.0287 25.7781C27.5098 24.7226 29.1551 22.8867 31.2496 20.2885C31.4135 20.085 31.5624 19.8319 31.7198 19.8592C31.5839 20.5417 30.3474 21.9659 29.979 22.3521ZM33.1745 18.5284C32.9336 18.95 32.3708 19.7869 32.0849 19.7955C32.2529 19.3446 33.0277 18.3266 32.9137 17.9136C32.8609 17.7152 32.4703 17.8592 32.9205 17.2739C33.3332 16.7344 34.3382 16.4927 33.1745 18.5284ZM35.3638 13.7461C35.1348 14.2166 34.514 15.2094 34.194 15.0984C34.2663 14.8473 34.5754 14.4024 34.7342 14.0318C35.3569 12.5875 34.8287 12.6405 34.4476 13.0848C34.2908 13.2684 34.0128 13.7269 33.8455 13.6904C33.971 12.7074 35.9597 10.4159 35.9347 11.7036C35.9259 12.1965 35.7006 13.0552 35.3638 13.7461Z" fill="white"/>
<path fill-rule="evenodd" clip-rule="evenodd" d="M14.6248 21.705C12.9504 18.7321 13.6971 14.5065 15.8258 9.36705C16.0523 8.82168 16.1832 8.52589 16.3368 8.00998C16.7515 6.62576 16.4507 5.08217 15.7053 4.6971C15.2581 4.46498 15.3239 5.07822 15.1863 5.45647C14.9912 5.99231 14.7406 6.88778 14.4473 7.4728C14.2595 7.84777 14.2851 7.69785 14.0784 8.19558C14.0784 8.19558 13.4868 9.48772 13.4866 9.99803C13.4865 10.205 13.4517 10.3191 13.4896 10.484C13.5262 10.6522 13.5516 10.7949 13.3776 11.1121C13.1952 11.3169 13.0261 10.8285 12.4879 12.1245C11.983 13.3401 11.5918 15.1307 11.7496 16.0789C11.7824 16.2838 11.9437 16.8241 11.7166 17.1642C11.5534 17.323 11.0762 16.6671 10.7479 18.4083C10.547 19.4818 10.7797 20.583 11.1817 21.2215C11.6512 21.965 11.8163 22.7577 12.1754 23.5657C12.2679 23.7812 12.6218 24.6542 12.7636 24.6462C12.9771 24.6335 13.8533 24.034 14.084 23.8642C14.297 23.7068 15.1775 22.9619 15.3182 22.7002C15.3121 22.69 14.735 21.9027 14.6248 21.705ZM14.2125 8.46792C14.418 7.79684 15.4705 5.74752 15.8828 6.36138C16.1835 6.8111 15.9602 8.48134 15.5255 8.95489C15.299 8.84179 15.6653 8.02034 15.3814 7.85785C15.0743 7.67982 14.7022 8.46262 14.5092 8.95783C14.3835 9.27969 14.3461 9.47713 14.284 9.74795C14.1451 10.3526 13.7512 9.97271 14.2125 8.46792ZM13.0917 12.8585C12.576 13.4526 12.6288 14.1578 12.3498 14.769C11.9456 14.5958 12.6835 11.4247 13.4026 11.815C13.6216 11.9354 13.6595 12.2877 13.4466 12.7645C13.1905 12.9183 13.3575 12.8138 13.0917 12.8585ZM11.5992 17.659C11.8567 17.6894 12.0523 17.8852 11.8715 18.3206C11.7152 18.4076 11.4029 18.4212 11.2953 19.1734C11.2606 19.4142 11.2572 19.9292 11.2065 20.0899C10.8466 20.0526 10.8319 17.5638 11.5992 17.659ZM11.7413 19.2624C11.9381 19.2266 11.9391 19.5962 11.9741 19.8069C12.2104 21.2193 12.6708 22.2875 13.418 23.1476C13.5142 23.2604 13.7167 23.4453 13.7777 23.5793C12.9484 23.4462 11.2676 20.2293 11.7413 19.2624ZM13.0431 21.8403C12.4936 20.766 12.1659 19.2293 12.1602 17.7274C12.159 17.1847 12.1861 15.7253 12.5879 14.9755C12.7682 14.9683 12.6908 15.3091 12.6682 15.515C12.607 16.084 12.5837 16.8483 12.554 17.4185C12.4572 19.3327 12.8428 21.4435 13.7062 22.5116C13.8551 22.696 14.1795 23.0418 14.2492 23.2543C13.8401 23.1426 13.2598 22.2636 13.0431 21.8403ZM13.4099 20.6513C12.9158 19.1817 12.7731 16.4005 13.2721 14.2897C13.5257 13.2271 13.912 11.969 14.4297 10.8935C14.567 10.6098 14.8002 10.0729 15.0099 10.1219C14.8748 10.9432 13.2375 14.1112 13.3255 17.7572C13.4229 21.78 14.5559 22.0529 14.7384 22.7707C14.2324 22.6388 13.6187 21.2782 13.4099 20.6513Z" fill="white"/>
<path fill-rule="evenodd" clip-rule="evenodd" d="M29.2216 16.0341C28.7501 16.2136 28.3582 17.2879 28.7974 17.3755C28.9571 17.4073 29.4045 17.0562 29.2769 16.3694C29.2665 16.3148 29.2609 16.2829 29.2552 16.2202C29.2383 16.0682 29.2723 16.1493 29.2216 16.0341Z" fill="white"/>
<path fill-rule="evenodd" clip-rule="evenodd" d="M16.6808 13.9686C16.7351 13.8924 16.7785 13.8756 16.855 13.7784C16.9348 13.6764 16.9831 13.5863 17.047 13.434C17.2031 13.0607 17.1024 13.0424 17.1577 12.854C17.1336 12.8202 17.1056 12.7983 17.0777 12.7619C16.9521 12.8384 17.0422 12.7802 16.9258 12.8858C16.8718 12.933 16.8416 12.9615 16.7909 13.004C16.6861 13.0937 16.6173 13.1362 16.5387 13.224C16.4326 13.3425 15.8945 14.2109 16.6808 13.9686Z" fill="white"/>
<path fill-rule="evenodd" clip-rule="evenodd" d="M23.1735 26.143C22.926 25.6425 22.8282 24.9405 22.7862 24.2867C22.7655 23.9463 22.8657 23.3968 22.83 23.1413C22.5786 23.0811 22.2996 23.1892 21.9854 23.1674C21.1229 23.1002 21.0755 23.085 20.3108 22.8628C19.2904 22.5672 19.893 22.1128 19.037 23.0501C18.8324 23.2727 18.6275 23.4763 18.3945 23.6872C17.8898 24.1455 17.6148 24.3422 17.0831 24.7076C16.4409 25.1525 16.2254 25.1556 15.8878 25.3383C15.69 25.445 15.8379 25.3058 15.7203 25.4884C16.0302 25.8021 16.4887 26.0561 16.8934 26.3125C17.0887 26.4352 17.3339 26.5903 17.5447 26.6657C18.4049 26.9686 17.9669 26.9547 18.191 27.0786C18.5713 26.743 19.2408 25.7411 19.4083 25.5847L20.3447 25.7579C20.4181 25.8031 20.381 25.817 20.3117 26.1717C20.1752 26.8732 20.2378 26.7054 20.1792 27.2377L20.159 27.4512C20.4991 27.409 19.9531 27.3161 20.9942 27.3063C21.5764 27.2995 22.7197 27.1607 23.348 27.0163C23.544 26.9718 23.4229 27.0451 23.571 26.9122C23.5656 26.8526 23.2402 26.281 23.1735 26.143ZM20.5513 24.6578L20.2168 24.5966L20.0271 24.5523L20.7313 23.3145L20.928 23.3434L20.9644 23.344L21.1349 23.4014L20.7043 24.6826L20.5513 24.6578Z" fill="white"/>
<path d="M27.1817 8.6522C28.5219 7.09492 28.641 5.04102 27.4476 4.06468C26.2542 3.08834 24.2003 3.55929 22.8601 5.11657C21.5198 6.67385 21.4008 8.72776 22.5941 9.70409C23.7875 10.6804 25.8414 10.2095 27.1817 8.6522Z" fill="white"/>
</svg>
