<svg width="163" height="31" viewBox="0 0 163 31" fill="none" xmlns="http://www.w3.org/2000/svg">
<path d="M15.5 0L18.98 10.7102H30.2414L21.1307 17.3295L24.6107 28.0398L15.5 21.4205L6.38933 28.0398L9.8693 17.3295L0.758624 10.7102H12.02L15.5 0Z" fill="#E3B776"/>
<path d="M48.5 0L51.98 10.7102H63.2414L54.1307 17.3295L57.6107 28.0398L48.5 21.4205L39.3893 28.0398L42.8693 17.3295L33.7586 10.7102H45.02L48.5 0Z" fill="#E3B776"/>
<path d="M81.5 0L84.98 10.7102H96.2414L87.1307 17.3295L90.6107 28.0398L81.5 21.4205L72.3893 28.0398L75.8693 17.3295L66.7586 10.7102H78.02L81.5 0Z" fill="#E3B776"/>
<path d="M114.5 0L117.98 10.7102H129.241L120.131 17.3295L123.611 28.0398L114.5 21.4205L105.389 28.0398L108.869 17.3295L99.7586 10.7102H111.02L114.5 0Z" fill="#E3B776"/>
<path d="M147.5 0L150.98 10.7102H162.241L153.131 17.3295L156.611 28.0398L147.5 21.4205L138.389 28.0398L141.869 17.3295L132.759 10.7102H144.02L147.5 0Z" fill="#E3B776"/>
</svg>
