<svg width="133" height="133" viewBox="0 0 133 133" fill="none" xmlns="http://www.w3.org/2000/svg">
<circle cx="66.5" cy="66.5" r="66.5" fill="#C89C6D"/>
<path d="M96.4926 52.9715C95.6921 52.2404 92.5791 52.3318 89.4661 52.3318C86.353 52.3318 83.151 52.3318 82.4395 52.6973C81.7279 52.9715 80.2159 56.7183 78.2591 60.5565C76.0355 64.9431 73.2782 69.0554 71.5883 69.0554C69.3647 69.0554 69.8984 61.8359 69.9873 56.6269C70.0763 53.1543 69.5426 52.0576 69.009 51.6921C67.8527 50.8696 64.5618 50.0472 64.5618 50.0472C64.5618 50.0472 54.7779 49.3161 53.4438 53.6112C55.3116 53.8854 58.5136 53.2456 57.2683 66.6794C57.1794 67.3191 55.7563 72.8936 51.2202 65.4C50.0639 63.5723 45.7056 52.3318 44.1936 52.3318C39.1238 52.149 34.1429 51.9662 32.364 52.9715C30.763 53.8853 34.5876 61.6532 40.9916 71.9798C46.2393 80.3873 51.7538 87.0584 61.3597 88.7034C63.1386 88.8862 67.8527 89.0689 69.3647 88.3378C70.3431 87.7895 69.1868 80.4787 72.5667 79.839C74.0788 79.5648 79.9491 87.424 82.1727 88.3378C83.5068 88.8862 86.442 89.0689 89.4661 88.9776C92.757 88.8862 96.4037 89.2517 96.7594 86.9671C97.5599 81.9408 86.8866 75.361 86.5309 72.2539C86.264 70.0607 90.4444 65.8569 92.5791 62.7498C95.3364 58.9116 98.1825 54.3423 96.4926 52.9715Z" stroke="white" stroke-width="4"/>
</svg>
