<svg width="17" height="18" viewBox="0 0 17 18" fill="none" xmlns="http://www.w3.org/2000/svg">
<path d="M13.3585 11.1892C13.6471 11.3102 13.7708 11.7135 13.7708 11.9152C13.812 12.2379 13.7296 12.3993 13.6059 12.3993C13.4822 12.3993 13.3173 12.2783 13.1523 11.9959C12.9874 11.7135 12.905 11.4312 12.9874 11.2698C13.1111 11.1892 13.2348 11.1488 13.3585 11.1892Z" fill="#F28A1A"/>
<path d="M11.6668 12.4397C11.8318 12.4397 12.0379 12.5204 12.2441 12.6817C12.5739 12.9641 12.6976 13.2868 12.5327 13.5288C12.4502 13.6498 12.2441 13.7305 12.0791 13.7305C11.873 13.7305 11.6668 13.6498 11.5432 13.5288C11.2133 13.2464 11.1309 12.8431 11.337 12.601C11.3782 12.5204 11.5019 12.4397 11.6668 12.4397Z" fill="#F28A1A"/>
<path d="M7.75128 15.6262C3.46334 15.6262 0 12.2379 0 8.08328C0 3.92861 3.46334 0.5 7.75128 0.5C12.0392 0.5 15.5026 3.88827 15.5026 8.08328C15.5026 9.49506 15.0903 10.8262 14.4306 11.9556C14.3893 11.9959 14.3481 11.9959 14.3481 11.9153C14.0595 10.0598 12.9051 9.05136 11.2558 8.72866C11.0909 8.68833 11.0909 8.60765 11.2971 8.60765C11.8331 8.56732 12.534 8.56732 12.9463 8.64799C12.9875 8.44631 12.9875 8.24463 12.9875 8.08328C12.9875 5.34039 10.6786 3.08154 7.87497 3.08154C5.07131 3.08154 2.76242 5.34039 2.76242 8.08328C2.76242 10.8262 5.07131 13.085 7.87497 13.085H8.12235C8.03989 12.6413 7.99866 12.1976 8.03989 11.7136C8.03989 11.3909 8.12235 11.3505 8.24604 11.5926C8.94695 12.8027 9.97771 13.8514 11.9568 14.2951C13.5647 14.6581 15.1727 15.0615 16.9456 17.1993C17.1105 17.401 16.8632 17.6027 16.6982 17.4414C14.9253 15.9086 13.3174 15.3842 11.8331 15.3842C9.97771 15.4245 8.86449 15.6262 7.75128 15.6262Z" fill="#F28A1A"/>
</svg>
