<svg width="146" height="32" viewBox="0 0 146 32" fill="none" xmlns="http://www.w3.org/2000/svg">
<path d="M52.0008 16C52.0008 24.7795 45.0408 32 36.4008 32C27.8408 32 20.8008 24.7795 20.8008 16C20.8008 7.22051 27.7608 0 36.3208 0C45.0408 0 52.0008 7.22051 52.0008 16Z" fill="#F9B50B"/>
<path d="M31.12 16.0821C31.12 14.9333 30.96 13.7846 30.8 12.7179H21.2C21.28 12.1436 21.44 11.6513 21.6 10.9949H30.16C30 10.4205 29.76 9.84615 29.52 9.2718H22.24C22.48 8.69744 22.8 8.20513 23.12 7.54872H28.64C28.32 6.97436 27.92 6.4 27.44 5.82564H24.4C24.88 5.25128 25.36 4.75897 26 4.18462C23.28 1.55897 19.6 0 15.52 0C7.04 0.246154 0 7.22051 0 16C0 24.7795 6.96 32 15.6 32C19.68 32 23.28 30.359 26.08 27.8154C26.64 27.3231 27.12 26.7487 27.68 26.0923H24.48C24.08 25.6 23.68 25.0256 23.36 24.4513H28.8C29.12 23.959 29.44 23.3846 29.68 22.7282H22.4C22.16 22.2359 21.92 21.6615 21.76 21.0051H30.32C30.8 19.5282 31.12 17.8872 31.12 16.0821Z" fill="#C8191C"/>
<path d="M21.1207 20.1025L21.3607 18.6256C21.2807 18.6256 21.1207 18.7077 20.9607 18.7077C20.4007 18.7077 20.3207 18.3795 20.4007 18.2154L20.8807 15.2615H21.7607L22.0007 13.6205H21.2007L21.3607 12.6359H19.6807C19.6807 12.6359 18.7207 18.2154 18.7207 18.8718C18.7207 19.8564 19.2807 20.3487 20.0807 20.3487C20.5607 20.3487 20.9607 20.1846 21.1207 20.1025Z" fill="white"/>
<path d="M21.6777 17.3949C21.6777 19.7744 23.2777 20.3487 24.5577 20.3487C25.7577 20.3487 26.3177 20.1026 26.3177 20.1026L26.6377 18.4616C26.6377 18.4616 25.7577 18.8718 24.8777 18.8718C23.0377 18.8718 23.3577 17.4769 23.3577 17.4769H26.7177C26.7177 17.4769 26.9577 16.4103 26.9577 15.918C26.9577 14.8513 26.3977 13.4564 24.5577 13.4564C22.9577 13.3744 21.6777 15.2616 21.6777 17.3949ZM24.5577 14.9334C25.4377 14.9334 25.2777 16 25.2777 16.0821H23.4377C23.5177 16 23.6777 14.9334 24.5577 14.9334Z" fill="white"/>
<path d="M35.0405 20.1026L35.3605 18.2154C35.3605 18.2154 34.5605 18.6257 33.9205 18.6257C32.8005 18.6257 32.2405 17.7231 32.2405 16.6565C32.2405 14.6052 33.2005 13.5385 34.4005 13.5385C35.2005 13.5385 35.9205 14.0308 35.9205 14.0308L36.1605 12.2257C36.1605 12.2257 35.2005 11.8154 34.2405 11.8154C32.3205 11.8154 30.4805 13.5385 30.4805 16.7385C30.4805 18.8718 31.4405 20.2667 33.4405 20.2667C34.1605 20.3488 35.0405 20.1026 35.0405 20.1026Z" fill="white"/>
<path d="M12.079 13.3744C10.959 13.3744 10.079 13.7026 10.079 13.7026L9.83898 15.1795C9.83898 15.1795 10.559 14.8513 11.679 14.8513C12.239 14.8513 12.719 14.9334 12.719 15.4257C12.719 15.7539 12.639 15.8359 12.639 15.8359H11.919C10.479 15.8359 8.95898 16.4103 8.95898 18.3795C8.95898 19.9385 9.91898 20.2667 10.559 20.2667C11.679 20.2667 12.239 19.5282 12.319 19.5282L12.239 20.1846H13.599L14.239 15.5077C14.239 13.4564 12.639 13.3744 12.079 13.3744ZM12.399 17.1487C12.399 17.3949 12.239 18.7898 11.279 18.7898C10.799 18.7898 10.639 18.3795 10.639 18.1334C10.639 17.7231 10.879 17.1487 12.159 17.1487C12.319 17.1487 12.399 17.1487 12.399 17.1487Z" fill="white"/>
<path d="M15.8398 20.2666C16.2398 20.2666 18.3198 20.3486 18.3198 18.0512C18.3198 15.9179 16.3198 16.3281 16.3198 15.5076C16.3198 15.0974 16.6398 14.9333 17.1998 14.9333C17.4398 14.9333 18.3198 15.0153 18.3198 15.0153L18.5598 13.4563C18.5598 13.4563 17.9998 13.2922 16.9598 13.2922C15.7598 13.2922 14.4798 13.7845 14.4798 15.5076C14.4798 17.4769 16.5598 17.3127 16.5598 18.0512C16.5598 18.5435 15.9998 18.6256 15.5998 18.6256C14.8798 18.6256 14.0798 18.3794 14.0798 18.3794L13.8398 19.9384C13.9998 20.1025 14.4798 20.2666 15.8398 20.2666Z" fill="white"/>
<path d="M48.8001 12.0615L48.4801 14.359C48.4801 14.359 47.8401 13.5384 46.8801 13.5384C45.3601 13.5384 44.0801 15.4256 44.0801 17.641C44.0801 19.0359 44.7201 20.4308 46.1601 20.4308C47.1201 20.4308 47.7601 19.7743 47.7601 19.7743L47.6801 20.3487H49.3601L50.5601 12.2256L48.8001 12.0615ZM48.0001 16.4923C48.0001 17.3949 47.6001 18.6256 46.6401 18.6256C46.0801 18.6256 45.7601 18.1333 45.7601 17.2308C45.7601 15.8359 46.3201 15.0154 47.1201 15.0154C47.6801 15.0974 48.0001 15.5077 48.0001 16.4923Z" fill="white"/>
<path d="M3.03945 20.1846L3.99945 14.1128L4.15945 20.1846H5.27945L7.43945 14.1128L6.55945 20.1846H8.31945L9.67945 12.0615H6.95945L5.27945 17.0667L5.19945 12.0615H2.79945L1.43945 20.1846H3.03945Z" fill="white"/>
<path d="M28.6388 20.1846C29.1188 17.3949 29.1988 15.0974 30.3988 15.5077C30.5588 14.441 30.7988 13.9487 30.9588 13.5385H30.6388C29.9188 13.5385 29.2788 14.5231 29.2788 14.5231L29.4388 13.6205H27.8388L26.7988 20.1846H28.6388Z" fill="white"/>
<path d="M38.8798 13.3744C37.7598 13.3744 36.8798 13.7026 36.8798 13.7026L36.6398 15.1795C36.6398 15.1795 37.3598 14.8513 38.4798 14.8513C39.0398 14.8513 39.5198 14.9334 39.5198 15.4257C39.5198 15.7539 39.4398 15.8359 39.4398 15.8359H38.7198C37.2798 15.8359 35.7598 16.4103 35.7598 18.3795C35.7598 19.9385 36.7198 20.2667 37.3598 20.2667C38.4798 20.2667 39.0398 19.5282 39.1198 19.5282L39.0398 20.1846H40.5598L41.1998 15.5077C41.1998 13.4564 39.4398 13.3744 38.8798 13.3744ZM39.2798 17.1487C39.2798 17.3949 39.1198 18.7898 38.1598 18.7898C37.6798 18.7898 37.5198 18.3795 37.5198 18.1334C37.5198 17.7231 37.7598 17.1487 39.0398 17.1487C39.1998 17.1487 39.1998 17.1487 39.2798 17.1487Z" fill="white"/>
<path d="M42.4787 20.1846C42.9587 17.3949 43.0387 15.0974 44.2387 15.5077C44.3987 14.441 44.6387 13.9487 44.7987 13.5385H44.4787C43.7587 13.5385 43.1187 14.5231 43.1187 14.5231L43.2787 13.6205H41.6787L40.6387 20.1846H42.4787Z" fill="white"/>
<path d="M140.092 4.82859H135.503C134.115 4.82859 133.048 5.26668 132.408 6.69049L123.656 27.1714H129.846C129.846 27.1714 130.914 24.4333 131.127 23.7762C131.767 23.7762 137.851 23.7762 138.704 23.7762C138.918 24.5429 139.452 27.0619 139.452 27.0619H145.001L140.092 4.82859ZM132.835 19.1762C133.368 17.8619 135.183 12.9333 135.183 12.9333C135.183 13.0429 135.716 11.6191 135.93 10.8524L136.357 12.8238C136.357 12.8238 137.531 18.1905 137.744 19.2857H132.835V19.1762Z" fill="#3362AB"/>
<path d="M124.083 19.8333C124.083 24.4333 120.027 27.5 113.73 27.5C111.062 27.5 108.501 26.9524 107.113 26.2952L107.967 21.2571L108.714 21.5857C110.635 22.4619 111.916 22.7905 114.264 22.7905C115.971 22.7905 117.786 22.1333 117.786 20.6C117.786 19.6143 117.039 18.9571 114.691 17.8619C112.45 16.7667 109.461 15.0143 109.461 11.8381C109.461 7.45714 113.624 4.5 119.493 4.5C121.735 4.5 123.656 4.9381 124.83 5.48571L123.976 10.3048L123.549 9.86667C122.482 9.42857 121.094 8.99048 119.066 8.99048C116.825 9.1 115.758 10.0857 115.758 10.9619C115.758 11.9476 117.039 12.7143 119.066 13.7C122.482 15.3429 124.083 17.2048 124.083 19.8333Z" fill="#3362AB"/>
<path d="M72 5.04758L72.1067 4.60949H81.2851C82.5658 4.60949 83.5263 5.04758 83.8465 6.47139L85.8743 16.3285C83.8465 11.0714 79.1506 6.79996 72 5.04758Z" fill="#F9B50B"/>
<path d="M98.7873 4.8285L89.5022 27.0618H83.2054L77.8691 8.44278C81.7112 10.9618 84.913 14.9047 86.087 17.6428L86.7273 19.9428L92.4905 4.71897H98.7873V4.8285Z" fill="#3362AB"/>
<path d="M101.243 4.71897H107.113L103.378 27.0618H97.5078L101.243 4.71897Z" fill="#3362AB"/>
</svg>
