<svg width="64" height="45" viewBox="0 0 64 45" fill="none" xmlns="http://www.w3.org/2000/svg">
<path fill-rule="evenodd" clip-rule="evenodd" d="M8.46507 14.794C10.8118 11.8867 13.974 9.85091 17.4339 9.10218C20.9036 8.35136 24.4295 8.95116 27.3668 10.8285C30.2989 12.7025 32.3981 15.6904 33.3525 19.2122C34.3056 22.7295 34.0663 26.58 32.7123 30.1019C32.3612 31.0153 31.336 31.4712 30.4225 31.12C29.5091 30.7688 29.0533 29.7436 29.4044 28.8302C30.5035 25.9714 30.6775 22.8905 29.9319 20.1391C29.1875 17.392 27.5843 15.1734 25.4583 13.8146C23.3374 12.4591 20.772 12.0058 18.1835 12.5659C15.5852 13.1282 13.1084 14.6839 11.2227 17.02C9.33656 19.3565 8.19428 22.2878 8.00144 25.2877C7.80862 28.2872 8.57854 31.1147 10.1103 33.2939C11.6365 35.465 13.8307 36.8734 16.3063 37.3164C18.7877 37.7603 21.4653 37.2174 23.8687 35.7035C24.6967 35.182 25.7908 35.4304 26.3124 36.2584C26.834 37.0865 26.5855 38.1806 25.7575 38.7021C22.6727 40.6452 19.1067 41.4176 15.6821 40.8049C12.2518 40.1911 9.25395 38.2382 7.21103 35.3318C5.17377 32.4335 4.22502 28.7909 4.46483 25.0604C4.7046 21.3304 6.11867 17.7007 8.46507 14.794Z" stroke="white" stroke-width="1.2" stroke-linecap="round" stroke-linejoin="round"/>
<path fill-rule="evenodd" clip-rule="evenodd" d="M40.5055 3.28636C43.7189 1.38017 47.3925 0.575037 50.8963 1.08006C54.41 1.5865 57.5053 3.37838 59.6034 6.16228C61.6978 8.94127 62.6231 12.4737 62.2892 16.1071C61.9558 19.736 60.3885 23.2613 57.8913 26.0898C57.2436 26.8234 56.1238 26.8931 55.3902 26.2454C54.6566 25.5977 54.5869 24.4779 55.2346 23.7443C57.2617 21.4483 58.4994 18.6216 58.7602 15.7829C59.0206 12.9487 58.2918 10.3102 56.7733 8.29523C55.2584 6.28515 53.0121 4.96555 50.3908 4.58772C47.7596 4.20847 44.8957 4.80263 42.3136 6.33433C39.731 7.86634 37.6381 10.2152 36.4111 12.9595C35.1843 15.7033 34.9197 18.6218 35.5952 21.1984C36.2683 23.7655 37.8335 25.8508 39.9992 27.1293C42.1699 28.4108 44.8688 28.8359 47.6492 28.2553C48.6072 28.0553 49.5459 28.6697 49.746 29.6277C49.946 30.5856 49.3316 31.5244 48.3736 31.7244C44.8048 32.4696 41.1934 31.9497 38.1975 30.1811C35.1966 28.4094 33.0682 25.5336 32.1672 22.0972C31.2687 18.6704 31.65 14.9256 33.1758 11.513C34.7015 8.10079 37.2927 5.19224 40.5055 3.28636Z" fill="#545DC2" stroke="white" stroke-width="1.2" stroke-linecap="round" stroke-linejoin="round"/>
</svg>
